<mxfile host="65bd71144e">
    <diagram id="48HLMUwIlZQZfhe-BA4o" name="Page-1">
        <mxGraphModel dx="1663" dy="553" grid="1" gridSize="10" guides="1" tooltips="1" connect="1" arrows="1" fold="1" page="1" pageScale="1" pageWidth="925" pageHeight="925" math="0" shadow="0">
            <root>
                <mxCell id="0"/>
                <mxCell id="1" parent="0"/>
                <mxCell id="2" value="" style="shape=image;verticalLabelPosition=bottom;labelBackgroundColor=default;verticalAlign=top;aspect=fixed;imageAspect=0;image=data:image/jpeg,/9j/4AAQSkZJRgABAQAAAQABAAD/2wBDAAgGBgcGBQgHBwcJCQgKDBQNDAsLDBkSEw8UHRofHh0aHBwgJC4nICIsIxwcKDcpLDAxNDQ0Hyc5PTgyPC4zNDL/2wBDAQkJCQwLDBgNDRgyIRwhMjIyMjIyMjIyMjIyMjIyMjIyMjIyMjIyMjIyMjIyMjIyMjIyMjIyMjIyMjIyMjIyMjL/wAARCAQAAwMDASIAAhEBAxEB/8QAHwAAAQUBAQEBAQEAAAAAAAAAAAECAwQFBgcICQoL/8QAtRAAAgEDAwIEAwUFBAQAAAF9AQIDAAQRBRIhMUEGE1FhByJxFDKBkaEII0KxwRVS0fAkM2JyggkKFhcYGRolJicoKSo0NTY3ODk6Q0RFRkdISUpTVFVWV1hZWmNkZWZnaGlqc3R1dnd4eXqDhIWGh4iJipKTlJWWl5iZmqKjpKWmp6ipqrKztLW2t7i5usLDxMXGx8jJytLT1NXW19jZ2uHi4+Tl5ufo6erx8vP09fb3+Pn6/8QAHwEAAwEBAQEBAQEBAQAAAAAAAAECAwQFBgcICQoL/8QAtREAAgECBAQDBAcFBAQAAQJ3AAECAxEEBSExBhJBUQdhcRMiMoEIFEKRobHBCSMzUvAVYnLRChYkNOEl8RcYGRomJygpKjU2Nzg5OkNERUZHSElKU1RVVldYWVpjZGVmZ2hpanN0dXZ3eHl6goOEhYaHiImKkpOUlZaXmJmaoqOkpaanqKmqsrO0tba3uLm6wsPExcbHyMnK0tPU1dbX2Nna4uPk5ebn6Onq8vP09fb3+Pn6/9oADAMBAAIRAxEAPwC/nNKoJ6cVXjlxwR0qRLj5sBa4DtLWMR4zzVC/lEUbEhSGXBzVsSk9R+tctrGsuk8iEo0I+7isqs+VCbsYiW91Bq4nUpIkZyGP9ak1LWBIX/eZPUIOxqveX+UhaI9Tg7TnBq9Pp8JtfMa1DORyw6n3rnc9uYy9BtrG5sIpJRIS5BzjPetfxPDJcG3e3UlpYlIFZ/24WMSRKqhNucknitTUt15o2mTq2HZSoKnFbYZ6yRFToY1joxubOSXUPNgZThGXp7kiqHkNp19CVuy4d85PzAiuuFzcxWEkCQr8sRBZSDn1JrzltRkileGX95EHyPY+1Y0JTqNlztGx0V7LqEC7oiH4JweDiof7PN5HFczy+RK+AT2q1pzC/iW5nY+WGABB5xT9dutOljEdspikA4zxSUmpcq3FbS5XbSrhrOWMTI4GdrL/ABVseCPtsdpNFM2YVb5Bnoe4rjPN1GNCcsqIduQOo966Lw/4kS1tnh8pQ3Vhn9a6UpRV3qKDXMdyu5m/pT0PUEc1nadq9pqEe+GZc91PUVeEnz8YNWmbkgmC5XFTCTeuOeRVVDu3dKsQyELwoz70wPPL6PZfzp6OahAq5q6ldVnVhyXzVb0rZbGYvakUY5pccUdqYDs8Ckkj7ilHIqfBKjNMRR21HJErjDD/AOtV1ou9QMpFFx2Mue3UOA67gDkGr8reXpRVCRGGBIB5B9aJVUjnpVZkKEIxJiJ5qk7k2sanhtZjqsCyNna4YPj71UdcXGvXgP8Az1atnQC730ESxkwI4Kt6HNZXiGPZ4ivFP/PTP6V1UdjCruZR4an+hpG60vXFbmQHrQe1I3WloARqQO8bhkYqw6EHFK1BHSgDtvCGvXV9eiwuiJPlyHPXiu58hc9K8v8ABR2+JYvdSP5V6tnmt6cm46mM0kyMRKO1BjHpUlFaXIIxEKPJHapRTgwQhmGQOo9u9JuyGld2Oc8S6blopvNK+VhyuPp/9f8AKtS3XzIEcdCoNR66wmt5HPOQcj8//r/mKTQ5xLpUJPUDBrno1JSk7nXiaUYQVi4IjTvKNTrtp4xXRc47FbyfajysVZJAppdaLhYg8v2o8rNSGZRTDcJ607MLoheH2qvJAKtm4U96jMinvVq6JdigyYqs9aMgUiqskWa3gzGSKDDmkGateSfSm+Qc9K6E0YtEQNPBqRbcntUgtiD0pNoaTK/ING0mrgt+M4p3lj+7S5kFmU1VhTwjHtVsQj0o8r60cwcpVEeOtIV9KnMXNIFwafMFiHy2ppjNWgQKkXY3XFJzGoFEREnGKcLMk81oIijnIqQtGvLMo+prOVU0jTKaWXTipfsY/u1N9vs0+9cRD6uBUba1pacG9hz7ODWDrLuaqn5HO+Krv+zLIJGwWSSvKrud7q72g5Ge1dR4svrjVtU8m2jeSRRgbRxj1ql4M0CTVNbVJVISI5fjpXiYiv7Sbmz16VP2dNQR6L8PvD62OnC7lT99L0yOgpPHesfIumQt7y4P6V1F5cw6NpLzcKkSYUe/avI7q4ku7qSeU5eRixrmoR55czLqPlVkQ4xGfpXpvg28jg8KRlmA2M2frkmvM2+4RWxptlqGpaNdwxTGK1hXLN6knoP1rbEq8DOi7SOph1+HXPExs5Mmzt42lIPAkcYwPcc10mo/8S7w1GYkUFNpVQOMk1xviPT2tvF+mTwkRo6xxNgYBBPP8q6/xFIv2SCAH78yKB9Of6VwOyWh0rVmpau32Eu33mGT9alh+WEZ9KjiAFpz6Gue8Ta59ktxZWzZuJB82OwqCyhr+rHUtTh060YmMSDeV781091cQ2kKCaVIgeAznA4FcpotvHplxbG4G6+umwqn+Adc1reLNAOv6cluJvLZWyD6042vqJ3toXtL1+CbSjc4jwS4VvUAkZqe0O6zjb1Ga4FVNpaWmmKSNu2EdsnvXoUMflwog6KAK1qyTskRTT3YhFRt1qZ+MAVERisTQiUfMTTHAJqboDXKeNvEQ0HSWER/0qYbYx6e9NK7sJuxi+M/G66YXsNNZXusYeTqE/8Ar15ZcXM95ctPcSvLIxyWc5NI7PNI0kjFnY5JJ5JpNuK7qdNRXmc8pOQClzSZ/wA5oHuK1JLdlMVmVc8Gn6weI1PT6VRUlZVI9au6ywe5j4/gBNQ171y7+7Yoo2DnjircUbPy3yqfU1Xt1Rcswz7Vdhiluic5Cj8hVEgGUj5ckduKKs7LFPlZmYjqVBxRQFz0ra2RxTogVk5FCOHUEjFOkkjjG53VV9Sa4bpGpYXGeelefawJBMRCm5XYkqDXTX+uPbSBYIklVu+6uU1WUsftUOF8wgMg/hNc05KUlYmbLlhp8zWMht4CpQgkMOv406WW+tLcXpt38o/JuABqYag1pY2sLSBpMErgdfrWPN4kmZntpXMeDlfTP0rnVOc5bCbSRa06WPV7g/aoxuj/AIema6aeWK58NKI02C3mKY9OK5DTZ5DZ3dzsDO5wshrd8Oq0nh3UY5HDkSCQj0NdmHjaqY1H7pk2ety6dPdvIzbGQoMc81z8k9tLFJI6Yd+nNaN9ZKZwEkBMjHKtWadNmcPGFOU5AFbRpRi2+oNto0NPuIbWyzGXMjAkhRwKoz213dMjRpLKD0IBJArQhQWloxEiGU8BSOlMi1+6tpxGWAfGDtPFQotSbihvzJDqU8FmsJ2tFjDhuv0rN8ou5uLcr5f93NNmuftDyERlTu3H0NPaKaGBLlwI45DjFaxjZE3JZjmUSwSmD5ckA960NO8RXtoyGWZ5SPU8EVmW6Ce52ghhjkHtVIo8M+0sdnODQ4XGpM9k0m9j1CwS6QYDjkehq/Cc5GO9cZ4P1KK30ZhcvsQPhSehrsLaeKVPMidXX1BrO+tjpi7o5PxLHt1iT/aUGslcit/xOoN/G2OqVgEYNbx2Je5IGGaDjFR4yR2NPB45qhDlq0BmMGqsfzU5ZWjBV+nY0mBORkYqB48mrC4IznIpjLnpQBSlTqKaVBHIBq068e9RvHgZFCYEVncvpt7FOuWjRwxX2pmtT/btTuL2JGELsME/SnMmQQf1qpcRyCJlRm2nqAa2p1OVmc4XKzdfSg9BTp7hZZUZowgCgHb3phJbJwQvaupVIswcGKTSk8CmOwUgZ607+EVZFhW5xSnoKRqVui0Aa/hN9nia29yR+ler78GvJPDOR4ltPdj/ACNetbTnpW9HZmNTccHFIXxSbD6UpQ+lbaGYebijzwaTyz6U0xGjQNTOvIpZ0dCwEa8g9z/nj8qn023jsrURRkkHnmpJoz5T/wC6aWJT5SfQVnGnGMtDWdWco2ZcRx60/wAxfWqw6UjdKuxncmedR3qtLdYHApjKc9aaUz2rSKSIbZE07t0qPe5qyE9qcsQ9K1UkZtMp7npVkYVfECntTxaIe1PnQuVlVHDDmpAqntVkQxr0WgqB2qeZDsVjCvYU9YR6VOEyOlBG2jmCxGYlWo2AHapTyadsBHSi4WIFye1IV56VZWI9qXySTRzBykKx5FY/iTVH0W0jlRA5dsYNdBsIriviCx+z2y54DdKyq1Goto1pwTlZmPJ41vm+7DEPzqq/izVH6PGv0WsbjFJlfUVwutUf2jq9lBdDTfxFqr9bkj6ACoTrGpN1vJfwaqRZR3o8xP71J1JPdlKEexYfUL5/vXcx+rmq7SzP96Vz9TSGaMDOaTzVIyMn8Ki5VhQz4+8351d0+T7K7XjqriPor5wxqgrlmCqhJPArQ1Z47DTEg24kxl/rWNaVlbub0IXfN2H6v4xV5DHpsCxzOMPKRyPpXoHw+0r7LooupBme5O8k9cV41Y27Pmcjq4r3P7cmh+D4Jm+/5Kqg9SRXLVjokjZT5m2zA8bav9pu106Jv3cPL47muQPBp8krzSvK53O5LE1ETwK6qcVCNjnlLmdyzZ2s19eRW0K7pJDge3vXqsukR6Z4Tawg4Z9qFvViRzWT4D0QQ2x1GZP3knEeey10euXcduLOAkbpJg23vgc1xVqnPKy2N6ceVXMLxpHELzT9xzPFEZFA7kMvX25p15NLdeIdMgPSJC7+m7FReJJFhluL6QE3RtfLjQerN8oHvkD9KS2RdFez+2y75Y7UtLIx5ZiQe/41lLY0W50WralHpelGRmHmMuEX1NcbatHaQSa1qZ3yEnyo26k1L551u5k1K9by7GD7oPfHaodNtJPFWsfaZ1KWER/dp2asjQ0fDGnXWo6l/bl9kE58pPQV18w5+gzT4Y1iRURQFAwAKiuGwkh9FpPYDmvsZvNYtHb7qSNIfyrpyTk4qppsKiFZGHz+tXAAKa2EyNhzURznrUzc1E3FMBjlVUk9AMmvB/GesNrHiGZt2YoiUQdsCvZfEt4bHw9eTqcMIyBXz4SXZmPUnNdFCN3cyqPSwg5NSIjSOEWoiOfetOxVI4w5+YnriuqTsjOCuzPkhaNyG/8A11DyO1Xr6Zd+xOcdTVI85NOLuhSsnoIDuYD3qW8ffcnIPAAqbSbF77U4okXIBLt9BzVS4bNzMe2TR1C+hatYIxF5052qegz1q0JZroiG3TanoByarWtpLc7XlbZGB1PpWvbbj+40+P2MhFJiuNXR4woEkqB+4Jordg8FX80KyMhywz8zgH8qKQjR1KSSOAG2lAdfvKciseLV/tJMFyGEmMEdd3vVDWLmWeFtkpO75gS1c/vuSofzMsn3STzXlRpuom2Nz1NfUZHutQW1gcq3AQtxVlbY2gRJZTNIey4IJrPt7kSyQ3M4zKHAOew9atyW8cWqxlJGYMSdpbpQ4te6C11LE8L3FtHcY8uRGICNxg1h3MM7yr5yo2/ofeugknS506ZLiLYQ3DknIrCiZXk8nlkHPJ5FaYfmCRq6dI1rpswkTAJ6D+lbXhVQz6gEzsmt92CehH/66ybfTniVBI4a265J7elavhueKLxAsETfLKjqR+FXdKqiZr3dTC1K2jeV2WXbOMFQTwagsb6GBgszOdvBYN1p/iaNor0YB5yOPrWXYJBO7LO2xs9COtbzhe5MTQeOGYyyxxsxzu68UWllbFDdXMbA7s4zwBVi/hWxm2w8RsmcA8e9VporiWywsqjfgLGOSRWcr2tcpkOoX0Ed4TaoFhwBgVJco9xbcN5hAGFPYVQltioSJ4yCpwWx1qQxzRyI8b/LjBHerVkkhXFs4lZy0cZDKPzpbzAtixGHQ4Ap+nyN9peEkDf3qxJb+V5n2lMoR8re9UJLQzormU26J5hCddueM16L4NjWKwaVZjIZDyM8CvOnjVpBEvGe/avQPCERs9MKk53NnntUNLc0pblvxRy0Lj0IrnQ2QK6PxEDJaxt6NiucWrjsaS3HYBI4oIoBwaU8mqEETbZParA2upU4INVgMOMiqt7NLDcK0RyMZK9qcY8zsiW7K5dTfDkKcp6VOkiuuVNUbW/juDg/I46g1YePnenytQ1bRjTT2JZBlCaaoG3mmCbI2Nw2Pzp4bKgGpGRyIOoqs654q2TgUwoGWi4GcYRv34GR2Per+lWVnqNzJFOXV3HyBexqFlwaajSW9wk8LlJUOQwq4ys9SXG60LWr+Er7TFST/XxkdVHI+tYDtIikFDuHY8V6RoniGHW2WxvW8qcehwHq7q3h2x1EgG32svG9O9dkdVeByvR2keWhsqCeDTyeldBq/g650y3NxE/nRckjuormYnZhh+oNVzWdmCV9jc8L4/4SeyJ/vEfoa9jCpXjPhtwPElng9HP8jXsQJzW9LVMxqaMlwvpSEL6VHvNHmGtbGdx+0elIQPQU3eaTJNOwrjJkHlP/ALpqKMfu1+lTsrFG/wB0022hZoV+lJfEN/CMAzThFnvVgWbE1L9jYYyau6JsUmixTPLFaX2Me9OFmFGQKOZBYy9gHapEC9xWgIcnBUGni3HdaOYOUpiJD0p/lgdqueUgHNKETHSlzBylLaPTigmPHIq06r0FRGIGncLFcsgOAOKjkG7pUzw88dKYBg4xVJk2IdmKmULinhA3arCW6kdKHIEiJItwzipBDipwAgx2pC6+orNyZdiu0YxXl3xGmJ1O3t1JOBnA9a9TaQZxXkfi2Y3HjSNEG4qygA9+c1jWb5TWmtTBj0q+kA2Wcp/CnQ6LqE+THZudpwa9Rt0vjGu23iHHc1T0qC/KOQYl3SE9K5rF87POrzS7zT0Vri22humafpWlXOr3DQwKqlRkk11XjxJ447VZXQ5zwoqn4JtpZry5eK58naoB4zmgq/u3M3WfC93pNgLmWVGG7GBWGofy85H5V3fjmGSHToA98Zsv93gVw6rlVA78UFRd0dGvh1bfTVvZZyWK7tuK4/U53vL0R7ixzjrXWeIdQitLJLeJ2OEAOTWd4H0RtZ1xZHXMSHcxNclSSu32OuKcYcvVmze6DHpPg6wkkXE8sgY8eta/jmV4306zDfu0hBx79K2fHFobj+y7KJcs0gCqKwPHR/4n0aH+CIfzNZ0nzSVxTVkzmc4UmtXw3pK6rqSecwS2j+aRicD6VnwQSXcyW8SlpJDtAFenx+ELYeHY7J2dSPncxnBc1rWqW93uRThfU0117SLWMRQXCSuvyrFD8zH8BVaSNIJW8Qa2QjouLeAn7g/xNZGnQSeG5ha2mlxvPLlg8so3ACr8Wn3Go3v2vVpFuJF5it4/9XH7n1rjcbM3vcxdIjuvEPid728VltIX8wK3Rmx8o/Ac/lT/ABfCZ9dt42fZCV+c+grobMiS/jjjIEKOSSP42/8ArVV1e0+039zO4yiqY1B9aib1LitDmrdX8S3cemWWU0y3PzsP4q9AtLOGyEcEKBURMAAVR8N6TBplj5cKgZOWPqa2Cf33H92oKHjheKo3bEW0hz1461eP3eazb8nyMf3m4qWNFm2TZbr9KlPWmINsaj2pTyapCGmo3xUpHFRsKYHJ/EB/L8KTgdzivDhXvnjOyN94auo1GWUbhXgZBVip4IODXVh3ujCr0F96ckzx52nGRTOlNOQK6TMCxJ5603oc0mc1u+FvD0uu6kqsCLWM7pG9falKSirsFq7Gt4esf7P8OX2rTrh5YykQI5x61x8Sb98rDI3ABR3Nen+N3S08NC2iUKpIUAelcFpYtoI1muj8i7nC/wB49BWdJt3ky5q2hqaLoV7r0m7aRCDj0Vfqa6trrSfDCiG2QXl+BgAdF/wrJttV1HU7WLTtLha3twMHYPmf39q14NE0zQIPtOsTK0h5EIOSx9/WqIM59W8QXLmYXLIG52pGSB+lFX28aXe4/ZdMRYP4AeOKKLi1OIuvs8qMkMgUJ/yzf1+tZ9tF9pn8uMfOeAD60l6im+kmTiPPGKuWsAmQGOMiUn7w6CuRWhHUndliS4n0wLFNAh28YI4b3rTgikvrZdRZYYUi5AbAL/SiR7Z9MS3vQZJ0bhvQVWvIWisGWAiZUAwQeg9MVzSak9DRaFK+uJbjIWVWick56EVVdCqJMrKXUfMansLfdI6T/uxt3HipxYq7YDDawyrD+VdKlGGhOrEs9SnOIJQWRv4R2Fa+iytBrsB2gIswXLdeeKhtNLEJjunyjhSCFqu900d5BksCsqthhjoa53UjOr7gNaal/wAU2jtqEvlrkpIeKzJNOto4VadzFM654FdP4lwuoMxJUSBTn0yOtcbdQybiTcLMQSFGecV0VuZ1LJ2Jh8ImpGSNI3eUkMm35T1HvVR7j/R4wr8KOxpC3nR/eK9sGqqMUyu0E/zq4x01E2X21AyWwjdAxH8Xet201jw2LFIriykMm35nLDg1zcbbGGFBBHIongjdl6qT2NXBqL2E1dFq/itI5zJZzF0PzKwPSrV3qImjjRVDgAE59axIVEJKZzz+dWT+72yRYw3BUnpSlvoCbSHzurR+aqAL6r2rd8I6hcG++zM26LbnntXOl2XIIG1uq9jW/wCGnhtLxlLgO4+UGp23Kg/eOu1rmwHoGrm63NSuN9m0R4brWIOlVDY3kHSgnBFKelN61Qh+47hnmmNCLiYLnDFTg0dCKkhdkuUwAc8EVpTdpIzqK8WYEyyLcbCcEEjIq5bajJEQs2WTpuxTXC/b8EbgWOM1DcJ5LphsrnOK6pQUlqc8ZtG1GyTLxhhQ26IAZ3J+orHWV4J98TYBGdp6VsLcxuqhiAzDODXNOHKzohNSHghlz2NN6d6YMoxKce1KGBODw3pWVixSoK1C64qcnHFJ1PNAzPdCsiuhKupyGBwQa7Dwx4pke5Sy1BxvbiOU8Z9jXLypVeSPIzzmtac3F3REoKSPVLzUtMt1ZLm4Q7iQ4JzXKS6N4f14P/Z8vk3Azhc4zXNWlyA/lXCmQPwG7g1b8nyJMqCjDoRxXUqqnujndNx2EGh6zouoRyRW/mujBlZRkGvQdK1TVbqeGO405oFI+dmP8q5Wx8SX1k6+Y3nxj+F+v512uj+JbLVHWFdyTH+BhW9JRWzManN1Rr7BmgxgCpGXFRsOPvCuqxgRkYNKp9aNo6lhT1EY6kGmImVEaFznnaf5UkEQW3Qhu1MLRqrfMANpp1vLH5Cd+Kxa980+yOkkMa/K2arveXB6dKtFkao32kYAFWkSVDdzg8tTvt0xGKcyAU0bQeaqxN2NW/uEORz9alXVJO6ZprFCOBUeEp8oXJv7SYnlOKeNS4x5dVvlB6U8AY6UcqDmHyX4P8GKfFL5gwGquUBPNSrEo5Xg0WC5PgA5JNBbj5UpV5AzSPKF4NSMavmk54FK0kg43YqB7nstVnllfoadhXLTtIWI8zioGmMZ6k1XxIP4jRtY9TTsBYW44LE9BmvI7uY3fjNnV8EzYB9MCvULhjHbSt6Ka8WlmLX0kgOGMhIIrnxL0SNqPU9ZV5hCxbUMYB6AVn6U0ItEeTUmUliSAwFedNdSHrM5/E0zzgABk1ymvIdT4xuYpbuBY7kzKq92zipPBzaaqXLXsoQ7gAC2MjFcj5gJyQTSeZzwpoK5dLHXeMrjS5IrdLB1dwSTtOeKwtPhVnEsiny4+Scd6zHc7vu9qtfbpY7F4IyQX61E27aGtJJPUpardPqOohF5GcDFe0eB9Gj0TQBNMoV3G9yfSvOfAPhx9T1nz513RRHJ9zXonjfVRYaULCA4klGDjstcM9Xyo6b3vJm1ZW66rc2urPjYiHy1+vevOvGzmTxPPz0AFem+HE2eH7FD2hX+VcO2kNr3ji4BX/R4mBc+vtUUpKLcmE1dF7wJ4fKL/adynLDEQPYetdF4nu5raxWCKGRjP8vmIcbPc1tQwpDEsaABVGAKleNJYyjqGU9jU87cuZlcto2RxPhrwpbS3B1C6u57mVCVG5iBW1q17HGjWVrtjQDMrr2H+NOubmPR7SS3t1Ammdti+gz1rkb66aRvs0RLFjl2/vGnGLmxN8qNTQbo3WvAIMQRRnaPxHNa98AEQHq75NReH9KNhaPO4w7rjpTrq5iF9HAzDdjgVNdWlYqk7xuatmu2AZpxx9oI9Fp0Q2oo9qjHN0/sBWJoTOcJms275eBSc5bOK0ZD8prOl5voFHYZpMEXeMUlOxiiqENNMI5Jp7fepOopgQyRrJGyOMqwIINeL+MvB9xpt7JdW0Ze2ckggdK9sbhahliSVCkihlPVWGaqMnF3RMo8ysfMzBlOCCD9KbtdjhUZj7CvoObwlok7lnsI8n04p0uhaTplrugsoUJPUjJrf6w+xn7I8k8O+Br3VGFxeo1vaj14Zq9Gi0+DSbOAWsSxxKdrBepFaJmCR75G2qBwPSsqa785yq8oOBkVlKcp7lxionI/EqcKtnAgwuSxrlLSyjvJoFmlEUK4BYnp3NX/ABtdNPrSQ7siJAoFUNE0ubWtVCbsQKckngACuulpAxnqztP+EhhtoBZeHrbAA2tcMOv09ansfDM1wTf6vcFF+8XlPJ+g7UDUdH8PL5VpELy8HHHRT/SqyW2teKZw9w7eUD9xThF+p70yTTOs+F7c+SsBlCcb9pO6inr4a0mFRHLqEYkXhgMcUUCPNZYGMMqkgNuzt9K1RPHp9pAigSKRyQe+Kx7x5hdGNTn1+laCW26xXzWGFy4J4P0rinFSS5hIoW+tSNfhZx+7Y4IxjFamoXjK5RIlU7QBtHX/AOvWQUgmcLgHng45FNBuEnQncyjgsOat0o3TQJvYuR3k8cBHDDPIb0qZ5I45oLhJt8K/eQHpRPbXDLCgUmJ36+maty2OmW9uEeV95P4VjKcE7PqPUdfarGjW+CWUDPHSqci3V/NHcAAp1GOcY9aSW3W8jEVowcxdyMcVPYQNp9tM1xIMuuVTNYqMYRvHce71Oo8S/Nb28zKrb7cE+ma4ArDOpBBVgeTnH5V3dzJ9u8J2E5IJ2shrgHb+Bvlw2K9CUW7SMYvdEToIpShk3JQASRs2k5796c0QWY4+YEflTY4mZ85AWmMm/dKpbJD+lAbzTwQzL0zVWYNHOB1XrVuGVQG4XJHGaVhpkLurPll2leCBSgrEQ2SVPXJ6UrI7xHJBPrUSkhRGy5FUInCrGvzncr9MdqkDiC8gkEmQhBpohPlADlf5VTD4dc/NtpPXYL2PQGuI9RtN6cSp1HqKpleKxdLvZDKBn5cdq2zRE3TuR5I604YNBFApjAj5qhuHKbHBwVPWpiMe9V7r5ojkZx2q6fxImfwszL955LpZo+MEdPWpbwMYYZGGDjmmFhhxhl+opzsGtPvE+xrvscIt2FDI5HBWppo/MtYmzjC8GnXMQltAMc7BxUjQGSxXHAVelRNe8ioP3WQwXEseBKCwP8VXVZZVGD9CKpvb+TbW0gZjuONtQeb5U4Vcqc1nOkuhpCr3NTJH3vzp4PFQpOsiYfAbOMGnHK9BkelcrTW50p3Hvg8VWkGKnD7jxUD9TQgG20LTXcMS8MzgDNdzL4PupgrGZAcYrj9NKrqlozMFAlXJPbmvZPNtBgtdxDj+8KuMrESVzio/A8x+/cqPwq9p/hT+zb6K6Wcs0ZzjFdL9u01Thr6L/vqmPq2jqPmvo/zq/aMjkI5p5mPyp+tVibkr0H51O+t6Go5u1P0qFvEmhL/y1J+gq/b1H1F7KJGI7gtkkfnWYuoXH9oXNtgZjwR9K0W8V6Mv3Q5+i1hv4l0eDWZp2hl/eqP4aPbT7h7OJFea1fQSEYXGMYNVIPFV1AFEkeVHoau3Wv8Ah+5BDQygnvtrnrmbTpS3lSMo7ZFaQqyve5EqatY7fSvEMWojarYkAyVPWtQzt615NY3T2V/9ohfJU9PUelenWF1Hf2aTxkEMPyr0qFVTVnucNam4u62Lf2jjmjzgarlDT4lzwa6HFGKkyXzKTeKQxMelRvGyikkh3ZLv96cJSO9V4lJbmp0UeYM9KGrAnck+ZjxUyI4HNXY7ddgNOMVYOZqolYKT/Fijyk3ZY5qzIqQQtLLhUUZJNc23jLRzP5SyksTgYFZSrQjuzWFGc9Yq5ttHHngA0ot1I4FURq9vgHZL/wB8GpBrlqFxtk/74NL28O4exn2JzbqecUw2verFpLFeQebE2VqV14q+dNXRPLbRmDrCfZ9KuZD2Q14tZWcuoX3kwAbmJPNe0eLXEXhy6OcEoRXlXhWPzNZH7zYQhOa5qrvJI1pqyZZl8G6jFbvMWj2qM9akg8FX0sCytMig812moxRro8pa9blcdR6irECpaaEkgLzhsYHWsrJblXbPO7jwpqUc+yIq6/3qv6f4OLw7r6do3JwAtdaNUQD/AI8pPyoOpxscmxkOPalzQ7le8chqHgi5NwPsUgePHJY1HB4Kv1nTz2Xy/wCLBrtU1QZ4spR+FNuNWSKCSSS1kVQDyRRzQ7jXMafhXT7fQ/DnntgbgZGY157reovqmpS3DE7ScKD6V0vibWDD4fsNOhJBliVnPtgf41xscfmTRJ3ZwPzNclONryZ0zlooo9y0xNmnQIOAEA/Sm6ZpcVh5rLy8rlmap7VdtvGvooq0BgVxHQNqG9vI7C2Mr9ew9TUskiQxtI5wqjJrh9Z1drufzOiLxGv9acYuTsDdkVNSvnkleQnMz9f9kelafhzRd5F1cKcfwg1U0TSJNRuBPOCIgc8967Z/9Ht/3aZ2jAAr0KcOVHHOd2NuHWK3YnACjmuVtpBd6tGWjG45cMew7fzrU1yWS00hmkOXlPI9KraIUnuQ4jKkKOfauDEO9RnZRVoI6JQMCo4/+PmT8P5VLioo/wDWyH3rIsWQ/lmqKjzNSOOijFXH5OKr2YDXUz++Kl7jLTDFJ2pzjimkcVQhmcijtSkUY4pgMc8U3FOI5oHJoEIq881m664VIk7cmtdACa5fxZOVcIp7YoQGHcXTXMxAY+WOAKdGAKqwjgU+7laC1d1xkKTz9Kuwjy7Xrkz69dSZ6Oas+H4dQvyYLTeqHhwnGfqaxZpPNuJpGP3mJJ/Guu0XUrpNPFppcPkhvvS4yW+ldyVoo5m7s6SDTdJ8PwiXU5VeTGRChySff1qG41/U9X/0bT4jZ2x4AQfMRTrHwsR/pmq3HljqWkOWP+FWJPElnYD7Nolr50gGDM3T86Qisvgq9kQOykswyS0vP40VCbnxBOfNN5IC3OEU4/Cin8hHIanBNBeh1BKnoRyKa99OitEG3CQDit2axLW6ALk4rIvLeGbLoux1GMe9cNKpGaQNFC3DSXGFOMduhFa9uJVhlswFZ2AZeRWfZ28bSFLlcE9CPWpEtpI9UWIyEAYCvW9RJxEtDYvpYLVIFaQmRAMqOmfes/VrtpUikKBV64HWrV1YNcZeDawC5kZz096oX90sNrHBFhgBknbya4qcU2mtypXJI7i3Yr5StEX4YjvSzhEikLyiRV+VR9ax0nJdQAQM5OKuiFJnUKThveuh0tbiudfori58E7cf6mcj8P8AJrinVUvZ0k5Tcce1dn4ZhaPRdTtmYEAiQAdv84rldWgWK9eUZweSvrXRdOKsZL4mZ6pIZHO/KAYBp7qwRBGckdanC7YsIeCM4NVdzgFh8vGOalaljXBDjJ/GnsPmDBhnHWkjf5SH4ye/eoLkmNgB93qDVJaiLWXZsAfWpWYrFgr09arwyqoV1bORzx0qXaZQGySM0pIB8ExB2g9aryxfvJCuM5qRCUlPy8GmADex/hqUrAXdI2iYiQ4J6YrpVG4Vx1lIBOOckcV19sfkGT2qjWm9BG5pAfXpSHIZsGloLHMRwaikjLnaCAWpx6+tJK21d+OgqouzFLVGfq6y2rJ5gADLjI71V8yNIMkElxxWjqwS+ghEbFm2k4PY1VhtUbRFcZ81WxXe3qcC2JEkIxltw2VbVnk08yRMPl5IPcU6e2NtZxmaILlflb1qtHuXT3A645xUTeqLgr3NKSMXFtp7hgNzjms6/t9uvRoSME4zTY7iRLW3P9xwRVieQS6uJCBxjir3M0rMhWHa00b5OGwCK1J9IuLeCKSLMisu446iqxYi9kIA68CuusCXuIEY5DWxOO2aVOlGpdMuVSULNHFnk+hqIOSSrcGuw1XQ4ZYXuIfkkVdxHY1x7oy4LKQG5Brnq0JU3qb06qmhR8p3YzjnHrU762M4+xSnHHL1XDFeeoqF9ZdeBbLxx1qYFTZb/taU/dsDz6tSHUrw9NPX8TXe6Npdnd6Rb3DxfM65Nc/4xU6XLALVFG/rmrIuzFW91Ej5bOEfUVLDPqszEeVEmP8AZqppupXM2rWkMuzY7gMMV6x9gtosFIFOfahqw0zzpI9XJ4ZB9ErNurfUJrtvNlG6MYHy4r1hbdAeIFH4CuVvbLzdeukVFXCbsUIDivJ1FeSVI9xUTy3kf3kUj6V1WoQ7LJiBggVzMRllvHiZgUVcmrsTcrrc+ZIAyFMdSK6/wnrX2G7FtO37mQ457Guce3Hly8dqq2spB2MfnXp71UJODuiZRUlZnumyNxuBGDSrEq81xvh3xPF9lW3vHIdOFb1FdHDrVjNIsazjcxwBXoRrJrc4nSaexqKEAPIzUUih+mKebV2AK8g0qWUhPK1fNYVhIrRSM7hVlLOMHrUsNpt4YVbW1T3rOVRlKAkUYC4HNS7F9KVIgg4NIwK1lcuxg+KLr7PaRJjKSttYe1cffadbW7oLeFNwG8MB3HT+VdD4zWS4jtLeNtru+AfSse18OanDPG8t+JY1OSrDqK4a93PY9LDNRp3bHJq96I/LMX7xRjp14/xzUj6tdqYv3XDDLHH3avstxDc8wxkH3q1smI/1EePqKmzHzR7E/hvMljNJx80rH9a0pAapeHnSPSgWwpLk4H1q3c3MQU4YZruop8iOCs/fZyHxBlMXhx1H8TAfqK808PXNrbX7SXZwmzAruPiHdF9HjjB+89eYrkdqirpIdNXidxqOu6TPZiCBd0hZQOD616NZWyQ6MgCgKoCgV4t4btTe+IbSMrlVbew9hz/PFe63KfZ9IhTuTmuWtLSxpCKTKSon9wflS7VH8K/lTEbIp5NcxqGEH8I/KszX4RcaNcRBcswAAHUmtAtTrQCW9iRhkbuRSbsCV9Dz7xajxahbQsMGOEL/AE/pUvhDRG1XVUmcfuICGJ9T2qbxhFJfeMWtol3OwCgV6P4f0ePSdLigQDdjLH1NEqlqaXc1jG8rs00QKoHp0p/AGT0oArF1vU/JjMETANj5m9BXMlc2MzxFrAYNBGx8tfvEdz6VjaTp0mq3gdwRGOtOsrKTWb0KMrCnf1rtrOzitIhFGoGB+dd1GlZXZy1J3dkH7qxtlVQB2CjvWhAMxFmHOBVY2Q+1ebId2Pur2FS30/2XTbuc8bEJH5V0MyOd8XI0lqmPuqcmpdA3G2y0e3AAqzsGo6ZEZOQwDGprJQkGFHGa8irK82ejBWiWe1QRHMsv1qwTmoIQN0h/2jUjEkJz9Kg09f3bv6salnbAc+imksRts0z35pdR9Cc801unFOpp6UxDOlOPSkAyaU0ARnqaVQKDyelOUcUwJEXA6Vw3id/MuyR0DYruhwhPoK4PVEN0ZWHZs0LcRmQ1V8QSCHQbqQ/3MCrUPpWL43n8nw/5eeZXArWKvJEvY85t4BPKkZYKGPJPavQrPWbHSbWO20m2FxOBhpW6A/WuG0jTZNU1KG2jAAzliegFejL/AGFoCBXIurgDiNBnn6V2s5ivDpmreIZ/Mu5HZOuCdqLWo0Wh+H4gLmVZ5h0iTp+VZ8ur6xrLeVbqbWA9EjGWIq1aeFo7dDcX8yxdyznLGkAh8aXuf3GmYi/hB9KKmOqeF4GMRG8rxu5OaKYjlZ9SY3aW0OMnjPYVBOVMuUkR5ifm9KksbWH7RPdEbREPnxVC/ltZmYpE0efuvXkUUlLliNvqaslgbgrNFtyn38DvUmuaZHp72s5k278bzkHmsjT72VNMmjZ/mVsjn7wqrd3zXMXlyMfMPRSeK25KrnZvQHJWNWS6NxbGK0wcHaT/AHhVVraO304/a1BmOQpDc1kJqslqyKqBdnB296Rp5LmbAJ2nkDPStI0GiXK5dazghtopXZhKx5HbFVBOoc+WSpB4NRXlxK6hHLDA4zSQRI0RYMdx7E1so2V2xXOy8ESmW4vYHbc0kBNY3iBdl6ox1Wr3g6Qw+Ioojj5kZSR3qPxVEUuFYdmK1cV7tiX8RhNKVIHHIprvmBgeoqqJWeQqVxtPBqwzq9qUC/MO/rT5SisSMgbsgetMuXMiBuw4FTkqY1JT5x1NMaItGQBx1q0gGW8m5SC3I7Vdh8xcfMcCqMSBJeQc4qwJdrc1Li3sI0oTG4f5uQM4qoE3MecKas2CJJJIOeV6VVUsmRj8alwaC4otDDIrRtuXNdTbMDApPpXOQybo/kQnHU1r2N0phG4EEU/ZytexpBxRfbrxTM46igOrHhhignNQaCjrRNxCfpTaJG+Q/SmtwZkSTMkaOOCuRmptMuHk0q4iOMbsjNXNRs1awhcJtJyCR3qpaafNbWbkqSpGciu1XOF2NjU7iGXQYNrksAODWWrN9jk2en6U1H82ySNjwaTTmYxzxtzgkVM+hUCRYln0lZY1YEMMjsaZcborlX5UYA5rc0VYzockLMv3iCO9ZWq2ktvKSctDwRk9RWj2IW5Jbzj7YzMBjjiux0iQTQwTgcgMlcOYis6kAhZFGM13HhlSNORGHKSEGtMM7SaYqyukX7gF7SQesZrmrW2W5s4ldAw6V2PlqYmBH8DVz+k7RaR5HAdgfzrpnNcyMYQdjn7vR5oQZIgWT+VYUdnLcyssaFm7ivT/ACldB75rE8IQoniS4E64Qg4J+tcVWEYu6OmMpNWZ1PhuB4/D9qkikOq4INcz8QkwbQ+5r0DaikiMjbXE+PoXmW1ESFyG7VgjTocLpqgazZEkZEor2aVQFUkn8K8htNMvl1O3kNu4CyAkkds17CxXykOQOB1py3HEiXaf71c7Ko/4SW568xV0of8A6aCubuCf+Emn+Yf6qkMoavGBpZbHOK5GzAF7P6lBXaauv/Er2jnIrkoISk8rEYyKtbEPcZJnyph3A61lldw8xOGXvWnKcLL9KokfuyR60wJ7O5G8N0IPIrp0U3ViXgIWXHB9DXHHKMJFH+8K3NL1D7Pg5yhpXGevaDci40uEtJvkCgP9a1ga4bwfcGS/u9jZjIDAe9dmHIrrg+aNzmkrOxaUipARVIS4p3n471XKTcu5ApCwIqk1x70z7SaagxcyMXxIVOpaehzncSPyNVXN75b7N24twKk1iTztesB/dBNT3jT7x5Ofu1w1fjZ3UX7qMvUF1FrGPyRmTaSSfWpYpbwtDliQPv8AHtUgF/8AZZepkLYHtUdobm2tZjdEbyGP061mavY0dNiH9mxksRkZqU28R5JNO09R/Z8I/wBmpXUV6tNWgjy6j99nn/xG2LY2ypnO6uU8M6Xaai0xumPynAGa6b4lSBY7ZAO5/lWT4LdI4Z2eAyZfg4zXJW+M2h8B13hnw9Y2+o+bbAlj8uc9up/pXa68NltEgqj4ZjWQ+aIfLAGcEY/z2q54hbmFa4azvKxvTWhjW2fL5qYniq8LfKR71Ix4rMsGarGkfNqcY9iaotV7QedUH+6f6VMtio7j9K0APr95qtymXZtseewrpiuOBUuMVWnuUgZFPLOcAVznSlYoapqIs49iEGVug9K4uRpdTuxbx5YFsuw7/wD1q2Ncsbk32Bubzeh9vStHTNMi023LsMyEZJrpo0+rMKk+iLWnWMdja7UXkDJ96ltI5ZJTNJwDwq1Pp7NKGdlwDnA9qnXBkGPWuw5xHnQ3Xk5+YAEiq2sQNdaNPAgyZBj9aqWxlfxJesf9WoVR+Vasnywr9KTeg1uZyp9nskTH3E/pT7ZcW6e/NNuSRA3rjFTINsaD2rx3uekthcZOaih58z/eNTY4qCAfK5/2jTQitdsVhkPtirEAC28a+1U9QbMKr/fcCtBQAqj0FStyugdqbjkmnEelGKokQUjHNO74pppgNwcmnUlPVcYoAjvHMVhM/cKa4+D5hl8Afzrp9afbprjJ+bjiuXgxuB/u84NCAoXFv5FwQOVPIrh/iFP8tpbg+rEV6g8Cy2+HHz9q8f8AHjsfEXkN0jUACtqOsjOppEz/AA7aXt7ftFaM6jb8xTr+dd7a6BYaZGJtRuUj9QDkn8a5Lw1PfpaPHYxhN7fNLjJP0rqbTwvPcMLjUJuOpaU/0rsZzFl/E6RgwaLYjHTzWGB/9eqyaRqutyCS8lkkU9s7UH+NaD6hoOj4SNftVwOgUZ5qjc61rWpny4VFpEegAy35Uhl8eGrGICN7qFWXqAo4orJHhe7l+eT7SztySXAz+FFO/kIysea6RBxHk4bnANUfEhNtMsO5JE2AjbUWuXKq5RBnA5qpcNGbOBoWLsF+cN2rzaFNpqTE5aWKyxs+HQEHrjNNnUT3QURlefxFSxzrOgCfK4HzVFBJJb6lHJKNybh+Veg9NSEa2m2sEDS/alBbGU3DrUUX2Jp22p5ZB+taF1cFb9XMe+HZwcZC5qldRCJNzbFJOSB3rgUpOV31La0I9TkR7hVWMbFHHFZ5YCbaBhTUz+bJGxjcEY5FRxRqCVkwWrohHlRJqaBItv4hsir5Pmcn61s+MkCTzZHHmZFczAwt9QglTkI6nP412Pi+MSo7no8at+lbw10Je55/KMOrqPrURZkmIJ4qTaIZthywbuaZcKSgbGCOKu1iiUDagzhqbIxUKyDHrinD7iEmkc5RmAyPSmtxMZy+ZCcH0FOtwsuQx5qNMqv1qRE7jhhW8LESNLR1C3jpIeSvy1VcFJJAezHFWtNYNdo4PI4IqteZW8lX/apuCciL2Q2CYwyZH3T1FbtiyNAwHIzmueHXNbGlN8riumn2Mpdy+Ye6kr9KQGVSCfmFTqMqcGk7g0p0IT3RUa84jVmQ43cGnthl9aY6q33hUJRkOEPHoa5Z4Nr4TohiYv4ieSS9OmklA8APBHUVYtriOSykj80q3lHhqyrfUbrT4p4Wj8yCTnjsanmvrK/t4do2Trww6GtuRcvmYt3ZZ04QtpjCSL95n5TiobaHY7YIyxNUrS6ntlkZXBWM42n0q2krKwZ1Kk859awktDSOjG207xJKOBh6saldPeWpDMD8vGKLD7PJbXplXOMkGqTqTDlCCpFVfQnqSyuQtqu8MAOK6/w8JUt3lgO/95yhrhXYoy59Miu48HXamGdD2cGnSfvjnsdJBeRyJscFJAGBVhWFpePsxAPSZh+tdHJDHOuGXPzHB9K5OzSSET+X8yrOfl/Gt57oyjszZHbnoTWnbaTE0CyAqGbk4Wubgvw17JBJ8rbuAa6G31yxgt1jkmVWXgisazujWnuWVsHQYW5cD0ApTpwc5eVmI7kCprS9gvE8yE7l9aZf6nbaeitOwRW7muc1EXTojwXanzQAIqjnHqazB4q0vcFWdSScACtbessSsM4PIoGiJI+MbRXP3IK+JpflHMNdKoUfwsa52+CjxM3DDMNAFbUV8y1Ck4Fc3cQ7Twxro9QlEdlvIJ9hXMzXiGTyyCGPY1aIZSdcpIPaqYBELA/3q0CBh+nSqrFfs7RlfmzkGqEVhwc9j1qRCI2KH7jdPaoyMUBhwp6VJR6N8PIGhhnmaUOGOAO4xXd+YvrXEeC9Na004XTOT54BArqd/vXoUqfuI4ak/eZcaQUwyVWL+9Ju962UDNyLO7PelLYGTVcNUV3eR2ts7ynA28UptQi5MIJydjH1B2vNWUQPtlVD5fv0qzb2uprdJukJTac/XFZWj6ol3q5n8vCxoV4/Ct83riUNuIX0xXjyblJyPXh7sVEgtIdQjkAnZmJcdPSq+r294VeQE7NpyPwq8b6RpThsL2yKWW686xkgb5pXOBj60rdCuZ7luz4s4R/sCpHYYpigJEq+gxTWORXtxXupHjSbcmzzn4kyAz2yfWuZ0fWLqxAtbdVJlcAZ9TxW58RHzqsKHstZPhGyF94ht1xlUO//AA/nXnV3abOyn8Cue7eH0aPTkeT7xGTVDWZ/PmQ9gOK2oQsFuidsYrC1nAvQo4CrXnPV3N1orFGLhSfenk8VFEcxg+tSE8VJRG5Na3huJmvXlx8qrjNY0hwD610Phi7ZrJlkh8sLyW9eTUz+EuHxG7NKsMZkc4ArmFvzd+IIUBzjJx6Cote1kvJ5MPJPCgd6l8O6Q8Ev2u4J81hwDUxptxcmauaTSOpljQQLI4HHPNVLXFwsjsny9s1qSKptgGGRjmsy8lFtp08q8bQAMfWu2CtFHNN6j2YQ2s0gH3EJ/Sq+jyNPZRSMDkjPNTRL5+mMrZ/eLg/jT7SIQpsXoq1ZAixoskjqMM2cmm3c8SOkRcbzwBTFu4TO0KvufGTjtVWOzRLhp2JeQn7zdvpU1HaLZUFeSHXPRVHdhUx7D2qCY7pox71Zxls146PRDoKgh4iJ9SanPQ4qFhthx7VQjPuPnubdOvzE1pH2rNHz6nEv91M1p96lFCYzQTzRQo61RIgpDTsUhFACYpy88UAcUqdT1pgY/iOQraog/iNYMS8DJye+a0/EUpa6jj/uis+IgY6mhCLK8EAnjvXhviq5N74pvHJ4DY+le1XMy21lNO52hEJyfpXhUeL/AFeZmbCyyYLHsCa6cOtbmVV6WOx0rWEstMit9LtN7AczMMDNXIdO1jWWzdTStGT91flX86dDqukabGkVtAbmVRj5RkZpZdV1vUjsixbRnsgy1dDMDRTSNM0hN91cxoe6qefzqF/EsEWYtIsTK3/PTHH50y28LPIfNu2LHqWmbP6Vanl0XS0AlmErj+AdPyFNDMp9T12Ry5miXP8ACD0oq3/wlaDiLTZPL/hwh6flRQLU4YxG9vJlXCmNM5YcGs+CV7WWZAQ0Z4HFb1s8av8AaJOWmUqe1ZeoMijyokAi6hj1rjhJ3sKSKUMcrTM6Oue9Wg4kYGRBuXtmq0A2lpM7vSrAuWk+cxrlf5V1aEolnlYW7RlysbHPXNMbzLyHhchBjPrVVpxcSbgmE7qDVgXYjtmWJSuP1rLlS2GyrI7wg84DDrml27o9wPNNk3SIpYdaRtgGBkEVRI5XaI89Oteia5/pWjW0o/jt6833GTI6gV6LEwuPCWnyf3VKn8qqDsyZHnUswcKACrDrT4g1wrQucNjINSXMIdpUBCurHBqoWkgmjkVwT3rVS5tS0OEWEjUscgkU6L5hLH3q2wjng82MjOeRVZD5U56ZPWkwHxiMKARk1VmkeKX3FWtgIJHBFQTwEyhxzkUoSakK1yawuka+iP3WJqXWJBHqcigYzg1TtbVUvIpVkHDZIrQ1y136kkwYYKjPNbe0d7k8iK0akjJrT01ijN9KriEBQU6GrdkpWU59K7YdGcsn0NCOdS2ART3dQQciudummjv2wT5ZpEv5FdgxPy1Ht7OzRfsbq6Z0CSbsg9qRm4yDWZBqAdNw5FWI7iMj73J9a0jVi9mQ6ckPLHOB0qq8aM2SMH2q4QQMjoarTj2q3Zkq6Kro+x0RuG61oLqBm09LeWPE0Q4bPDCqBNSRndwRWUoLWxpGb6mlFHDPErW820yKQy+9K1rdRWaZjyvQMKyhEEffGSj56ir0Os3tsiIwEsatu6YNYtK+prdleZz5qFz2xiur8MyCOe42L8uAa5qW7tbzzW8spJuyo9RW9pxm01VuLdRNHMmSAeRUQVp6FS1idzaX3nSKoXA3c5rGtpUWa9UnH784pbDWIJ51hkBgkLdGqC0tjPfX4hYMiycHNazqJNXIjF6lW9tZG8RK6n5MDPrXKawgGqzgZ6129zpeoNdfaEkQAcH6VxurwSQ6rMspy3XisZTi9jRRktz0DwAf+KfAJ6Maj+ISh9CDHqrAiqPge68uxeL/AGuKs+NZvN0JlPrWRaPLkJF3EQOjr/OvfbZs6fDzj5BXgqE+dHjGN4/nXu9mc6bAcDlBTYImBPeT9K52/P8AxUo+brEa6EZz91a57UQR4jQ4H+pNJDK184jsRJjO05xXLaheR3+oxMsWwonpXT6gT/Z+MDOa5ieMi+Rtu393VrYlldztSRgOgqojhxVtvuSjPas5htBI+uKYiV13Diq7g9KnjkDgZ602Vc0Aer+HCR4fsx/0zH8q1OazvDhxoFnx/wAsxWsD7V6cH7qPPluyMA04L71IGHTbS5X0qriGhSOayfEViL3SZQzspUZBU4rbBP8AdqC/VTp828cbTWGJ1pNGtHSaZi+F9Oit9HgYLlyOW7muhCcVR0SPGkwAD+GppdTtIGKSTKCOtOmlGCuKpL3mWJB5cTOegGaVF3oGA61m3+t2kNtIhfLFeABVO38X6aIY1aUq2OhU8U+aNyOdW3N1ozTClU4Nds7poxFKCZDheOtXmU55NWpJiVnseS/EBgdbxnkLir3w3hZ9Zi+XjaST+VZHjx8+I5R6Cur+GtvCl0JVl3MIeV9M4rzMQ7ts7YL3UeokgsF9K53WWzqMnsK6GHLIGI5Nc3qpzezmuPoblWEfuxT2IxgUkanyl+lBWpGQPW9ZRTHQAYepJzj6msN1rt/Dkaroy7hkbc0mrtIqLtdmFpmiFJ/tFyNzt0Bretg5lfcu1RwKlMfmzRychR0FOhdZGLLyM1vUVoEQ1lck1SQw6bK46heKpJF9o0sK/wDFgn+daN7GskBRuQcVWleO3tFLkKOwrWK0Je4oCxWg5AUdzVK4Zri2228m0NwWHpSXUT3ZRfMIhxnaOppyFUURRKAFHboKJSUVdgouTsiO2t4rSM4HJ6k9TTwWY5xhe1P8vnLcmgnjpXBWxHP7sdjrp0VHVlfbuuk9AM1Z9arx/NcH2Aqdm7Vyo3YdBUU+NlPz70yc/KBTYkUrYA6pIeyqBWhziqFgN1xcP/tYrRI4FKI2MpBTsUGrEIe1NGSadmgCkAnNOUcUo60hOMnsOaAOP1l2l1ZwOi8ZpsI2gk/lUdyzS38rdF3Hk1LEOM+vTFMRmeKZUg8M3juvVMYNeQ6Bpx1K+SHgKWy5PoP/ANdejfEacw+HAmSDI+K4Twxp1xf3SpEzogXLlTjOe2a68OvdbMKr1O2WPQtKUCacOw6RpR/wkkp/d6XpwjU9HcYp8OhadZfPczRIe5JyfzND61pFodtpbtdSDgEc1uZlcWWr6mc3NzKVP8EXA/OrsHhy2s13zNGh6lmO5v1qCfWNauwPJhS1jPdjk1VXQ7y8O+5nnmycnJ2rQrAapvNDiOw3RJHffRVIeFoAOUt8++TRTuxXPOdO1eKXbBcHaifdfNPur2OSJE6gHBPY1zaDr9KdBcNCw7r3U1DpK90Tc2MqvRht60hlA6NVI3sRcgRnawxyallRljCIASRkEGly9ySwrY3Hb9aurErW6/MAWrEFyFhIZiJM4INaFlcLND5bE7hyKJQfQYpJ5QcbTxUMsmRkdfappm2k4qp9rTdgrzT5WIckkaDJbBPavQvD0i3Hg0qDnyZcfrXmLvluPWvQvBMwk0fUbfrghsVXLZ3FI5PXG8q8lXGDurPl/eWgdR9081ueI7eOW+ZCdshGQfWspICthJG33x29apKxSH6TIHDwv/EMjmmzjEjgZB4qrYPsmVz261pXTRwyZcHLjINDGJMwt7TzeTk1R+3NPKqAY9/WrGotnT4vQ8isiMkSqRxzSSW4i1BdyW84QhWAf+L61veI2jWO2kcEFl4K9q5mTP2g+uRXYavp8t7oEEyg7olBx7USmo7lwpSnflWxW0uXzbZFPJ7VqptyBjBrA0xsWyHOCDW7DOkyY/iHWvSou8UefUXvMx9QuJYL0hQGUjvUK3UEjfPGQT1Iq1qi7Z92OMVlrIolwR1FclTSbOmD91F6FYNhWGQevNS+W/ykEdeazYmUyOh4OO1X7a8jhg2MCW6ZqY7lMsTyyRSDaTgiomvSvMmDj0p1xMI0Q8EMKqSIsysBlSRxWkptS0ZEYpotCeKUDHFWYgAMjFZFpHKCySEHHQ96uxq6kYJFVGs+onTXQusoKkgc0xOnFQNdGF8N3pwuAn09KbnFsSi0Kqgyk4qRLi5tW/cSsAM/KTkc0yOQPkqRzQ7YFCtuPUvx65I8iG8iDYUKWWur0q4tbe1vb20n3IgDbWPWuBCnFWLaSSNHjDlVcYYDvWcoc+hSlyneJ4okuriFEtiEk+/k9OKozaSusXkl2AwQvs49q5uzvLjTpAY23pjbtbtXfeFEebw2Xkb94JC31qJUlHYqM+bQzre1bSEcQq3l9d3oap6xcSaxD5SK2xR82B3q/cb552iafZGxyRVuxsVSMqF+XPBzUFmLpfhS3eNXuVkHccGu+spM2wj8shEAUH1rnri7eCRYVOVX0FdHYkzWKyE4yOKBEq4J+41YGp8eIofkPMZraSZSrDzfmA6Vi3zh9etiG58s0DKmpq32DgHPpXNyuxcFwcgYrf1uW4ht1aIZUnnNczLPMwyy1SJYxjlJfpWc5+U1fBJjkyOcVTODGyn72eDVAQ+hFSLJvGD1phG00xxxmkhM9i8O/wDIBtP9wVrCsnw5/wAgK0/65j+VbKJmvTi/dRwS3FXHpTwvtQEx1qVVHamIaE9Ko6xL5OmTEj+GtLKLwSKzPEChtJmI/u4rnryvBpG9KNpK5Lo8Z/su3/3Aao3On38kjLHBCUMofc3U4Na2mrs023XHRB/KmarqsOlWTTzHkD5VHUmqbSppy2Rm6Tqz5VuUb63lZTLJDECi47Vky+HpLyHzI1iG4cDA46/41xl94h1a/upJzJMkLHARegFXND8RajZagq3DTSwtwykH5R6ivNWMhzWtoexLIp+z5uZXOhGnReHLeG6vHyImJyB61d0/xbpup6hHZwMxlfOAVPpmqXje7SfSYFQghyG/CuV8IRGPxXbyMMLtc5P0ronXcXaGx59LDRitUY3jVy3ia6/2Tit34WmQaldlO6qp/Wuf8Uhptdu2Vc75OD7V3Pw005bWGWUsC74yPT/Oa55O61NrW2PUoRtjDHoBXI37755265NdXKWj05mPXHFce/zKx9WrFrS4762JUPyL9KUkAe9KB8oprVBRBL0r0HQlEWjqWwAFGa4BhnivQraEtonlrwWAH604/Gh9GQPOWvhEvTZn+dN06BoolRj8xNSmNIpN7cFUxmpbN1kdWU5Fa1fhsTT3uM1K6FuAgBZ26AVTe386RZJcnHRT0FXrvZ5u9sZHc1mTaihkkghOZVTdWqIYt9fQWke+VwvYZPenw48pSB15ryu/u9UuvFVlb3ZJRrgEDsAOa9Ui4jUegrjxUrpI6qCtdjnPNMPQ049aQjg1xHSQwn95KffFV9Q1G206Ey3MgRffvU1rzG7Y6sa4j4nXhttLj2/eJwP1q6cbuxM3ZXLtj4rbWPEEdlaptgClmZupx7fjXVyN+leO/CYyXWt39zKSTHGqjPuSf6V67K2EY9AFNVVSUrIVNtq7GaYP3bt6savmqunqEtV9+atGs1sWxKQ9aCaTtTEIeaUDFNzmnEUALk1Hcv5drI57KaeBmqmsyGLS5mGM4xQByA+d2LMApOT71dQcLgDGOKoQHPXpWgpGMmmB538Urk7bS1HT7xrF8NwajKsiWjmOMYBZVyxOKm+Itx9o8SpBn/VqBVnQb3UY9LWO0iSNSTmRu5ruoq0Dlm7yNeDwyznzLpix6kyvn9KtP/ZGnriS4XI/hTAqkmmajfDM9zMwPUL8oq7B4ZhjG4opb15Y1d0tSdWQP4khzs0+yeTjhtv9arS3+t3QK5itlP4muhj0hY0BOAvqxwP0qZhaQJhZUDf7C/1rCWKpR0ci1Sk+hyg0rUJBua9usn0TiiujNxbZ5ucH0JFFR9cp+f3MfsZdzwwafKjDJFMFhKTjIroZrdIZSvbsaiaADDAgelet7FHD7UwfsUvtVtYZ1CkkEgYGavyQgjzF/EVEWGcA8UnRQe0ZCuh3NyfMVgc9akSyksJgHHNamm3XlNtJ+U9ia0rqFLiEtgMMdar2CavF6k+1admc1JJGzljVcWTyEsnTNXJLSNcg5qW3YJGY+i9jWfsnfU050ZRsZQ3au2+H0ZF7eQt/HDwK5JTItywZieetdb4HmEfiJFJ++hFJw924nK5meLrWX7XDLGOgINZUKPJF+8G119O9dT4pDLIxf+GQjFc9wOnSiNO8bj57OxkBPIl2kcMeCDV6QG7t40x+8Q9fao7yLKlRyCcg+lPtpTEUYjjpWb0NBl/E8lrEiD7vBFZq2c5YfJ3rojH5qFh2NQbMH3raFK6uZyqWdijb2jDUomlH7vIya9FjU+WEG0xlcAe1cblWTBABHeuk0e5LWGGyWThTXLjMO7KUTuwGKjFuMtDDubRbK+khQ/KTuHtmlj/dyA9QamuI2kui0gzITk0u0D5SK9KjFxgkzy604zm5R2C6tVukJLAEDiqJ0M/LJvGK04gC4BqUoCGXdgGpnRcndDjVUVZmfJ4cmhhW43fKSBn61ffwZO4JRxkjdU7XNw1kbX5THjg9xV2x8RCz2i6ViAu3NYypSXQ1U4yOduNKuLiPyY0Jki4OBWbJY3UDZKNgda7TStQtTrM8rMESQZUnpWhLc2crzKRGw6+tTPVjhtY823spOVIPrUkVw/nIpztJxmvQU0exuoELRAZ6kVQvPDtpEjGHqvI4qVuU1ocjcyK0nltj6ilMivCoYjI71uWPh5dUiMqthgcGk/4RWSaWWOB8+XTluEdjEjDDBU8VIZMNkmia1uLGRlkXhTg1V80s5GBtpXGWvtIZRU/mAspU9qzAu05DdavW+CrADdxwauM2iJRTLbP0rTs9S1NUNpZSYRv0rmY5pgzI2eDXVeEI5rm6LKVGD3qpVOaNiVDldzU0e0nO+a8kLMjY29qu67NPb6dJLHNtwMritO8xBEHbaCWwwHesDxNewyWBiiBwFzzWD0NkcydT1Fzu80kmvUtFvZItFge4OMgYzXlFpeLDGWKZ+tel280d9ocLZAAXIA9aQGkJ/wB6WBXcT+lZt35n9u27NtwVIH5UunRyT3Ad4yET9al1Y51myPl4G000DKeu5/sWRuMjmuCsLiae/ERYFMZNd/rYH9iS5968+0baNQfHJ21SJNCXCJKcVngq3IrQuCPLm5rJI2jIpgTEcVHIMD8KVJezfnSuNw46UCPX/DeP7CtAevlj+VbLzJbQGVz8q9awtCymj2y+iD+VXNUmVNOkDHlhgV6TXLTv5HAnediT/hJNMCZklwx6DHWrFpq9rdMRGx49q4Rl3NHwOD3rs/DlujaY7GNTyeorzVi5rc7XhosdcnzpnMe4nHam6g3meHX68DBzWqs6xDIRVJGMis/xBIF0JsAKCc8VyU9Jyfc6J3cUuxfs8i0iHoorH1so2owRyIHLLhA3TNadjOs1lE6HKlRis3X4LoxC6tNpdByrDNeviIt0dDjwckq6TZg2ihoYoJYY8mdhuxzgDI/GtaCG2VnupYYo8IhIbgDrmuXt4dSaSBjJiQTGQZH8XcfStu8tLu5sCHkAaTCuFHQAnp+Brx0/I+lnTs1eRi+ImSf7P9m5hK/LjpWGXuY5UMZKMvde1dtFBZmCOJQHMSBR+VWdN02zvJWRYRtU4JrVbHk1WuZ22PO/Kd3aR1JJ74zXdfDe2mkiuJJFIXzcDP0FdYuiWKKsawIfXitCzs4bIFYYwgY5OKJqyML3H6odmmtiuPK4jHPVq6/V+NOauSYcJk96l/w0SvjZN2pp5p+KawxWZYxF3TIB3YD9a9EjdbfTkLHGRXn1qN19Av8AtivRZNiWSbscDvVU/iKfwmVKJLgv5nCE8DvV2yRYwAowFXoKw9Y1yPTogVUu78KBWvpzu9gZJAA5TJ/KtJtXSFBaNnB+KfFNw2oGxgR4wxxuHU10VtCsduz4+baATWDqtqk2twnaN2R/Ouj6Wx9+P5VoiLnLXkKS+LNOG0blLE/gMV2oAArj4P3vjOH/AGIWb9RXZYrhxL946qC0GVFO2xCc+pqUjAqrdn92R6iuVnQhbUFbZfevMfircZltoM+rH8q9SUYRR7V4z8TZxJrypn7if1regveRlVehqfCO2AtL+cAZaYL+Q/8Ar16JeNttpPUjFcf8LIBH4ZMgHMkzN/T+lddd8oq/3nAqKz95lwWiL1suy3RfQVKxwKaoAVR7UrVJTEPSk9hSnijFAhoXFKQaXHNLjFAAg9qx/EkoTTgn95q2044xXNeKGzJBEB70xGPAgOOc+wq6oAI7c1XhG0DjLGnXD+TbSyk/dQkflQM8W8RT/afFt07yDAbG70r0fSI7WHTYFi4UKOSMV5HeSfadWuZWbAMp5/H/AOtWqdSlkCqTLIqjAzkiuudOcoJQlY5VJJu6ueoNqdhbZEt9EPZTuP6Vm3fiiPIW1WR19T8mf61w6z3TjEcGPdjT/IvHPzyhR6KM1jHBRbvUbkV7V9NDp7S51DXNWisrd443lOATzgYyTn6CtmDwupk1EahqO77NtVAGwGY9yPTp+ftWF4L0aa68SWwSSc7fmdlbaQPr9cV6pb+HbdtTuruRIyhcBS3J2r1P4kgfhXbToQivdiYTqSvuUoPCvhmGCONkEjKoy+Cdx9aKqz/2vqFxLc6YiNZs7LGQVH3TtPX3Borbmguhn7x4vd/ZimRG5Yds1RdoMAqH/PpVy5heZBcRuv8AtLioRCxXeGUHuKr2VQt1KZAhQN8u7HcZpZILZ03puB7jNTNaOPnRlIHUYqMxyB9w24Pan7Kp2F7SmVgsYPDPxWhZXUat5crybG4qssLg54q6tkzKJF280KlV6IPaUwvbeDZvjZwPes7Yv99q6AwstmNwVgeOtZ9zYPGdwA2mj2NXsHtaXczxDEW+ZzWr4ckW38Q2b7j9/FURA2egqeyDQ30EnAKyKc/jSdKpbYHOnbc6jxpbAfaWI437hXDhgvAc4r0DxXK8qlGKsJIgcj6VwRhf+7UqM+goyjbUYrochmyDUe3nBxsqRrZip+XFVp5NsYC8N0NTJNblJp7GpCFEIIkx7U5oIypYS1Vsi7oOM1om1l2bxGSverhGpJe6DdNbmeVA6SitvSmYaTcbW+ZeQazJbOQfOEODV/Q2eG6MLJ+7k4OaVSNRK7Qm4PYz2uJZZQ5kG4VLJI8uHEgB74rV8Q6YtvcxNDEQrr2rJW2YH/VkfhSozqVIKUb2ZcoU4uzLUaybVdTmp0lbcd6nFRRB1i27Dx7U8S4xla156sdzN06ciQzAHoaq3pEsGORVjzU/yKaxjYdjT9vLZoXsI7pla0QyMkSDJ6CuiXwzI8Z2SEShc7c1n6Z5MWoQucAbu9dzE6fbN4cYK+tJ1b6IXsrO55293f2kpiMzqU4waX+3rmHHmfODxWl4nt1bVndCOVB4rn5bWQgcZxTvBoXLNM2rHWvstiYUjxITncKtQ6+baVmVRl/vZ9a5+NXTqvNSSHEbHHQUOEXrcalJblm/1ZL0yRLGNzsOapNYq3ltt4I5NVbRd26RuPSrMczgfK3CnipjTuhudmPg0uCaM/OQ+cAVK2g30BWONcsw3KR6UyC5eKQOV3CuktfFMBv7aSaNkVIyjcUvZyQudPqcpJZXttG3m27be5Ird8HrIsjyR4Kg4Oa6z+2NIvbV4zLHkqThhis+x0sXUludKkCxSj96AelRZou4txdXDRXLyQELH0NUNSkEujMzhd7LlQOtb+t+GLm3iWOC5yJvlZSTzWLc+GLmCYRPcAgcYPaoY0zio7aR1VehJxXf6XN9i0dLaUgAjhqwdb0L+z0jkWcOd3IFXdK0J9SsizXhDKflBPSgZu6fqhfKtcbRnt3q5fTJPqtlhzwp71y7aGtlLbJNd4MrYBzXQN4bkjuLdheH5hwSelOzC5PrShtIlQHqDXB6dbrazFywLOMYrv73wzshMkt9hD1yeKyD4bhY/JdJk9OaqzJujm52ysvNZu7jFdJd+HbqKR9pVgPeseWyZdwKEMKAKPU1HFKzk46A4qUoyk8dKr2fO7P96gD07RvFdh5dpZEsJmCpjHfpW7rc6pp7YUMQM/SvHGZorlXQlWUgqR2NdXpvim5uLeW1utrMUOH9a1eJm4uDM/q0YyUkacJWTyiQct0ruvD6gaS2QTy2Pzrz6zvsxxKQODiux03VobXT5EaVQAMkZ5rjaZ03sS36TXVxFHE+0J8zc9qXxABJoIkDZUD865O51eQ6k5jldSEAJ610F2Xk8D2O1sl1GT60lCzuS5J7F/w4CNFt8sD8owRWhLuUbhyO4qpoibNJgXbtIUZAq5OxWFiK96DXIvQ8h35zA1CaFVaWGIEx/MecYrn73XZ7qFI4k8tT9/ByTWms3mjVARn5VAHvzWdbW6W65bBY9Sa+exuJp0btn0uX4WtivdT0RQS/aA8EjHGfrXQWGq/YbYRxDfI5z1rn9QtDIrhWxG3NWNMU70bICrxzSpVY1Y80SMRh50ZuE0ehaLK0u2Sbd5hGSPSt5nVmQZFcfDrVtZQs11OsbAdDVqHVLe4gW4jlcx9c10NJq1zid0zX1eQyWLgMBhiB+dc60ZzGM1XufENj5ot1mMkjH7opz6hD5qKM9KhwbSS1Fs7stniopGwQD1NRm/ipr3CFBL/COKSpS7D5kWtMG/VoB710viR7om3hhfbG2N2Otc1oE8c+sxBc5wTXYaqoe7iX0FEYtN3Kb90xb+zjNrbxbc4PeujhXZp7+y4rLu1BnhWtd/l01/fApv40C+FnGzLv1xPbmtaY4iX65rOjG7V2b0FaFwcIv+6f5VuZowNIUSeLLhv+ecSr+f8A+quvPSuV8NDzNZ1Ob0kCfkP/AK9dX2rza7987aK90Yw5qjenAA7lgKvnpWfdjfLGvq2a52bInJAQfSvBfHM/neJbok524WvdrhtkLn0U187eI5/tGtXj56ysP1xXVh1rcwq9j2P4f2/2fwpaDH3o9/58/wBa25juuIF9WzVfw5b/AGTRLaED7kKr+QFW8A6lGD/Cua55u8jdbGgBQRS9TSd8UCEY4pOaVhmjtQAopR1poGKcKYDhmuR8Qv5mrbAfurXX1w2oMbjU53B6HA/OkIIl6YOBVHxFOLbQ7yQ9kxmtJI1jQO7cgcZrlviBcGHwzIM48w4+v+c1UFeVglojya12bxJJjG4n61tQ3cAOWyfYVk2MKsyGQfKBkA1vQtbxrkmNfbAr0mcaHLqKgfurZif92kN3eynAt9v1p7ahaqOHz9KhbUkP3ImPvihDZ2/w7l1OO5vPKEIyqbnbkjkgAfma7qSw1HZIZ72byljdiqJjgngVyngvWIdP0KF0tJpJZLnEpC9T0AB/L866zVJdX1e2vbKGEQeZgF2bkAjpWy+EwluYGkeFJrnS4ZxPewrJudUjuCqhSxIwMdxg/jRW7Ld31u/kvLaxsigFVPA4HvRTVKIro8PtLVnSUoRlT931FV3QK5I/EelaejyB7t1xjcueatSaM97rEUMG3MzBc9gfWvS91QucGvNY55QyN8vT0pXj4yBXo2r/AAyk0P7MZ7tZlmHVVxgjqKiHhPTo4t8pZvxrONWLV0a8jPPO9WIZGgOOqHqDXdDwvpY52E/jSv4a0yb5IhjjuaaqITps41m/cZRspnOKtXEQmh3x9cZIrZufDkcA2pIqqxwSSKwNdabw5epa3A3BkDK69CKtYimtGL6tUa5ktjPK4NAHQjqKSO5iuyzRt9afgDitFaSujNpxdmdNrMi3FraTeWFJi28e1ciy4Y/WugllZtJt8klVO2sSUAOwrloq0pI1m7pMh4P1qnLbRmTe1XCMVYtNLvNQkVba3eTPcDiliop02Ok3zFBJUS4QIpCsv61r2lzsbY/3G4rUPgXUQqSzmOEL60v/AAjir967X8CKjB1OSNpGlWLkyjKgTgHKHpVeJmSYFTg9q2P7KAjMa3KtjsT0qu2kTJiQMGAPauqrVhODRlGEkxl1ezXqosuMp0x3oiUSxEdJF7VVmPlylumKekucOp5FbYdQjBRjsTUcpSvIkYmmmnSSh+cYPeo81q0jC7uR3AHlEgc1QBIOQavy/wCrNUa5K8I32N6U5W3HwOfPTeCVzkgHFbkt1hi8Jl2D36VgR8OvPeti3YeROp7jNcssJCornXDGTp6bla4naV9wz9WqDc+KdJxik6CtFg4JWM5Yubd7Dg57iklZTEdw7UI2WpJ18yFlB5xxSeEVrpgsU+qKllGjxtk4q0LaPoDgGq+nEGJlYAMpouGZZflJGKwVGXLzJmrqxvytGncaPJa26SlwVaqhs3cgjFWZNWmvbLyHwDEuQR3qnBdyFwM9aIqoOXsxJInQgFelaPhm6ubS8lSFnBIyApxVeWRmHbNV7e8bTr5Lh1JTGCRSqRqW95Ci4fZZ041DU9V1AorzEQHOC3Q1PL9uVmebftIPJbNc/pXiKCG5upGZ0ErcGte21y0uAIWkLMeBnPNcrdlc01OR1DV5rh5MyPw/Az6VoaBfTXF4loJpFaRuCDWRq1sIL+bb9wtkCtTwnau+uW8wwQjZI9qcPfSa6jbtudle+GP31oGuJCGk7t0NT61ZT6bcWztfyCNe7N0Fbt9PEz2xK/dkzXN+Jpo9TleNyREvAwetaKDvqS5K2hHc+INJLIsmp+ao6gtxUkvifQZtmJUBTphgK4mbRLRM8gCsq4sog2IgDWqnJLYzsn1PT18Q6TKc/aBz7inNfaXMpEcqEnrmvJDbOh+5kexrSTTd9mJ43YH0BpOq+sR8iXU9BfS9GlORLgnrTIvDejjOLjGea84kW9t3CrdyL9GNSJfa1CRicsv+0KtVafWJLhLpI76/8MWaQGeO5Bxz1p0egxrjyULHZkkHNcXB4jvvM8q5UYx1HSuy0O9fULGWaMlSOmKzqSp2ukXBTW7JobRQgBTaa11sbX7HkxGSTPY4p9rZvfWWFcF9u4evHWs6S5nh2qsjK4baQPWuXm1NXG5aksrRUuQLb51xj1+6K3NQH2fwZp6AYARePwrIMDm5mkMrl2I6/wC6MVteI28rw/ZREZ/djP5VbehEUX9BuFk0iGRm4PGTTdbvHghcR9lyap6WYI/DVqJJFQBgTz71d1Oe1ljZImRy6ELjmu/2n7u3kcqp+/c5bSbrdbXbSLzI4XJ+hodGZjyNv0qvBbXaaZdxGJsrLkMB04otNSQ2z+ccNF1PrXzGY4adRqUdbH12S42nSUqc9L9SV9iRYkIwBg+9Y1wzW0ZkViFY8c0kl1PfXCmNSR0Cis7Wnmt50tmB3kYA+tb4LDewhruzlzPGrEVPd2Rbu1NzFEry/MV43Gu50rU1tNJs9NBR5inz45x71wHjEm18QWEEShV4LAd66Pw3Hw8wAJXgn06f/XrsqKx51Ncz1IpogfFsmFwAR/IVszbDdqBjpWWql9Znlbg7j/Oie8VNVjt2yGxW1CVomeIjeRtm1JGQRTyoFkIz1NUsse5ouJVVI1ZscCt7nPY3PCcJ/tkE/wAKf1Fdlevu1AewrkfBAD6lKwOcACuqnO7UG9q527zZra0UQy/NqEY9K1L07dNHuay1+bU/oK0tUO2yjH1NQv4hX2DlrQbr6ZvSrt3wP+A1T0/mWVvVqsag22ORv7q/4mtWZozfCClo72b/AJ6XDH+n9K6g9K5/wfHjRVfu7s3/AI8a6A15dV3mzvpq0UJWfId19Go7AmtA8KaoxLuvXPoAKyNCLVX8vT52z0Q187Mn2zW44+vnXIX82r3zxXP9m8P3UmcYQ/yrw/w3CLnxbpsfX9+HP4c/0rro6RbMKm6R79aqEgA9qSEbtSlb+6AKlUYwtR2IzLO/q1cr3N+hfA4zTepp54FNpiGmlAoNKT0oAAKVetL3pQDTENmbbC7eik1wu0NPJIT3J5rs9TfZp8p6ZGK4tF3tg9KQImXD47gVwPxPudtnbQD+Js8/j/hXoQRVAXsB2ry/4gb77xRaWSjAyAKui/e1FU+E5TT4UkVnnPThVziteO3tgoKxr+JzWrL4QWy0Fb+eR/OkI2IB69B/Kuu0zwjZadoonvYsyBNzlz0OKmtmtCnFNO93YiGGnJ2ZwiC0T74XPoBSNPF/Ap/Ku58LeE7a5jl1K6t08uRi0QfsnrW5NpUMduptLK3eRmGMjoCeK5qmd01UdOCvYuOEbV2zB0zxHpVjpumWaQzzCOQTXG1D97r+POPyrQj8eXaXd5LbaHNJ5rZjZhjAAxzV1La+F4+IbSG0Q7c7MsfU9ewz+NXYVEsOGmUO3y8KBgnk/kMD61FTO6q+FIawUep59eapr95eS3DxSKztkqvAHtRXodvoNpFAqzXckkmSWbzMZJOaKx/t6P8ASZX1Jdjy/T/D+pJNBcNCAjgjrWperL4cMEtzbsYJDjenJWucn8RS3yeXaXE1tIoyqbsA1ly3mo3kQWbUWdT1R36V9i6zaseMqaTuerQ6gl1DGRI7IRkBj0qDUiUKbiPKPvXlSC8T5Re4XsN9B+1kndqHHoZP/r1Kn2RfIemCWDGFZMn/AGqrz+UWDR3KA98N0rzdxMqbvtYb2DVp2MmmmLbN57zd9mTR7QHGx1s11GYyHmRm+orC8VWT6jokN+rb/s7bCfb/AD/OsqTTlvGY2ErHHVCeRUM63VpYG3kMiq5+b0NZ1FzWfY6KFX2alHo0YtizJeKEfYT1z3rbimLsVZCD6+tZepabJZxpdBwQR27VoWd5Dc2US/8ALZTW2HqSjKxzVoKUbnUWkYn8NyEjmNwaqw+G9T1GRTb2+Y3OA+eK0/DkTXekX8K9uRVq28Q3WjWy2u/gcgirqycJtoxpRUkkzU0r4c2tmFuNVlEpHOxelbV3qFvo9qI9OsOeigLzXLr4suZzzcMD7mpD4ivEXcJAR3NYObludKpqOxS1GXW9RmMkyy9eFxwKp/Z9TXrHJ+VbS+M3U4YZ9DipP+EzjPBUfitNSSE4NnOxx38d0wMUmG/2amkF2UIMTAf7tbreL4m6JHn3UVYXxJbMo3rAxIzwKfOhcjOWWyZ1LPGWHcFeag/stJ1L2rc9xXZJrunuSrRRc+1VbOTT7G4lmi2kSHJXsKuNZx2JdO5xU0Etu+yVSp+lRV6YZNLvPmkhj+tZ91pejSk+Wyhj/dNdCxb6oyeGucA/3SKoFsCvQ4PCVpeS+WLoIx6A1ka54Kl0xDIr70z1FTPERmxRoSgckrZYfWtWN+CPUVkOhilKnsa0YG3Y+la03ozOa1QjKzkKoySas6hp01np5uSpYAcj0p+mIZrhlGA4Hy5rYji1B4Zorp4pI3XFc+IxLhLlRvRoKUbs4jRbsXF0YJXC7uVJPX2rVcbHZc5wcVzlxYvbauYB1Vga3skLg9a1wtRyWpniIKL0K8h+zXCygfI/B+tOuFLTDbzkZp8yiS3YH04qg91IsKSRnDrxzSqvkuggubUuQsELgjBKkVHDgSqKyvtdw8hJwM8k4rYs08qMSyKWxzWUJpyNJR0LbDjFXdO0+K9aaGcgKUyv1qeaC31nRmez/dXUZ+761iaT5iTSfbJnV14AzWlWrze6RCnbVnR+FfD+nT6cRd480ORz6ZrYk8N6XDMptxlwc1gWErWqyMR8rfcyeQavS391sAR8Z54FYxoRe+xbqWLd14U068maSaQqx9TVzT/D+l6XMskVxiQdR61gwzXUtygklYJnLcDhRyf0FaUQnEEc8dwFnz5jMQDzngYrRU6cEkkQ5ye7Oju/sl7CqG4VWByCKybnQ4plJW6X86z0+17DJJsfspI6mmeXqTRmRUB2nBA/z7U/3b3H76RUvfCF5LJlJlZfTNZz+DdTXoAfpWwLvUI/4GGfQ1PDfXrHA359M0+Smxc0jl38M30BO+Jj9BVaS3vrRWjWOQJ3G3NdsNUvVlVAxbPTjINKut5QmSOJx/u0nSg9mUpy6o4aKymmbMin0zjFags0S12uQWFdhBd2V6RA9vlj3UCqcnh3fdTtG4CIMmM/e6dRXPNKGlzSN5anCzQIBLkDgV1vg+Fk0FZR08wisPUNGljZczxguucA5x9cdK6zwVC48PXMUikFG79q5qjTRvFGtpNz9lmz/wA8nzj1HQ1leLDHBqsbQ8RyEOCKebgW88jSHA5rO1DUYLyxhvByiBlwfUGs4rqMda69I1/Pzu+YYPbgYrrPFszNpNmoGWMef0FefQXMSqgjj+aSTJI967/xGJJfsUMYy3lcCtuW5F7GC+lz3EMCmR1R2HGeOhrTttCuba6DQyb3XAX0xXO3OsahZOY5MZQ9COlb95qV/wCH/DUGqtIslzMQBEe2f8BWtWPs0tdzOEuY7+CzijsjbS4LyL8xPrXmetWBsXuIVXO9wFx361zN1431i5mLNLKpBzw2BT7DxFeXmqWX2ly4adclue9cnI07tm6qrZI9G8PaDLZpavNEMuOcjoa5zxHZC7+IEVsQMb04HpuGa9UtjmKMNg8DpXnUg8/4nn/YIP5An+laWsRKTOZ8XQB/GkalidiA/jk13HhuxjtPDN1cOwMsshAHpjgVw+uP5/jibJzgKP5V1Wm3Tj7RbD/VmTP09f5VnVdtTfDJydiCJka8dj25b86wNS1EX/iOOSFMLGMcfrW1aLvNzk/eULmsex01rLUrh2l3RgfKD61j7eMFbqelSwU63vfZfU6eJ/3G4jtWZqbkPk/wrwPwq9ZOXjKkZ5rD8U3D29zgABGWu2UvdueRypTsdz8MXM0VzMwwd+PyFdiPmvJD71zHwzhjj0dnjzhjk5HfArpoOZ5D71jDqyp9BLYbr+Q1c1k4iRfRc1WsRm5c+rVNrh+8PRMUR+Ng/gRhaavBPq1LqRxbTsRlcEH8qn09MRA/U1keKJZF0icI5XJI4+uK0lsRE1fDkYj0S2AGPkB/StTFVdMQQadAg/hUCrZNeVP4mehHYY/CmqlvzJK3qasyN8hNVrMboi3qTUdSjlviNc+T4ZlXPL8fnXmnw/t/tHjS3b/nkjv+mP612/xUn2adBDn70g/qa534VW2/Xr6cj/VxBQfqf/rV1rSk2YS1mj1zOJG9s0aaP3Ge5YmoDJjzz6A1csl226D2rl6m/QsNTO9SGm4piGnmlIORij6U7FACCpAKQClFMRl69IVsdv8AeNc3CFXJ9a3PETfJGmcVhqFxnk/jSY0OMgz049a8i1K+a78dvLjd5W7C+p6D+desXMipayuSNqof5V4/pN7FbeIrm+dBIVkGxT65z/SqivdlZX0Im9Ujt786lqPiDTLMGPMJEpRRkLjua1fGH2w6bFaCUtLOwVURTyTVLwTdX9/f3+oyQKzOwRXJ+6B2/WrAub++8dfKkcotozgbuEzxn6189OLjXUbK1NX+Z1p+5fubcenX1roWyS6cbIsYVcdqr6NpN9OivcXVwflHyk45x0/CrusR6teWYiiMS85IB6+1VrJPEUc21/s4jCnnvk8nvXBCTlSk20m2aPSSQ+bQpJC5aaco0hP+s/hA5PWsyLwpcyacwjkdbidyykyfdXtWyItakTBkhClNp4qC8HiFLiA2k8RxgPleAKunVmvdUkKSW5ag8KwxwIkgLuBgsZTzRTzDq7HLXqA9wF4orlc6rd+c0sjyjXdPgXTvtKQiGRD+7KnORXLnV4xHvey57sR1NettodrLD5cliWUdi1MPhiwaLyP7NUoexIr9LvJHhcqZ5C+twkDbax1Kmol1BWxU56Y716unw9spRgWCoPc1cj8DaZbR4kZEA6ZYcUc0ibI8e+37WCy2OwHuBmu08BwWty84ECSyAEorHH/1664eG/D6H95IJCPx/pT4dL0CzmEsMcoYf3VNF31Cxxvi+KLRtZiurdBDI/Eqds1yWq+KJ7kGB4YsDuFr1nU9P0TUWV5YJmZem4CsaTwdpd7IWjsnY+wqrsVkeVG9FwuzYT7Zq1p8KwuX2lQa9Stfhtbb962hQ+5rTj+G0Mg+ZgtOM3F3FJKSsc14JuyWu7NUUq6Z3dxWbrv7hkJAOSRzXoUfg5NBikvLWQtIqncp7iudi0nT9euZI76fyY/vKc4qpTc02zKMOWSPPr25kWNEh4eQ4Bz0q9Hoeox23mrdOZcA7WPBrptV8JaDbQGWDWEeSL5lQuOfanafq2n3GlD5/KlUAOrHB/WsToOTgvGkd4J0CTxnDCpmPpisbVJpBrcs1pFK8Z4ztPNdBoWm2V/a+Zf35tnz9wnH9KAuVt/qKeD3Ard/4RzRs8azx/vf/Wq7D4X0jZk6s2Mdef8A4mncRybTMvQYH1phuH6ZP511cvhrQC2G11VPpv8A/rVEPC2hMcDXk/7+D/Ci4HF3t5cvLHbRyuqv6Gr8Xh67ECzRXUkc3U/Ma19S8J6XGjSxavHK8akookByfyqKLWUbRlTyJPtCjBV1P86Lh6lbT/EM5jaK4wZojgkHr70+98RXbxhPPk2HjaTkVzwt76fVWkW3eOJyATjtXTLotm8Y8y4ctjstO4GHNNBc2ZYYWVGx9afatl157Vr/APCL2UhJEzjNWIfCSblMVw3FdNPEcqszCpR5ndFDSH26iR9a6YNlKitvBc8NybhJgSexrTXQroDl1/OubES558yOiiuSNmee6gqrrLsByR1qIt8xFdjd+B5bm488XCg+marP4EutxK3Kn8a6aFeMI2Zz1qbm7o468uRFEqk43cZqvpltJd3/AJOMx+1dfcfDy8uAFM68GpbLwFqmnyb7a5QH3qKtVTlcdOHLGzKen6RarPJ9rARB0zior2aK3iKwIGAPHvW3J4P1aXcXmjDt1YNVQeAdUVv+PsMuckE5qfa6aFKAmhSQNf8A3CqOueG6GmK9pdapdebBhY+knQGi58F6rbFp4rgrtHAU1e0vwlql7ZeUIpM9WOOTVUuaTFNqKMlXa4nM5GIl4Rant5le5jEjYQsAa3o9DubeIRyWpbb7YzWqI9HWJVm0qdWA5YKDzXTqcrZAdL02NWdZ8N5ZHPuMH9CawikC3QiW7HJAAwec1oyhHaTZFIkYO1Sy1Ha6REL2FpZwJBMNq7ehz0JrJto0hG5LoV79otzHNEJBH8wKHORkDkfUitS4vwhM3kFd4ONo4HPIx2qHw1BFZTzQMDHNMuwSbeB91gfxIHNbl1HbwLI88KLIvyqUb29KybOhPozkr64EmPJXbkYBI61o2ukI9sLiWRowyBo/LXcXPOPwyP5US2guoRM6Ls2DY6jaxJz2xzx/KtOCWOxsYwXAKZUBucAjkgetT7QPZmbFaW0VnILl/IwpIJQsScdh6H34qkNOaKEXUcRK7whlVc/KwbOR7YHHvWq8q3cTtmRnjY5jLcMMDqB+NTec84UwmJHA5G4r0AJzjoT81T7Rlqn3M2HSYLfUnQglFCjEfc4H/wBcVpK9lBO/zlI3TJ8w5CHpmpLuSIrExEaXLrjzF5Y46g447jqKoz6Pa3sf7o+XuG4ucnjI459xUSbk7lJWOXuLCP7RMhnGwFipX29q0/Dl5LA01tMu1ZskE+tQ32kvchzDKDMBtZehOPbGfU1Sjttk8YWZokfHzE7gPXPPHNZyubws1Y6QxwXEEm9AflI5rhF0K51CK42SMkETltoPGa6W7gmjti3nZ2qSGU8OB1/GqK3c0Ef2eFt0Jb5iO/vmhaGbirhpOnWyaaHuZcTRzBVGOccY/rXZeINQjsNWt7hyQsceeBnH4Vw9xdzfarVLYqQ06Bwy5OMit7x/IYG3gBmEY4JxXT7SLitNjDlakzBuruDUtcjZX3JLMo+YYzk10WveIdFniGnTq+6IY4UnFeeafdXUmrWR+ykKZ05z/tCtS/i369fSN1QBv0pV5RqyVghenB3Ma7tpHneS3bEJb5citTRorUadLJI5+2RyjaPT0NN0gQXUb+YuX3ED86mubVYNTto1G0OefyrGpsOlqz3ezuY2ghJdclR0rzuyuY2+ImoyE/6tGYH8CP61Shj1PT57a7lume2EgyoOcLmoL2ynbV576xfYJl2nd1IqVJtXKlFXMuWe3uPEcswYl3nC4/4Fius0wbZJie7E/oa5i00Sa2vIpXIJ3549etdpb2hhhLHOWRj+lRNuSN8OlExrqZtO0u6uUAyuDzXLaFqNxq2uM8uAoXdtB4rp9aIbw7ehuCTgVy/g6DydbZWGd0QP61cKcXaTWpU8TVScE9DtY5jFIoGACw4rM8U2lxcXMKNGVQjOT9a2jEpniA4IYEVL451Hy7KFUWMSt7dK2fZnIdd8PoyPDqttxwf51u28TbmyOuTWF4JEsfhWyCtgtECc+/NdGskqdNpNcsasVozaVOT1EsY9soyOrUmsRF/Mx9KlSVkcO64284FQS67a72WWFhk9xTp1I8zdxSg+VIq2kWyDp2rnPEnz2sMf/PSZF/Nq6wX1pPC6wn5hziuV1hQ97p0ZIA89WJPsK3butDNKzL+p67baHBF9pDBSOoUmsV/iRoisFM7ZJwBsPJqfxKsF23kuykbcdeleWzaVGfENpACGDXCDj/eFeao3ep3Xtse6tKJLTzAMZGaW1XbbLUEgK2YX1XH51bjXCKKz6ls8o+K0xN3aw+mWpfhJb/JqFx/ekVfyBP8AWsv4lXPm+ISgP3E/mT/hXV/Cy1EXhkzd5pWY/h8v9K6paUkc8dZnTyna8q/3iBWxAAsaj2rInA+2RL/ebNbKDArlW5u9gf1pMU5ulIOlMQgpeSeaO1LTAUGnKPam5xTxQBy3iGYNehM/dFYN3qaWgjiCBnZuT6Vp6q4fUpT15rHvdJN5NHKDyOtNW6id+g/xBMtt4euZc9UxmvIfDlnJqOpLHHF5juzNj0969H+IE/2Xwv5YOCxxXCeErr7FM0kcTvIFA+UdB1roop8rcdzGo1zanpmnadrlha+TaeTEp5Ix3/KmWmleILO5luIjCJJfvN1J/SsKXxLdgfLDOv41Tn8V323Ykkyv3+Y8VxPCYhttyWvkae2h2f3nb58UqMebGfy/wpsj+KwvyyR/gB/hXEp4svFgCLczGXuSx4pYPF1/HNia4mK+u5uKj+z63Tl+4ft4+Z1u7xfg/vB+Y/wqJv8AhMGbHnFR9RWMvjUZ2/a5fruNMbxi+7KXcpP++ar6jiOnL9we2j5mwf8AhMcnEz/mKKyB40uP+ftvz/8ArUUfUsT/AHfuD20e7LQbUR/y8TH/AIEaeP7S7XEo/wCBGucbxXfMeFH4AU3/AISK9I3Fmx6Zr3OeJzexmdYEv2+9cy/ixp6JLjMl0c+5rjDrs7H5wx+pqNtYkBIWP8zRzxD2EzuN8SE7rk0G9tl4M7H8K4X+2Ln+GIGj+173jEA/LNLnQexkjvFvbZ+jv9dtSJrj2QIgkI/4ADXA/wBp3+eIeP8AdNKL3U35WE5/3aOcXs2dpc+KtRl+UTS4/wBlQM1Wh1W+duZZ1Puf/r1y63GrMeYcf8Bp6y60zECPH/AaVx+z8zq59Q1cwlEuZGVuCNxrJSLUYX3RRZb0Y8GqcZ8RdE4/4AKd9n8TOc/aWX6KB/Si/kJ011Z0dsJ2QNNp1uxPWrqpAo3S6TBj1/yK5H+zvEL58y+l/wC+6P7C1OTiW9fHoZP/AK9LXsO0e52K3GlIcSafEv4CrKXOgqAzW8K/UCuF/wCEZc/6y7H/AH1Sjw4gPzXBI/GpcZPYpez6nosNzoT8pFAf+AitKO5sCoVY4cY6bBXlseg2sZyZXP04q9bwC1YGGe4UjphqjlqdwvTO2udK02dmk+yx7vXaKq/2JEqKxjgCn/ZFZMev6hGu3fuHqwFO/wCEguyMGOIj6VpFSW5Da6Gx/YMZ+7HB+QqNtGEbAG3i577RWaNYvpT8sa/gDTxd6nMceXkdsg0723Jt2NNdHQ9oV9sCp10dP+mZ+gFZ0UWqydEjX6rV+BNZA/4+I0+kYqXUiuo1CT6FhdCdx8ip+VWU8Ltt3PKiVV8zUl4k1PHsABVmPT7yZdz3Erg1HtV0K9m+oraLbxcPeJ+dV30yFjiOUuPYE1P9jEbbWfDf7RFSXEc0EBZJQMDoDRzt9A5F3IovD3mDqRVhfDdsgzJNg+5qhbSahcybElYA+tJdw6rDIFWRWY+oNO7E0i8+j2Cf8tNx9s1A+lwk4jDflVCZ9atyN0SN9BT4rrWJDg2q47df8adxWL6aGr9XNSTaJaW1u0skuAB61l3Fxf2sRlmt8Aejmse71C/1iAW1sjo3X73UVLbSNKUFOai3ZDG07ULicXRlC2m/5R6jPeu9t9Pu7BkltLi1cNGPldMgj8DXm81zq2iQfZZ5nAY79ki7gPzoi8eX01qU+ww7ovlJRiM++KVHEatS0R6WMyy0Y+ys35M6+6g1KKQgzWhJ55jP+NZso1InlbNh7ZFYEfj6G3/e6lYz+UcLujIbBrZ/4Sjw5PED5k8W4A/NERxXbGpF7M8apQnTdpqxD5tz9oD3FlCyR8gI1ZqQzXbB/sw3YY/M3HHJz+ArdU6Verm1vAFKkjJOXI/hGfp/Ko4PsGmykRFruSRsDy3zjtkH8u1KU33EomVCskdzC8k6QxrC7c8HcAccdeWHWlR/tF4ipKtyXK4LDGCTjnPXqOvHFa5WAyLNqNuighlRppNqAgfQZxx9a5uZ5Lm4lnjIhiRdqFYyoxjnHucjk881jKRrGJsMbTTIzNCBPsB2yvyGYZ4x06qcf/qrHn1RCFmkt0eXJy8mcDIA/Hp0q5dGHS9Ls4xtDrH5jKQcfPgjPtjFcddXRu4xhytspIDAcyc/wj+v86i5drGlNq6iaG0ijLzMmS3zLjOTjA/rUc+q2lq6xQsjSsuWcghEY44HGT9aY+xbVSpgDKvlyPPKFZh246kY4/Css6kEjkhxaMrcfITlfpQB0lnqouYJkuEHmO3zgcBhg4IP4VMl4qhYQPMQxAKW5yCSScexPSuPik8iYtBOclG4B/2Tipre5Pm+d5myEEMQPX0Hv6f/AK6AO6uLlobqG7RhPIYkYPxtDYwWHfORmsjUYxZ6oVlhWTzjlAvBAPYgc+/41TnvWe+CRkoANvy8AIckH9R+tdJbSjZEscaPdyJlXyDgrjueAMZ59qdxbEEGnymwdLiBYGfO1M89evt2rCutM+zXYTzGwHx5YP3TjkVu6xcXmn2ciXDytNKiGVmBPTrgkd+B+FYdzqiPqMyyRs8bksQ3b5jyPwpMEaOiaPv1eK4kG6FMNuJ4yeRW5qenQatrcsUoWSNU+6D0NZumW8gnRUuSjSYAYt94ds/TpU9ob7StckeEpcAgB0Ydvb/PemnoTJXZdg0OzinjAtlBRgenpXnuqnGu6oRwpwOPYV6xZap/aEfnpFGERvmVhh1OO47V5TroA1e8fuwLHH1OP0oj8RFVNQMzw+Mox/2qv3j79ehGfu5/pVTQgEtdzHGTStKG1yJgQct/UVNRaCpaHp8cEb2kaMhK46Z60/bGn/LumB7VtW0lp9nj3IB8o7imz29pPJlZAo9M0JotpmK8yggrbRcUv298YMSjjHBrTOn2/wDz2pk2lIE3Kxodhps5DWreC7KiWVYogdzLnrijw6dFiulnd1VtgXk1cvPCdpeTGSS8kOf4fSq3/CE2CsGS4lUj0p8ysKzN2efTvtCtHKhBPHNVNVSxvXT7XIDInKgHgirC+Gba6s1TzXXb0Ydalt/ClrbkuZZJWxjLnNLm0Cx2uiRLFpNuqDChAAPwrQzg1BYhUs4kToFAqxtyM1573OwUctTWjRj8yg/UU9RzS96SBlaaGKK2kkSNVY8ZAri9SgbUPE9nZszCEI0jbTjOOBXb3v8Ax6Y9W/wrkLRvN8YyHORFAP1P/wBau6GlK5yy1qWMjWNLgN46gy4H+2aztO0aBtdsmVTuSTdknPQVrazepBdsWBJJp3h2RLvWUKc7FJNcfM2dXKjrbkYEa+4qfO1c+gqO55uI17cmkuG2W8jeiGoRT2PBvGk/neJbw5ztO2vV/AlsLXwhYqBjdEH/AO+vm/rXi+vymfWLtxzumb+eK990eAWuj20I6JGq/kMV01tIRRhS3bIrnP8AaVsPrW2v3ayWTdqaH+4B/KtYcKK5kbsCaTFJ/FSk4GaYhP4qfTV5p3emAoFK5CIzegJpBUV+/l2Mre2KAOLuX33Lknq1WI+EH6VRi+eYsOuc1eTdgbjk0AeffFG4xbW1uOrHJrJ8LXNpZW0hKszsx3EZ4p/xKuPM8RQQZ4QZx9K0PD89lZ6TGpbLEZJA6n8q7qKtA5Zu8ixLrNoqMcSZ7cmo7S7sCpaR8s/JLU+6u7Kd0iDLycklV/wqwkGnygKqwnHH3f8A69aklK1lsTPMSy4zxkClvmsWtiFCFjwPlFO/s6xfUGXbHtA7EikvdKsxGBGOScDbJ/jTERx6ZYm3wQmT1O2s9IrKzuGSRYih5yQa1V0KLYPnmB9iDWdqGhbE8xZZOP7y00ANNphJxbxEeuGopsWkO0Sn7VjI/uGimBIvhpv4px+AqxH4agx807H2rXDKKXeAOlVZE8z7lFPD1go5ZyauwaVpUIO+BnPrR5hpDK3SjQLsm+xacg/d2wx705VtExi2jqsHYnvThmgLlkvD/DBGPwpwuQo4jQfhVU5PSlVJG6KTSDUnNwx6ED8Kj885++RT0sbiQfLC5/CrMegX8vSLH1pOcVuylFspmdm/5aH86YZGJ++x/GtuLwrct/rHVatL4ViAy9wc96zdeC6leyk+hzLSN2yaZudyB3rrV0jSLc4knVm9CwpHudIs3wsBY+oWp9v2Q/Zd2c1HbXDHIRj/AMBq2ml3s33Ya1G8SQox8qz+mcCoG8RXsuQixRj86XtKj2Q+SC3YyPw7enlgi/WrkXh4DmWZB9Ky5dU1CXObkj2Xiqhad+XmkYn1bNH7x7sPcWyOrj0TTl+9JuqQ2enwnKQbz7VyHm3ETDY7g1Ir6kzZWVwPYUvZt7sOZLZHTSXHlcxWS4qL+0p9mWjSP6CsqKHUmHzTufwp7Wt4QQWdqfs4h7Rlpr+aUkLM+fYYq5barJaQYeBZSOdzvisE2d0Cfleozb3AbDRtinyolybOgk8QIzZ+wJ+D/wD1qG8T3zIFiCxr+dYcVvLI2GOwDuauJZwx/M8+fpTsK5ZTV4C5kvw8jdtoFSjWlcn7LYjA6FzmqUi2Cr8wYt7VA90VQrDvVfpRYLl9NeuBdItzlIc/N5a8itZNY0Z5QFMjP/eYGuT82Rxhs/iKaqsMsjY9aLAdnLqlmpJSXjHZf8agj12yIJkuguOxYk1ym47fmdj+NRvFnG386VgudPc+KbXdsCyzr0xjAq1ocltql2LqSHyI4SRkc447+3NcTJAwcfNt71NpOu6hot3J5MIuLWVcSoR+oPY1cFqTNux2firRobrEtlLluck9MdgMcVxEMR0a9869sRPA3DFMZH4V2WnatZakpNncGOX+KCQYI/D/AAp95aR3kLw3NspDDG5a39nFoSrTXU4DWBo1/a3McCPHkblDKRz+NV9FRdSt8zDlVClguMcen5VTmtL3TLq5jlncRRZKISfnPQDn6/kDWxpfmLcjfhILaASzSbeHJxkCsrKJpKcp7u5oWOhsP35ISKIfMTwAAcn+dOhu47d/KsyrOcnkhcdMMzenPT26U7U7+8e3+xwLsjl3fdPLDgc+vf8AOnW1kLdrVJGjTGSOM7cfxHHUjJ/T1rNspKwNI9yLe7vUeQYIWJk+96Afju/IVZ+wWwlleSUARRM5SL/loQewx79eOhPao9Q1BLSDzJF3XMahF3NlVU4KhR7A5P1rBstYCRzvM+C43A7Tghhjb9FY/mM0hmhq1uNXl2iNRapGHkk342xIMKv+8QhrDurf7FbRh4B9rmTd5ci/6kHoFx7evqa37PUIbnT1gdV4lUzEnG5Ao447HaR/wI+tcl4u1W9l1EMsksUkjByyHHI52nuOMH8aUQZmXc+mMGSaYeYGwR97B9M9OKx5TEsgAbYrHg+UNp/EZ/lSTym0CrDGjTElmLLu256Ag9/8aZbS30zN5waWJuoPAH0H+FUKzZM0iW4Ecg3KTncjDIHOf5+1WHliWNVDM4VQQhbBJPP1zSWuksTubnByKuS6d5jFtmD3zUOaNlSlYbFcvJcqS4VRtDe4wMj/AD6V1en3clzPKbbPkQgKqKBkgdT9T/WuVOllAMEg+1OhnbTZFMeVx3zihSQpU2kdbcWl7eRCVxI08z5x0RcdySO3pWXcWsWn3E0sxVJyQGQEMVHpjsePyBqrFrLTOv2e4SHnb+9Py5PUjsDz3qjqUN3aS/LExYjG/d8p753Dp09asxNhbua3gjkZXHk7lh8wYZuQTx+JrotLvTe3LMAoLKCT1K8bhz7nivNDqbQSwxtcOfmJZ+Gwe/8An2rqdBvWiulmWRQSuGxwPypPQqNmzsZbO4uJ/tEGI7uNPmHTzMdmHv8ApTZ/ClvrFlHcwOBvXo3Y9x+dZA8SX1ptAhBJYkt+PT+Va+g+IFQTwNGBvk3rk8Akcj88VHM+gTSloYL/AA6vFcpBdLgH16VNZfDiaO5Es9wjEdga7ppgPLUjJkbcGIxn1qXzoFfhFz35pOTZCglsYcfhKVV5uHP/AAM1PF4ZkDBfN4x/eNbT3YTGAMU37dgAqB1AoTCxSXw3IjZEn5k1ei02deHkDL6Yqz9rOB9KBdtVisVWskRtrIufpS/ZYgPuCpJpt3z9x1pPMBHFZspEbRbYzsAHsKr7zt4arZJxmqk8BVvNjGSeoqHcpE9lqMkEoVjlP5V0sM8csQZGBzXDT3E0bAJbO30FMXUdWgY+RbEKezVjJGimj0BOadtwap2N7G8SK7jzMcir/B6VCRoynqWRbIB1JzXHaEN2uarMV+4qruz7E11mriSWLy4BmQJXKaOslvp2qyy8O0zc/gBXY5L2VkcyT9pc5/WZFnu2C4IB61u+C4kVpCF+fHWuVGC7EnOSa7HwevyzntkD9P8A69c0HZM6Jbo35fmvB7L/AFqrq8nlaXO+eiGrWM3UjemB+lZHiybyPDty/wDsH+VRBajnseFxRfbNbgj6+dcKD+LV9Dwptt0FeEeFovtPi7TkIyBLv/IE/wBK98xtVfYZrfEPZGdHYqxDNzI/+2RWj2rPtRlAx6sxNXycCudGrAdaRxkYpV9aU9KYDVpQaBwKKBDwKoa5L5emP71oLWJ4llC2qJ6mmDOdtkAjaVyFUdyatx7TtYHI7Vi6ubiTT1iiDYPXHWrltvtNGZ5RhkiP4cVVlYSZ5F4pn+3+L7j5uB8ufTJ/+vXbWS6ZHYxRZi4UdVFef2saah4klaVgI2myxPoK9INnpjRDAhwo9x/Wu+KskjkbuyiLbTrq6bCxbE4zyOfzqU6RZucoSv8Auyf4iq0OmWs7yOpZRnja4/rT/wCy5kkKw3MgGOdy/wCFUBVbSVF7tinlHGTxn+Rps+nXEUiMt1k54DKabJaX0N4wjmQkjkk4/nQRqcE6MUMnHG05piLL2+phOJomP1wap3MOqGIqY9wI6qasTatdwofOgbPuP8ah/thWTLxDOP7v+FAFRdQvUUL5EnHHeimLqK7eUOfqaKL+YHUrFUixEjgZrrl0bSbQb5pl4/vOKa+q6HaDMah8f3EJ/wAKyeIv8KNFR7s5lLG4kHywMffFW4tBvpsYix9a1j4ptySLa0c47thagfxNdu+FijUH1yaXtKr2Vh8lNbsZF4WmJ/eyKtXI/DNui7pZSfpWZLrN3KSDM657LxVZ5ZHxulduejNmlaq92O9NbI6D7Bo1t/rHTI/vMP8A69OGoaPbj5Apx2Ck1zTKCSeMGoyFVuKPZX3Ye0tsjoJPFUCSFIbM+zcAVnXPi3UAxEdsmO3Oao+ZGEy2M+mKcuXU4TJPfFUqMF0JdSXcrTa9rs0h2SBFPoQMVYtbe8uwHutWRM9t3NTx6fcyY2xZFXIdElyGfatXypbIhyZBHoNh5m+XVWZvYgVV1Oxs4U2211JI/bHNbkeh24OXJY+1XI7W3hHyRiiwHBIsxbYI5GI7461qW+m3kgGImAPc11oVQchQD7CnZ4pgYMehSY/eSAH0q5DpEEYwxLVo5J7UmDmgRT/s223Z2kVOsEcYwq8e9ShTTto70ARBfQYpccZqTHFAxmgCMUmD0qUY7Ux54ov9Y6r9aBibM9cflR5ad1X8qpT6xbpkR/OfaqM2rTMgC4WkBt+TEf8Almn5UjQQ9PLX8q57+0bsLkPmhtWu9g6ZFAGpcRlSRFaBsdCBWbJa3kxx5OwH0pE1e7H3iuKUa3MRg43A9qBEYsriNNjxkn6VWn+1RLhYm/Kry63cB/miBHrmpG1ps/6ktmgDnJZtRmOPs7DtnFXdI8WW2kq1pe2bOQeXXBrX/tVGX5oCD9K8/wBZkzrE5VDyc4A6Crg7MTVz0A6z4V1E7mbyJOzFSpH4ipf7eFjETb30V7CuOHYbsfWvLvMAAJOM9PeliuTGS6uFI/WtOYnlPR5vFGlXq5ubYo2Cckbj6cfTNDvYPpscFhGrROzSMVXleV27vy/WuLgkkjFvvgQs4YbugAOeD/OuojtP7J0B/OjJnuCTyc4UAEY9sZ/PtispzuaxjY17gyQiL7RIq3EgLRopxt6deD79cVWTUl0wZuI1e4ddqFznywd2cD19/esVdSZbeS9aWIsqARIWyzN8uR37Z68cms3Ub3zp0uLyZS84IUFuVAJGCAvGc5HSsrl2M3XNWS7k/dtMZXYAIWyApxlmI6kk5wOOetQibNxOjNkIdh/kBn9a1La0tQzyacz+c0YOZk3sTn7uFBwPX14qjfWqWQUiRpEBPJQrhu5OcHqcD8aGMt2dxtvoixYLuJYKTyg2qP0B/Os1r2WS4luggWVwSpIBODxlc9wKprMZLmYhiBGVG32wf8/jUtnEZbmLJDRgDjpxj/GlexcY8zK0WnNNOE2Ng/dzxk+pretdLRc7QSB0OOtSWFqQWIBGeK3ba329RWEptnZTpqJmrYiPbvU4PQVJ5KKclMn3rWdMLyBn3qB0GM4rK5tYzJrfPI6Gse9tv3ZrpmXjkE1l3sfykgYz2q4szlE4nPlSNDIAY2yCp71OgkEMkERRlKl0XI+Yd1Ip2qRBW3dDjr+IrOZ2BDqQDkOv5jI/SuuLujzZrllYimDB1KZXP3QRx61t6PLJKuAWBIySe5BGMfmaz7iMXMEb7QCuVbPA9ck9uc0unXD2sflRxqhc4LA5IX0z75/zmm1oStzuI5wYjK27DHqOx/8A11LbskaHcrM3976Umislxp6KwBwvKn8/6V1lhpdtKFikKlh0AHUVlexdjmxqsztDiSRBFFwrc/MW/ltwa3fDT3V7JI9wW8sdMitJdDsZJmcRBgg28D0rVihjhiEcUYUD0obuSNcKwxjpTNv7tscYGalbKjG2ozIo4PcYpAW1f92ucUbwcHiqcd2hjHXij7QvfNVcmxeDjByAajRsMR+VQrMMU2WUCMsMllGQKTY7FomjPpVGK785Ay/jT2vNg+7mpKLY5+lBHpWedQJ6Cj7Y7dABUtDTNEMo+9x71bt9WFrgSyK0frnpXM3Nw86mNs4PdarnTreVR5rzED1aocWUpNHWv4hsX1IwrMC5XjFZEmnS6joTmKYpvZnOO+WrOtdIsmmXaSp/vE9Ks2eryWES2YjMsa/KGXnoaShJRBSu9S6ng6z+zpyxbHNaek6eunwyIqkAtxmrtvdRtErEgEjoaRZfMVnBBGe1ZuWljRLW5BF8zSN6sa5f4hz+V4akUHG7j866q1GYA3rzXA/FG42adDD/AHmH9TTpK8kKo/dZx/w+g8/xcjY/1UTv/If1r2qZtsTn0U15P8K7ffrF9OeqRqo/En/CvVbon7O49cCrxD94VH4RIEKxwj61dPIqADaYh7Gpj0rE0FApSOKarfNinHHrTAAOKUcGkBHSlAoAemOtcz4lcNconpXTqOMVxuuzB9SYZ4WhCZDCoI45qh4luPsvhy7cEcritGFcqD0rlfiNeG38O+UCP3h/+tVwV5IUnZHn/hK0iub7zrlgIxk4J6k13dzp9i1u0i8ccbX/AMa5fwfpsEtu00/phRuxXR3elRiJBDK4Zm4HDCvROMii0ORYQ6TyL36f4U2KHUY3fy5kkGf72P51Ye0v4IQqXSnA6Hj+dQQXN/DCd9uzr64zQBT8+/ju5DJEzHv3pP7VYXWZYAMDgY5qaz1KMSu8qEOTzjj+VTJe29xcyO54HADgN/OmBDcatbyqqEsuTyMn+tPN5ZunJQgDugpLmKymlSPEWTySAVqvJpFq7YRmB/2WBoAzZpLR5mYImCe2RRUkujbJGUSNj3Q0UwO4YsWywL+1OBCkKI+vtVZ7tyqgk7vepFSXbvVsnqBUjuSMDuweKhX/AFpBximg3Msg8xdoHYGtG3igBzJHk/WgCiwG4YyTThBNMdscZOa2I7i3GAlrz6kZqxJfCHazwkDGOKYGRHpN7JwyhR7mraaCpx5smfpVp9VtlXqT9KjGsWu7lyPwosK5NHpNpGR+7DH/AGjmrK28UY+WNV+gqourWpIO/A9cVN/aVqx4lFAFjJApC+ag+3WxP+tX86UXMLDIkX86AJ1bP0pu7FME0fGHWnq6EH5lxSGBJxSnOM0oKdNw/OlLADGR+dACc4o3cUMy7RniqtxqFrAQHkGcdBQBZ3EMMUpJ5yQKxn1uM7giFSOhbvVGe/nuYSWlKHOOB2pCOjkuooh87j8Kz7jWkRiI4Xk9wKxUmUMAJDv9T/8AXq/HqctuoYiOQDg5xmgCCXVr1vnKFEJ7DmozdGZgHjLkdCTin3PiOM8NAm0+9ZE+tRu42EIadhlxyYzvb5QfSlaSMrgHmsmbUWkTarF8+hzT4ZW2AydfQUWEXpZFEvyN071C8khfaWwD3p6j92WU8EcZpMho1BUZHtQA0xTmRQH+UelP8sq5ZiacsmWUdKsR+RJJtl3D0I5zQBD95cCpVOBgAZHWp5xAiZjP1qFnjj5B3gjnFICSJ0LbWOSa5XXL6bw/qJvoooZopOGSQdK6BmDAYU8e1cp45DNowcKRtbmmgEl8daXfWUkF1pCqW5Bjk7/iKwZdXhaQeXaxRoex3dPzrlfQ5IPtWzpccmozQ2flqxclg2SDjPT0/wD11TYXuehaHcRXVrAbty7rwYoscqe/5Ac/TrW9e3M11cyO1wvkxL8gYBQ7cknB5OBkZ9wK5/RLG7iuRbyQjc5G1lyw24wenbHFdFrVrdwJErRtBGf3hEmAxQcDgdBjrWTNUZexLTzLmVVY7A8e0/Io5HJH3uvT1FYtxcLPfRyzSGRpMc7QuQfXGauXb28hVGikDZBxvCHHJ75psyxaPZwMdjXcwEjOB9wdAo+nc8d6QyKC8t7CPJEizMSfLi4P45qfVjNqdkBZ6ULSJU3HzH8x26ZYcAnv2NYgm8x9ySMSzsuEGc5H94ct354q8k0MFn50s7tLgp5QO47QAck5yPyoGjnIEls0fzGJMoY89+COfxx/kV0+nQRGMGMEcHnOfb+Vcqsk2o6ohVM4YYA56dK7rS7N44lDDmsqrOjDxuy/bQ4AHStJOBg1HFDwD0qeNDk9KxOyxHLnAxVd8/hVqZcdBmoDAzLk9KkroVixBxVG7+Y81ekXBwO1U7iM4zVIzkcprsX+jsR1Fcu8u5I+QDyCDXZasuYGrhrtSrMMDGeRXVS2POxC965qWzMIx5U6vxgK/II9Ke8DsySCNVcHLKScHnsfw71kRPGir1yTnjitvTLgSRyRv80ZHRhkqfUVozFHQeGNUSC/CXYP2cnY/ovbP05r0jTry3Ny0EjBTHypyORxgjHtXi8rtbThW65wwVjhs9P0ruPDlxHcWeJCS0Zwrk8r6f59qymupaZ6PariMlJcqzEg+tTbTk/vORWNYXDW6CKRs7R3PUex/wAa0fOHDYPrUAydt+fvUwKSfmYflUTXADcqaQXGeQppiJkSITSJx609okP0+lUw+NQUkH50q6zqO1UhCeWtHlCgSAil8wkdDSArraRQSswJAft2zUxhQ9qJGMi7SD9abG524YcjvQwF8hP7gpPJXPCinGQDil3Ajg0hjDEOu0VFJECuDgU6R2C/Lk1l3TzxqzsHYdgKLBcup5SfLvX8qSXU1s0DLD5hH8IFZEVtPP8AvNhXPYmrMlqtvAZp5FTA4GetJ2sFzOuNW1C8vfOTegXkIOgrvtN3x6LFuyXMYJPviuDGsi3X9ym9j7VqL4zKQCI2rbtuAFNcU+VPRlwmk9TtoFxCory34ozbry3iB6ZNek6PcyXmlw3EqeW7ru2ntXkfxAuRL4hKE8Iv9a6MOryHVfum78Kbb/Q724x96YLn2C//AF67645Eaju4rmvhpAsfhaOQD/WO7frj+ldPKN11An1NZ1XeTNKatFE7riSMe1PY4Aom4njHsaJAcipKGgHfinNgKaUAgg+tNlBKGgCGKTdJVkN0GarxJt5xipYwd2T1FAExO1Wb0BNcHebp9Scjpu5NdnPMVtpmPYYriuTcM7NgZ6YpoTLUI3NjGfU15x8UbsF7a0HtXpMTBSFHevIviDcG58VLCOQnQVrRV5oyqu0TU8OaTF/Ziu7sJH5ADDir8mnTpex+RcHIH8fAFN0zSAmmwgTuJNoyQQeaIo7y1u5DDKJD79f1ruOdk95JqcMDZUSL6rzUS6t5dv8AvLYhwO3FOm1S4DIk9sQBz0xk1LPqMD2uCCGb5QrDOPzoQDLG6spIcz7SzHneAf50yKz0y7aRxhQTxglf8RVj7FYC0LMEzjqG2/8A1qqpowMW6OZ0B5AI4/MUwKtzocb3H+jzsMDnv/Kqp0i9jJ8qdH/HB/WphZX0ckhhbzOeqnNC3t7b5WZXI9GH+NIBYfC+vXcSzpgK/QF8e1FemaTZl9JtWIwTGCRiinYDnWKMpI2kD1FIkwGAe9QiAg7ic00ukbABhn0oSC5cNwEXGN1Q/a3BPyjFNhuoA5MhOPbmq81wjSsEBI7Zp6C1LP22UsdpC/SmPJPIMkufc1WRnm+UAKfU1ZgnKq0U824A4woxRewWIWVv4jnvTTgDIUkmtAWSHEwcbcdzzTPMh29Rn3FK4+UqRpKY84Ix2NKYZZOQQAKsrdowwAfSkM5jxvICnrQFiOOBAuCzMfWleD5flYg1HLcLGNyNjn160izJOrhpdrdugpASmELgeaDnrzTg/lqSrnH1qtuhK5MoO3jrUDXapG2Fzn2oAttqErKVRvu96hS5upZebkxrx3rNhvFluAgG0d6tgwfP8+4DlSaLATPql5bymNnZ0PQnvUiXBnj4iO8c5qo19G8YARCV9etSRSykbigXPQigZMwmY/MwOR0zVbZMj8t8tKzs8ikdR6VP8hLSMxLHtQBDKj4AB5/lUlvaSTnyy/zfWnsYpSuwFW75oWNQANxyPegRYbQJVQMxyD6dqSPw5MQxkjVgRxTEupowVikJPoTUou7plDmVie4B6UtRkMulNagEKige1RrbhRuZFwT1xU0ssjth3ZvqaQMTHtP1pgBPGEUYzTZQo4A60yeQBV5APtVWS6J5AbIPSgRZby1GQRnHINVnf5lwSADTPLeZyzMQCMgClXCtt6n3oAkd5COOh70qkkA7iT34qMs4OBnk9KmRgBz2oAvWmpx2/W2Dkd89ah1i4ttY02e1mtQodcAjsarKdsu4ZKk809kBHQ9c9KQHkl74b1K1mZEgd0z8rD0rrfCPh94rh7y5ZEKqq7WbABIrp7qQI8IZH2N1wuTWbLqjSztbqIraJSMBuWyOM56ZpNlxiddofl2s6rG8kM78GdxhiRnO0ckDB9M8dRUN1c7i6AI7OBulf76/N3J6/r1rIt7uxt8uqmViAGZzn+XH86nvtUilhP7oIrZDMi8tg5/zipuXYwNQcRyCP78zuF3MMhVP9aj8RL9u1KfaCsXAAiGFCAKQAO3UcUxrmGa6URDaobDZILNgEn8OP5Ut5Nbvcxy+bItzb/I4Az5o7EZ9gB/wH3oQM5+5lny0aqI0DYKgYGR/M10GiaFazRQtccqTudj39qgurixgKpcli7D5k9SecjI/wNWbTxPpUSJA0c5ZT0ZTgnJ9B0/Gpnfoa0uW+psSDRrOCJLeGNZS5ZmVeR6CtGyvbNxgOM+/FcpNr9pNFJP9mZFT/YPJz06Vn/2/bmTLK6dsEdaycGdKqxXU9LV0b7pFO3DJxxXKaPq6TEFJA6k8YOa6Nn2xlzWbTTsdEZJq4T3SQqS7dqwr7xHGnyIcn2qlq2pqrNvcrGp5P+e9cvrF3Da6rPbwM3lA5SRiHcg8jIB2qcdRzitIQvuYVa3LojoW1a4JLBkjXuXaox4gVOJbiN07lWBArjJpg4lYoZPMG3Mh6c5yMY5p0UiramNVjAByRtBOfr1rX2SOb27Oou9UsJ0ISfd9FP8AhXK3KLJKVjOVPQnjBq9bR74XL7QgB7VncyK6Ak8Z/XirhHlMak3LcpMhyyOxjMZKkd+tWtPd7dWljLsp45HT3p17dvfajK8oUCRywIHIGema2LGMWsAUD7wO7I605SsiYQ5mUp7pJ2WN0B+TAYdiK6vwfOV08OzAZ+Vx6jnk/lmuGuSYrxkUkYY5rpPC92IlTJzh/mB6EZ5H5N+tTLYFvY9ct4hPYhhhmXIUe44Iz+daFrIJIUZcsCAM4rnLSWa2EcXm/M/ykD7oK/8A1v5V1OhSLJA2ODvb8snH6YrMbHeW4P3SaDC2OErYC46uefagl1ORIMfSmSYMsRMsTKpLAkfhVgwOQSVP5VfMyCfJc7umO1TPMQM7+PpQBkCOQDhT+VMMjR/6wFQK2mYcHcaoX6q8DNuBC9fpQBVE6uuV5FQz3BjAIQkZ5pLN1ii8tlGR+tSllZSu0YNMBn2g7QShxSJcFjgIag8wxsYiRntSrKehcj6UgLAmOOFxUqPG5HmDiqRZCMeYTio2kU/df9aYGjOsa8x9B6VSuFtJgDMNwHYmq4wScOWqG4s1b50Jz/EKOVAWY5LBOBbJgVchudLhfzfJjDH1GayEiGPkXcaFsZJGGEC+vFLkiBvv4htkGI5Qvt2FcRqeh2OpX0l1Lfbnc5wuf8K6610iJx8wHvVmWzs7RQZAoB46U04x1B3e5oeFrKOw8P28EX3FQYPr3q4g3aj/ALqipbR4RZqsJG0AAYqK2dTfTjPINcEneR1R2LUozOnsKdjJpHwZlx6U4DnimMUgUxxxUg96QjNAEarxmlAxk08CjbkGgDN1KTGnSHpk1y0KktuwK6TX8LZpGO9c6ilRxTES7gknvjmvEtbdr/xfcYJzuC59MmvaLp1hsppT2Qn9K8TsIjqHiKZtxVTMSWz2H/6xXRh1rcxrPY7SLT547dfJuXAx35/lUNs99bkkp5q5+8OavyWM8FqTDP8AKB/Fx+tV4r2e1A+0Qnb646/jXYc5ag1SJ5SZl2YGMf8A1qSZrHUZUijVeuWK/KR+VSwT2V4SZQpPowzVZbK2uL9hbSGMKOdvOf60ALqGlxrCBFK4JOADzn8qje31K2tyyMGwP4TnFE9teRXybG8/aOgPSo77UrlFEckJUE87hQBHbX8kUYE0bH1JHNX4r+C42x5IyQNp5/Q0yLUbd4gjemMMMj9al0+0trnU7YKgBMgPyn+hoGekW6iO2jQDGFFFJNKI5SgxgYH6UVoFjg1sruRdohcmpG8OXrbXQAE/3u1bQ1a7jGAFI9CMVPBrU0iOTaFgn3sVHK+gXXUxU8M3pAO5Qc5IPSrK+HLjdvDqSeMVrLr9swwyOn4UsuqRSbBDIME/MfSlZgmjmLzTbm1m2upHuBxUBtZHOA4DEda2tRvFuGeIiXGPvBa5h1fzQV3ED1zSGWJIDE6xGbcT6VJ5flosLFvXOKljkRbUb1iRgcZ71JNeBowWdSBx8o60AUlgkT51J2k4qOeynnlBLllB7DFXUvkZQmxgO+DTBeqEKjPPQ0AV0sjuycEL602WzbO4suwHPHWp47jDYkOQP1oVyUJCgc9KYFKSRC4EakKOvHeonjSZGBZwR04q9OxkJwqR44+UVM0Z2K3mAn0oApWGmWxjMmWLr7inmzViGGQhzUwdYnzCxOalSXCnzAR7DFIDNSyXzssSCPUdRVx/LMW1WOF79MVIzHG7kZ6E00jCM6MOeGU0xEY8pQCj5bvTmdJIv3afMDy1PQxgLvtzk9+1JHzIyjARuDx0pDIckyY7AfrVkiOZlOMfj1pxhjThVGDwabHhAVK4I5HvQIc0CBvlBBPpSrC0QI3Z/WqEj3DF227VPQ05LiYMokwB2pAWTu3k44pomPK8g46etN+17EZchsnqB0pjFn2sozigY1o0CBzk89KRirYwoqQqhU7mKljnHpTGtV3Bt+aYCQnaTlc9qsCeJQFeEFs9fWnwoI5dhxzyaHkQhlCA47gUAIiJv4XGTmkdY0bJGQTU8Me6FQpwaYFR0KSgjnrSAbEiliABzUhJxjg/0qNrQb8xyE4pHjdpAd21vagBt3D58RUDkA7RmsO4jispEM0IMrHhdv8AOt22vFNyGCCRE4LE8A1In2XUke5l3LdnKszAFQu0qBz+HPtUNmsUcjeuy3SqqRqrLnpgE/5NR6zfLp97aSwqHjWLyp9jDOdxBH15yKyri8K6hGZS80Kg7ATwGAPH55rHlvXcuys4+bPLc45yM/WmkDZu3ltJZ3Uc+8+S9sXQP8uAy/K2KwtUn+1TNOJmJO1Sue4HWq91I0rpv5KHaGPUjPFRgbnfCnBAbPqapIi5ctbuRkMRy6r03Hk/jVhp3jAf7OuccfNkfjVSFSqBuxH5VttpyTWsJSRGdhyAelTJpGtODkjGmuprgbpSqqv3UUYFRC42rycHPGeRV6705rZiGO5gM8VnyxqsbF1OR0xxVJpkTTTsyez1FrObzIMB+pA6E/Su0b4gQtYxxHTmE+0Bm8z5c4+leeRJlvpXeeD/AAsdX0S4vpI18vdgZ/iNZ1FHdmtCU78qZzt/qdy9xJdKRGJg8aRn5tinGfx96ylOzlRk1b1azbT9UmtmyAp4zUaJtj3dz0rSNkjKd+azKrzkkDb0pYG3yjA7010y2T1NS2yfvOPSmSkzY8p3sW2nCAZY+vtVfTLQzXyRgHBBzx6CrlsWFu0eflYc1o+HIN+tsqkhI4CzD1JOKzlKyNowva5y89uouHG05HpW/FaSC1ikOeVFXNT0qP7UXC45yatpKklmIgB8mMVnOd0jSnT5ZM4nU2U6pPtI+Vyp/IVa0g7CpboTj/P5Vl3TF9SuRn70rfzrRsZAsiEnAOSvHetWvdOa95NnpWmyPNAgZySrBlI7/wCc119jNJbqEjYFCcqT3/zzXD6JOBb22AWIkBKj+7gdq7W0EcscJGCdu7HpWRci/wDar1z8sie1Kt3eozbpEJP6UmAhwMYoIHWmZjHluCd++MsORxSW2oXM0Acgc+9PCbmFVbNCplj7I5FNCZba+uRkNj61Es7zIyuz4PHGKdgP1FPSNRwoAp2C5EIhuD4PAwOacZHxgL+tTFeMZqNlfsRRYClcrKXSQJyvHXrSl2VcsuKtMj4IOOapsHDFZMcdKLDGi5QnaU4+tRyAgkovHuaVo1xkD5qcNyoMjNAC28jLgCMAVYRyJdxBI9KYMcHHNThgU5HP0pDCJ1jkL7AFbt6VfjAPIUVRDoqYYdaFv4LRHklY7R0AFRIaNH5weGwPpWLq9odola4kc/3abJ4otvtSxxIzpjkgd60Uu4nTzCM98Nis2lNWB2MOx1m706ExbGZScrntipIPFk8dwyvCRJMQg56ZPX9a2UW2vGJfyx+IrA1izsYrxD9qCndngc1jLDtapgpNHokLgpGd2Tt61bQ8V5zJ4qEEMdtZJI7oAu9jxXcaNci4soyZA74+Yj1pG6knsaR6UzGKfg9e1IBmkULilC8E0Yp6jC80xHMeIpM3EcQPQVmIMKKs6rIJtRkbqAcCokT5RQNGN4nuls/D9zIepXArynwpZG/vWZmKqMtkHqSf/rV3PxKvDDowhHG41yvg7TXljacyMmMBQPb2rtw6tG5y1nqdHcxXlvGBHLvTP3TwTTlv127JoSjfTFNuxfQOu795GD0H+FSJfWtx+7lXGOzCugyHfYbO4QujKpxklTj/AOtVe102eNGlgkGD0zwTTrmxj8pmt5ioPYHI/wAac8moWdiflDKF6ryKAKlrez200pnVnbd3HFTyanFeXCxSLhFHO7mn2eoQLahZB16+lVxBaX9w5QbQP7vH6UAWZNOtbhd0Y2/7p/oau+F9OdPEUB8zciAnB4rIaxvIT+4l3AdFPBro/A/2iTUbhp0KmNAOffNNbiZ1dxaXctw7ohKk8UVvxAeUv0opXNFI8t0zXbHVP3at5Nx3hk4P4HvV/wCzys+2EvvPGFODXnzBHwtym1/4ZF7H2PatN9Z1ax0G9aO73tHH+6m/jX8aiFR3CcEde2karGNxtpmX6Zqo8VzG2Ht2+hUiuN8IT+NdYmVrTxBdxbjjMkhdfxBrspfEfjDQrprTUYtM1hE6/L5b/p/hXQqj6o5tL2HxtIpGIpPpU7LIxBFvj6rUtl468O3TCPUrW50acnGZk3RH/gQrpl05Li2F1Z3CXEDDIkhYMv6VSlFj1RxVxbqXzLaO3fKU1LaBsrGZUY9N6115tZkGfvD2poXd2GR6ijkiw52ce2iXgy8Lhwe3Sq8tjexQ5a2bg9FFdxLGwT5ZMHqOKwZtXvYZmjKrgHGStJ00UqhzBViwMish9CKmS7eMlGjGytiXVJp22SW8bD129KY1pHcgqI/KkI4OODUSg0Up3MpLhPnG3dxgc0wyN0QAKDkj0pbjTbu2lIkhYL2YcioSq4GA2/PINQUWdrwuCy4Vqe/IIz7ioCP3RZjkA8DOcU9ZFRQWTJH50gHpLLsCEBwDwcVJFHldwZevftVdbgAl42UDPemvdRI4k+9nnvzQMtgtgKd2e1SQxAO46465qvPcNIqMvy7hxg9Kak7IrbyWJ44NAFyYeRGSMlDxVeCUgBSNyjnmmfbUb9y5KjvmkEoi3Rx4dT0OaBD3lEjsMbQTwKiNnuYMrthRkipUIHOzcMc+1XIIvLbIOA49aQzO3+VLiSMsCOCBipIGQSlSSVbp7VrS6dsiDOykDpVJ4Iigx8rg8470AM+SMtuUMDxjFOBHy7FzxQkccmSM5XqT0o86IxhVODnORzigB+wTEMow+OT6U02XLMX+Y84JpXvU2gx7QV646mq8Vx9ockZDj1PSgCwqIoG47SeBzUzIo2g4OB3qmZlmIV2IKnrT5Lny1xkPQBYWXyn2bOG/Wq14RbxzXHQKpIHfpUD3MgiGNuSeDT0hu7+ynj2qZGXYq4ySTwKTGiKziMNrGB94plvyzVW5vWtdPt4Fk+a4Y71/kxPtlvz+lasitGg3MisE24PY4way30k3MKSzTAQou5Q3BbHU/Ss2zaKOMv7YNAgjHHnFgf5n6cfoawpo9rOB0DcH25ro9a1eCJvIs/mkGQzjkKMfdGfx/wDr1h3ETMluu07pgSqgcnoBxVxJkUriYyyDb93ovvj/APVTIZZVuUV2YpuwOeKVlYlmUDEfpS3geNY50bgnBH6irM/M29IsTfzSWoHJ5FXxptxok+JBuBHGaXwbbXN5M11YRiS7t0L+TnAkXIDAe9dlq0Vtqen4VvKuY9pMT4DLkdCK55T97lPSo04unzdTiLmZZpFkCbSFwRnOaz7y2SVcqxyxH4VrXNlJbqRIMeh9agFsywNcSQv5f3VYqQC3pmtFoYzV9zBigZm8lAS0hCjHqa940rTxpHhazsUwGVAX9z/+s15z4Q0drzXoriePy4ozuVD/ABHIr1W/jYW27BBJIFY1Z3djfD0ktWeS+JdIe9E08XM8bFv96uZgfzl+VTuHBHoa9Gu4ZbaXdKhVXPBPesm68LR3jvc6dOIbg/eHZvwpwqJKzJr0OaXNE5GTTpXkAWI8gcKKs2ulThv9U3HHStmO01qwcbrFZSP4lfFaludSnkdpLOODKjBLbua051YxjSd7JGO9i9paNNKu2MDkmtvwpp7w2U11Mu2W6IYA9QgHA/WpIdHkncPqE3n7TxGBhR+Het1F2oKznJNWRtCm1rI57VQRu2jJYbRj3qn5K2NrIzH5VXexPXitmRd9y2ACR61yvi/Ult7U2YO64m4YA/dX/wCvWcU5OwSajFyZxG9pJZJj1L7j+NaVpINqoT24zVRIwIm7HB/Qf40+M4C12tHnLc7nQ7/yp4oi4AKlCe4/u/yFelWiAW7yIchDl8dQP/rV4hp8pMqsz7RuAY+nNd/puqXmmKbdy0kc8e5WQ8DjB61g1Zmu6PRYItwxkcAE08wjONwrE0vWIpbeL7QZIjjuMDHY5raAibLYLZ6ZaghgdsRzvWqMZc6hNJtPkuAQw6dKsMkZbmJOPWqkrTLcpEk+yJx9wdOtNEslkljQ/LIBVZ7wxtuVSw9uatGydGyZR+VPIK9TmqEVBqQwMo+foajfUGbgRvn/AHa0SqlORmoJEAOQooGRJJcsARE2B7VHOLmQbxAfl9+1WV8wc549KjY3AyQVxQBXgvHeTYLY8dzgVba5wcMiCslmuDc+TwM85zUxSbcTuXPrSGXTcsw+UIPfFVrh5McSgH2FRCK6dht2sKcbK/cnmMDtzQBAqOTukmc+3FEkEUgw7uc+hqydHnfl7jn0FSR6bJGwCyA+5FIDJisrK1LyNFMzMeCK149IW4jU7nUdhuqwLCaT5S6kd6mCSWqYeX5TwpqLW2KRCmhQRHjcT/vGpW0K0lA/d8+verkDkry2fwqQYBDFz1qWrlGf/wAI5bwksMk+9aGlW76bv8gEqxyVJq5GQRzk1Lx1UEYqbIa0NSzu0uUx0YdQasBdorA8xlcsrYf1rQtNQO5Yph857joazlDqi1IvnpRJxA59FNPABaotQcRWMpz1GKgo41wTO/Tr61KuByetMVCz7s9Tmnsu0E0AeS/Ey8abUYrUMNo7VP4a05101ZRKyu3zYHIrA8ZyGfxW6qckEgV1ukaf9l0yMR3JMm0ZycivRpq0UcdR3kSXN1dQTRmYBoxxnrUnl2d+NzYVvXofzqpfXE64Ei98ZHelaKOSINGcHHVf8K0JElsp7eZDC/mKDkKadd6lOoSCSLbk8k8cVBazzW05ZwZF9RzipryVNTAQ/KB0z60wLXl2dxBkqoOOo4NZa6fLvd7WQAZ4Bp0FqssTxJKyuvB5yKbCbrTRtZS0eevUUASfbLu2IjuEOPU123ghhPa3EwHV9tcfJqUEsRDYHHIPSu98FRxjRInQACRiwoQmjqPMC8Zornbq7mW6kGcAGisnVRt7FnlRXIweR6U2aHbpGoIpO0wk7e3HNTYqtqbNHpd0yHnyzWMHZly2PRPhlp8C+D7OdChLLukPofQ1V8Rato0mqvts2lGNrujYOR6etZfheBtG8HaVr1oZLmAri9tdxG5e5Hrj0qW6S0kuTqVlGj2rgsq4yoz2NdqPMXxGUhDTLFI222kbAMoyAPeug0jRLzSblrvQ7wQscEG1kDxN/voT0rnZG3jkcDt6VXmkeBGljkZGAzuU4NNq5qetx6mb+CZngFtqFuMzwL911/vp7eorFu9RcOHjBz396850Xxdf2l9FNcXEkphbdlzksnRlJ9Mfyr0pxGx3w4MbgOn0PIqXNxNIRUtCa3uhdRh169CPSpGhWYYkiVqzlnMDvIo5HUAdRTW1xc8E1vTnzoicOVmqtrGOkQH4VKIwP4F/KsI645PDn6YqNtWkZiQ8n0GKuxJvueMGMEelZl1Jp4Oy4shk/wCzVMalIR90n6saQO8hztUfWlyoE2Oex0i6gaOMNETyDnpWZNozI5KXccgAxhhitcSCMfdjY/Sn299bvJsdUVjxgrUOnFlKUjmJNNMaEgZcnnb0qrLHDHgeZ8x6qe1d1JYW0hyFCk+lZGp6QsELTAq6DqO4qXS7FKfc5ZJ8XDIqlkUdcVNcCSZlOVXYvbvT/sn2iVmtoyTH94AdapSElnjHmhs9MViaCi4tzC7yn94vTjrUtrMkkXcID1IqtEP9ICuoVT0B5q6Y0Z/LyVU/eAHFAEi3MaIylt3sOtSJcuqfumDjHT0qusVv9oBKnjOOM095MyoYguMfMCMUhlt7y4a2WKZ145GeCKhnvCwSMPhxyCKPIFy28naAMEZoFiNxdpVxtwMc4oAqyzTO4BztP8WeKfCuwB9xBHHy96sGLyk2SSeZH/DxzUQXy49oU4JoASRkRCEVgXGM+lRLKYlXk7unPerAbcqqTkIc8ipZ441gyI927ofSgBkbsQFCYY9cmmTQssnzIeO+aIkuJBksBjgcVcUziF9xBwPpSAitDApLSxhyvQHoa1kntJIyQPKY8Y9Ky7RXSUOwGDyRV0KZZUBRf3hOO2MkUmVFEE8FnZWkzuztNtJiiI+UZP8Ahk1xV5qs93dbTKZDu2qA3BY9segrrNQRPtHkl/l+YBy3QDr9c1jBtM02EvCqyTSMVErj5U9xn+dZX1OhLQ5CXTZFMzSYjGTh3HJ56Cs+9um+cRJhmwm70AGBXQaYJr3VvOu0WQIC7Luxj2BrKuY4YoI5BGzPJnJJ4yD6frVpmbXYzossZAoJDLjp3oul22KoeuQfxyauyTfY50ZUBlADDJ4HpVW63PHEW6EljVIjodB8MtSaz8Ww2xPyTo689jjP9K9b1jSbLV7KZJbdDK2DvX5WJHTJHWvAtMuW07Vre+XrBIHx64PIr6Ca4jESTK4McihkYdCCMisK6s7o7cHLRxZxL+FkBXbPMFToMj/CrH9mRAL5zSTeXyolcsFJ7gHgfhW1PcoSxXvWJd3JeTYp471i5yelztVOC1sbfhnT45LyS8bkRnaqj8P/AK1dFqF1HIQoAAUVxumy3VqTJbuQT1GMg1euLu48wCWMo2ORU6lK19SprpW5CxAZC85rOjT7PJG44Pp61anzPn5sAehqrsWNuOT6mgV0bEc0c/BwGqUwoOcCsRXIwQcEd60orksmG60LQY9kAqNnwhp7NkVXuPliY56CrMZs8+8W6hPDq0K288kRVCSUbHU//WrllMk9y0kjs8h/iY5NXvEFwbnXpyDkIQg/CoLdOh9ea7Iq0UeTOXNJj8KQ4H3Qu0H/AD71DHymO4FOdgIyB/E2ajzhgfaqJLcL7VRh6nNdhol7HdxxWUo2yxltkgOM8GuMgJ3cetX4blobkSRth43yPfFZyVy4s9W0YI0PkvMzErtIYehPH5c1raLdubVbaXJkiymexAPX+VYOn3iX1nZ31qPLmL7Ap6dT1/DIP1rd0mVZZJQ42TrM+5OmAzZBH51CHJGmzhVJIqlLcCOaKTbjDEZP+fpWs6oEKnAPvWPqnl/Yzkg7WB+lMzLpuUkJ+fJ9BUbSgHLEgCnQXKtGpihVgR1Ap5eZ2yVQKe2KoRVl1O3iU8k4qJ9SXyw2DyOK0fJV+NoNH2dFI+RfyoAowaiXXAiP4ikM8zMdsfH1rSWGLOT/ACpWgj52kigdzEurT7QokbcCpB4FWrWNHjDIcg+vWtVIwEwRVMw/Z7jp8rdB6UmBLjy1AHPFIpI5INShC2Mdqk2EHmpGRKS9OEfOanTaOMUuOcgUDGoCuSKf9nEqYk5HpT0VfSp1XikMqw2IgyFY7fc1YSLjhATT3zt+lQpO6tikMseTN/d4oLOowVxUkd7KoxgVFJO8h+cfpSaQXZEyyy8KwX6d6sRxScFnxj0pkZI6EVMu714pWHcsJczQurNloz1b0+tSatdwvZBFkUluetU/NKnGcg1m3tpagNPtkJ7hDnNJ0r7B7S24kYXGcjHrTbmWKO2kkaQbQOoq7ZLYXloCAyovBDcGpjDpe3YIVZfQkmpVLuyva6aHzxeWd1f+I5rkWsrW5f75XA611lsVEarGSpA+6xr1Se1sJYTF9nRVP91a4jWfDL25aa2G+Lrheorsi1bQ5ne+pzt9cvs2MvU1N9jVbQOku04z14qncF1+UjcB2PUVBNO2weS7EjqprQRet5DCAsin/eq0YYZ+V4PqvBqCyvILmIIw2kdQanksuN8Mm38eKAMq6imsLoXMblkJwQB/StODUoplG8bcjrWfqE84hWORD94c1aVIZoF3YYgdc4P50CI9ThtDESu0O3A28Z/CvSdJjOn6HYxBclUGQK8oihM2tRRxkuN4HPbmvWr+ZrWGCNePkwaUtItmlKPNNIs3Fm0k7OF4bmirlpe2zWkZeVd2OcmisdDqcZHgmiamNRsQ5I81OHFWtSbOmXA/6ZmuA0nUm0y9WQcxtw6+orvi6XdixjIZJIzj8qUocsjCMuZWOl8A3ouPh6lsWG6N3TB965V7u/043NpBK0cTNkLng+2Ks/DxxNp9/YFirf6xCOoYcVR12Vi7RP8ALMjZOO9dXQ8+1pNFBfE15E5jljjfBxnGKfL4j8+Fo2gCk9w1UL+JGjiuIgcsMP8AWqA9xTNYtNXNGOYCRHHTPSvVvCd/9q0KBWbL25MBz6Dlf0zXkMRBjJrufA94Y7u4tmPEsSyr9QcH9Kia0Li7SO6nIRw3bvWc9iQ7FQduePpV+4+YEUtvOIlO84yKwjJxeh0OKe5mi1I6kCpo/IT7xDH0FWpNVjjDBQHz6isprn5iVUAmt0qkjNuETTjkiY48rA9abcSQgja5HsKzDPI/G44pFBNaxpW+JmbqX2Rc+1AdBmnKxc5Kr+VVkjbsKsxo6kfK2fpWnNCJnyyZchukiO2RtpPTmrzPZ3sZhlkUj2NZcel3N1J5jjArTWw+yqCYFI/vEZrGWI7FqkVYrW20668yM4jk469DVLxFZrLb/arZQky9SB94Vo3ogMJPlHdjt0rBlvXtNqOTJA3TPUVyyk27o3jFJHM5KnczkmnRmRcnzsKx4FXLp4UvMCDMIAYkU2dIDIjRDYvUZNap3J2JEidZSdwBIphB3mNdrFOSQafDfnBQxBsdDS/a4gWdbYc9waBAzuo3rGd/tUkRlk3ELsYDniokuZotpEynJ4ytTy3Vxu3MAQfRRmgCCQMIsgHg8mpYyzoBGo3Dv61Ib8PAsbQjYOCccmlgRGGVbbj3oGKrOI9qsh3deKewKrHuO1Rzj1pkLxRylHIxnhicVMGh+0YUCRMj8TSAmhmiDFVjO49fl61IUt1byyjgP0z3qrLGHcFHKMpzwK0beaxtyjzK8hPfP8uaTGimkaowViwIPy8ZqhdX8s1w0UbDeflUk4Ga6C+uLV0ItxnPJBFcDqWoLZ/agYx5wIxnt6H+dRJmkFqF3eFrkLJgQRDB9T7e9Zr3E+q3yJDCfLz9Bn+lWdNU6rCIuFEWTJIT0FRXV7bWDBIFXGBtAH1qUavUSeAWUUqCVss4UlByc9R+WaxtUkVp444lwsaBVGep7n86uXmpyQ2zxjA81TuG0En/AA4H61Qh/eWkl5P95v3cQ6H3P5fzqkRJ9CWyga4UytEGd5Ujzj2z/IGqN6vkvGM8AsMei9K6e28qwhtrc8TLmaUn+AkY/wAfzrkbhmm82RmPL1S3IlsR7SuW7NxXrPgTUhrfhY2Erg3Wnny8Z5Mf8J/mPwrytf3tvsPXqK0fC2uv4e8QW92x/ct+6nHqh/w6/hSqR5olUp8krnqctnInP8NZawjPmN3JzXa+Sk0DhCHRxvRh3rlrm3DpPbElSwIB9MiuHqeqpXWha0XU9JaUedcL5aHkqMjI7Vt6leaPqlvut7iMyp0x3FeYeEbtdK1+bSNSBVZXAibHRiQMfQ5/SvW4vCdneJbyhI1Lhslfbv8ApVyjZkqpD7W5xksaEkB+Kq74Vfbvy3oOa6qfw3HHdyRhsoADk1lTadbWSGaeVI1WQKWYgDFL0Q/aU+5jy3FvAw8xtmSFBYcZNacC5CEjndiuN1W8/wCEi11NLsk22kExaaQch8HqD6V2ttgsoHbmnNWRMJ8z02JXUZIrK1e6W1spZGOAqlj+Fa0hABJrhfG9/wCXpkkYbmRgg/madNXZnWlaLZwCSmWaWVurEsfxq6mApHbFZkY2tj1rQyTGSO4ruZ5aZWZi3X61IhEinoCKjbhj6Gmg7c4P40wJwWRt69uvtWpBYz3Nit1AhfcxVgoOQQKzYWyRnv1rpvCmsR6bPLaXSGS2mAUgAHaexFZzbSui46kWkateWckaxS7MP8yyfdzXf6Ffz399LC9u1tertm8tu4BAJHqCP1rivFNhBaXjXFmWa2fDEMpDAH61v2F9NJN4d1FZd0rOLWVsYJG7GD+HP41lJ6XRpboz0mbTbxmJO5ge1MfSbh4XQ2+cgjpV46tOkxgNo7SY3Ag/eFW7bUZ5iFNnKue5IrH2sivZIxrTTruK2RGibI9BU32S6U8wuPwroozt5IOfc1Ib1FOP601Wl2F7Fdzmhb3C/wDLNwfpUJtboyF3V/piuna/XPAb8qBfZ48tiP8Adp+3fYPYruc1tlAx5bD8KWNJTIAVb8q6ZZww5jA+q04Mp7L/AN80e3fYXsfMxVVdvOePaq95F5q5QHjkcV0O1GOML+VPCRgYwmPpT9t5C9l5nKwgsikblx2xVnJBJYnnpW60MS/MFj59qYYYm+8iUe1Q/ZmKVAGck03nPDHHpWrLawsPlwPpVCWJEmEYkBOM4pxmnoS4Nakakjoxp/mMBwSaeiKckVIFRRycVdibkau3ANSqu80mwFsg1KDtHSiwXKkW6O9ZZHJBxtrSMCSL1x+NULmMSYZRiRejVJBcsY8EYPfNVYm5ZMUMQPNR/alU4Ckiq0sxc47VGQAOtAjRDJIucCljd0HC8emKy0kZSdrGrkFwWwrNg00KxT1I3LEmCLb9OhqjDO4AEgKuO1dQYPNj27+tVJNLyuGwT2IFEo3GnYyTdv2/WpBdvs4AOatixhVthUk+tK9guPkzWbi0aJpnLapoSX5MsKiObrx0Ncpd6a9tL5dxEY3PRuxr0poGQnmoJ7OO5QpOgdfenGo0JwvseWvHJYyF3j3xn+Jeoq5bXu4ZhfcMcr3/ACrpNQ8OSxAvaHzI+8bdR9K5S60wCUmPdDMDkjpW0Zp7GbTRJPeJeSC1C9/nPak1C3jt7b91IVJGMZzWcGktpi1wjbum4GlMM0m6Yksvqew+lWSanhODOrWsbIcs+cmvR9YO642+gxXK+DESbWIwo/1aE102oyD7U5PrU1PhOjDfxCW0gtDaxmRSXxzwaKZDr0UcKo0KkqMZzRWNj0Gz5eK8YrT0rXZ9NXyj88Xoe1VZLVy3yEN9KgaNlYq6kV0NX3PHTsdh4R1VLLWRKSBHI5z9G61p+K7VlvTOhyjjqK4fTphDKhZgAp5z6V2upazaTW6xvHIDtHzJgqffrVGUo+9cxrJ0YvDIMqynH1qhKoSTGcZNWTLY7txacehAH+NTmHTrn5lmnBxyNgoBaMrW20hgeg71u6Bc/ZfEGl8/JLviOffFZMaWUZ2+dN/3xUrOsN7pTRMx2zE8jB7U2tAUlzWPYC5dVPtVS6b93tzzwasWqxlGkllAXccDPvVR8XFwxhBKdjXJGS5zsfwlXbmjZzWhHYO7Vfi0xFwXA4rqliEjFUrmNHA78KtaNtp0jYJUY9TV/wA21tuANzegGajbVnX7ts+PesJVmzVU0izBp4U5c/hV1Y41HCgn6Vlw6xC5xJuRvetGOZZFDKQR6isZTZaihDfMj7DFsb+EnoaebmSRDwBj7y0rxrKm1hmq0O9Zdh5ZTj6inGVxSjYr3cLbxsGUbpWFqtv5csQ7E5NdHfiQRiNflOd1c7qc5eHLAlkPWqEjLuotvymPcD0qlFCZ49iIQ1a14u+wDqTuGDkVGbdo40lViCR29K1jsQ9zKUpGPLlRgw4BB70hhVZPl37T1xUscQYuck4J4PWrNrOY22R7CSej1RIRQIyeZgEL03cU3zGaT5iTHjHWrHmCQhZYV4OTtNTtbafMNsUrxydeegpAUAD9o8lAAD0J7024lmjUr5QwTjIH6097NYmbL+YP7ynNAMzLtHKr03CgCvGju6k/dPGT2rUgUwRMmElDHIbd92s+R7mKErgBT0OOlTrJIjoQFDquOCOTSGXmsbyYby8axt/d9KghsEZjG95jngdc1Wnu5AfmAx6DvUgnDxALF+8PTd0oAvxQw2odmk+YdOetcB4othFqkIYY80kuPcHH9a7RpoceWzEgAbsd+9YHi6NJhFMUDqjhlTOGYGs3ubRWhRt7u1gi8iNRDERhivLN7fT/AD7Vk39xHcXgZEVY4wWZQe/TBqvNdmeKR3CxRrxhRhh6H3qtOqtDuRmCv94AdjQkU3pYr3UrSEyk7iO/brWhbXcVnGry4eQD92hGQD6mqRjaK1EgHJJI56gY/wAaRzG1xE7KFBABfqMjvj8aoz8zQlv/ADGdsfvbg5yeoGOvt9KzJPuS85Ynn61DLcMzK+4feKEgelT3IWJHxu/h5PrTsJu4QkbQDnO0fpVK54cjtV9Vw6Y9cGqN+cXZj2428GmtyZbHrHwz8SHUNK/s2eUm6tBiPd/FH2/LpW9q8HlXqSKPkkHFeM+F72XTdfsriNjxJggHGQR0r3qSOHU7GGVGypw6n09RXHiI8sro9DCVOaNmcl4g8MXFwkeoRRFpIhltnUp3/Kq2lalq2kSp5F9KIVZmEbHcjE9ev1/OvQvMaEjacEcqT0+lUpLLSLkvlVTcCWhI+UN6j0qVK6OtUlJ7HH3XizWTOz+dGMjBCpxXJ6w93qk372eV97ZZSTtB9cdK9BuPDdsY2kiELEDhSzc/rWSNNQTYVVz6AYFOLKnQiltYo+HtNSwtiwA3twTiujtztLN6Cq6osYCr0FTocRH3NTN3ZmkktBLqQJAT6CvMPF9yLi8gt8/dBdvx6V32sXaQWz72AUDJ+gryW7u2u7ua6f8Ajbj2Hat6EdbnBiZ6WK5GGLelWIZBjI5U9RUIBKc59jTYMq7LXUcaZbeMYyOhquQM8flUyylWKHkGmumfmWgbHpjAPpV2IiTBUgNjoe9Zsb7G+bvxVqPb5i5OFPB9qloqLNpr4Xem3Nvcv8+wBWLYyAf1plneiGKCOSQtHDP5uAcZ4rPaIs5TI3BS3XqPap9Ms1vpSWEhhXG4qMnnOOPwNZuKsXzNs9Y8Ga7c6svm7JRFbl1E0rZ3gkYA+nT8K7P7bcNnbKi49q8j03URb3EWmxXwihPyxkcYPofQ1uLZ3LaytjJqkg3oGRlJ5HeuV023obqaW53ou7jqbpT7YqT7Yqjc08QPviuMn8KR27Q79SumEjYJyf8AGro8DWH8VzcMPdqaoyZLrRR0R1y1QZN7AP8AgQqF/FOnIvzahCPxrHi8F6OhyyyP9WqceG9Fi/5clP8AvHNP2D7i9uuw+Xxzpcf/AC/K3+6pNVG+INjyEad/92I1oR6TpMQ+Wwhz7jNWI4LJD8lpCMf7AqvYLuL2/ZGAfHrMMx2V6x7fJimt4w1aYD7Po92x/wBogV1Hnwpx5ar9FFSC5THyk01QiS60jl18Q+KJSBHo7D/eY/4Ug1HxfcTGNbaGEj+8a6j7QAeCSaqX02xFuguTHwwHpT9jEXtpGOLXxXcDZNqEECnuo5rb0fRl05Wea6kubiT78jnP5VYhAuER1IwwzmpWicj5Dn2qowitUS5t7lvy7ROSzGo5ZYScJGMe9QC1m2g4NOWylLZJxVEkoCkZ6GmvIqdWxUiW4X5nkOB6CmSzonOwMB03LQBIm0jcRkGkcIBgCkS4D/8ALME44xUwiymdmD6k0AUiQxx2FKoUnFSPEufvYNIsIPKtQAxkXsKYQq9etWY4EBzIxxTngtuoBpAMtrvyzjHFaUVzv57VllI93pU1uyoeMkU0xWNJhE4z/FVGSSRCyKvB7mriTRsvQZprRh8DGRVXuIxmWbf8wo8sqeQc1fuzbW/35WRvesttTiRwpkD5/i7VlKHY0jInCjuDVG/0m01BCHiw/ZgOa0kkEoyo4oyy9BWabRTVzzzU9DurLJkh82D+8OoFYbwFmH2R87TyvpXq94nmWzqw3AjpXmF4xj1F1aN4sZ2yDg//AF66ITvuZSjY6vwJCftd1O8YUqgGcVpXD5uXNR+DRIujXM8jq5Zjhh3FSwQtd3hjB69aup8KOjCL3m2YM1hK8zsMYJzRXVGygQ7WGSKKx5pHd7KmfMz3EcRzku3p0qE/ar04WHj2Fd7D4ItbXDz5lYevSkktoYTsjQAD0Fdjhbc8RSOLXR7oghlABFb+i6A88Zjd2A7Edq2LaxEsg44zXTWcCRIAigGourl2ucs3g+/RcwNBKPRhg1Rl0nUrRt0ljImP4kUMK9OgtJpQCFwPU1fj09QB5kmfYUOaQ1TueOlp4iJVnVGBz80ByPwxV9bPVNc1WDVLqBls7VQWnaIRhse2K9ZFha4I+zoQepKimXWmxzQKEGGjO6NWJKg/7vSs3X0sL6tHm5+pyGmw6prJVVjaG2zkuwx1rtbexjt4FiXoo/On2dytxbBlUIyna6f3WHUVMTXPc6UgVFUfKuKGG7g0m7FG6puMYUVeigfQUoXNKSKM0DK89lFODuUA+orPxcaXKGUloia2VOaJFQofMxt75oTETQSiWJXxjcKe1zBbfO7KD+tYl1qeB5UHQcZrPy7ncxJPqauOhMtTcudWiuCNsR46MTWZc2gvIpEQ7S/PPrTEq7b4PGcVV2SYr20sEBinGCB+BrEmF0mfLY+UFwNpFdzdRJNauh5YDg1zlvbpLC6v94nvWkWS0c/HHNK4JyPfpk1LAJUuDldrD1rXii2Syh41PljgDjNQGQXN68rBYmUDA9au5FiAPtdnC5kY8g9qUyNE5bjd1Pp0qzclHI8tDvYfMc1BFbybj/dPrQBJaygy7zkNnODU896iylZVADenaomlVLfyzFhh1cCqKK9yP9IOMngigZJcX6s6xoC/zDgVraS1uk7efAWDDHzVnWtqiByi5x3PWrLXCoqBnZZBg8DGRSA3m0vTrv5UkCS+me1Z1zoUkcoVSQcetU59Tgd0BjZXTqR1NMgv7hid8kh3DOD/AJ96WoyO3tY8yF0bcr4b0PSql/AtwyRRShChJK9T9K1YdWW3LRzRqfMbdjPOcAY/Skk+z3sbwKiRiT5n28YP86XK2WpWZ51q2irEVktzI9sSS+VPyn0zUyWJXTYHCYcDJPXjk/4Vf1JpoQ9jBIXZwQ7bsgj/ABqC8nulsUhjxtKiNhnk4FRc1stzAZVS4SLeu76ZCk9qqzQtKjrk71O7600zQtNNvVjlRswejZ61oW0JkjUxTNIVXc2R9wZ5/D3q9jLcx0MSqYGict95j5nX8MVbuSrogHcK3XOf85qpclBdSuucEYAqVz/pMMZYf6sLn3x/+qqIRYchYlYngFc1VvE3ahK3qf6U+Y7o2gI+fGVwfQmpdTje2uomOCJoVcEfTFNbg9iraP5E8EndJlP617XoN99jdYpG/cv0P9014Ykm7P8AvA17BpkiXNlGcjJQVhiFsb4ZneyL5icfnXO6npt0shkjUuvXg4Iq5omoHcLSc8/8s2Pf2ralfaPuiuNXiz1qcuZHCo8i9d4+pNPMgUdMV0V7ZR3KlkUJJ7dDWBLbMku3HIq73KaEjyQW7UNKI4ix4Ap0mIIQpPua5/Wr8pbNg4RQSxoSuzmqSsjnPFurNcN9ljbhj830rlAN8gUEbVpbi5aeZ5S2Sx6HsKIiEXGCWNehCPKrHk1Jc8rkrDK9CarpxMffirRLFTkFaqdJFqiCWZW2hx2p8U4wAeDTl5BB6YqB42XGeQe9IZM4U9ufWnJIrLtJww6ZqrlgODSYbrRYLl5AMg4IxnpVmDdHCGEpjI9Dg1nxkxCVi3O35R9a1dIjlfzJTatcQwj95zhV+pqWi0ytOZZ/maTzWb1bJrqvC2g+KHK3dvJ5KMMJJNkkD2z2rY8HeGWv786ne26w28TYhgH8RwDk+3NejiIwKqRqAFGAB2qG+gFW9hkj0u23tukjdSzDPU8H+daVu7NGM9MdarXiPPp08X8YQkfhSaYWbTomLbiRQiWXXI4wtQvgnkNThkN1qwroVywNAimId5OAaUW+FPWrDOo5U4FR+cucg9KBlKS0uJGwr4X9akW1mQYBJ9zWjFMjDvn6U8vntTEZ0aSj7wGaGjaRSjEYbgirrEkdMVWkBoAr6UWsrlrS4cNHjMRHp6VuLdRwsSkfJ7mufuo5XTfH/rEO5c9/ardpex3duD0kA5HpSYzX+2sy5Yj6AVJ9tGzATk9zWUCynGc8U+OOV25cAe9AFw3G8bcgCoJGKZOdw+lPEUUS8/M1IXUgALSAqx3LKTjIqwbu4MeMZpC0Cn53AJ7U4eW2AnzUAQDzpDmmhZ1zjI9s1cZjGwQIWY+nanlmB5QAeuaBlLfMFyFYn0qRSzDLE59KmIJ+ZcEnoKWK3lyWfb9M0WAYM9MUuXB4qx84H3V/CoW3g5wKLCJIpWBwRVtJwMHnNZzSgHBwD7VFuud4YSrs7jHNCA2pXjuBiQBvqKzL7TbGUYK7fpU8ZDjG/HvQ0W4bfM3H3piKT+fbKqwRq0QHLU5HaUc/KavRggbeMfSq1zHNCRJEquM8pUuCZSl3IFc7ypOcVHLY2t2hWeBGz3xzUjXEckmNuw9waY5VR96stUzTRiw2UWl6I0UPCljiqWnFkcyg4rR1N9mmRL6jNUrBSLcsFJrefRG+GWjZbyW+bcefaiq/l7ueaKzO2xzd7AChBFcvc2uZflXk11t1mQ7FBJNNtdMKMJJFG7tntXVVnY8SEDN07QnCK0rbM9h1rft7OGBfkjy3qanjiA6nNTgADiuRzbOlRSGrkjnj2p+AKb0NKB370rjH5ozim5FNZgO9IClOfsOoJcjiCfCSjsD2b+n41pZx1NZ15JHLbyQsMhhiqNlfPPCI5HJdDsb3x3/LFFgNea5iiBLOB+NU5NWiCEq351BJEm4sRn60y2gtXlfzBkgZGelCBj5L+OZovLYls81sKQQD61iBYkhyAA7HIx2FTG9lA2r2FFhXNR3EYyaqvb3F6csfLi7ZpbOcPB5kmCwPftTbjU4kJ+fcfQGiwFO5thBIAG3D1piircji6s/OUcrVQOKtEskUVZjx3qpvA5YgD3qE6rZxttN1EGHbcKBGnLKIo2LH5cVhRlVZiCeTyK1EAuYizMCGHygVk5WPKkEMDg1SERXeWWRo32yAfKc1XRRHbhbhgMc/L1NLeu4ZFjXJc4+lLNaLBtfeztjkdq1WxL3IluyJ1yhZewUdKmlklYjylbBPIPFOSVTOoMZXHXaKm86LrvLInYevuaYiKK2ZIx56/M3RSeopBFHISo+QA9ugqKW9kuLgsQzbRgDNTGJGtwHlCMTnFAEmYExbxzH5hy4FPkW3O0vh0UfeA5NUo1UcvJjHQ461a2RyYYShgo5UUAIloHgWVIMIzcMTUc6/MIjhH7Z4NXI1VITJGSibvXpSPGLiUTSPvCcDjFVCDnLlRE5qEeZmFd6eyZllUNLnhs9varVhaSC2a7lkWO3U7TtQnnHtU2rLJPZypEwEhX5T0wayYYo4dNLzROsqJkq3OT9a3qYRp2iZ0sYmryA3Fpf3i2cKuDISA2wAcD9Oaz9SLWVtNAYmVixVJixUAg9OR096yru4aDUCYm8twflCDAHvVW9vri7mPmSOGCnaNxI5rjlScXqdsayktCJdEnWOOQNboGyQZZF28dc961Y4oo7RYoJFmlkJ3PGu2IHGAAepwefT86xJbFjaxS4bcQBs3ZLE+grba6bT9NCRRFnjjMaqq/KrHnP+euKTYJHIXIMc7DPBPJHcUqSbpI5HyDuOMetSIjTThnGQuFPsBgf/AFvxrQvkazu5oxBA7CJXw6crkdceuPUVdzK3UiKr9rimwpVwPk/uA8H8e/40/U83GjWzK3z2xMZ/3TyKhR4gkazS7C+WViuRn3x0pkNxu32rjO5SGOfyxTBdjKjJw3IFeoaBK40+F85wMV5m9rsfG8H+YrtvCHiC0EQsblljforN0P4+tRVV1oXRkk7M7xPnCuvBHOfStIaxJGgWVN3+0KhtLdWiBBBGO1OltM965Gu53xk1qiZdSEifK6gVUnuYkTAxn9aYNPyeR+lPWx29FH5UrI0dVsyLl3l5PC+nrXD+Lb/aq2Uedz/M/wDu/wD169FvYNkZ45rzXxdZOHS+ToP3bj+RrWklzanLXb5Tl2t5Sd23j61bjUIAMU5iyWhye3UVHFIHVh6Cuw4CaTkbR3qnIP361aU5jLd/6VWJzcgD2oAeSQ2MZBqfcJF2yfmKhwcnHUmpVHyqfQ4oGI0ABzG64PY8GoTGwbkcCllXc7HHT1p8SF84HAFADfKMm0L16VZ07xBfaekkELJ5MsiySRsuVcr0DdyPbNAxHbOxOCAcGq3kqEBxTUbkt2O2034iazBcI0yWr24bLosZBOepznrXqumX8Or6fHe2kysrdVPVT3Br5/tseWQfpXT+EPEcmg6iFdibSXCyr6ejD3FE6atoJT11PZojIpbdtII6VV0aV2glhZceU5Ue9XbdlnjWWMq6OAVYHIIqpZbF1W7izghs4z1zXOjRl8qc8CkfcR96piMnrSFVJ55qhEJjzjPNNKqG+5Vj5egzmmbcnnNADfN6YAqZXLDtUYC5OByKcGCjpQAFG67sVXkhkEm4Nn2q0MuOlNIbPSmBCiMD81ZUoOnags4yIZjhvY1t8+lQXVstzbtE4yCKLAWkMZiV1IYnkGky7NkYC96o6XKjr5DEJInBWtJoz2PSoKGg4bB4xUmAw6/jUfb7wz/Ok/A80AOe3RhklaQDyvuDimE4IHJ+tOXcODyO1ADmlkPVcgUhfKfNxRzx2FKNx4OCtAEDS7W+Un8KeHfaWzj1Oam8uPI+QfhTZYgucjgimIiWSULgNnNTxeZIAGJJqBU+UbDxUiby2ATSGWmtQBlnGfSq/wC7R8HJFSMTuAIJNQSBu3SgCZpYZGGUYY9DTxfwQrgQuT9M1UQhfvHmghtxYdKEwsXhewyYwGU+4qYuh58wEVmAq2AxqQxA87sfjTuFh9xa28rbwcN6iqjlVmWLBxng1ZKAgbQadDlpUjdT1GCRSspMV7FfX22xxxjsoFQaddhLUxbcHPWl8RFjcjg7c1nxKyqH6r3xRUfvHo4aK9mjZHIzzRWYLtAMfPRUXN+VjQkMJ45PrTWuFB4quwbqxqFqctTzVoWzcHPWkMzY61TyacrZ4qLDuXknyPmqVZBjms9pAgySKrPds5wmcepoA1JrxIx1qhLePMeOBVZcl8scn3qQjPsaEguNJPck1Vg/dak6DhZF3D6j/wDXVjdg4P51HcxeU9vc9lfB+h4p3FYvTkhQvc1UwVPFTzPufj0pgXcaEDI2ye9PTcSBRtwxHpUkZABPoKAQxHLQXMecEciq0SKQGxzUk2YbkN2cc0wEJkA/ShAyys7RxMgOA3Wuc17xfYaIhQt5txjiND/P0rH8W+L/AOz1NnZuGuT95v7n/wBevM5JHnlaWVy7sclieTWsYX1ZnKVtDd1Xxbq2rOwe4aGE9I4zj9e9YoOH3EnPXOaaBSngVqkkZ3udv4F8WTWV6ljdSs9vI2FLHO016NdhTcuy9DzXgluzJIHU4IOR9a9p0e8/tDRra4OSxTa31FZyVmXFkpVGnUSHCDqc9KlYxLCSlwMZ7jtmm+WXkOQAvdvSnSwxJ8qkOr9G9aaBkVvCzNNIsuQq5/CoAEMamN8Ic5FJ5sNu42Ak5wcjiniWCMDYrMT1zVCJY7QlROro2cYC04QBC0rykFh6VEjzIBIigRtxxUFzc3EsQVJk8tDjkc0gLBS3SMZdiSOpHSpbZgyPEgADL82eo+lZH2e8mVj5gCL68VbtbWZl3E7SOhJpgWokWOUAMHTpzV25YDCrwB1wKjt42TzNxXp1HrUEr5PJr0MHTsudnn4upd8pWklXJ3c+o9aivBG1izAkcqAD9RUVxKBIcnHPFSlCLVMn5SwwPxrqbucaOJv2S7nfC7Zom3CmaNZQX9xK88hBXHy4/PNM12EWWps8bDyZD95ex9DTPDUBu9Wlhl3Lb5DSbR2rzKyuerQaVjevobKzJnW5QyH5YwD9zjgnHAHvXNz3t7bRyQOuSc7lPX610XjW+t4Y0W1jjLxuq5HOB6fpWVYE3hAGIpIVB8pHzkfTqBXM423Ozmvoh/h+3jS1e9ulASM8Yx83GQpB6+tQxRC7nv7i6YlxZO6n0YYx/Ol1K5luXQO7QiM4W3CAD6/U1Un1F4bfyIshnXa7/wCz6Cp1B2sZ+DNBGhJCjI61owWTvD5mNzIQpIHXJwCDUenaXJfZCnaqZY578f8A1q7fT7R2ks5Xt1P2RHErMAoyvA/TP41rYzOKfQLuUea6qoJbbnqQDj+dUn065t8gxI6gbsd8Z/8Ar11euXkcd40VjGZ5SPlEJLAA9/aufuIntCJbqRvtkmfLiVd+3k+/X8KdiWXNL1zWtIG+1nxaD+G5b5PoM8/lXQ2/xLLDFzaEEdTEwbP54rlP7PV7RLvWZ5LeEA7It5Msh+h4FZMrRSXbtbRmKEn5EJyQKTpxe6Gqk47M9ctfiDpDoDM8kfs0RJH5Zq23jvQMEi5Yn0ETf4V4+kcrAYwc9KuWOnS3k+zfHGAMlm/wo+rRewPFzW52erfEDT5Mrawyy/7RG0Vxuo+IrnUI3gEUaRvwR1NGq6UtmEeK4SVTwwXjBrJ2qGXJ4z1p+xjAn28prcvFC1oVJBypAI/OqSDhf9r71asUUgbyXQ5Ct24PymspeIm9QTTAnjYENxwapIcyhvUg/rUyPttQ3ck1GAFkiAOB3NICy6kHcDwKeM+W5z905FOOJBhQT6e4pqFwCgA56k80IbHQx71LdcnvSOrQhtrLtPUUsS7jtyduBirRjUDBApgilcpmGMAcFgGNOYdqkufkt8ZyNwxn61GT8xFVEzmPQ4Wnq2O9RgcUoODVkHrXw411ri0k0uZyWgG6LP8Ad7j8D/OulmxDq6ytkCRcceorx7wjqDWHiK0k3EKz+W30bj/CvYNX+SK3n3E+XKPyPFc1SNpG0HdGwoEil8mgEKARk00OvkptPUCm72bjBGKgoshVZN3elCqR71WDP6gU/wAwgfMaYgLqjY8smnFwOq4ojy/IzildlRsg8+9AEkcgx7UZG7OeKY7sQD8uPakVnPUdO9AEnyk00sOmKPLkZsggfWmupTqcmmBQu4xDcJeRD7p/eADqPWt2G5iliDBSVI61nEK6kMTtIwRis9L0aezWx3tzhAP4h2pMaNacqjEIp9s1CfPJB+Wpo97op2HcRnmlMqJ1XJHapAjOAct2qXdgZxUE19GeseD9KrtqChgoGT7UAXTIzDCjn3peduCefaqX2yVxuSM0pum3gEMM+ooGWfnBwD+lLl2XDHPtVVtRj37DndVqIxyLuz1oAERkUhFJqRPtO3lBilCKMlZwD6U1JsOQZC1FwFZZR82TVcTsDtkILZq4N3Rjx6VWeFGlyVFAEquuMNgGkZo+gOfpVWVdu7JOe1TWjIoCuoHuaQCMPn3L+FCEs2MNk1qpFaFM+eM1A0caDcrg+4p2AgEUwYAHipJ5zY2xmlIVU5Jp0TNuI3Ag981BqVgLuxljkkIQrkkVUXqS9i7HPZaxbLu2nI+VhWHf6bcWUwNuhdD2HNcFZ61PoN5Ilu++1RsNGx6e49K9J0DxJbaxZLNGxaM8biOh7it3GM9xQqzhsYhkjz8wIbuKK6SXQbWaVpA3DHPSisvYHX9efY5VmJ70w1IwCjLECqbXhdiluhfHVuij8awIJiAoy5AqEz5OIl/4EelRFGZt0p3n07Cng9qQDdrM3Lbj6mn7ABTlK44oY0AMH3qeTTOhpSaQCou9wPejUkaS2dE6AdqlhGFZzTlAaMkk80AU4ZfNhjk/vKCanQfMDVKz+VHi7xyEfh1/rVvDfhTEOYYJ96R22RAAck00As2KD806jsKBjblhJGoZdrrXLeKtdGjacdhBuZPljHp7102oXMcaMzEBUGSa8X13U21jV5Jycxg7Yx2Aq4RuTKVjGkkeaVpJGLOxyWPUmgGr0cUbDDIPyp5tIWXldvuK6DGxQB5oJyDViWyZRlGyPQiqhypwRg0CHK5Uj616j4Fud+jSRHny34/GvKwea9D+H0h8q7j9gamexUdztXd1jcKw+b+HNOhjyq+YcnPOOAKntlgKh2UhsH5j06VC9xK6rEY1POAVH86lFMYLLJYMweMt/COTTJEi3oiRlWDc5HNSQwzQuhEjM4bjvVgruldpjtJ4JAxgii4iIqx3JsyqjpQyQSWrxRKFlYZyf6VIscW8nzpDnvipPttoLlBHDtZRznvRcCgu622q8XmE8Yx6VdhnidGQ8DHAK9KWYbZi/RSPlLU21dxI2QuVBLMoyDVRTlJRQpSUU2wumCgKvpk4rNkcl+cZ96sXEhkZzVB2ZW617KXLFI8aUuaTZVvFbeGPY8VZncraRgH5VKk5PvVS+YMoYZOOw7UskhfSievykgH2pXCxxWp21/Fd3GYJJ4XJ+6N2BXYaDpR0nwnNfPIUuLlQ+x8EBR0BrlVS71fxPHZ20jxK8oDSL/CD3rZ8Y6mbSBNItpCwRArN7AYrz6jVz06K0uzlri/iuNRMzKRCV37SRy4zjp7mrvhW3jma9uXl/ewwtIoAzkhT+lYkTCMGEAGSU4ZiM4Wus8GwxRXU1vLKgSYlEYdemef5Vzy2OiG47WJ7fVLSGeGLY6jDDHIPfOOSP/11gwWQa5ERZX34AYPwre/tWh4o0/8AsxkjjbBeUtx1X2P1GPypb6yk0qRJXAlgnjG1wSOvf8DSiVJ6l3RtkFw6S9cMCOo4rVvdUlltxpWnOsc07PJcSbQVhj9T78VzMkzW8USRIpmxtXacEk/zrS0XT11ESWQl22kOJdSnZtplbtGD6D/69aIzb6DobWW8tprfRnWGwh4uNQfkyNjop7msu61XTdDE8GkA3FxJw91L8xHrg/4fr0pnijxOt4x07S0W302M7QsfHmY7/T+feuYVfWgV7bE0txNdzGWeRpHPdjTkWmgYqVRVJEsmjcrjmpBcPGSUOMjGahFSx4BO4Zq0QyRILy7OI1dwT26Ul5pFxZxq0yjDehziur06PyLCJVwzMMjvya2zYw/2dI98Vw6ngnp71sqN0YOtZ2OIsZAUhDyHaoJKgAA4U9T1NYo/1ErY6k4rolsPsenS3zSwtGyOI0z8wz0P4jNYG3EG09T1rkeh2LUgJxDGvouaRz8kZxzjNMkb98UHTAWrFyoXb2HApAWlGEUqBnFOVl3DcrBs/nRbrvtlJ7imqG+6SflNFhixlAeCdwOANtWREScuc+w6VEqgNID2YH86uetNAZ2oD5FUf3hUSfM7H8KkveSCeitTLflM1UTOY8nnFLim4Gfc0rHHFaEE0DmOVSpIIOQR2r3tJItV8OLKv33hWQfXGa+fkY7817X4JunufDFpgZ2KYz9AcfyrCrtc0pnSadKs1jE/fb196sZBbArH0eeVIWgaPhXIFaZchuF5NZIskIABz17UmD0PWoWEhYEUEsM7m6UwJ1YA4FJknqOKgVznJcc9Kd5208txSAsID2GBUgYjrVMXLHAU/nTxJMwwoFAFr77ctgfWmMSp65FRK0pX5gM+1KQ/egYm4sTWdqkLFY7mIfvIDnHqO9Xi4XhlxS7lI6UxE9pcLeQrJvIyByKbPGqksjFieKy7a6On6iLWUfupjmNscA9xW2EZn6YHVcVIzKKSGTDZ3HpxU9tp2197t17YrUYxhBkDcOM45qRP3iDYpJHtQBSa1YLwOKjaNv4sY960cOAQwNQsEckHp9KAKcaxh/ujPrVhYUc/Lx64qB1RGwoNKjbe3agZFNaMjboyT60sW5H6datC8QegHrSjEmSPrxSAb5rnhiKkEeR97J9qrzCQEMqj6GnQzyryUGDQANHGrFSpBqMQKHDZOM9M0S3m9sCOmec4OcU1CT2QuZI0kSJ0wFHFI33fugYrNe8n27QQo9qh3SSdXYitVQk9yHURd8yJGzI4+gNVr/VrSG2mjFwNxXAXPNRm23c4JNZOoeHkuZDMh8uQ9c9DWn1dLqQ6p5/r9qGtpZQ3DHP0r1Pw5Lpw0S1t7eaIhIwvykVxGreFtRmiCRbHTPIz1FV7bwhdhWkmk+zyfwCM4xUum+hSmup6wIpAMJONvb5qK8maLXrdjCupT4XgfOTRStUH7p1LxGXmY8dkB4/GhmAAVQABxgCld88CmAdzXIdAKufpSkL6UZpCRSGMZcHilBA6jNNLim+ZigBSwzxxShS3TJqLdk1Zt2KqWPQUgHSny4lj796cHCxj0AqtJLHI+WJBprTKRjJwelAEUGV1CZT0kUOPw/8A11dY4XNUZ2EV/aMOAcofxq3L0C0xCIcAsxwDwKiU+Xubdk0O27jPyimyMCoAxgdaaQzkPHWqm308WsbYlnPOOy9686RTgAVqeJtROo69O4IMcZ8tfoKzUGSM8V0QVkYyd2TIu4gAENVxEjjAJ5bvmq4YQ5Gc+9IGMoOB+NUIuNPhScAj6VTuLeO6Qui4f1FPEQRPvEmoxvR8p+IoAymUo5Vhgiu7+HpxPdAn+AVyd/ErIJ0GOzCur+Hi77m4z/cFKWwLc9HhmikiW35DE8HHAPvVlLVbf5mmxPyCCMDNZ6TRQJl0wVPXOOaCxnbe7kgcjnNSMvGOe3VrljEJGGVJ561TTzpFDnAHJbdxk1DcCdmRwH2LyCvf61NbW7OzyybiQuVQmgCXE6xF1CLHiqxtLkgSM6gHkAjmpEWWY88Kx6A8H2rpYtF8yBHuWJiUcLnpQxnMy27lk8yUYHoOtSJGIIGI3fN2NXbu2BmdY0LRL/FnnFUbqT5Nq/dHA5rtwcLy5uxx4udo8pn3D4OBzn9KqFsg84IGeTUs7EHAIqJ1BO5envXczz0Vp/mgYKPnx0punyiWxZX4KnBz1oEinfGeGwazbCYwX1xak8kbhn+lQ3qaJXRf0oR2lhc3AUIVzlgMFmHH5CuJvpWuJZrmVix9a67UFZdD2xOF85maTd1UdSffpXJaoYY7OCygJaZ1VpeQcMe36ivPqO8j0qcbRRT0qzm1C/RI13O7bVFeraTYW8Ek0OyEwWERYtt+bzCMbifoWOPYGsnw7ptn4ftkub11W4dNwUjlV7/jWle3qW3gy/v9u37bvZc9Sv3VqbGiODl1a9v2u7oK0kKMoTIBCgsAM98Vv2zQzIEu0LIqZdXGAo9BWf4dtkk8LyKwbNxqFvEAvBwDuOPwzWh4uzBpm5XU5fCMMBiM8A/zyKnlQ+Z9TDtx5k9xexO0ioxhtVIyxcnCj/6/tU/iG4Hh/SBolvJ/pEx33Mqn747/AJnI+g96tafYraXttG5Pl2MHnyMf+ejnAz6YwfyritSvGv8AUJrhv4m+Ueg6AflTZJWUZNSqKZGKmUUIkcoqVaYoqVRzVokcq0/HvQKljTcapEtnaeCYYJdPneUsXilAUbRgAjPX6+1UfGWuZU2kDDJ649KtfaE0Tw6kSMRLIu9u3JH/AOquUsrWTU795ZeIky8jeg9K3nLlhyowhHmm5Mn1S4eLR7HTH++qbnwc8Zz/AIVkTO20HBAA79zVu9la7umfAUSncvA4ReBj0z/SqM7732jJA4rjZ2kNqpkuMke9XLhd6r67sVDZqWlZQcA88dTU8yBZo0yfmb1oAntnWO2jBIB/+vUkjBsEKSfUDrTbaFRI6Y6AEGrix/MuB0oGVDvaXdtC8gdfxqw0RPLOT9OKinBjZn9CD+GatNwv9aAMnUAqQEAU2NvLgBp2o8xke4pifvJAB91B+tVEiZIoIG5qXOeaCdxwOlKaszGjivVfhtdMdJuIQ33JckexA/wNeViu9+G9wPtl3bMM74wwGfQ//XrOotC4PU7q2u3h1ua3DDy2Ab8x/wDWraWQ7+owKwYbeKDxAPMUASRcZPvW6yIyEq3PrXOjUkOCpO7pVaRxg7u1KU4ADEGm/Z2kzxgetMBAAy7gR+dMZskBfXnNNNqyAYIIPNOWEbcMSpPpQAgUkbs8jtViJiOTn6Ui24VSd2WprRqgzubd6UAWfNI64z60yYyPE2yQK3Y9apyMThQ3Hf1qRWAUBcUATqjMo3uGkxgkdKcyEDngVAJChGRjnrU3nJKu1mBH1oArahafa7IqjYkXlGHYik0XUxPHJbXVyUnj4OeM+9XF8qMgKcg1g6zavDcGeNQEc/MQOQaYjbkdxIHWUk57HIrSh1FY7cAyjOO/BrjbfTd6bvtsiknsalGhQk5kvrpuOxqboqzOlbU2uZFEfIB5NPaWQScqcdsCsOHR4LWM+TcXIJ5zv61ZW33jm/ucAccildBZl6e6KjAj5/KqNxPMUzHHg98mqU9vdM/7u/kAHYgZqq1pdbwGv5dvsKd0FmbFv5spIIHtmtCDzIASHXnp61zrxXFpEZUv5doHTZuJqtb63e3VysDNcIB91/Kx+ZpXQWZ16GaUkkqVAz0quZ93ytKoPpWdJDeogMWpydO64rntXkvdOBvBLvwfmUCrpzinqTOLa0OxXyV6sTT90XZSa5LR/FMV+qhxtPfPFdIsquoZWBB9K7otNaHK7osFhjIjFR+c/ZAv4UiyAnmnFivONwqxAZHAyW/KmeeJB8rZ9qYzu7ZHKU5AsnQYI71IxpKtwRg1FLHxnqKtGNWG1h81Q/cfaehosFzOa2RmJ9aK0jAM9BRU8o+YxSMGmlqSViGxioSSTXlHoDzJ6VGT70c+lMOfSmIdnNG3HJpoDY9KQ4AzmkMei7nAqWVt3yKcAVAj474oZh0Bx70AOWNc5J/OnMELADGRUGQO9IJADxTsK43Uc+T5q9Y2DD8KuM4Ybh0IyKryAPbOpGcioLdybSIscALg/hxRYCZiM5J+lY3iLVPsGjzyKcMVwPrV6WbriuE8bXxdobRW77mH8quKuyW7I5NOWy/c5JNWYxgFuPaoY85AIzU746LxXQZDCGkfHQVuafol5exBo49sf95u9R6JppvLpGYfuwec969IhiWKMKgwoHGO1ZSlbYuKvueeXGjXkYOzynI6rnBrIJO9kZSkin5lbtXTPqLreTFjuTzCPpzVHX7JXgXULcZZfvY7ihN9RtLoY2Q6tGfuuMfjXQ/D+VY76aJyRuXHFc2rBgGHQ8iur8EhYb83JUMc4wRVvYg7q9USTwryQBgjHH1JqeCaImSLywWA4PQVUR72WUvLtVQ2VQjtUzQNEfOYAu9Iof8A2gIodiuF3N0HNR3NxLOFDjaNuMjqRVYsYz5aIrMOScdKmS5KDDo0jEYwOwoEPOLaBAWYn+E4rTtrm6f5Wncjb0zxWU0nnOmWZVU/rU6M0kQQkhs4Dg9RS3HsSx/KJWVnLZ2EFuM1Sun5+YYxVx8QxrEp4B596y5JcnoRzXs0oezgkePWqc82yvK54YjPHWmF0YALu3Y609m3DIz6CoJAuOu3HT3pkIpXcvkXCFuN3B7Cse+EqeIbHyyT5rhDjpitHWMtZMQOU5BpdJ+z3Ki+uHXbFGcZOPmPHX86wquyZ00Y3aJZoJpNSEjbZLe3UBI4/mDvngE/qfpWLaWTXV9dareyraW1sSBIiDLP6L2Jya0b/wARi0nitLeFXY/eIOApP06muWnv7q5MfnzM0UR3KnRQfXFcLZ6NrFnN5qWsRBpHnDSiLvwW6D/PpXXfEaZbPR7PTYiNqKq4HooxWR4FtLrU9Ya637ILTdONykiSQ8c/nVbxzqDX1/5TDDwJiQejen5YoDoWbC4Sy0XQIQcefeSykn1CbB+pqvrVwL/xHaWqyb4kcH8jkj9KpatIYtE0Bo/9ZHucfi2f8Kht3dby/vnx+6iYqQc4Zug/WhCZq398o0W+uwBG1yxACkksFAjGSe2S5xXDDk10WvOLfTLOyUYwq59TgZJ/Fnb8qwIxzQJkijpUqimqORUyiqSIYoFTKvFNC81IoI6VaRLFVeen51ZiwrISM4IzUagUyQnop61WxL1NLVJpNUvkhiUk5wOc1d1GBNK06LTY22PKvm3Eg7J/ngVpeGNM3RR3DL8zdyKr+MddmTU0061ZEIQxyyBQW2sOVz26n86qorR5n1IptOfKuhx7yeaJLqTcucKgyeFAwBVe3UMF4OS2T+NTz5mLhSoijHSi0UeVvxkmQAD2Fcp1EthD/pI4/g7/AFpblc38ajsCa6bw1oiXRur25BFvbQFiAcbjnpmufvyi3cMyL8jg4BPvTGOiYi5UlcbvlP8AStWC1lkt2kRCQvBPYVQktpllhkaJ1jmXCcdSCDxXY6ncwGzgtLURokYWQBeN3IyaYGJqWgvDpIuGk+fq644ArMXc0MXyncUDHI6cV1GqanFNpcu5lXzSVjXvtB4P41m2t3/xIobcW7SuBIjFI9x3AnaCQOuBQByV/ICGP4CmwqREFHU9TTbzIcblK/Mcg+tPi5GTTiRMmC7RgCkIpc5FNqzMO9dV4Dn8rxLCv/PRGX9M/wBK5Qda2vC1x9l8S6fL2Eyg/jx/WplsUtz1rUiy6lYylDgEqSwrY8tpEDpJgNWb4jnkSLlPlQhgy9q0bBQNPi+fBxnmuU2Y5k/0dlEmGHfFRW7TiFt2W2+nerixJj7+7cfSk3CJ8MCB9KAK0dyJZPL2lT6GraxlmzgfLwRSM8JfcQOOlDXSIg2DnvQBMhQgkjbtNMYoPmIbJ6cU2OVWjO5etObzTyFGKYEKW4MhcsD7YprNEZNg+UipCbgMCIxgdc1I0SzYO0Z9qAIPLDrhunrTPIQMM8VdaNowMBSKjDB32unA6GgBgRP4cbhROscsDJKMggg050Rn/d59zTHtZDkqcjufagDnLRCt7JAr9CcKTyRWvHhojkncvtVa+tRDcR3iZVk4bjqK1IRE0e5MHeN2fWpkikU2MqxglgRntUTXUgyA2CR6VqLFHLGUKEe4qjcWmxmCMCfepQyGJ8uWbJPr2qRmiHB+8PamKFRfm2sB/CTUbHdJnIAx+tFgLMcpMZOdlWEyseWxj1xzVVgSqlCrEdRmrCzog2uPmHoaTQyKZmYYYEr3x2qtcDdEVfDKRwMZ/OrolSUsq5GfU9ahlhzwEwe7UkI5K606OJWaKExqTnI7Gq+meKDp10LW7Y7CcKx6Guhuw2doB5rJudDhu0aOSIZbvjmuiFVxVjJ07nY211FcwLLGRgiplnRWAJ4rhNLkutBuhazs0ls/3GPauzSISIHB4NdkKimrowlDlZadwmHUfKeDQwI5BwKaqjyyvXNPYgKAeMVRIjMGCkZ3CkK7mBNG8AYFNLigCfj1oqt5nvRTuFjDkI61CzelJNIRjFRh+OteQj0CXPrSFgBURb60lADi/HWo2fPSkZlUetRb9zUASgGjgdTTGlCj3qu8pamIsF03Y4p5xkVRU5NW1fIUDtQwJmfbGfpWbHKTAB7n+dWbqQLFgHrWbG37sfU0JBclkkwpJry/WrlrvWJ3zkK20fhXe6tdi1sJpCfuqcV5mN7NuJyW5Na011M5PoWYVP3jUsaGSQDt3qMAooWmzSmKLjhm71oSdpo+2O4ijToO/qa695ljtmY9lNcR4dDL5W7smc10mpz+VpU7+kZrKS1NIs5KKzeRWnkmRY3JYYOSau2ex4ZLckspBxkVmeFWiu0a3mlYFOQMZ4rvLPRrBLdp/KbPZmNNoFqeVSxG3uZIeyPx9K6/wQA1zJlsBeaw/EtuLfXZNowjqCKm0G8e180p1Iq1qiHoz0yaZZYQVOSxwwP9KWJSyhS3lE872P6Vxz61cx7C7oyL0BGDU3/CSyTHM0aEJzjNFh3OwRT57qwVnYYLjuKfBbzIHKBVY/KC3Ncza+Jgyl5ISnGcjvitGDXReKvzBcjNJ3Gi4NOeFszs+3rwOM1LAhLK23AUZqZr1yUWSdfKZCQM5zSpIGt9+0KWHSt8NDnqK/QwxM+SBTupS524FUZEPAzxU8+OpPNVpHfJzzjuK9SR5KGbNhJBOahllKn+8Pf1o8zIIzz2GarzOqjLNzUMtIr3EiGORCMAjoO9N0jSY/7CaORwfOYsT18sA8fjVC+nKdTjjtVxZvs3h2GfzCg4bAUHJz6muDGRc42TsexldWFCpzzjzIz7zw+lvcSTRvcPsbKIF3EkckHArnTbtcXEcRO0F/nH91fU11uj6jPqV7iQf6IWCfNkvI+c4BGPxrWGlWWpxvI6GN5t24xnaXXdxg9xxXBGdSnpNXPaqYfDYpc2HfK+zOk0xbSz0WMWiCO2SMbeMZHr+Jrx3WX+13N7dnq0+F9xivWL+WOy0KZQAqKmAM9BXkzhJLGdmJ4Y7APX1rqZ48hby7WXT4UfBeKMKuB0H19aWxkzZiF2AE84kfOPuINx/E9qoRrJPJFbJy7NtGO+elaokgttTnmhwYLKPahz95hx+rfoKCCl4hna61VlLbjEoQn36n9SazUQqeRUtuTLKzMcsTkk96uNbllyqkn2FUo3JctSBVqRVpqrjrUwABqkiGxQDipV+U9SDTQMin4BNUJscOB6VY0+we/vo4F6k5J9B3pLW1ku5RDEMsRkcV3WhaOmnRcgNM333/oK0hByZlUmoo1bOBbO23AAIi8D2FeW28Y1fxK4ncoszEuwGSO9eo6wywabMBnPlt3x2rzPw3a/a9UnQtLuMbBBEu5ix4A+nWniuiDCLdlLVms1n+y6fEywKx3SuctJj6cAV3Gm6JpOm6JYm68uW8Z43kDNwMuCRj2Gc1iQeHLc+MLLSFnaYowNycYA6ZUfhXofig29hbJBBGiSSArvA+bn3+lch2oivLubUdGu4LSzYvI7KPlKoqHGCSQO2K8pu7aUWEcjbQkUpj3buSevA9hjP1r2bVroWmhyOowGQtuPU5FeKXMrPDHCem8n8zzQDO0i0qWZtEN7cBXeFpYosHjanGfx21qa7pVjYWrSCF5r2UgJ5jYAZ2G35R0xiqmu3zw+LdGt4W3zWsAVgBzkr0+tLrF291f2KuX8ySQS4brhehNAhbuaC3up7W3ihFvZOseVXDbdgzzXLy6gTJc25kYZlaWFic5z1H6n86uW10G1HVlkbmSTgHv1H+FYFyM2iN0eN2TP60AZt1hmUH1yamj6AAcVW3ebcM2eM1r6RAZrwAj5VG41cFcym7FXBppyK277T48MyMA3t3rDdSrkHgitJKxnGSkL+NWLWUxXEcin5lYEfhVU5FSRthxUMs+g7uFNU0oMB8zxBhjvxRpc6yWsatgBVwazNFvpbjw5ZyKGYiBBtXqcCnaKVPnCVGjw5Cgnp7VyG97nSRXESkCMrmiWQM/y4z7jrVAxhs+WBv8A71IFuI2AJyo/SgZJJEC+W7HJxQsCvJkA7e/ahnkZh5mAAKVJnB4xgdqBEqW6xyEgnHpU6NEGxluB68VA5D/NkLkdBSJ33HNAF0sD7r3xUBdfmIHFQ+aAOtRSTHBAB/CnYB7zt0XBx09aRpJCmAvPpTopBInCfMPWmeeyhjg5B5oASKQq+SuARyKme4YplJRt74qETb15Wo3RADsB3HrQA/dHIGRwXB7msb7U+mXXkMSYM5UE9BWiw/dk4YCs7ULaSWAuELbRnmiwzbtLtLiLdGdpx0Jp8kG/77gMPyrHsobaXTUlFwkcnQgnvUq3TQf6xw6YwGBqLDuW3s0VW2Juz3piWsO0YU7h2B5qe0u4GtiRIHx2z0qslzatO4Mh3nJ68CgCCeNeAqlDnqKQM6gngkdM96lW9tAwSVicnippkspCAk6AHnrQMoT3ko2lQBjqFpIb9iSGHPqO1X/slqFKswLHuD1qP7MgwsaAjoTmgRTa48x+Rg9jUckE+NykjvitKLShKw2vlhyfam3mnyxAhJe3agDn7lpZvkddwHtXS6RK0lkm/qOKpLpUsq7eC3XdUsRbSyUuWCqTxmtqErSM6qujXZ9o4GKgZufeqMusWwXIYMPVTVR9YicYVgg+vNdl0c2ppvOqHBOT/dHWopJJG6kRr6DrWZ/aUI4BA96rSakrNw26hsdjXE9sOCMn1NFYZvY89P1oqbjJJW4FRhqVz8tRhxivNR2j8tjtTGck4BppcscDgetRtKE4Xr60APbCLknJqDzKjkkJ6mozIBTAmLn1ppaoi1JvA70ATKcGpUlCuKLOznvTlPljHVz0q9Mbewi8uP5nI5Y9TSAzbqXcxHYCqiEBBmllfhie9RlsR59qqwmc34uusWiQA4Mjc/QVycanIArV8TXHn6kIgeI1/U1mwKc5NbRVkZPclblhVWfMtyEHIBAFWuhLHoBRpNnNd3ysEJRTljTA7XSYvLjHHIXFW9flI0KREGXkGwD60lvGYYdzjGa07HTW1ZY5DxAG6nvWb3LRleDPC+zE0gx3dv6V1WrTJERbxdAOavzyQ6ZY7I1AA4A9TXLTzklpHOWJzSk7lJWRyfjBR9tt5MclCKy9P3HdtbFaniskm2ZhySePas/RUWV5AxwcccVpDYiW5dlRvLVZGLLwSaXy4wwO7GRwPWpzA8QG5c45IJqvMw8xWG0j0HaqJGNtDlN2PY1YCRRqvzkg8kCo5m3kSOqsQMCp4ldod5OcHGD2oA0tPlFxPFAC/mMwAJPau1uG2RhFJwgArk/C9lK981zIgCRg7T710V1JvkwcgAdq78JC0HLuefi53kolZyCM+lVmPJIOc0+Rwow2R7Y61Vd+ODgD3robOdIZM45bBJA4qlNJn74z61LNNknJHPrxWfczFSfnGPpWUmaxiZ2oSgZPTjpV26W2OjWM19J/ocMe4xK2Glf09h71jXsw5z1wai12aWT7DaPlfLgQFTxjIzXHVdzupKyNzQr2bUbiaaNIrcJGYraIA7IlP3iffjk11Gkid7GEyukrW0YRDH0I9vXoK53RpYYdHS2t2MLzTbLibG4suM7APQ8D8a7OCIWlusYRAoG4YGB+VYS5re7udtD2fN+9vbyM3xLdj+xlB2h2XJGa82cCOyMhPVuFPpXSeIrkSaiyeYzRAB3Qdck4wPrx1rmzFJf3UNjDjzJGwfRR3J+lUYytfQfYB7O0fVSvzMTFbA92Ixu/D+dZk7MFWIE88t7/AOf61p6ncQz3KxW4/wBDtU8qI4645LfUmo4dOmmdWWJnLEAn3NNRbM20kTaTpM98+2BOn3mbgD8a7u10hdPtFhiw0h+8+Opqxptgmm2McCrlh8zN/eb/ADxU7qUVXPHGeDXdCmoo4KlRyehhahpdrPGWaFd2Rhk4NZJ8Mu7EwTj2WQc/mK6uVk8tcjtz7VFCytIrDcOQp9KHBMFOSOai8MagxI/dADuXrTtfCQUB7m43D+7GP610YUSR8sFx696fIAZeuRgD8aFTihOrJlS106CNkWOLywh4x1NbkMYjQl/7uRVaGIqgIZsj16VZ2lY2dz90ZweBW0VYybuY+un/AEOZT1MZH6VyvgaR7e/vZ0yMRsu4DkZ5649q6PUQbh3UKANpz71z3gy182+voxu8znaFUEtgHj1xz61x4jdHdhNmdB8ONOWS7v8AWJFORIUjY+g5b9StT+JLg3eu2kW75c55ragj/wCEd0C305tpuCpaXb0BJyf8Pwrk5H+0eK4A7cLEXzXMdhreMb3GjrChzwMmvLSw+0xEjIDZxXY+Jr9LhDDG2dvLfSuOCq1xBvP7svtb6UW1JbOn+2xx3CXIeOS7knR55W7jcDtHoox6Gn3mqC68RtdAs4VSuVHUjpiur0PQrNdKilt9JeXcjuJGT5WVT8x3HI4rXj0q6S/jYWdnaxDegaWQKDjALHaMgDjnpj8K6vq8V8Uhc8TygwXst1I1va3DSM+4bUIxyev4VR1RLq0DpdwiGWQ+ZtznHavS7lzpjSDVdfsGmwShizu/1gGCOudu706c15t4qvUvdVl8mQywo+yKVs5dfU5rOUaSjo3cV2zJt146V1ekWqw2Rl3AtKASfSuctoWkZUjGXbgD1rsbdRbQxxRjhVxjqaqkupz1n0IZkyvKZx2rEvIg7Myrg5rcnLdSQfYntWTO20EEp7n1q5mcGZLgqSG60IfmqSZQzbh+VRrwawZuj2DwXqEcXhm1DyqHUsOT/tGr4vLZtWeRrhVQpuI3cE5rgdA/eaXg5+ViOKL0/vogw+TdjIrnlHU3T0PT4dd04MoF7EM9cmp5de0oDm/h454avLhZ2ox+7BzTZdO2kNEqlf5UuUdz0WTxNo8nBvEA6cGqf/CQ6TGx/wBOByeOa8/aBVfb5SnHqKV44zw8Cn6UWA9FXxRpgXJuVx60n/CV6WOlwMetebvApj+WD5PrTIrZz0h4HY07Bc9I/wCEs0XP/Hx8x9ani8SaQzBlvU56ivMVsvMl/wBUqnvuNOe0CHGxT7jpRYR6i/iPSdh2XkeR2LVDF4o01SB50bc9M5rzU22Tny1IqeK2iKn5dp9cdKOUD1ez1Szvy6W4BIHIz2omnMEoCtGM/eV+uK8yhtYUO6O8mjf1HFNK3bzEz3ruOx3nNLlYz1lDG0SsXQZ6AmlMUboSpUE9eeK8oaGYL8mpTAehbpShtSGANRbH+9RYDvBdWFpcSWtzJGFxuQhcg+1PtJYb6JmW3UKGwD2NedTPeQsJXlSUg9+9dFB43c2SQpZRKVHaizC51YtIOR5IHrjvUQ0u1V9wjIPrmsFPGLkDdbDI9DUy+MY/4rZvwNOwja/snT8/NCxP+9Q2iabMPusD6bqzI/F9mT+8jkX8Ksp4o0hj88pQn1FFgL8WjWEZ4RuOnzVG+nWsF0MeZiTrhulSWupWc+RbzpJn3pLxsKJgOUPGKLASJpsMbFo5ZVPs1JJp0cqkPcTHPq1TpN5kQKkZx0xUbXL79giYnscUWALeI2SkRyuw9G5xTLpm1G2NvMqkEY6cihbh2JBQr9RThuzu28DvRYDyXXrPUtMupAscojzwRnFc62qXyty0gPua+gVSO6TbNGjD0YZqjceGtLlYlrOLJ/2aq7JseGjWr4cb3pRrl8OjPXs48G6U3LWUeKYfBujdDYDPtRzMLHjn9uX/APfaivX/APhB9HPP2TH40Ucw7GdJz/FUBJFNaXrioSxNc5sSNIajZ896bux1qMsKYhykNKob7pOKmuLdRA8igfKfWqMjEDI61qRgXFtwfvrXLXlKEoyT0PbyujTr0qlOS962hmbyeP0rZ0/R9wE15wnUJ3NP06xhtFEspDzfotV9T1s8xQEljwWrovfY8bls9S7qGqx2yeTAFBAwFXoKwnlZss7EseTVXzTuyTlvX0pGlOOaaViW7jpZN3FMmlCxsx6AZqPdzWfrNyYNMmYHkrgfjVIRxdzL9pvZpefmYmpohhc1VQDHvVtOE6VuZo1dE0pdXuXgkkMa7Sd3pXZaNpv9l7Lae2V48/6xO9Yvg+HiebHoBXTrOyNwePQ1k27lxRB4ihYqI7ZGKsQOOoFQy+I28PRW9jDB5h25PtUt1ciWTyt+wN1YnoKwtRWO1jfUJjkKMInUmkvMp+Ruz619rSOW4dULfdUnFJH5T/M0iEnoN1cv4ej/ALWubie6XeFwFHYV2NtptrEuVhUHHWhoSZyHi/hrYe5NU/DzBBM5AJ4AzVnxgwN3AnorVlaezLE+31q47Evc6WWHz4yVfBxVOOyVAS43k8EjtVPz5FUDccfWrEE5hfLMSrdRiqEDafI8hcbh2HpTtkluw3fMD6mrMd/GD8wfAPQCq93crKxKj5ewPWgGdj4b3f2SzFjy/HtVmc5PD9fWm6REYNEthjG5SxB96bMVx1wfSvWpq0EjyKrvNsqyjOfQVUkxg9qnkJUsSMr6iqkpG04fp6UMUSncsBg4B96yrmXGf6Gr1zKQhAKtx37Vi3T5z8x/DmsJs6qaKNwwZwO5IBrfTSILm+vNRv2MdjbEDB6yEAcCuacnzlPJ+YfzrW8VanKzrYI+Ih8xA7k+tckjrhojb8MQrrdzPcrbrbWlvIHQAk729Ofauxu5Y0DO7oEx8oz29KxvDNu2n+G7eNkIeQFyAO5P+FWdVuzFaogBMjHagBwc9sGkarY5EbPNu9Qmb5UJCDH3nx/IcfpWfaMLDRbm/dc3V+TDAc4Kp/E39PwNWLzTll1tdJt7l2TIaZz0GBlzVTVbiO71BjBxaW6iGAdgB3pEszCo82KIdOpPqP8A9deh2Nqkek26Y+YgP06mvP7NDcXJkA+8QFH6CvUkjEcapuxtAGD2xXVh1uzixMtkTFQ0SBjyKhLZGDk87eaez4Udf8KhlkVUJ345+70rpZyor3MhG1eqk46f1p0DbOQcnqAD3+tU5ZiJflUkDrg9fSrMMLsMHaBngZ6VJdtC+pXfgcjrzVmIbvlIx04FRRhdvUEZ4XFWYsbwTgjqRmqRBNGNhKggrwc0sgLI2ccHjNNYhNucjjFRE/Jyc55wKq4iq6BnzjGR0HauS0SWSx8QXnlZ3o+4DuRnnH4CuwAUKSMqfr0rmLe5Gm+NTMcmJwNwHoeP0ya5cQtEzrwj95o2LltTu2nZba5aQgvl1K8Yz3rPn0q+S+lkaaBJIkCFQxYqHyOcccYBxmumv9SuzG0JZjGcZI4NYM0hS4kbPEoyx9x0rkO9mNf2EEU2po00hMaxDgbSVx15zxnH1rl5o1jaDaSWbrnsa3rUz3erXcEQDNMmeTwNp4J+mazdYt1ttUjgRw+wDJ9+9BJ1YvrjTdHsdLm1qSApGx8m3UjarksVZsjPJrIur5EmUpcXTSyZz5kxI24yQfqf5VT1u5362lwed6KxqLUUXdHKmMMO1FwsiG6lSS4dok2Lk4A9KzZ/mnRfxq6+NoaqC/Pcu3vihCexv6BAHu2kI4jTP0zW5LIwyfm9Cc4zWdo8fl2JkBO5znhc8DirMrO3Vhk8DPU12R0icU9ZFWZywYKqnuSPSqEqsW5H4elW5FJUhn5xkk9qoyMTwGHPU1MiokE2VyAME9jVcZ3c1JJnnPJqLJZsmsmao7Lw0wGnSY6hzj8qm1KIyWjujAOnzY+lVvDo/wCJaTuI/eGr13bDyWIP3hjrWD3No7DLeRpIUdgMYqYOMEA8VRsHDWoQnG3g/WrPTrjFIYj4ZuvFGRt+lB2kdORSAjPBz7UAO28ZXpSbTu5NAxk9cj0p4kR+CD+NADMeopNqq2amyrMAOPemtDtO4sDQBErAE8HFL5gUnB61IAD06VHJFnkECmAwzA9jj1pTMMYCk05FQLtYmmtgnHb1oAMk8gHmlCtjJDUCQ5Cjmpg0kikBWPuBQBGXIjK9veqyLljtGD/OrwsbqfG23f8AKpk0HUpPuQbf940rgZqyOjfOuB6ipRIrjIataDw7ekAygKvT1q4PCXmr8s21vVRRcDnwcij5TyQD9a6ey8LwK2y5ZmYdOetbCeHdMRQRDyPWncRw1uzxODb7lfPG2u60qe9ksl89Bux0NWoLG1iOIoUX3xVtYUTGMUhmc00kE6bBgnqnataG6ODxyRzVS6aPKqMeb2xUmC8exgQexBxSAs+Yrc7aTzl3bStQR7lOGB46VIGU5JHNMBWdlPCVNFKs0fzEq+eB7VXGCafwOO/rSESyIQRhjT4w2OORUDly25QMemaQmd4/k+VvrQMsEgHvRVb5gPmQFu5zRQB57mkLehphamlqyNBGc1EX5605nFaGm6K95iacmODt6t9KHZAtSna2VxfyERr8g6uegrWjgW2jWJWLbc81dvLq30+38qNQkajhR3rn7bUHmvyDwjDge9c9dOcGenlVX2WJj56BqV5KkpgU4GM1l559/Wr+tja8Uo78GsrdxWlB81NMxzKl7LEyj8/vJt2KaXqLd70bq2scBKDXPeKLjEUMAP3juP4VvA8Vx2uz+fqjKDwg21UVqJ7FGPANW8ZXmq6DOKtKuSK0JR2nhZPL0lm/vPWjNdQxZDNlj0A61w8et3FqiWUZCqTy3pXU+HtK+0XgeWcyEjODWTVi0xmsH/UFAVDjBNVL5W1ixns4kImtwGTP8eK19TtJLbXiJSfJEWVB6fWrWh6bFFcyXrXEbjBwo60X0HbUyPBlsV02SRlILPjn2rrVUiJ2xgAVBpVnZrPckDDStvCg4APfFaN80cNiyLGATwDmk2NI8q8Uy79WKj+FBSaen+hEZ6nsKp6zL52q3Df7e38uKuRA20KjcORnBrRbEPcnS3CDzJNxx2xTmUN+8hPTkg0/a0sKuWJHtUa25kZjFk/3qYEhu0IIdWwRjIqFMyTLHGM7iACaSSMxNwDjHStTw5aSXWsQF1+RfnP4VUFzSSIm+WLZ2zqbe1jj4JRQp/KqEx4OSKv3Z8zABwe9ZtwrDPQ9+K9d6aHj3u7lOTAUkMce9ULmTHXHNW3kwMH8azrltyluAc9KykzWCM25kDAlTzWRcSYOPatC6Yc9OBWTMwJ65rlmzrgiB3wwPoQanupFu/EKknKmRRVWQ8VoaHbrdeI7aMrlc7mI9hmsGdET1WBiUSF/lRYwWI6g+1c3qN4trqjz3EqPFaqfKKnhpCB69xkVt78I0hHPXrXJ6ndefJb2C/O0lwXkB6EkY9fShmjM6OeS30u61FmP2u+k8uJ+chepNZFwPKhESkln4z/P/CtXU5lutV8uFQsNovlRqo4z3/Wsnie8Zl5RPlX396N3YhuyNvw9ZiW9iBXKR/O34V3UhOckdOd1Yfh+0+z2RmZfnkGfoK0nmKjB4BPfuK76atE86rLmkWC4IPzD6n/GqTneoK5I54brTZ33MpJwM5xmlVlLDjBx64xVEJBEq+Ycoc57Acc1ehjyvL9OuR196bbBONuMLkAn86s7024LKSTjFCQmSBBkOy57AipVREPOSwOQR/WohIgU56dgR1qM3APIxnPQVVxFtpi2W79xULErt+c5HGCarmdR1b5T/dP6VXnuhgNgkHv2pNgkTTyhW4yc9sVyusup1e1mwMOjKQfXnH8xWpc3LSBQp57EHrWJq4ZIopiBvicH6f54rCtrE6aCtM7BpvMiRlYlSoOSfasi8behAPOcUsF0o0mNixHlgoSB1wcfyxWZPeFb9YPU5z6iuM9Az7dmtNfiBHzOxB/Ecdj3qDXV236soxtHIpupXAbUDMp5STjPsaTUTLJP5ohdY5BlGYYDD1GaCSrdy+dHDMTnaNh9sdKc93E1mkZb5g2c+1VmBLDecBhnApExFcMhAxjikA55h5ZPUe1QWynGcck5qS6kxFt/CprG2aeSOFASzHHH86uKuyJuyOksU22cKlCWCbuffmrAQueRjjFTqqRIBHBnaMfMc5qN5GQDy4UGM8fSuxKxwt3ZQmhj2kFuhyx9RiqUzxqCA3Hp6VoSXUwYhYV2jviqE95dKGymM+q9KiVjSNzNnK84yPrUCkZGKnnlaRskDPp2qFRzWLN0eieE9HurrREniC7Gduv1x/StqTwxdFQGkjBPTvirXg6E2/hazQxuQy7+DjOTn+tdCkiRo+baQkDIrkctTeK0PPLbw1f/AGvyEC8u3J471o/8IhqDttLxjb1NbGleZLrcpmIYMSVQnlenNdMVC7hjqc0XA4ceDLvbkzxg0L4PuzwJ4812UgPHJxUfmGIAEAjPWi7CxyX/AAht6GYGeP60L4NuCf8Aj4j9+K7HzVSPeCG7YFIZlI4H1JouwOSPg6Yg/wClIAD6daQ+DZN2PtSgY64rsUZFGCflNOAjzuxnPAouwscgPBsqE/6WOPanQeD4zM3n3pK9gFArqpJNoAAxkd6S3EJYl+GNO7Axh4M0/nMkje+7FWE8KabEf9TuyO/Oa1zGqqCCdue1SiYbRyOKAMldEsrYZS1j3HkHFSw29s5KoiLnj7vSrcl0oXLr8vYjpSQBHyVAxSAg+zAKQYwCP4ulNIwhYEE4xzVwIr5VW5HrzUTQDeASoXHb1oAyoRKHZJZVYSH5cDoamtn2hlYDdnAqV7UFjyelRshAMgxuU/NimA6VH3AjhqekgeMOrA+opnzGPO8YPpUBVoHLj5kPUUITNBAuMng04kdBk/SqRuVKKM4+tCTtuOBx2NMBHsybkXCsSw/hP9KsRXAZtu0h/Q0gkJblfyqGQrJcB0LKyj8DTA0dzMMkYNIy4Ge+aowais67SNpBq2JF4zwKBEcgZiPLbn0pPMJBjJwelOlaM9G5pmA2WY5IosBMjbFwWP1NSLOpOByaovPtUrtJFUptZS2GXjfPsKANsyHP3RRWEPENoQDtk/74NFIZx5amglnCKpLHgAVJbWs99OIbdC7n8h9a62w0q20aLzXxLckcueg+lYykkaJXM/TtCS2UXN+Mv1SH/GptR1ZLdecbsfKo7VT1TWghYK25+57CuYmnkuHLMTz696Si3uNtLYluruW7lLO/FQrL5MqSD+Eg0wtxUEjZBrRxTVgjNxkpLodFqaibTXIwdo3A1zgfIroNNkFxpqq3Py7T+H/1q5xkMUrxnqrEVy4XS8H0PazmKmqdePVf8Ek3UoaoCTmnKTmus8IlllEcDuTworhXcy3Dyn+Jia6zWd8ekySDIzxmuUQfKKuJMiWMcg1ZQjIqqg59qsrjNUxFO7/4+Dg16h4BUtcxFuf3eTXmVzA5nVgvykgZr1vwNb7HdsfcjAqZbDRc8aeUbMnGJFUkMO1cFb3jApIpII611Xje5zaXpB+6m2uA02fegB6jg1EVoXLc7yG5I2TxnHcVo6rqSS6YZwfuIWYfhXP2Dg2wjJ5U1B4gujbaQYQeZmxj26n/AD70W1BM4tzvlyx5JySavvLnbgbiDjd2qhEy/aQWUsueQK0RMCuzZsA6ADrWhBo2THafMK4/lVmaUxyL5W0g9cGsuC4MfylRtJ6ntUpuXCMIVBB6k9RQBNdzSqdyDCng5HWuq8Kwti4uHVRhAg/rXFO8sq7ZGGOvXrXoHhe2lTw/GCMM5LHPpXThY3qHNipWplmVZCx2DB/Os+ZiudyH/eNWbnzgzKpwB/dNZ097cQgb4hIv8675HnIqTlVJOQQR1FZV3J3B7Y4q7PfWM5IZ3t3PqKyrtG2lopEmX1Q8/lWE32Oimu5m3UuT04/Ws5zU8rc85z6VWY1yyZ1xRDIcg10fg1FOpzXLKSscGAQO5P8Ahmuac8YrvfBECLorNKMpJMWYbQcheg56c1mbRNrVHMVrIocBgo5PQfWuOtpBbzXmou4lWFSqNjGX9s/hW/rE+dPvJUy0YOST1BJxiuVugUsLO2Yn963muP8AGgbIGJt7FnJ/eNxk9Szf/Wyam0ezE08UZ6MfmHtVW7yZ44scKNxHuf8A62K2dFwk7sSOE49qumrsxqvQ6nz1jUgKAAOlQyOrtuHQ9fWqhmLMDnOMHrTkm3gE+uST2rsucXKTEnJy+33b/PtUAZgwYcg96kL5BwOfXFLuDDOOvcjrQMas5k+Utz0znj/PFSfaGVc9dvXBzigxDPBAJ6EDilWMMyhc+pGKNQ0AXUjE4Lce3NPFwVGG3NxjGcYqMKuwkyMWUYCkZB/GmqwDcYPP4flRcLErTMwB2knvx0pCRgZPzfdxk0FNyjghtuTle/8An2pgXJyOnXPOM0CAAsMDqfxzVXVLffp0uMnA/lzV2NvTcR9aWVBJA6bDhlOP5VMleLKi7SRQ0tEvdG8piwJABKnGcjBzkf5xTr+0to5JBboZJ0TKyOcliNvPp0yPxqr4YJ8u5iJ5GeMeh/8Ar1LeyeVIzc5xjmuFnpdDP1tolgt4rfAjZAzBRjnGKqS/vdPtpdxLrlDk9qbendIPTFRxt/ozJ2BzQIrPyTVd2U3B3HjaOasvVF5P3zMKQhbj55UTOa6rw9ZgRNc5wxyi+3r/AJ9q5SDMk5YjpXbaIm3SlJ4y5Prjt0/Ct6K1Oeu9C83ynlS2eTmq7gYO7sP0qdw23O4Z4xznNRyEhQBj1JHFdLOZFJ22ZbawHHDHpWXdSHOcfj61pXKEIWJ4PesaYKD8uPrWUmawRVkJLYxz7U1Adw4pZBt/xzVnTYfP1G2iIzvlVcfUisWbo9z0uE2+mWtttLbIlXjtxWtEqtli21lUgCq0EZQKVwcAYqdYsyZDckdq4zpOZt1Mfio7Mlmj6np1/wDrV1kThkKyfK2OtcvPiPXyxwVRlyQeRnI/rXRzRB40l2kY9e9MQkyMcldpGepoWAlBwpP161O4jARXI2+xqRIkMZxhQeBQBWaBMKCqqAMmqksQRslsKpzWh9nBTDSY2jueaqmNZQVm+fHAoTCxVMm4/KQCexNKC4ThhuznOaVLONJNwUrkYyxqRLbb1YY9QKYiNZAw/eMM+mKdgD5gOB1p8kGH+XkY60KiBGDuMgZH1pgNFyQnTj0pGlV87Rye1PigklHQYxU4tI8bi2GPHFAFMSmPDNkp6EU/zIpCoHy47VZaxGMhyVzk0p087SVKnj0pANE0SL8oIb0zURKyKcvhqiaFY2/e5Hvnipo7duCqb/c0AQIJlkA37l9COaY5lgfdEqnOcgjirMjzI2GhJHTgUzaZTkgjjFAGLNDdXLF0yo3chBxSm0lVnRd2xhhu9Wk3pctA7kKfmQevrV0MEDYG4AHIqhGHJp8yuBHcbUbkBu3tT/Jv4oPOMiBQcZxWg9ysAWSWFhG56ntSWzOxdphlDyFHHFACRrdiLcHVmx90VFLbX625fgMRwanSdInCxRjaehLdParxSRo87lLjjGc4oAw4LCYnKyoj9we/vVjytQjOPMik9hV/yC7FZD26jio41W2Yxs4aNjgnuBQBkquqSudiqAOcE5q8kepqmWhQ464NaIkgR9sfH4/rUjl3X5T17Dii4WM8JeNz9nRj7NUDw3AkIeEAE9OuK0o5gsyxyFhg/O2ORTryNGIeIeYnWi4WM9rIA4ABHqMCin7pCSRASO3NFO4EcK2elWpWFQiDqx6t9a5jVtdaclIThOme5qpqeqy3TbQcJ2UVlc5yTzXPGHVmrl2Fdix3N+VRs1Kx/KomatUiAZuKhZsg9aVmqMkGmI1tAn/eSwE+jAfof6VW1qPydRY9nGfxqHTZhBqUJJ4c7D+NafiGEyW8U4HKHB+hrjfuV79z34fv8ta6w/r8jCB5rTs7PzAHfgelVbW3Bw79BVmW/WFCqda6zwUVvFTxx6MYgQCWGAPrXEKDitPXb43M6xBs7eW+tZyfdrSKsiZPUcARU4PFQ81KO1NiRZjtZLqW32AkB+cdq9a8MKLLSZrlurH9K8/8J7Jr57VzjzF+X6132ouNP0WO0U4ZuDWci49zkfFVy8+nSgDLzyAAfjWdZ+FLxLRZo2DyMMmPpXQwJG9xGzx79hyp9DXX2scEsJnXCkdR0pXsh2ucFpqSxzeTNGySDgqwwaxPEd0Li/KKfkiGwfXuf6fhXbeJNSjt7Zpwq+Z9yI+/rXmd0xZt2e/WqjrqKWisOs8IS7JuBOKvOJCM4wBzgU2zVI4xuOVI6ip3QNHuHTHDVRJArh3BLBQOtPnwoUowx6jvTRL5MTJ5fzMOWx2qMzsihQuR3yKALumwPd3S28Kq0j5OScBfcmvQ1SKLTre2NxGHjQAsrHGa85s7p4JVlRSspbC7a9EnsQYlfG0lATluhruwiVm+pw4tvRdDOmW9jf8Ac3VvNj+GRsfrVZtQmAIurDgdWikVh+pBqwdOtZCQ0/12sKpXWjWQGftFxuP/ADzZa6JX6HNG3UzbybSbskNcNA5GMSxkfzrJuNLuUy9rIk69f3TjI/Crd7pkWTsu7rnk+ZbFwfxWsK4t5LdjslTI5IiYqR/wE4rlm+6OunFdGMkaQOUlDBh1DjBqFuncU43U0gCu/mgdN3UVGzIfVT71g2bpFeTO6vSdFt5YvDloqKQjR7mKY3cnPQ15u6kuAOc16a4ngt7aCAqj+WqKpBJJxjAxUmkTN1NVW1toY5ixml3lXXnH4e1YF3MJ9SnlyNqfIMdPetnVJpP7RuZZUeP7NGAokUqSfXBrnT+5sWZvvP8AzNAyGNjJM8hOdxzWrZzCF+QPmGPxrKhOKtKeBWkXYxkrm35+5gB91R6dKctzhRjGTxz3rJWY8ZPTpU4myBnPpWikZcppCcDIA3Z5zUi3BU8HqwPJ7dKzhJngdRSiRsg5weo56U+YXKaqzksu8uM8jHHuBSrdDd98D8e1ZvnYC4JPHOaBK3BIxzyB1NPmFymmJsgAFcZIyQRTTM2/Bz0wOMn/AD1qksgIGGJIz271KCu0kk89mGDT5hcpdZs/KWGSOec0EgELg8Y71AgLlcE8ds8jvToyoZh5h+bOeRmncViykpDLuwB3zzRK8kRBIbI6AjHvUXO4H5g3rQCSGJ4Y/SncVijo+218S3EDDIZmC8+oz/Sl1okZA4qvI5g8SWsyLncI+/cEA/1q7rtvNFdSxsgKy/LEAed3+RXC9z0Iu8TnQTIhb0OKYHCq2e9Olja3lCO6gk4YLzgg1FPH5VwyHkc4zQBXlcnOMYxVVCASeoqe4b5DVMNgEetIkuWoOM46nNdzoNlK+mIxVVJJZdz9s+lcVDyBwcV1eiae15YbzE5CuVDFiBjiumjuc1bY2HspzGSvlLkeuaryWM8igEpu75PeoZfDsjn/AFksfHaTgVTm8Lzc7LyQDvnJrd37GCt3Jp9Hml27po1UD7oJqs+gsQMXEX4t3qjL4au1HF4p9dxIrPn0q+gyeWA7q+ayk+8TWK7SNC50G9VcxlJT7OKs+FrGb/hKbCK5iaP95u+cYzgE/wBK5tTOhxvcfia6fwdYX2razEEnZUt2ErMTnoeAPrWE3GxtFO+p7N5jqcKhwePrQJJBhQrAe561E5OzIdl28FfrSW6uXCkllJ4YnpXKdJQ1FkWRBGuCyMM45yOf6V0sJ+0aZEQd3HBrm9VsNwUvI2EYDHseP61o6ReiPTFiYjMfykd8/wCRQBfljV1UfvM5+/QiGLf5kjbOo9qjt7gyA5b5OnuOancAZ8xtyHp/+qgCvOQ+xixK56dM1W3DazoWIB6GrLWmAQ83y9sHpTEgKjqWPQ570AWkeOeJTJnb7+tMwI+R91jxTothj2yDaf0p4ihOGLjB6rnoaAGMj7wNmffNK9tGVyUIP1zU4KxjcB5nvTDdK5VsEc4zTEUjE8f3QVB64ofKBXyMj1PWrzMXkChBgY781DNaoYgCufUdaQyNb+QICEVlPLEGnfa/MTEZYEdxVSRY4m2qhJHUZ6URKy8gDGcg5piLQllA+cZ9TinLfQhAp3KB6DFSQyJIdsi7QOMiotQtg210YgqaYga4kK5wSvrimRgyv0zUAldCC53J0IxVxIARuRuM8AUAZmqQ3RKm3hDlTndnkVDFHd3EIZSq54YEdK2J1aKPI4Y1kobmC6Jdwkcp5HvQMr3Wn3U7pDJMvl57mpZJ5rHYso82N22gip57yHyvLZQysQAw5AzWfdW82FYOcHgMT+VMC9cRxSELtERI3ZHUiiKQRLgqrgkfOOMfWorTdAsaNI2e4qadtvAiyjfe570gLa+XgfvOPSopWUybFiD56H1NV5rUTAZdkK9161aS3aG2IDZK9CRkmgCvH+6bbOcNnnHap455Y3zCVUrUDpslhk8wlxnPPSgzvC5EkYY/3lHGKYi0okLMflB4II459+Kr3JuY1Ajbg4we4qbLXOyWPG08Hnp7UrGEQk7hgYGSevNAzK+2TL8pcZH+zRVvzrUcBmHtuIooEebnAHPJqNnpjDMgc5yBgU1ic81KRTFLZqJmAoLY6VCzUxCk5qNjgUhbg84pgy52jJoAUscgr1ByK618XmlHjl0z+P8A+uucSFY0y3X1rZ0W5E1m8YOTG2PwNcuKWikuh7eTTXPKjLaSMCW92rsUnPTFV/M2/NKfmPRO9JqIFjqU8Y+9uyuegB5qtFFcXDFoYJpmPUohb+VdUHzJM8irB05uD6GVfsGv5DtA6dKiXgVqz+HdcnmaVNJuyp7mIiopvDmvW6hpdGvlU9/IYj88VpYxKOc1KD8oqsS8UhSRGRweVYYIqZGBoAuWF29rdxzocMhzXfy3n9owxTZ3Db1rzlMbq1dN1WbT/lx5kJ6rmpauUmegafaKqI7sAGq7d3kVvauqsFjUZeQnFcgPFFn5Y/cTMR/CTxWLqmt3OonY2I4h0jU8fjUcruVzJDdZ1RtRvCwP7pOEHoPWsdj5ku0Y47U6RiBgdTxUhsZ7cbpF6jNaLQjctLEYY1QozE4xtNTMjbMSlgg7A9DSQSExeZt+Vf4R3pAw2MzsMEZwaAI0eVDkHOO5FOZWlcNIeT0pkd38gj2kknipVjaMluSfQ0wLeksbbVYJSysBnaPQ9q6xLCD7JHf6rPPPPKNywB8KPbFcH+83lgpGOc5r0yxmgXSre9uQfOaMEKevSu3CtO6OHFpqzRj3P9o3MOyz01IIuiliF/H1rLbwjczMZLq9jj452EkfrXRy3WpXwKwIlvEf4iMn8qgOgWpXffzyzf8AXWQgfkK3lBSOeM2jkLjQLa2dguuQqR78/oaoz20wUour2twv912PP5iuvuZPDVgCPItpG/upEGJrIutW0hQTH4fRh6tGFFYThFHRCcmclNEyH50AHqpyv4VFuIH3sj3rVubywkcsNKEWf7kjDH61mzLG2Wh3AejHJrlkrbHUncfpu19VtA6gr5y5HrzXo2oDzblXXYjQ5Ku7bVJ56/SuI8M2vm61bOxGEJfGeeK6LX5yYmiUjDMc0kaIxb+SZoIYGl3mZy7MCSCM8VQ1E7ZUh/uruP1PT9K0bOP7RqQ3tiKCJdxz0GMn+tYs0xuLuWYgDcxIHoOwoEyWMVZWoI+1WEq0ZslUVIv1pq1IFJqiWLyAD+tO3HA70qrk85+tSiHkZGPwpkjcnBGakUM3zsP4uMD6UCNhnKkU8DgABeO+KYhF+/hicnuanQZJxtGOmeKRQ2ewB69qmTAb19PQ0yWKoyeXC++anjBXH1yKSJBgNyD6CplGBnrmmSxCMncB1OR7GlePcADn8DU4j3Y44p6xZOMHFMm5zeuI0IsrkfwuyZPqOR/OtzxDg2Md1GMqQHVl6iqniOASaG7gEGGVW/A5B/kKkik/tDwdGqsTLGmBjrxxXLUVpHbSd4nHl2llOTknvT7snzEJ6hQKrBiJ+Tg5qzfMrKjDggc0izMuG521EilmGBmlkJLHNLCAW5bFBJoRJIAOPzrtNF02dNPUzXixb8sqrJyAR35ri0hiI+aQfnXaW2n6bBYQlotPZtgJMs/J47100lqctZ6Fp9N/h/tFiPQSD/GoJNKkYH/SmOO+7OT9M1XkOibctBp6np8k/wDgtQldIYjFsHA7xSAj+YP6VtcxSY+fRZyuVlGfrisa5026hB/fNj1NafnaZuIjupbdj/CxZf50kjSCM7LtJB1Cn/Gokky4tpnMneHwzBj0zXo3w4tzHb3d2cDcyoPw5/rXA3IzLkpt+leseELNbbwza7l+aUGTOOxP+GK46uisdcNWb7s0pHJDYznHWrEO9MIGG7qfaoYmUsgXP5cUh80XGWQ/3cg8VgbE2oIXs5kU5IUkEVn2dzHI78OCzBsEdiM/41cLTxRSqWLKw+VVrF01JY7p45o9uE2qSeeD/gRQDN77qblwMjPHGR71H9tdFAPUnkk0BXaNePmA9e1NMXzbCOo6LxTAniMbyJknjrzV6R/7gzxzis8QNGcx5DYyBjtU4Z1gGSC55xjtSC5ZWN5YQuByOM8CoIgysc9R2qRbwFVDKTjoRTSxVw6gEN2IpoQM9xkJwF9qkVskllJHcigXCspO0HHXmhXEqfLlTTAsR25RvM3HDdRSTQNMdys0ZzkUqmVOck+1L503GUwoPPNSBQuLV0YPkbyODnrUEUksblcEc49jWpIGmPll0J65P+frVY2y+ZsUguOtAESzAsG37eOQT3q8kiyxEEjdVN4oYlYyoNxpI5yHACfT3pgWpIw0YYqPTOKhaPK4Q7T9aJppkjKBB1piysSBtUcc0xEsWEH7xSc1HMq3MEiGPO4Ec04zM8hUKMe9IkpGRvGPSgDDublbGACQ57fMOntVSbVEuriG3iWRllfknt+PetHWI2YqcDyyw3n2qnNpjWZSdyCq9drZ445pgaEUTxynLYxg4xT7iaJHVZPM56EdBT1U3Kbwm33yDT2X7gKhmz0pDBkcDzEcNx0I60xWJTaScjkYPSpJVXDZARAP4jVFFkaYrEC0ZHznGMntTASa3ubk+YWICngocEj3qwkUsUZKjfnnA5NWI5Y3YLE4G0c57iiBykxxtKkYORQBX3IjAt+7DDnI4Bqzhd6sNpPc9jUF55v2mP8Ad74+mTimySTQsGWP936+hoAnZlycGIe2KKq7Gf5gFIPfNFAHmLNgc1E7c0rNn61A7c0kNiOxqJm4pGamAF2wOlMQ4KXOKsKY4Fz+tW9L0q71W5FtZRb3/iY8Kg9Sewrv/D/hrRbOUFs390vWcxFo1P8Asj19zUt2KUW9jhLPw9retoJLa1MVsf8AlvMdiY9R3P4CumsPCEWg2l6z6iZ70Bd0Qj2qB68nJ+td3OUtU33BkaTy8GGMD5vfHQVg3mr3sivHHYrawyAq7um92HQ/Mf6VE1zwaOnDS9jWjPsVvDFpBd3RL6Vazsjjzbh0BkVPQZFdAxnVzF9titY+eFCk47fezj8hXG6aBFqwhmUkPkAH17Vvw6NNfAGWeRG6gg9frmsKFX3Umd2ZULV3JbPUfEmo207i28TQfMpUFlTcv0Jzg+4FP8jV5pib2/vLheobKMG9wf8AECrEmkRxxBYZXjmjOVkXDEGr8ZWKJRGSGAGT0JwOprpVSyPMdLUwdS0O01a2eG/tI5mA4YxgH6+x+h/GvH/FnhhvDd8hi3NZzfcJ52H0J/lX0BLMpSPLqWx0x0rkPFy2eoW82ny4JeMlT6EDr/n0q4T5mROFkeIr25NWQRswapRNlR7VYDcCrMiXjvTXcBTjiomcin28PnuAzYB6UDH6fElxdDzX2qD3rppomeNdiB1Ixms6HT4XUB+GPX1FXBNPZRnyWEsI7HqKkaKM1nJbxlyyY67QarQxGZyq4GOcN3q/JOl221mVl6gDj9ao3XlrIGgJGRnAOcU0JkUrGC4bemG7DHSni7lVldcKR1qASsr73LM3qaQSZTpyepqhFhtQd2xgEA88da9MsGtrixjv5HHkbAI1+grzGzt/NnCMCqdWY9hXonhx4L7S1Cg7IGKhcYB966cLK0+U5cVG8OYfcX15eYS1iEEY/jI5P0qodIjc77yd5iecMxA/Kte6OD1xWax+91PPXNdrXc4U+iI/Is7ZfkSOMj+6vaqtzeBhiK3km/AAVPJsyAB25A5qCXLDbj5ewFQyonLamDIzeZYIjdSQ3+FYU0a4JUEEV1d3CQSNuM9eOtc7OmHOa46i1O+nLQ0PBN1Db6y6TKSZoyinOK09dTbIzBl2Ou9c+3BxXIxSNbXYZG2EEFW9K6W/1GK805GlXZcAhWcHIOOc496xN0yOM+RpV/cDgyJGgGPUYNc4vLE+tb92fK8MrknLSKDx14Jrn1agGXI+1WEFVImz61djHNWjNkyCp1Wo0XOKtqgI4q0jNsaqVoWgbkBsEgg89jUCxccdatWilZAenaqRDYeQcEYOM96atuG6kA+p6VfaM5ORgULEME8A+9VYjmKRgAwd2CR0qRE55FWDFx249aVFHIxzRYLjEj6VOFOOmPx4pQpAzjPrT2J+UAcA0WFcEAwMng+1SEjjPGOmTTN4AqCe5Xk+vYUCC7UXNhd2+QTJC2Pqvzf0rm9BvcWU9k6sc5ZSP4fU1rvfrBOjE/KrDdn071zar/Z+vy27cL5hQ8/wnj+orCotTrouysZ10rJcNuGCrEHNOLhk6H8al1EmS4kZjk1WWQbQazNSnJ981MkZUg5XB/vVFJzIcVesvs3moZ2OCwyFPOKcVdkt2Rt+G7CW6uDNG8eYcYH2cuDnP0FdcVnQEywIwA/54lf5ZqK00yyhiDWz3kEcgDYDtg8dak+zurZSe4Oc8rMT+YNd0IcqPPqT5mQy6jbxD99FJHj+LYSv8hUe7T79fkltpR74zmrbNP5TKk0c7AfdkG1vzH+FY99aWM8xN1am2f8A56DgZ/3h/Wm7oFZjrzR0dMIAVPRDyPwrmbyy+ySt5Ejoe6Ma0poNR09fNtLtpoRztc5//XVSXV4r6PZeW+1xwHj7VjOz8mbw5l5oz0uGJwwwf517no0qy6LaXIjCxPCrKgP3RjpXkGi+H7jXL+O1hyIwwMk2OEX1+vtXusFiLSzgtrZA0KIE57ACuOo+h1wXUqNtkuI0WVAO2080TTSLJhYsBeRuNQzaXC78SkODyoHSrkMcUUKBpN2ByWHIrIsovcXscmyO3DlhkFW5H4Vii1vDqX2mTzRHglgQePp+ldQJUhLmMqxA4I9KsW9vDdku8rLJt7dCKAM+wvo5SkcayMVGSSuP61fa4gUtnht2MelQ2NmILiYyTk9CoxjFXBCW3EOSRzjtQA1dSsoyoMjHAzwKf9ttXuFEW3a47+v0qoscXzsYt7ZxnrU2+2mAyiRyLzlfvdKYh800VuXKSDaOCQD8tUZtb0yC4MO92YjJZQcD8aJ3FtuZmeUS4GR39qrTQWUkDMtuELcFiM/570ATQajpmwtLcBsnqp5FX7e+tmUNGQUPIP6ViCxjtpkKIkkTgcEH09anMKrCDAzRPk/uwOPqKANS4vkeRf38YbqBnH6UseqIrYM0Q6j5m4P+FYFxPkBprfcy9yOv1qMvDLGrIAGGcpIMg/4UWA6TzI5wfnTd2KtSeWqNvQnPs1csu9SssKgsD8yqev0p0Fyr3bGQYz2BI5osB07LKE3MgbJ/KopWYSL8pz6gdKxWnuPOaOPJ3/d3P930pPJ1BH+aW5OOWXOcDuKYG7iZjkjcuOBSiLcNxRkboBisqG7Mk6xG5mjCgna+c1flmLKpgdzjvu6UASraT87iQAeDSLGY8l+T6inIZZ4tyztG+MnPIrOuLu6gdj5qllXptoEWZoVmjYSEFT0FZM0Uscpib5gDhRk9PWpNP1m9uiVWGPgnnHHWpNQjvrpEYQqvYk8cUAJaX09moUQtJAemD8yf41ea+2uWijO49GA4we1UYrOVFDfaF+Xtjoalle+t3iaSJWjf75jOcenFAE7faLkFnUIpHSoxJbW5KSq+4ehz+NOfcCJl3SR989qgme3iSSZlIOeOM849KBj/ADY4pfMAwZf4z2NWRKjLtMnz+vrVJp1uLONAMljnpUpidIPLSMDP8QPP50wGzTTz3YhWVV8vqvuassxMZTzctnHXgVSWJIiz3B8qTs3rU9tJaS5kQhueSo60AQNZHccTED03Yoq8Y0Y5XJB6EiigDyEnAqu5yeKC+76U+KBpX78UARpGZDgVp6XpMmpX8VlAPmbq3oKa0S28fPHvXW/DV4Wvbmd+qsFB/wCAn/GkxpanV2WnQaLZtaWyKPLOJGBJLtx146YPr/8AWlYvpcQt4QBMVLAnkxg9PxqWaQMPMUYR5TI49D3B/Kp9WgW6f7Rb/MdoyVOePcdq5JSd2zsjFWRkwNLbuJPOCzE7iSNzZ9frWlMjXkPm3KvIAuAJicA+o61DYxIA+9yrA/3Mn6da0rmCNIlDtgkljuHp2qFUcjTkUThdXSCw1cTL5gk+WVSuNorsYoIlWKd5WcSjcoJ459qqXOh22rW0Mz53KSFWPgkZ78Hir9jp32e1WGSMKqcAFtxA/wA+9OlCzbsdWKrxqU4q+q3FbCu3lsrbudvpTIoHY75WwD1IGOKHktYfliUOw7/e5/lUbmaZSW4xg7M8f5+v5VpLzOFeRm37KGcQZI5JbuR615/8Qr3+z7OJ0JM13E0KcDCD+I565IOPxNektbJ80jMSBzg9q8t+J1wl7baeY0/1Ujgt6lv/ANminUXOkKpTfI2ecoMCpA7DAAJp0du5OT93vg1aSDa4ITKd8123OGxAISSPmyT2rUit0IQeW4IH3kOc1XxtkycgdquRPPM6xRBVJP3/AG96Q0TQgO5eMHaq/MWbFWLZllDiXy4gwyCw/lUUcdrFBJ9pmLS7wpVRwR9aW+8pmjaKbci8BG6gfWgY2azWPeWUliRt2fdNU2t9q7x09anMjSsFil+UnJX0pWZ9ojMqhQenYUCM+SNi2Dj8KclnKzDah579qdNIFYEDPqRUsNxJN+7QnZ3GatNdSSbT7Ce+uzawscH/AFjegrvtKjhtEFrGQoIx9SKpeH9MFjYs8mFaQ5Y+3pVsYRxL90g/LxWcanLUUkVKnzQaZPPuJIUcd6zpGiDfMc+1X7hhtDFsIeazZpiOFULXst31PGSs7EZkYAhUx7kVA7szou489dgpS6KcszE+1Ibmdl2xCKIerDJqC0itdWskkWQgX/aZuWrnL+zMTEtLET6A81s3MZl/19w8mPT5RWJd20aElVPtzmsKh00jGuUwVb8KtQyBodrj5B1J6/QU2dMxHjpVdQcbQTXI9zqRta/MP7OsoVG3fmXaOgHQfoKwo05yTVzUbhri4Qn/AJZxrGPwFVd2OtA2ToygY6VZilUdxVaOF3Tfs+X1PFOESHqCPoaaZLRpwzpnkitKAo4BDCubEOD8k2Mf3uKkAvUOVYEVopGbgdhFABjDDB5qcW3Q9641dUvoDypNW4fFNzFw8O/6mq50ZunLodag3AKw5qUxgjnjPpXNJ4whOPNtpF+hzVuHxbYEDd5y/wDAc1XPEh05djZ8sjkEn2pyKSwIWs+LxHpUpybpUP8AtKRVyPWNLkxi9g/FsVV0S4y7E+0gY2j1qM5TAIGD6UpvLKRT5d1E30cVBNcJ8oMqngjk5ouFhkjqSfmxWXdzgZIJqS6ukKnaRn61jXU7lSKhs0jEiurndwDmotVPm/Y7xRjzYQreu5flP8s1WkcZ5PNTx/6RoM/HNtOGz7MP/sawk7nTFWK08gYNjqe5qqCfKNSsC0YJ4AH51Bu+Vlz9KkoiH3s13vg7RI5I/td1CCxb5Aw/hHf8f6Guc8LaYNU1yGKRN0C/PL9B/wDXxXqQWNI/NQeWcnBA4I7V04end8zOXE1Le6idwUwA67fTHSqEpUkggE+tOlunIBkGQDgsvSoN4K8kGuxs4kQzKypwA+B0PX86pSXIdCmfnP3kbqP8atyEoMjn2zWLfNHIQSfm7HvWcnY1irlG8ZrVma1byxnPlH7p/DtWRPLDeMXRfKmP3kPRqsXV2zZjlAPowqtb2N1fz+TaQSXE5PyrGuT/APqrknI7IRPRfhlLO2m6hEBhUdSCR0JHP8h+dd/He7Tt27cDBJ6VheFNDbRPDvkXW2O8lJabB79hn6YrUltsRlwztkDjPBrjk7u50rRFqW8SJSijeW+8R1qI34MbKYUPYlj1qsFcAhMhxjIPpTCyTB1xiT1FIZFJcPGy7YVC55G7IIq39v8AssAkZP3ZOQSOlUpLVIsMJSVB6GrdzaPJprOUMqsuQo6AUASW12b1VnhTCngbvyrUhUIpGQ2cda5zwvkWLCZWJ3YBxwO/9a2Z2EDqiZzjOD2piEu9Rls2YG2LIDyR15+gqGEeZJb3TfK2fnVu3tT3m/eKXUkdDjtVtF3L8oXd2OMCgCpdWglnZlMgTOSoGOfWmrZjLRgfIpABbr71qhnlGJFGfUHrVSZFIYhiCO2etAFeRPLZYGOWI4IHH59qdEm1wu5eOQfSk8xgmGwoz1xmlW4VxkIoI4zjrQAy6tYQ4fAQ9c54NQNZRXULSDardCqHrV3y45iBMV2kio7mOC2hZU5yeq9qYFAaXNAWMSKPlyxzzRFpu+IqYzk857j3q5BcIQwYszDilY4YAPgHoSaAK5to2jEBjw46YPOM1G1hqEcu8eYWxwT6e9TPshKyGRkkzkEnirTXTyohEruB1IGaQBDFAeZ7dvMUcngYNJHNDFlEttgzkE9KYJJJAdvI7kjNTR7wmPMXAHO6gBk0saxb+rYyUHH9OaXylkjMqQvgryrdaYqvvBkWKQD1HIq06l1zG7qD2B4FAHOzwvp0xuIIna3b7wPY96vC/tpdigN5f3VHbn1q9eW32hTB2bjk5FVINO+yM0Zk3RE8qB19KYAHwpPIA64Gc09LYzbCJGePIIXPB/CoZ7lYGEUiyIBwhAyCKrR6pImnmWCRcg/MrkAnntQBr/La71ORlgVXt9KSa2kZHk8tWG3+E4xzmqcV49yiu8PzAYK4zg1qSyxSJgFlAHPOM+1AFaKLziBhQpGCR1H+FPWJwCucKDyM5qG2ubZTtlxuTOB0zVh3tnRmMwVSecc80DKN1KWbyJrf922OT1/OmxQxpaSRhUUngEVM8cU8QAuleIcB2PP0xUEUSM5ZpCBwCM9fc0gMZ7q4LHDKB0HI/wARRWu2iDcfn3e4xRTA8qtrdpDhR+NaYjS3TJPI71IkK26Y6e9ZV9ebvlXpT3EtEQ392ZGIB4FbngjVFjS5t4/+PhHEoXOCyYwSPUjGfp9K5KRzISF6dzUDyfZ3WSNykinKspwQfaqSC575Zammo2cUzBhuGQ4G1vxHPpWrZCSbMNveRZcc79oz7ZPNeX/D3xSdTuZ9L1PY87DfDIAFZ8dQSO/fNehRWlsT8r3JxnchkXIH0IrlnZT1OuDbhoaFu7xThT5J56rg5/Wp5ZZGkGEUkd8AH8CaoRadaM5LGReOku3kflU0RijdAqLhflXcQePpio5ki+VkjXl2fl/dqfU5dvy6frTVgeQZd2kz/e4H/fI/qakEccjbdy/LzgKcCpo5YI+C/T07VMqqRUabZHDZkEMeAPQY/SqlxcrCWG7Cjg+3rT7/AMRQQAx2yeY4HDHoDXKzSzXMhaRySxyc1yVJSk9GbwiluT6hqLSq0MDnDfeI9K4Px3b40SJuyTAn8iP612fkiM8/gK5zxhCJ9Buww+4A4x7HNXRajNBVV6bPOLMFt2AdtWVJEoUfSiwjVrcnoqjJJpWAR1YEHNeseQSOrKrK6sCeoxT5BsaMYK/L1zQzy+YAiHdj+LnNNVZo/wB86Ag+9MBGfah2MSD1BHWo97PhT07VM1yuSpiKjHHFXLL7Pcxyq0ewIuQRjg0xFQ/6GwICOzDgqelRyy75t+eT1GKjlceZgkNz1HQ00kADAAzQIRhvPJGetdNomlLHClxLIPm5K7elZWl6Z9ulWRsCNDyQevtXVMojIUHkdFrKrO2iNacOrLf2kuBGjYVaryysqklyT70zeVzwfrUE7gKTuGcd6mmkkObbNy20q4uLSKRZYSZFyqgnOPyqq/h7VGyFSNj6biD+ortfD8Rj0GxkmZEPlDGflq/LdN5myNQ7HjGe/wBa7Y1pJWOSdCDdzzlvCmv7d6WAceglXP8AOs660nU7TLXdjcRKP4ih2/n0r2SKN0jXzBhvSpQ7FcZNWq0jP2Ueh4NK6sowAB3JPWs272up+Y8egr3XUdG03UCfP02GV/7wjw35jmsyT4baZcpvjS4tG7bHz+jZodS+4KnbY8IkQ/MpBBx3FUohhtx6LXsepfCHUZD5llqMM3os6FCPxGf5Vw+rfDvxTpbNv0iWWPPDW5EgP4Dn9KwkbxOQdssWPc10HhXwrJ4guz5rNDbRjfLJ/dUf1PQVQg09opyLqFxKDtWFxg59SDXt+meG7F/DUY02eHcUG/EhCs2OTnp1+lZSn0RaXVmPcWGitapa2lhCETjLICSB3J65rJk8L6XLnda7D6xsRV270bVNJfMkTgdQexpi6hJ5e2RQrDoRUhcxpPBVpJuENzKCOcMAcVnyeD50P7m6BP0IrrUuo5cbjtb1qfHOAcN2KnrTUmiWcK3hrVk+48EnsTVc6ZqUT4l0pZPUo45r0Z4vkVmYHPfpVdoFJ681aqSFyo4ZdPViEl0i6XPXABrbtPBmm3qoIZoUkbqlyzREfmMfrW06lPc/Wr1hrc1lhXUSR/3XUEVMqs+glCPU5HUvhvqFtl4dPuJIh/y0tmE6n/vkk1y9zoVxbPsfAOcbWG0j6g17pb61os2Gls/s0h/5aW7GM/pitIzWF8nlrqCzL/cvIVlGPrwf1rL61JfFEv2XZnze2nXEXO2pIZZ4iA2Ste+3PhLTr9WE2k2bhj/rLGUxsec9D/jXMX3ww0hgSl/eWpx92dcDPP8AFyPStI4qmxOlLqecRTwuDnr9alAtJVPz4b0NdRdfCbUYUaWxv0uUxkEJuB/75JP6Vzl34P1u2ZgIEn2/88Xy3XH3eo/EVuqsWZuk0YV8qKxVafpMuRd2h+7cQnA/2l5H9aq3kVxbuVnidGBwdw6VDaXJt7uKbsrZP070m7lrQGz5OD24quOTV6+jEVzIq8qfmUitDwhpX9qa5HvXdDB+8k/DoPzoScnZBKSirs7fw1o40nQ1RgPtV2QX45AI6fgM1uOwwRjB7VC8he75+7HlEH8zTJJSy4XrnAr04pRVkeVJuTuyvcoJm3qTG4HVeKqSlo/9Ypwp++vQ/UVZfA5Gc/yqtJIQcAY4596TGirNOVUtkEY+tYN9OD91sDHQVevJBHlkPXqorBubgSZAGD/OsKkuh0049SvI28123wzs7v8Ati4u44ibdITGT2LEg8fSuR0zT59U1GCygXMsrYHsO5/AV7ra2UNhp8VpbIVWNAo29TXHUl0OyC6k215FZhuPHIxmidlWHyo0JGOvpikxNbW+wEgt3J4psk7QBQedw+Ug1gaGa0sz/dB3Z5qW13eapUBT1LfjUvmhHzsLButWYow0f7sbOOjDrQBDcopbGUY9SR3q3bMZCNkm1U4KAdqpLFC05fpgZBPRqvWxjfYcbev0IoAyNHZhdXdooPytuJPTqR/hWxcQh+AwMmOVHUCsS3vDH4qlhGPKdio/LNdAtv51yZMlGUEe+KYis0c0SYMe8njJHSljUxrgnJ7AmrzFEBSSUEjGAKpytG7Aq3BHBoAbdTPt2bmjOOAKqRPcJ/rH8wcDjr+NQXuo/ZA7Tb2YDACJkkVPDcJPCkiHaCM8jqaYEoeZwYxEdnXIo2GKNmbrtOMVLBJIE3Im0f3ux9aeBJ9n6qXPrSAzPtwViGG7txV1ciE8ZzyOc1Atmqgu8ecnGB2qwoieEiJ/mXsTQBLBbssnmoqEnsTxS3ZMaqWgBBOcoOKiim4DOCueCatWp3rycx9jigCsUjkBUhWU/wANSRQC3UBIiVY84PSoJbdri7+0Cc+VjAXoasWzCJSkWSP7rd6AHyIediAHjoelPSAugZwpPU9qTdv4AIOefalVpEUqyhgfTtQAx1jO88Z9BRAy7eMj2NVmmSCQoQWznPNWYsAriRgW6AimBYdQ5ARlNMEe9iHAKqOCD0pREBIXV8Dvmklidl2xnDHv60gGPJA/CqCV4II6iuc1SDbOiQQBYi4bjtjtW/HbOj5LYJHXFRXVs0tsRHgEfNxzzTAoRWE8UocSOmR90NxV1IiFOWPTjd/jVNdWYyJFdQNleCVHINWzHBebZImLgHoTj86YEFzpkd5brJ5jKcZqO0ilghWOdQ8ZONyjtWm7gICIwF7DPINVbtnS3SVBhs4IYcEHrQBVuLcLKvltsjzkr2eo50Vm2xRMHIxjHt1qaGSba4mWJkPK4I/KpJY5UG/5TjhWU4OOvNAjn10W7K5N46k8keZjFFbjD5ju8zPfiigZ5nfXe8lVbj1rDmk8xiAeO5p88xY7QeO9UZpxH8o61SQmx0twIlwOtZ7l5OTyaccuSx5pQKYixpd9JpWq2t/F96CQNj1HcflmvoKzuINTsYrq2l3QyruRhzj/AAr524ANenfDDVzLYXGlu5DwN5kf+6ev5H+dcmKj7vMdeGn73L3O8MdwuBvDjtnjFR/aJoieMEe9Ts0+4bRG5/2sr/jTJct9+L8VavP5jvsIL65KbFkIU9QO9M8pphySadGUxwn5nNSb26A7fpxRcZnz23lIZHOxV5Pfj6VB5yAAopKnnca1SoZCGGQRg1RW2WJPKY5A6E+lKUlYFF3IXCk7hzxwaydUtY7mxvBO5jgER3sPcYA+uav3cObeSGJ2jJ6EHkVm64XitLPSSd00qedOeg5B2j8Bz+NPDJTnfsVNO3L3PKEZ/KVCx496epCsrvkgHpUxs2F3PD90RyMoycnrU4tflKg7j7ivaPEehMNQwgZUBHTkVVnuZJgwDbVI5ApPJYhlBxgcjFPhgie3LNIEkBwB60xESszhU3E46VJLC0a53gqeCBxmp4BBBc7mDOwII28Cn3c8E0ZCwlZA3XPSgRSdi/YAAcCoAplcKPWpWRpiqofmJxitnS9PWS6CrykQzIfU+lDdhpGvptutvZqdm0gdqs43c4596lZmC5MeCeB7UxyduW47k1xat7HVokPlwqg5ABFZ8oVgzEEntVh5Q4UfkKgd8ocnHtXVZPQ57tansHh3SkfSdOuL1EllECgK4yEXHAA9TxzSJeag3iBLCC3t3hgjMkzRKOp4A6ZqeK6OleGbeeVi0ggQKD3Yjis3w5dvZ2moagIWnuHbHoB3JJPbmtHBdAVZ9UmdVNPb2tstxdKsb4yVPXPoKzba6/tG7dY1J78LwKoW+n6hrV2JbuQLGDnC9MV0yWy2cQgt1w7DLFcAgevNVeyMkuZ6FW2gYzzodu2MqoK884ya0VTK89Kish+4ZuRl264zgcdvpUtxKkFu0sh2oi7ifQUovS7KnH3rIjcYIwaZuCnpyKyP7Uljt/tNwv3iMRKMbQQSMn1wM/jUcWuJcXEcS27/ADOFzu6e9T7SJfsJ2vYvXunWN/GUu7WCdfSWMN/OsaPwfpls2/TmudPkByGtpSBn6HIroMUoFU0nuZGWtpqcSeTM9pdxMcFypifHqQMqx+oqG58F6RqBO+eKCQ9DGpH554/LFbRqNod7cjio5EPU5G++FmoRoX0+7huB/dPyE/TPBrkLzS9R05zHdW0se0/xL3r1yMTQPmGZ0+jYqHVrq8aze4WNLmaMAbH+XeueQSPak1ZXA8kivZFBib7p4+btUiS7h8gBPXGea7eaHRrsbdS0e706ZurCPIz9V4A/Cqknge3nbfpeqW7qegY/4f1xWcZxew2mcg1wCcbRn3qaNY24I2Z9Twa3z4C1SInzI1kGOCJFP9arTeE9YjGF06dwO6jdn8qoRmNBtBCgN7imI0qnqu4cAEYNTT6bqNoSJrGeMD+8pXH51VeSUffjIPqetFguWYby6hbMczrjsGrTg8R31uNskodT2cVgCdywBXip4/K5Lk4I4BHeolTi90UpM6WDVLGZvMaAwSH/AJaQNtNWpLu0lT/SbmG7hHaZP3i/RhzXKRi0dfmEqv7Hg1ZjFnHDIxmZRj5iVyAP6n8qz9klsUpMNc0qxvbZ7iH/AE62Vf3keQZ4lGeVP8a88gjNeY654Re2xcWLLNbyAmJk6SAdcehHcGrt1q1/p2oQ6nZzFTFLiMc4cdwR6EV00WoWk9rHqVrHnSr5sXFuOsEoBzj0xnI9elaxvET1PLnfzrZQ2RLD8pB6kV6T4J01dN0AXci4luP3jE9lHT9OfxpNS8DxXt3HcRyqo3KTIowJ4j3x64rc1Iqqw2qA7W7DjCr/APXxXoYWN/fOLFSsuVFVW/dhpOC3zfQmopM5znCn+KnK27GT35qKXoWBxjnHaus4xjkjuM/Ws+5myT7dfapJbgYA5Ungg9hWXeTFE6ng9c8VEnY0jG5n385wyg8e3rWMx3NmrFxOXY59KveGtDl17WIrZVbyVO6Zx/Cv+J6Vxzl1OyEeh2Pw80aSC3fVpYiJJPliJH8Pcj6/0r0BY22kqhIx81NjQQRKkKqgjUBQBxgdqnErjBbbg8kD1rkbu7nUlZFaKRZS6SjiPkZP+fSgje/lBlIIOCPxqeS38zLghSeDimvaFWDrkkLy2KQFe3SIK0eGJbjj1qxEYPMWN2LbR0xQLdQwKSEMOT0GamWBXk4O1jxmgCC4iWZ3kX5Tt4B6Cn2tuChErAAKcVN5DeYxVgVH61IASMIRuHANAzmr+CK3v2uAAZAnmRsPVTyPyNdGkwdUlUgbhyKy9aV7e708ts2FyrbemGGKs2LiXT413AkEg59uP6UxMsuRIGKhfRsd6ouqRkMFwnOQT+lXzGWHmCMkfxFR0qJrfLNn5kPJwOlAiq5inkUonAHzA81F9qSNvszqUQn5mAzgVYeMI4CcZ9KaItxKMg5PXrzzTEXrdY9u1ZNyJxzUNwitt8lwQO44walhkW327ZF3t94Ef596jm2yzM5Ty8c/jSGUJY5Q29JDgnJAPSnxIVkznDDknGM1dfZsEYDE4JGO341HkRIw4OOMMPegCJZHeRlzgZzjFBucFUK8HrjvVdLgm4xgY6jP+NSeb1SRNre3agCyiNIxiAXaeR6mnRrtBXADZxk9qjhnEeNwJGetSB0mRmXqOhzTAkTzMfvTnnO7pSl1jRjnDEcY70kUxiGGJdaNxb5gox60AV3aQtk7SfXGMUJMu/513gHqKlOwMWI/ChY0dvMRR8vb1oAmGA/JI3dM09TtGUX5h70xkJO/d8uPTpTRJvbC7Pr05oAkR5HBJUE/3aSS5jG2Nodm44yDxUQlOdj8D69fpUcluWi8xSRz69aAM7UrRobxJSWK5w2z07Gquo3M+n3ImjVjFgA4PVe/41rvAstsRvOHXkMO9c3fW0/nrDHlxn5kbgMBzn8hTEdPbT7oAyqevO7rVOcS6hmIFwBy+B0xTrO4F1a/umUkAKUIAK/406CNoo1aPIc5PPAIz3NAxfKjgRYZHD57N1z70qxyRgESLJGf4ccinkYkVzEWJ7AA7TTzLsmxtcPgDGB8ppCDz4jz5uPaiq72cEzmQrGxbncHxmigZ4NPMIxtH3jVNlLN13H6Uwdc807jPvViFBKAin7s9sVFxgnvThnr2piHYHXOa1vDOrf2P4htbknEZby5P908VkdaaULMcHAFROKlFplxk4tNH0VDOGIcgHByDU0nOcVyXhHVv7Q0G3ZmzJGPKf6jv+VdH5pKZ9OK+alOUJuEuh9CoqUVJdSG0RlVmeRnJOfmPSrW7ioFOEOKRZK0dRslU7C3d01vAXC5GQCf7o9TSkhowdwPuKaZFJKnkEYIoMihNqqAuOAKd+ZWGo2ZS2+bdRw/89HC/map63EI9Zv7tsDcxAY9FVflwPTgZpbmVorpZkPMbhh+HNTeINIk1mT+0bC8g+xyjfIskm3ym75rrwCtGS6kVmlJN7WPKdQmlh1aZkTeHxIBjoDVdbl3VyCQ/cdhWhrs2NTl+xbWhVVRZD3CjBP48ms4yggA4YnjOK9eOx4dT4nYWKRQCHLDPcd6kWMKNwI2enekdRJ9wKo9AOlJyBzVGZIs58sKRxng4qOU4Zvm3Z7mmbitOtoWnly2dnegB9rbzAMwTLnAB9K62ytks7JIwPmGCxz1NVLKGNT5rP8AKPujGKtzTgrjI61y1KrvZG8IK2pZklUEZbJ9PSmHDpuLfLmqiSA5HUmtWw8Pa3fKBbaZcup5DFNq/mcCtISct0RJJdSmzIDkHA9apFo1uI8kyDeCR6jPSuwj+HuuSqDcLDbKezyAkfgP8atL4BtrS2luLq6uJXiQuNihV4Hfr/OtLE76G9f3UerwW5h/1KrlVHTP/wBbpWw9mNP8NTRnao2ZJx1Y1j+F7BLnS1aCVX+cswz9zngfpn8aua80tnEsdwzsn3yinOQPanz6XE6evKjro8eWqxrlI0AUAcsewqKeaK0RpLhiHwSS0Q5/+tXK3HivNupAkC4+QLA+T/j9axbzVxPFKDHKGZCB+7krOdRM6aeHkt0ekWTRJp8OTn5BkD1PNV7uGC9ws0QZB0BNchZeLLcafBlZyVUBtsTHkde1XIfEcdxGJEDgHjDrtP5GqU42sZypTUmzaJkMnlEKjMeWA61Z6CudOujcDsJINEviVkj+SDLEgDJ4/Gl7SKJ9nJ6GjdapHaXQSWF/JI5lXnB7jH4irUU8Nwm+GRZF9VNeb3WrXersZoE2xwnYMuBnPJb25zUNrql0hScuIE2M7S7sZAJ/w6mslXd9jueChyXvZnp7rHKjI+CrDBHtWbPp8UTefM00yIu5maU5XHZQMfmawNJ8UfbZfJ84O4UMQ0bI20/xc4yK3BqaD7zNn6Vo2pHIuak7XNC0uYrq3WSMk8YIb7w+tTHAHOCD1Fc1xFc/aLaR4AT8y44b6CrTaq7f6uHLH7oZuCfwpxl3IqRje8RNa8RyaLfwIpWWGSPO0clGHBB/DH51R/4SLRXnW6NpGk5XDFVGG+o71JrXhu51Pw6urblSUDzBEAdy4+8M9iOfyri5tPkeBHAPnBTknvzUOlFu5nzM6RpbK7lH2TWby0Y8YWTj8AatppviBADaeJjIvpcRA5/KuA3TxPtKMDnkEVowa1NbCMEuBtz8pJqXSfRj5u527yeNbSMlLixuMdgpU/oay7vxP4itx/xMtAtriPuysH/RqzoPFN1H/GzJ6jk1tWfiS3vE2O4Y45Bx0qOWaGuVmM/jLRJSVvvDZj9Sg24/BSKUav4GuByl7CT6NjH5g1pSWdpduWt2icEZw3cVi6n4ctySy2wyODt6fWjnl1Hyom87wTuDDUb7H935T/Sq/iLUtMu9Mj0vw6JHM3EjSgFlGfUViy6HEDw5TjoyZqutvdaU7Swyq646xnt9CM1adwtbU5/X4zaGS1cAiEBM9gcdazPCmvQaRdzWd6r/AGG6GyZeuxuzj3Fad5di5FwZACZTkn9K59tGmvNQgigjc75PLkYDIXnqfTj+VbpdCL9T12zaW1sDasyvEkheJh3BA5B9KzGm+2XbzI5aNBsU+pzyR/ntUt4gtNHjtoSo4WFQewA5/QGqETMcAKnpjoRXqQjyRUTy5yc5OROxCrxwOnPeq8rMMjd+VEkgzho+fUVVeZMjkA9wxxmqbJSK15JhSCTn8q5+7nZSQWJX0IrRv3wDtOQWye+MVgXEheQ/lXNUkdVOJEx8xuBzmvQPhzeR2d/NYTKqmdN6ydDuH8P5Z/KuHjj8uMSEfeOB7VoW8Nzd6haxWUgS5LboiTj5gMgfpXJN30OuCse4sxVFwN2OM0oJEa71B9cGmQyyGyhE6rFIyAyIDnDdx+dPJjXbsIOeMDv+dYGox5tmzajEEYIJpVvABtdeR1Ao+2oX3PGCFx15xUMkhw06R7ix+VcdBQIfuYvgKR8ueTUkd0+9CVB29z0quLrdGMxgupwQegojkVmCnA56DknigZelmzKpQDHcU+SURxM0QGe4xVN5AJtqn5Mc5p9rebwYpFwvOX9TQBl+IJmn0oy7CNjKR6jnrUmlSpbzSQbPlU5H0P8A9fNWdXSOTSblFbK+WSPqOlZWm3KzalDCjYLWm5jjuCP8TTEdYbpdpWMhePmWqZWTO4BlBGCfaqsc8U0mMgcEZI4zUzNNOyxklSg4Yd6YimxwSgbBPIDcirItXaJ38zOecoeAaqXMXlZUZdgeW6Yqza7Vh4lUN/EDk0AONi00e0t86/xGr0dtGsaLJ+8cHOcVQvUmkEXzMVJ5K8UsW+IucSlBjGf4TQBdlDiTYAAF6EVXLBmKuBuAwferUU3mqxUZJA6Doag8mN0TflW6sW4qRlaaz3E7chjjBFRyQOkan7xX25q4UIQhHLKBxz0qCNmUEKQ3qDTAiMDOoHAOMkUsTLC+1uVJ5GKnWdQS0ikH3HSmXU26IKkQk6c4piLCKSSUUbPc1IkaNjy/lyec9jVW2Fxs2lVVW6c1ZKImFd2Vj/CRQA2ZlhyzdMdMcVArp5Xm9ADyo4pXeNX2BT+PNQs7zZXGFz0xQBKLgnC4+U8804SLuwVAyM1X35kWJkPTr6VMtopnVxKcD+HNAFd0lknP70qhx8h7VeS3miTqp59OaWOKNmO45I6A1OHIKgfdA4PWgCCRmiAYxhhjoFrE1aZQy3EMe1iNrnsD2P4V0q3W8mEDJPbHT3qtdWiOvkuoMZ+8MdKLiPP7O4uLS+Ls7oD99egNdBZ3jyStJHI4tyerDI3VS1i0kEkcaR8IOGP90f4VDZTX+nykW6q8TjJjY5B/+v8A4UDOoRWC7gzYxsBXI79aW6srgFSLmOUHHPf/AOvVCz1aKWBiVAkJw8fTae+KW6vFSIyor/KM85ODQIdJZ3EUjIAxAPrRWfFq13PEJGjmy390cUU7geOt4e1xPvaNfgf9e7/4VBLpl/DnzbK5j/3omH9K9p0bxVqOs3F1HDY2ipbwNKXaRgox0DMTgVVbx1K19DbW1jFdF2Cl43YBieygjJHuR+FXoTqeL7HXhkf8Vpd6g4xtHoa931bxVDo91La3diklxG2PLhnyQPVsrgfTJNL/AG/ZTaTBqdzpgitJiy75mXgr2xjknnGM9DTsh6ng5fP8XFO81dgHFe06bquh63JNFF4f3yRRmRlNvGSVHp71DNqXglLgW76XbNIcD5bONhk9tw4P4cUcvmHMzhPAWqG31eSxLAJcDK5/vD/Jr1G3nLA7hhsbTWZeR+DtIuRJd6XFaTI+FxAFbPqAvOPfpT7a8jnjWe2k3xv0OOorxcxoqM1NdT2stq80HB9C/wCaQzZxUIlOfvfhTyVdQ3c1Suo5HUiNtrHofSuSnFM7ZuxdU5PJ5pDdQq5iMi7wMlc84qBGYIAzZYDk+tQygvJ8o8sDl5MDJHoK3hBX1M5ydtCtqVzHET5acsMsVFc3qEw2H36itPVtQiTOCK5G9u2mbrxWlClefMjOtUUY2ZBcyFgqg8HOaj34X5gGyOvpVm004aoXjM4h8sbs7d2e3rVr/hHXbEUN35jegiOT+te1CD5Tw6klzGTh1YknANKCPXmt+PwXrU8YWOMbc/ekGz+fNSt8Pdd25E1icdvNbP8A6DT5WRdHNCMyPtGK1LKLhFxU7+GdTsGUXESKW778g/Q1fs7CdylvCmZZGCjnv/hUuLY00SWlpdandra2UJkkA5xwFHqT2Fdjp/gyxgw2oTNdzY5jjJVF/qf0+la+n6LPpdvDplhayNJIA80u3Bf3Oeg9K2G077OnlmVQ/cLzj6mojTjHfccpt7DdD022jvFFraW8CJyzBAP/ANZrp3kt1/1t1I2OycD9K5dJY7BCDKST1ya0bQi6i8wKdg6ntQ6iQKF9TSN3ZRt+7ttxHduTUdzdte2U9sY1VJo2jOPQgioPLBkKqRnGcDrTWkFsm5g7knhV5P4VjLEJXdzWFFydkeZaRqGoaFdLMscqybjGIyp2ykHBX3r0C5nkm1CG4ni2OYxmPOdpI6frWfcQ28l7Y3ZYCSLeyoVyFZm+99cCumgeIBXaONjjlhz+RqadX2kbm04ckjzHXbg6bfiyDsIx820nI59qpR6hPLKoWWTLHAU4FWfFsEk/i+9muZkiihCnPX5SPlAHqcfrmpYWhbZc20MSrgmMsg3DkjJP4H/GvNrVJQe56NNKURn2W9hkd9/lF+Tnv749aB9qJKh2Y59MU251eGabE7OSvAIPWnJeRPP5qTHcBja33RWPt6q2ZXsovdDnN/ECA6KSOrZ4qtN/bVyjCBI8EYVhJ0PrzU12HuXRhLGeMBdvA9+tX7Y3MVns8y3mcjlmTaB79zmqWKqdWZeyjF3UTnoF1SxtiJLGSXDbDIvIyegyBVO4uvNsBaz20hj2bTzyTkntjvXc6lqjy6XNbab5ccrYWIOcKi+uRyWP9axItKlt7VI/luNg5JyCfpmtVinpYhOcpPmjocfLNd3F0rLc3O0YG+Rvmxxnp2zXomn2Q0fRvOsx58nBkeRiW/3gO9VtM0vSbrVGt9R3WcY5V94IYfh0PT9al0W+XT/Ec1rNBO+kiRliYg4Azw1ddKrr73U5J0o7xTNHSmm1OcDJeRyFGfU16ZZ6XZ2UUax26F4iCZGXLE9zmqGnxWcV0LxRatOV4WJgSB/jW0CN+d3ysM/nXdCxySKV1Y+VpmpRQEkzCSVF7KxXkD6nJ/GvOYNLZvLCuwbA4PcV6ozhV3sRheDmuC1/WYNI1D7EkGJYzuH+0p6GqbsRZ9DFfw2HdRIv3hkNjpVeXw7I25fJ3gfKRjoRXR2viaCWLNxF8xPB4yB/nFa9pq1jfSoFIVj0AHAPHNK6YNNHmh8O3GHIj2AHOAcfWqyaY6OCy7pF7j+KvUNQ0hL5fNgk5yAoHQ89TWY3hyaJllAPzFFx6Mf5jNAHBw+fbSbJcFG4Zh27duh71oyX88c7JldyYHpuA7n61s3NoI5W3w9OGGKz7mxjaBXKMGUlQcHjH/1qloaISwnG1oMsWK5ArF1fS3DwWKKi3d24jjy2AMnGT+ddjpEsMsHlgqxUcHjd9K5zzVu9bl1KaRUjiJCO33Y0HG76k5x9KhtRVzRRcnZHnOseH9T027lsrqAgq4j3pyjE9MN05rf8PmX7DFuune3h3pEjepbLHPfmtP8A4SNNe1S60uzgzax2ruGflpXBUKc/Uiqd1Zy+HIxaTqcjPlALlXzzwa6cLKEpe9uc+KjOMbR2Ib+4M13GCNscZJBPQtTGCuysDhj3PT6VBJdF40BHOTkdqhaX5Bkgj6/yr0rnnJMmd2QncTz+NZ97KknLDcoxgHjpUktyUGSSy46HtWdcyxyKxjb161E5aGkI6mTczSiU4Y4ycAnOKiiUSyZbsMmkbc0uCKnUhZDGuMAcn1NccmdsYjSdwKt65rS059uraZKhw5uIwf8Avof41mKSzfQYqwsxt5Y5FxuicSL9QQRWTNUe3uoR0kDZUtn3qaWcSOpQ/NnHToarW0cd3Gr72RcA49TVsQQRvlD3xyeTWJZQWBSjyuzhlzkg9aueS7KjRlmYjjPH0oki2EDggnsOlOkuGVlIwuMcD3oEQtFstpDIDu6kEZ71AJ4oYUJX5m+6V6Va2yk5xu+p7VSmIEipjIY9h3pgFvK3LBiUJ5DdR606KRVvSoX90TwDTWTy1KZBB/vdqsW0Kuu7y8qp69D9KALd1AnkAbiFcYwPWudtYhb3NjcKflUmB8jmt+4ldkRSu0EccdDXOtPI0eoQM4UxSblJHQYBBoQM3/sYS4dkzuHzKMcetS2kgky7sE2E9+v4U77THdWVtNEQWKA5Hes0vJbziTYSOfvDjmgRqz2bXEbMnIYZBGBmqkNrJDCxZCWXrx2otp71YwokCMemDxir6XBZSskpYgYOB1pgZn2iRVZY2OzPRvpUkV1MWbdIGB9fWllEclw0RA4+YAcVDIVgIjMJZm6HFAE9pNcK+2Xbkn0xxU7swmy6Ep0IPOKqLJ5k6qropUYxU7mQfK7ggdz2GaQF2J0khJCHcx6npUfljacttYnBp5uI8jyCCB1xTJeXxkEnBA9aAIsBdvmA7ucADINWUitwC8buB3z0pl3GIUV32kY7dRSLOd4jjT5SMg4oAjnuWiRlDZIPBApj3LTJ8zAOo9OafcxOSSBhevaqTKQhOM/8CzkUAW0Ebtknn8sUXFo7MpjHzfXrUWT5v7oYPUg9/wAasRXTRsxOGK8hWoGQJaMDukPY5K9RTolch8JgerCrSJ9pRmJXB9KBblFaI42EcDpii4ik7noV4Iqu0kgnSIFgD90irrwNv2qpKZxyelMAEkvlu251I6rjH0oAnVnXbJtG7bjf3q39p+0KVUfNjHI9qjiVkVSpBXGDz0oJERBMmAeuD/SgDL1CwkkiOJgZBntx9KxGs4eI2ulDHlQwwf0ravtQjtb4LJbSNG/R06Vha5pp85ZkjLQduf4v8/rTQMGlXTJogmZVYbXBywIHcY71sXEUZi8xY3WBscelZVpMlxD1+ZP4cZxVixvpJp5LK4keJScZBIyfQUxE8cluqAJCxUcA880VL9njiGxI5XUdGL8migNTB0+80vUPDurPaXottJWBBLL9lMaIwYEgEsWkbjGM9wO9VPD9/oS6nbR6PqMUt356rzbu0sw4JxxiNeuep4PJrHkluo/Al9/wlUr2sVzcRLbWsUQV1CEkqqDATj1+vPeHwTc3dxrUDaPpyadpMDFrmdjlpABk75T19dowPatbkGvqFvoNprt6LzVLGW6M0jeTJKURDnd87AEk89BjJ79aua3bLqei6JdX1/ZWkCQuAN20MM5zEpwDxjrjtXn0l3p1rqMy6TZNqV9JK2ye4Tcikk48uLufds/QVveMfsrTaRLr9zNJfxWSLLZwMCxbJPzMeEHI6An2FIZ1On2sf9k63p+kta7Dbrunjuldzzk72GAo254HA7k1mabY2emX1lKgh1C489VJ85RHGcjOFzliPUgAe9ZWkTz6l4L16JIbbStLPlrHIMhMhssC3LOxH17Dis/w/cafpev6eulWUl5N56h7u4XnGefLjHC8dzk/Si4WOk1fw/cXWv6hc30sp3SPIERwZHQHjqcKACOp/A1oKgt9J06ZLJrON0ZGj5OCGOCSepIP6Vzl34Qur7xFqF1NFf6kz3DlYLJGckEnG+XBVBjHTJ+legL4R8R6naWVkNOi0/T4IsCN5wo344PGT19RWNekqkHFnRhqrpTUjDW9SM8uMH3qQ3addwI9a6OH4VuqLJqWsIgP3kgjz+TE/wBK3bP4eeG7K2aZhdXe3nMs5A/8dwK4oYKXU9Gpj6fQ87k1CKMElqrPFrmrqE0zTLuZH4EixEKf+BHj9a9n0yx0mKMy2enW0TIOHEY3fn1p9hfSXFw6E4CnFdMMJFbs5J4+T2R4tB8LvFeoMTPHb2v/AF3mH/sua0rf4NbJMajrC57rAn9TXpgmkGrlGJ256Umpbl1GNsnBrojTjHY5ZVpy3ORs/hhoFkVOwTsP4pQWz+BOP0rZh0KO0QR2kEQUdFjXb+lbYXNWbWLMy1a0MmzDGj3jqNtqxJz2q5a+C5ZTvupPIX0GCTXYoMRgUP8AcP0ouB59feE9OutSOnztM0JiLn5sHIIwQR061f0Hwjouj6g01tbs1wkfyyTSFyvqRngH3q6+T4lYMysRbnkDH8S1dttv22Uk8+XgD8ad9LisZNzI8WqaiycEWox+tctpU13cQylVclAWMhHysfTPrXSajOkWoXTFwFliEeTxzzWdb28Wn6a7Jjcy8szep9O1edisUo6Rep10aLerMaAfarpGkK8sM7+n411E95b6fYG7YhYWkCpGPu56Ej6cn8KxNC02W8v2edALZDkFhxKf9n1FTa8I7udfKlDQQK6BVHAIXOf1rzq2JlycyOunRUp8hKdejD3U8k0UdrCo24T5pGJxjNNg1CKWIXMV0oePpE55zXP3eimOa2jM/mR+UJ25wN2On0/oDTZjaFInhkYLGnOQAGfAzyO3FYuU5K7Nk6dPQ62Z7ea5gmdY1hkBfB6dcn9TUTszzP8AY5I8ZwoU4AA69OKwYIZb/TysTqu44LM33cHrjPSp9FN3LcREpIxVmjynC/Iefzrto1JcqVrmE027paGf4psoYNRF3cBVlmjV5AX4LLkA4Pbla5Y6nbx2yxwsxMeQDng98/XJrrPFdyLrVY4dUgiJhhMkSKvIBYDJ/L/PFcwNL0KdgTAyc9Vcg/jg1z1bc7crnbRT5FYyAz3M/wC6RmJNbVnp0kYDuU3joNwpy6HpEjERGVDjORK3H60k+iWw+WG9uUPba4P881m6kXoiuWRbZTFKHkTJH8KkYoOo7FJ8lvwFUh4dlZQY9VnB/wBoKcfpVSbQdWjOBqylSO8H/wBeklBvf8w946jQnjm3vggsQuPSt6RVitpEZVGR0A4rhdFuH0kzW905mmV1+ZBgZPf2GMV2kjNKiqo8xB/F/WlOLXoUnoclPaxw3MjRDYxbkBQB9RinPIy3WTP1AJGfwq/qFolvdK8kygHGFI6Gue1R5INbZPMUBkVgNnQdP5jNbRjzwM5Ss9DpdP1FrSVJonPmLIg475YDH617HbMi2vJwIjkknscmvENMt7l5bC488SKlwkhiSElnwchevc4r1u3vI7tGCb9oAZvlO0nnoeh6dq9DAJKLR5uMUr3ZbhmOpXp3fLDEBIsZ6sezH8q5b4j+HZNRs49Wtf8Aj4tI2Ei9C6Dng+o5/Ougs08jWEuNxxMhi2nouOR/L9amEsra1qWnTksjxJc22ey42Mv4FQf+B16DszhPn+HxBKgUPGWA6YfFblh4i26bcXiW7MYnVWQPyAe9cZ41sF0DxBc2cYwiyFkKt/AeVH64/CqWiXsy+cfNkWKVdirvI8xhzgfl+uKXKinc9Z0nxZqF1DI9l91CFaOVsfL1xx0rorXxbcq0QuonRVKltnzcA5r550/WNXF2IbC4uRPM20Roep9K6/xhrd3pcliLC6kVJ4zI8gcupYHaVXPAAx096dkS0z2qHxJot1p7R3YkWZm3H90Tn06e1YkWoK4uoZFIiLh4ZNuSfw7dh+Feb+FtW1O/0zUL26uJXS3UvDgAeaVUllx3HTOOax7Tx5r8lxHHHOkhdwFjWEZbJ6ClZArnpOp2cpuYp9ODI7MRIzLj5T6jv7Vg+JdO1GeGO102yd7dcM7ZUbyBgdTVTxX4s1LQb+G0trhZTJH5zNJGpG1jwowO2OtWNA8V3up6TqF9dSoq2I3tsjGHXaeB6HOOffpUypxluXGpKK0Kfgfw7dadrVzqOrR/ZiqbIkJB3ZOSeM9MCvQppdOu0Ec7QSr6OM/zry+L4i3ks0a3FvbGNnAYqDkDPbmtTX/Ek/h29itpIbe4ldTIQoKgKT8vc8kDn0qHQi3e5pGvKKtYt654QjJa40eZWHUwM/8A6CT/ACNcZLYaipbFjcg55Pkt/hXc6J4r/tPTZ7z7NBElqSbgFj8qBchh656Y4qrbfEu0ubqKGTTmhDuFMhlG0ZOMnjpXVTqSirN3OWpTjN3SscJLFfRqyyWs+D2MbViXUcqNvVJF9cqRXtGreLodHmihv7ArLICfLjkDEKDgE8Dg9R7VPp3iez1Kza5isWaFWZZXO39zgZy3PAI6YzzxTlUuTGFjwuOb5JCRkgdfTmmpMNrEMM4OOe9ez23jbQLm5jgWGcPK4Rd0YAyTgc54qfUde0KyEa39rJCZd2FliBPynB4BPGR179qhu5otDxNPk2OD9ankkUnjqFr2O3fwrqcMc8Vhbyo7sgY2mQGA3EHjjjnntUETeBrmVYoodOaR2Cqq2vLE9gNtK1yrmnpl1b3FhbyxP8jxqVHfGKsTo4mBBzwelQxTeG7KKNFnhto+VjDAxjg4IGR2PFXIZNJli3w6lEVJKA+YME4zj61m4MrnRVK3KgohUHGTuPBpimS5YgBiUwDyKtw29tcEpDqCTA44V1b+VSNpMm7fHJtfPJx1o5GHMikkojUowZGb5d5BxVd412+Wwzx1Xp7Yq/PY3yoMFWIO7rjNVmgukBcowJzkcfpS5WF0U4pDE3z55XCHFWbUyRuodwc8nHFRFkNrsuE2SKchm70+CSGfBORL2J6YpDNJ2E0WH9AQMcGuavtsOr3EZAPnQhsdfukg/wAxWxb3NzFmJkRkzgtjNY+poU1ezlUDLFkYe3BoQGtpELQ2EccmAFyOCO3/AOqtTasMXyYkU8YrE0+eS38+yjKsqsX3HnBPb2pJ2kDB/NKOT07UAbEaROeXC5HAp0u3ZiUICvGaq6c6IscRfPzcn3qe8lMx27cgdfpzQAlwinDZYADnHtURhR0ZhIzAn5Q3TrU8eIV/d4Ck91zzTo1WRn+QISeDnA/KgCDyAsbyNCAf9kVBiTzT98qRggHmrRaRZ/nB6ccZ5p5MbqW+dJOcnFAilB9p+0KP4WGWBHbsP0rRVTLJG8gI9cd6iBaJhsk3kDJU9RVWO4ujcGZ22xg8AHpQBaulVhkMTzxg80KJgqgIVB5p/mRT2+IwGJPNMZ5RjLN6ZHagZE0jmY7m+TuvpSvJCNojK5zjmq7QzB2KncR0J6H2qPZI5YspTH3gRQBMWDSsqMFwc89KuJMHgJ2ZwMZI71RWSPbnyyW5BZO4qRZXIUIoY4+Ze5oAuRNHFCJEYqehBPFM3PczBFbagz3qkkwkk2BNsTH5snkH1rRi8mNhznsCp60AOKO6hS5yp6gVBIHe5DrKAQOQRnNTSseibgpPPrTmVVRNj4c9NwpiKn26SCQjaoVj1XoafLdMTjYpB6H0NIUQ3BSaAnPXPQ+4qJjDHG6yBhjuOaQEoCeUWkI345XI/OoXaO506SMBiOetSLcKqCWIpLt4YEc0gnZw7qNqt1G6gZyUcotZ2LjYM4yORUtvOb+9cxkEADc69Seg/LmrN9bQ3DhsYG7GQAapaes2lSyb4CUk5w3GfcGqEX21G7tmMDRhiny7gOvvRTm1S33HJRT3BI4/WigDhtU+y6H4T0ey8tNXuLiZ7qN3VvKBzjpwz/Q8HvnpV7wtp+tXOo3Opap9omSG1eOOwto9z4YbcLGvEf0OD7V61p3hfw7psFvDHatd/Z1KxyXJzweoxwCD3B4roEu2ijCQRRxIMBVRQAB6VrbUzPDNP8AeM54xBpuhppFrKMPK8qiVgf77539ugAHtXZzfCIX1+NR1K6tRKscaYKmRMqoGSuVyeO+R7V3b3E79XapCHbTZME7sHnNA7nN23w30Ca0Nrf3l7qMO9X8pmCIpAwNoQDaOegrS0XQ/DGmXAj0/RLVJI+PMZd7j/gTZP61b0LLxSKxJOTUWnx+Vq0i44JoEXJdUlTURbR4VfQCmaxcSpPDhjgkAmo7+Ly9Vicd6sa1FutopAOmKADUgzaWpB4p9t+90Zh1OKey+box+lR6Qd1k6exoERaK37uSM+4qCyPlapIvqafpZ8u+lT3pso8rV8+tACXi+Xqyt61Nqke7ypKNTT9/E9WLxd9kjelAEUa5UVeso8y1VgXMYrUsIjuzigZoAYFJJwnXA7mpAKZL16ZxSA5RhnxLKVP8Ay7+n+0Ku2scjXzuJMBFGRjk5qqxJ8RT/APXH+oq9ZZ+1THt5Y/nRyJhzNGVqljFf31zGzFNsfmYHesLU2jnuIbNZVQS/MxyMIByT+X9K6O741W6APW2/xrg7cm1eXVA6rJFE6IpGSXIwuB7HnNeXjsPFe9Hrud+Eqt6M6GSQrZm3EUqwEYBnI/eL67ep/QVXF1BdW4WJU8gMYcL8oLAcj+lchpd7rut30dqZSZMhriULghQenHHNdhDpUFpOLYSM0spMjIDwDjjA/wAK4FSnV16HZ7SNJ26le/WOa3uiGHnFfKj+nAP8j+dc8dDlvWWMX1vAoPCn5v8ACum1WCO1tj8vfBJ45rNsI5/OWSO2Z0z125yP8mumNKna1rnNzNy5rnQaFpH2OO3jR4pmjQqzFiBtPJwDgfme1OaxvdMnaOC2jtwXLIZQSHJ5PIJAPtVy1NxBA2YvKkkXBAQfd9+9XYfOMMmJcoP+WZOVPtzXVSpwXw6GcqkuupzWuaO2t6c5u1tYZmQDz4s9MnGQeoznvXmOo6RqmgBpZrcm3DY85AGX2zj7v44r3i3t47uBgw3LEBtU/wB3OfzBrC1OJVLmRy7yHBBAx0x0/CtJYeMtWVDEuKsjxVdcZnWOOLfI5ChQvLE9q6hNFf7JEbmaRbludsTDansT3NdgbGzjBnS0thKnIfylz+eKsQm2mA/dxqx4wUFc1TBXdouxtHGaXaueW6lfS6S3PmSRZwxLZxVRPFyO20s+4nAGK9kOlW8/ytaQP67owarLYadZTHZBA8gPy7YwNpqlgVb3tyPrjv7pwdtYy3l1/paz229VkZWG1n4wCR26d66rzFghhS0kQjvuO44A6nHTmtq00ODWLhzMNkiISjqOn19R7Viz2U1nJLDcqY3iYq2FyrehHtXJiqFSmtdjqo4iFTTqZurQi6mEgmjB4UAkDPPQZPX2rkvEdtJN4hs44zIrtEqhY+SxDEAD1PNdJfajYahZm2gt3bcfmaQbduD1611fg/whLC1tq+qqv2lIilvGeSgbHzHPRscfQ+tXgqcpaGeJqxirlzwv4TjsNPSTUFL3LfN5Yc7Yxj7vB+bPft29ztXl2qXcVopAIG5gOw7D/PtVy8uItPtDNMwwBwM8sewHqa5q18y4uzcyjDO2TXrOMaa5Yo8tylUd5M253MUtu5/1YlUk/jzR4ulext7S/jfawl+yyHuUlwpx/wACCHPsarXUm8AMcjsKztS1C5vrvZcMCigFUHQdOfrVLYmx5n8TtKgV7O4fA35iYE8kD5h+WT+dcBdwWzSRSLcz5T7qqgAjHbAr3Dxfo9rd2FlqV1bQzokpt8SxhsEgEEZ+lcrbaFBqd+0x0CCG0ssBpVjQCXlsZXqc7hz/ALArWMHLVBzJHDPb2yq11BceVNN9+VFyR64x0z3rf0DR7TUtPfTr4lrGP96jbiGWUcsAT/eAOR/+uupu9P0x1t7CPQrdU3F2uYYFXAbK4JxzjO78K3tUTw+dMWx0rRIXnmPkoRarmPII3/XpVOhK+5PtI22PL47x73UrW7szLaC0jAih3r5acjICheRjIIPPv668+maRY3U506byNRu42K7ulsT1VMj13DPXggYwa9G03wppeneHUurjSjNerGZpFCnzSx5xx3rP8NeCtOv4Li41WwuE/ebY45WePHViRyDj58fgal0pdwU431POINPsdUsxo+oX7RzWjboJ2IY7DjcmeM5PI44rYsPD140Freaff6bDo3leW1pNJgurA7w55y2Bn8O2K6Sx8HaZqHitov7KvbbToR5mJfNUOyjafmPJ5bPXoPrVrxPoFlJc6bo1jptykSzKGlSN3RAcYO7oMck89qXsphzQOEtPAMtpcXl7avFd/ZiWhWVlWOPk4ZiT82McfTNP1jwlq+p2Frc3vli7iY25uC6lZlGcE7ScEEEfhXpXiLSNP0bw7JZ6fp9w/wBo2R7Yt8nyq6k56/wlqm0/QbCy8FWMd3bTyeVCsjorPuDNyeBzxuPan7KRPOjzKHTpfD9tDp8sMP8AZV8vlXNx5il5S6gh1AJ2gYGAev41kxeFU0y6a51G4gktoJMIkROZm4KjpwuCCevBxXovhnwFomtaaLjWNOuvNjMcUSyzSxlQsSZwAR/Fu5pmleFtG1XxDNby2FytnErvGskkgx8kCgZ4J6OPw9qPZSKU4nC67Z3XieKDVYFja6jAtrmISYAIOFZc9m/nVvRLOKyt7rw7I2bvUYXW5kjYMLV8ZUMPTsT6t7V2GpeHNG07xHaWun29xEZGSOTErMD+9hYHn2Lfkadq/gzw34ZYXkBuYJrueIOTMWDjzk3dc84JP0Bo9lITnHoeTweD9TjvwmqAWdpG372Uyr0HZeep7fnWr4wgu/Ea2Wu6fBKY/L+zywkgNGyk4P0YHIr1A+ENKv8Awfp0upXN4sIt4nbDqNpYAZOR2zVPwd4VstR0+S5+13gBEUbLlcE+ShbIxz8xI/CpdKZSqR6nCeFIG0rTbmxvpnhutcjaO3jIP7rCth29AxOPpg1ytlourz6tHp/lTQTCTa0jKQI8febPt1616vZeFNK1DxvdwjUb938pmJLocLtiIHTszuPwHoc2/FGgWVtcWdiNSvVkunEDnKbmBZAM8ehbn2o9lMOeJwvjln1VLDWbENJZqrW0vyfckDHkj0Ycg1N4LuI9Ms7g308cEep/uLXzDgBgrDefQZYLn69q9AuvCOmeFdB/d312Y/NjjJmZCWBkXI6DtuxU+leDdP1TTLG/mublpTHkMCox2OOKr2cieeNjw2PT78ax/ZQgZL4yeWUzjB7k+2Oc+nNdr4gv2urRLzQbx45NPzFei3JQkdpMD7y9ee1dhdWdst1e2BkJmhYokhP7woDzyO/9Kz9O06y014ntYLXcikPK0Y3be+WHXPvUXsyrXOf0DxJqMFmb7WNTmGnlxEnyK0jtkZIyOQBnNXpfGeqadqSWtzplteLJg281uSPPU9CvUc1Lqfh+zutSs55cNpAh8pIYiU8t/oOKv2Gj2NhavDazTOzhzZrcAHyJCpGVOOAc4ppk2LMXifT5b6ayns3a5hjDtHAwkyP4gM4yR6Dn0zSw6v4W1GF5LaZECkB2KsgXPYkjAzXCab4V1W5d57a5ii1C3lPmxyMUdGB4YHHOfWtXxdZS/wBhQSWkCFBIz6gIBwJcDlgKLhbU6oaZa3Sf6LcKVHQxsCP0qvqGh3MxtpImTML7irfxDoa47wchs76RtRi8rTCqtKZ1IQNkbCM/j+Gai1PV9f0LXLqEX8qKrlo43wybD0K57Y9KVosd5HT2ulX9je3Mjq0kUpDAg9PatRoECKXGcEZFZ1treopowDGOfXPL882bgLvj54XH8WMHHNQaX4+hv5/Il0icNtLN5WH2gdSemBRyoakzcEEcRVwAB7Gni4QbSiZBP8VQDWtFms4b2WRYbaZiqSSDADDqCRkA+xwasL9juwfsl3FNu/55yBv5VPIx8yJS6ucrjHfjioZCPKZUAAA4waBaPEDtbPtTGjeNidpwT0qXFoaaYxxIJDIhGevJpwdjIW+YE9efekMhJ+ZOvGc803zSCqYIOeeaQyAkGTODuBwDVtY0ABkyd3ocg1DLAHO7nPXNB3AAZbI6UxFqNFj+aMrt7+9Hnlo/lXEfcdxUaDPLfnTJlkjO5W57CmBNtJGc8dTT1X77AjnsOKjjlmEZLIu09QKUlFwQxZfY9KVguQSKqhm2MV56EcH1qt5mIiVPz9+etXGuSv32VjnpTHnRiAwwuOcdaVguZchZrcYBOG9ccVZtmMCKpAGOhzn+lWJBauPMViVH3lpB5RRfL7HOGHSgB8NyqxEtLJI5OSCOB+lTG7ZI4pPLBRx0PaqEkYRt4TJ6U3Ds+ws0YAyADkGmBpCZpiqJJg4BBb0p9wqrEGkkBycYJPFQR+bOAjEbRjdQ8onJi+ZcHGfWlYYn2YJC4jZVcg9BjNNiDLHyFZhwVx1qXdskID5A4BPNUo5Lh7uRZCmEXKvtAzQBG1sI42REBA5K4yOetVJ7mMWw+0bXKH5Qx5x2/rWwgZ5g6EZI4OP0qlqVpFPKsrRAkfeUHqO/49/wpiMmSewkcux2k9tuaKY9jKHIWJSoOB84opiO5F1IZASeM1vWpEkQ9a54LxWjptxtbYTVpiZr+Vk1ahj3W8qeoqJSCKt2gBdl9RVEmVoybLyVPeo7uZLTWGIDOw6pGMkfX0/GormSWHUpILdijsNzuOqj29zTo4VjQKgwOtXGF9WS5dht9e3F26NHaImzoXm5P4Bf60lzrW61WG8tfKH3RKj7lz78DH6098HGM/jWbqrxiDym7kM3sAc/qRircVYlSdzp7Eb9NZfaq2j/ACzSR+5o8HTfbdKdT96Jih57YyP54/CtHTbIRXMzt034FYmhjopj1hlA6mpb+3cX8RA5Y1stZINSeftip54klljkwPkFAGXqFm7W0TY5yBVprHOmle4FXHKugVugORRv7CgCvbWaxwoCOcVoQhUGBxVfee2KdFJvXcPpSAuVXkPJqYH5Kgkxg56UIDlwc6/de0Sj9a0LE/6TcL28sfzrPjO7Xb4nBwiD9TWjY4NxcDHPlj+dWIz7wf8AE4nHra153ChdnQckkgD8a9IuBnWpfe1PH41wmmxbtTSMd5D/ADrlxEeZJHRQly3ZvWFjB4f0BpkT94+WLdyT/kCn6PaCQnUZvmlfOwnsPX8f5VautOOr6HbxRzPG0PDKvcjqDU1psWBYFVl8sBNrdeK5eXW3RGt7q5m635dukd+8TOqcMoOM56E/571Z0a/jv4PNHDg42jjAq3eWiXllLbyLlXXGPT0rlPD8ostXNq0n3sqwz0I96bQI7q2mEc2ECouOdvHPrU7lJ28t/mb7wz296qwlMgqrNg4OORmobu/WzjkYf60j67f8/wCfcQiWznjtrtjLIqRKjmQk9M4x/I1yN1dot67yCb7NnKA8nr2HeqmoanI0TIAV34zk9R/nH5Vu+Qj2ywuodQoBBHWumLcloKyi/eHWv2W6g3QsJEPB/wADU3lQWy71j5Hp1pkfkafaMSVigjGSewHrWTF4ptbq/jtY7WVw7bVbjJOfT06nOe1adNdzN76bGle3jppNxIHFszKRG7Y446/nXO6LI32wD7VNcF4g0gmOTEcdPT8vX6Ve124jaeOJo1kdgckj7o9vf/69O061IgWTPyBiy4/iJ6n9f88VO7LtaN+51GgAbrlvZR+ef8KreLdEi1vTtnneTcRHMcnYjupHcfy/PLtLuFg89e5Cn8s/41U1a9Zl2A4zVyhGceVmMZOMrooeGPD2mxBLu4eFJYXPkxuQcf7RGevp6dfTHVXOoWthD5rTNNjI9Mk9AM1y1v5lujTKGYqM7QM7vaq1xfvcaf8AaNQQIz5EUfI2nHH6ZJNRGMaMeWJo+arK7NySc3twJpmyCvyL2WnmeKJPlHvgCsPRWeKxEEkskrR9Hl+8R/kUmqatb2EQaVuXztAHXFLm6g4WdjSa6Lk88+tU44mnkEwHG79KytDe51m2kmZ/KVpQOB/AOv45/lXU3ElppVl512fLjA+SP+OQ+gH9aqF2S9DI8Y3Kw+H9M0/I8ya4acjuFUEZ/Mj8q5W2u5oS0UcrKko+cA/eA9fzpmqajPq2tPczjDJEAij7qKTgKPpt/WoIs+afQAV101bQyZsRzEITXT+F9NPF/KvX5Ygf1P8ASuPiYCNc5IJ5+leo2piaCAwACHywUA9MDFbtmRYX75PpgUgHyLzycUgPyu31px4Kj3/pUAMnnjt45Jp5FjhjTczscBR3NR2t3b31klzazLNBLko6HgjNYfjjU4dO8NzrNjF2y2nPQBs5P4DNeV+DPEl94X1ltKmZpbKU7kQn+L+mf54pX1sB7vn94v0P9KQnCuc/5xVeyvIb6CO4hbdG65BqcnMT49xTAiuTLuh8vP3jnA56dehp29luQhfH3euOfXt9PzFR3sYl8gMxUCYH/wCtTI/L/tZwoUgRgAg5CkdsY449+1AALtkgV2QLGNoyVPPHvj2/ljpUwebzQPLAG0FiR059M1StwYtOkWOT5vMHzZwAeO4+mP5+tTNPvvrYgZUoCGz659+eg/WmBItz/rlEWRGWBOeM7sfl/nFDXKIizyjy1wcEcg5wR/k4qNImX7aVLAsG2DoB972x1pkkUk2losb7XbOwtzyTx0xjn0oEWhPH57oEYnAbcF4IIz1/D9R60w3MTiF9p2k5DEDB4Pel8hzfecJBtA2spHXiooImNpKoyAWGFPI6jOB70gJWJa9t8r8rRSZBHfKY/rVgDBwBTGVVaA9CGKj8VJ/pTx1oGeW+JWFv4ru18xVdnBUbsHJANDmO+s1hiYGcNmUr0mHt6kVjfE24lsvHguEERJSEgPHnoMdfwqTw7E+v2s2yaC1njkxHHlgG4B68+tc86a3W5rGT67GpZSLA0s8rFoMhXjxw/tj1qa8cSy7oED27tlXzjj+6fQj0plzHLMTb3UarcRqf3Zxl1PIIIOCah05hYlbiQZgbGYe7nPX8KwfY08zQeWOUSRsq/b9n7sn7zL/dJ9cdM1WtZDA8iQ2xjR25THyN65BqrJZtHcidWaZJHJikUcH2PcH2rVciWwa3Y/6U3OSQA2P4c+tAFS5063kS1S3O7T4jn7O/zJuznB7/AEB4qdo9K1AwC7tIhFA+Ym6hG68e2eo6VTgknDPEqiMrw+4Y47gitCe3UFJLdMQbANh/gPofrTuxWOYXw7aTXrXGp6rJZ6qZi42yAADcdpUnsRyDmr2tacY9Ku1spoDqj7PtciYVmiyQXIHTsTirUUVu1xH/AGkka26H9yZOqP7f7PcjpwKW3uXtbiSGfasy8hiOT6EH0NO9tReRzenaBrGlTxwT2sdzp14wW5QNuQr/AHjnGCOoIql4vtPs93axWAP9mRwBrZ4+Vx/FyO4PXPNd6Izd6RNbRyGCQ8yRxtjYhzyo7D2HrUAjaKKCwa3jaFfuNGNrKf7w9/596dwtc5/wfeXWoWEsEtxIr2+Ray+YR5jlT8jdmxgEZ55x0rOi8ca3aytHeQW8xUkEOhRgfwrr77RIZL5XnbNisatAIwMMx6s3vn0ps/hnTtbvYpp8mdBy2SBOR0D+p469xQm72BpWuObxHHa6Ha6ve2cnkS4WRYTuaIkcZHofWm2niTw3qkiJDcYmc4WNo2DE+2BWXDouszSjU0my867Z7SVN0br/AHCM/wD1xSy+Fzo9jPqWmRM9zKRFFCzf6jcDnax69CATjijmT0FZo6j7HbTMVhuvnwCU3AkA9OKjk0268zKSKy+mcV56kd5cQw6brlvcxbfltbwKd9vk/dJ/iTPbt2q3rVzqnhe2sdMhvphdKvmyTFywfPYA9h0o0YXaO1aCeFMNCxBPPGaYJATgk/Q1k+HPE2p6z5VvDNB9rQ5uI5k4ZP70eMc9PlPr1qAfEOxF1JBe2My7GK71UODj26ilyofMzfyEGBgA1VcCI7guB7VLBqOjX2npf5eK1ZtvnEFVDdMH06d6sLa2t3GBa38UoxxhgaXKx3RkOBI+8Lz7nGae8IZVJT8mq3Jo97G2AiSR54w3+NQvZzRIzOki4P3QOtKzDQS3eEArsYNTmUEHaCPXFJDL8i+YpC9uORUu1QxkVsgnHNIdhm0pypx6j1psbq8hbcCP92nSxsEUJlnJGCozirFtbyurrcMVP060AQNmN8xqF3dSOlLGCiBlAY9xn+Rqe4WPBAwcfxdqotJ5brmPvn5TkGgETyRltsoXHPrnil29JIgc/dbkn8qibZNAUCYY8EDv9KasXkRxIzkAYx/9eiwy6jRwfeBwT1x3rK1S1Gwfviq7sgCtRdi7mXdIcZAJ61FcxtPEFEPlseCc9PegRxtxe3P2h+D17pRWhPpuqrMwDBgOhopgdwBSgmNg47VLOoQE1QabecCrEdfpqSXMIYDg9K17SyZJQzdKTRYwmm277cbo1OPwrUDCmQcPe280Wt3Lqm8MxVlB5ABJBHrwaa0yrkESZ9PLb/CruuPbjWJIxMolKqxVuADj/DB/GuZv5SMhpkx/10xWynoRy6lq61RIhjIQ+/LfgB/WsC6vGuCQeFzk5OSfc/54qlJODIVQl2JxhBnJ+tTQ6ddXYBk/dRnnHt657VlKbZcYpEtnqeo2u5tOkdVVvm2ylN5+mMNj39a6Sy8Z39sQL2JLmMnllAR/04P5fjWMLUwxiOIAIBgKP4ue/wCP8qbcosFts4Ln0q4w0uTKaTSPR9P1e01WDzbSXcB95GGGT6irO73ryKG8uNOuVurWTy5E9O49D6ivTNC1i31mxE4XbIp2yx5+6f8AA9qixRo5zRUrJG0ReM9OoNQigB5OFP0otf8AUD3JpjHEbfSnW3+oj+lAF4Y28VFJwDgZNS/wjjFQS5wQOOKSA5i2/wCQ1qP0T/2atKw/4+Lk9xGB+tZlmSdW1I+6D/0KtGxyLu6Pby1H5mqEV5edcl9fsp/nXApI1vfmRBykpI/Ou+k/5GBve2P864CTm+fjrI38zWFV7G9FHTWmrxRzK4k2CTqSMqT6H3raaWFiCwjdsBsowOM9ietedwyyLLb7GADvyG5B4OMitezvIr+zS4EckUijbIA+fmGeTkdP8K5pSTepv7JpXR0F9c3EMZNn5bnBGGJB6/4fyrmorKUalJczJbIXZmPVieffinyNuYbt5A6YbinQyfZ23xoofGAxGSKnnigUGdEZ5IbcNLMI1bkD+Ij1+lch4o1tYrGUQ8BV656ntn8e1S3t6drSTS+5JNef63qy6nMLaEgpu69iaylUvodNGg27nUm4gH9mWkjSNd3UMZAC7uoGWJ6da7dAc8VhaTcaC72l5eSeVeQwiIGRSFHAyeP0z611kMdtcputriKUHujA1300rHHWve1jPuYvOs5oiAQ8bKc+4rjfDem3MNyLyeQWywAMwOMspBzk54HFdX4i1GLSNOkJdfOcbI0J5JPU/gK4AalqOqme2gBWBwolIXCge5qm9RQSsTvrcGqX1y8cgLI5GOhCgnH6fzrtdNQrYwoRhgoyPfvXikdtJpXiaF3nJBmYPgepr1iw1S6u2C2enXUw/vCM4/PpUx0ZpUbcUrbG4++BhKkZcDqAecVVnZZTJOoLqibgPX2x1zWjFHfJH5l7DbWa+s84H8s1lyX+iWdw8s2rNcOf+WdpFx9MnitNTn06mHqF3I7+XLdLCv3lAU7v0q3at9oskjWL7UyNlCQcZ569cUS+J9MjbNno0TN2ku28w/gOgqnc+KNRu02Pc+XH08uFQg/So5H1NVVslZGvDbXVuP37QQkjDNJJk9WPCjPr3NZWrWOkMxvNRvZ5UiBwiYRAP1P6iqAvQOckn3rz7xj4nkvZzYWzFokP70g8fSrUIozlOTdzq7r4rWuk2S2nh/TQBGMJJIcZ988n9RVPw7qWp+I9TudR1SdpGiiCqn8Klz2H/AT+deaRO886KAAu4Y969d8GWPkaD5uCDPKzYPbb8v8ANSfxropr3bmEn71ifyiZZ2yCN4VfoAP67qSOPAdsd/5VagQNapIFK+bmXB7bju/rQE/dqMcn+taxQNjcYVR6V6dpcLQabbRuMOkKKwPY4rmtB8NySXEd3eoUjT5kibqx7E+grr+AHfHcn8uKbZmAOY/qf5mn/wAY+h/pTMYCL7j+VOH3z9B/WkByHxK0r+1fB1wQCfs8yzEDrtHyn9Dn8K8R1iAvbyO0h+12j9urD+9+YB/GvpiWNJ7aWGVQ0cqsjD1B4rwbxJpLaP4iMUwyp/0eQnuMZRvxXj/gNTKNyovodl8O/EhnSFJG/d3Sgc/wygc/n/UV6Up/d/U5/WvnXwpO9le3mnFirRsJYjn0OOPwIP8AwGvetJvvt+k21z/E4Xd/vA4NOLuhNWZcmtkmnjL5IAJ29QSMYNSJGglkcKNxPX8P/wBdV7mZo7q3wwCnOQR7ilSR/wC0pFL/ACdNpA9AevX/AD071Qhl7Ei2ToiAOwU8KedpHp7U8ROs8JjVfLRQPnc5we34YqtHczNZOdxaQsoG0Hv17fXtUrXUguLcggh1G7PfJx/j+VAh9tlZbosQck7fzNSy7Es5MsQoJ3scA+5/mf8ACq6TN9ouUONgVscYPB/X7xpYoH8loJmZgXUksc5wORz/ALv60hk0lzHFfxQMz75VJUBeG/8A1UxbqI237smQIEzswe/T61XvoHe9jmWJWQQlCxUEqS2eh69KkiilMchKYJRwu4jIPbP5U7CHmcXAtJY1dV8/kOpU42Njj8RVyqkSvFCfOAyJUKkd8kCrVIZ4x8ZI9niPT5R/Fagn8HNUPB0nlNMc/dk3foP8K3PjRBh9KuPVXj/Ig/1rm/CTZluRnsp/PNZvc0jsdrrdtFb64+9iPlWRAOp5Ix+lV7iSLVWLjKzBADHj07r6/Sr+vwfbrmxlwwkazBLA/d+Y9R3FZsVtcpPCqRxtJt3RqrZzjqfYdPz965qmkmaR2Haaw0ud3uGJ8wYKD0/vfWoza3EaeWkgmjckxSLyG9j6fSpdQhlnl8+dHilcDehIxnplT6e3al0qW6iMypA86DMcoQA7OOvoTz0qd9B26lrCXmnrbiVDdK4O88eZjPyg+2abDMRMUXehT/WbhgD1B/wqmyFGaNhvAJJ4wR7+1Wmn+0W4XacqwPmEZDjpjPrSuOxl+L0eY2t7AG8gOqtjrHkYwRSaAo8sQ6kEa3hcpC7n7rex9O/pUmq3R0+0a5EgUDru6MM8gj6VDNc22orBd2Dq1mqgFDwYz7jtn1qk+omi0kV1aXErbHjnBzuz/nIq5cStPpweIMl1wzovGF5BYD0PFSW9xbrDHFOQIlwAXOce30qnLI8MrSMxjuFPJ9fcH0oEFjcyZMUjNJFJyY2OCpx1XHQ1c1i3uIFihsZmAKbkfAIZu/P+cVEn7+2kuY0VJwvRBwR3YDt1qK2vZYU8qRN8BPzRsf1B7GgCPSv7S1G++y3rfZ7pSCLiE4MqgjKsPXHQ1IL2+W9kkCjc3yMjklSoPA9utXL7y4reIQyEiTBLg4ZTnOD6HBBpkkq3zrDKdty3CSqeG9m9/ei4WLom3afJdpDGdoGFLfxH19RWbO9hdxJDqsXnGP7kkseSPbjtVhGNpPLAQGEYMexuQ/rn601rNL0h7clVQEyKfvKB6ev1ov0ApDRrbQ7tbuxhMV3MuEKnKqueoz1zj8vrVDV/Bq6hI17Zn7PPLlngK5Uv/s+mfSt1p47qBIrpCgj/ANVIOSg9D6j9ahiNzatukkby1b93sc7XPUfhTuBmR6Tf6dpS6WLFbuzlUi9UPtZmPdc9CMcetc63g24g1BBZzS/ZSSWnGVaEDkh1zwfTsa9DGoyTLmDyxOeWhfo3+6f6GopdReFzPNaEPJHsZFPJXnrnp1OOtO5Jxth4kniWSwGoyW8qufs95Jl0b/ZkU5wP9odO9Wf+E313TZHi1OytiUHysmQJPQg9CPeumeLRL+0M0tvE0fRgyAMh9COx/n2qm+iwS6G+muJDZLKzxyD5mg5yAR1I5x6j6UltoPrdkWk+L7DWVkElqUnQbjCcMzjuV9foOfarUep+HroqYL2OLfnAZinPcYauVv8AwXPZxx3FndCUl12Ffc8MCPTrmr3inRf7bit5YoQt7Eu0qy7ftA65U+vXg8073A61ImkQLbTq47EH+op0k17a48yIMO7LzXmHhu3ns9dV3Eiw24LXCSEgbcdPr6Vq63r2s2Uh1LRblbnR5CPlYb/Jburd1pWTC7OykkjljYMoBPZhjNUnj8qMMq7CfxFY3h3xjdX0M0mpw28VrEVU3BB27m6A4HpzmtG88T6Lp90LXU4ZrVmG5JCu+ORezK4zkUuUdy1DBICjO4VSMEVHOu2RoUl+7820rmpUuNIvYopbfUBsk/1ZLYDdjjPWrLWUrYeOVSB+FHKx3RStr8NKymNRsPQHpVnUrhzAkkXHc0j20iJuMBMncjnNZdzrPlZiktZ1OSeE+WlYCw1/K53Dbg+tFZv9pzP8y2kQU9A3WijQLHdXhAXFM0XTl1HU0hbIjALPj0H+cUy9fJre8HW/FzcHviNf5n+laJEs6lUWKJVUbVAwoHYCqeraiul6e9wTmT7sakfeY9P8fwq7JneMEjbXD+J777ZrItgwMVsNvB4LHk/0H4VSV2Q3YzQv2q4/0j52dtzseuat3WgRSKly04KngRqQcY+mP1qKHHmbgQDmrMix/wAT59hWzpXMlVSKQtYIGbbGu71wBz9Mn+lPYEg9h+Q/z9aZNcxW/wAqLgnpnvVWYzTKpZm5P3FHNUqcI7bkOpNvyFmuo4m2JhmrIuZmD5wWdjxgVpR6PM83mySBPUDrUhjsrKQSkF+dvHJY+n/1vpTauCdtjMNsyQmWfCkjAT1qz4Y1b+ytYXzeIJf3Untzw34H9M1Vvrn7RKzhTGg4wx6f59Ko7SzbsEL296ykkaxb6nti/LDJ+AqMVDpk5udDtZ2OWkjUt9cDP61OBWRoNl4hf6VLACIowPQVDcHEDVZiHyqPYUAWfryahk6H6VNxjj86q3EgQH1xSQHNWOf7T1M/7afyNaNgT9ruvTy1/nWJFqFrp66nfXtwkFuJlUu3qB0HqeelV9I8deHrq+aJLt0knZY4/MjIyfr2FUI2pT/xUI97Zv5iuAkYfb26Y84/zrvLrMGv28z8RvG0efQnFYOpeF5vtUk9tJ1bcBjoaxqRb2NqUknqc1A6uwjZgrA5Rj6+lWvtkmnXTjy9schLM5HH5dQfccetZWpWt5ps7PPbOYSfmI6fXPalt9evEQxWdxazIwIMV5gH824/WuWUL6HoRel0aV9rdpbRbkkikfAIVZOvOPT3/nWFc+LXAZYYog+SACxbP5CtOCDV9VbnwxE4I4bywqH8Tx+tbdr4Q1V+Vh0+xB/ugsw/AcH86x9hORqqlGn8R59L/bGsIRLGY4znLSDYoH06mnW9naaXHuRhNMB/rH4A+lekyeCtOtwJNX1eRscldyxL+XJ/KmfaPBWlf6izS7kHQmMyfq/T8K2hhWtyZ4+FrRRwljHdalEBbwzTkseEQsevfFdno/hnVlAY23kgjrIwH6Dmp5fH0m0x6dpqqAON2WI/Ba5nW/FHjm6jCaZaXBdurBRCqj8SM10RppdTjqYmUtkdneeHBLCBfPaQr3eRhn8KwZB4Q0OFluNVkuACSUjIC5P1/wAa4BfD3jrXZn+130cGD8wkn6f98g1YHwluph5l7ri7QfmxAWz+JYVpy9jn55Pc7OLxZokQ8/SNEt2Lc+fMQxPv/k1Wu/Gus3PC3S26f3YFC/r1qtpPw0s9MU7dWvijHJQBAufbINbkXg7Stp3Pcv6FpAP5CnysLrqcjLdS3Dl5ZHkY9S7EmmPLFCu6aRUHqxxXZy+DtFcFSs2e4Fy6/wAiKg/4Qfw4iEJpUUrno0zNJ+rE0crDmRwNz4o0a1zm7Eh9I1LfyrKufHMK8WtnJIfV22ivWtN8LaPYR8aXZiQtuJ8lTjHQDitcWVsf+XeIc5x5Yo5WLnPna88S6zqSNEs0drGRz5S84+prIixAPLDblfPmuTyfpX0/9htTkG3iIP8AsCo5LK0+79miPfGwCjlDmPmnR4Nty7s/mIi8Af59K94i0q5tNDis44pvMS3ESuIzy5GAfxJrXtrSNj80EeQf7g4NbiiQDLyMB7tXTF2ikY295szLDwm8yeZe7okxhY1+8fr6V0FpotjYshgtlDjkO3zH8zWbcBg/+t3H2zxUHlk85P50ucfKdMEJkY49B/n86jZT5Ocfe/qf/r1zWCkm4k5HvWzp0gckBiQ2DgnpimpXE1YtsPnA+tIv3m+v9KkYZkP+6P61GeI3/wCBVYhv/LJfwrjPiL4Zl1nTUvbGMte22NyAcyJn9SOv512x4K/X+hpM4kI9h/WhhsfNV8r6Pr9rdyAhUcRy+6Ef1U17J4LusRXFg5+aJw4H6H+Q/OuZ+Kvh8MFv4kAScGN8Do4PBql4F1o7NOvZZAXQm2uQBgrjgE/8Bwf+Ampjo7Dlqj2LcN+NpJA646UfKVMgAzgkHHNVWk2XqAgkMFH3sKOT+tKHRXuUCsWO9jzx0xwO/arILMm3CFiNucknpjBpN0az7WdASowCR6npVFp0ktS6JuQPtO9sbvlP3vzHeorhXOoW08cixgRKeUJ4J6jPTA9f71Ay+VUQynC+YRJ9SM//AKqeZEaRFV1Zg/zAHOODVfeGuLhARuVX+v8AnkUtowkVT5KR7ZNo29xg+nHf+dAE0txFBKTK4UbR1/GkEyssyjOV3c+uCelRXUnk3CsELll5xzwDzx+NNTC3pCMPLmZlzjgkjPB7n8u9Aie8Um247SRt+Tqf6VZxzUcxC2kzHtGzfkM1N3pDPMfjPDv0bTJccJO4P4qP8K4jwi3+lt/tRr+lek/FyIP4LWTul0n6hq8u8Iyf8TFR/sH+dZy3Lgeg6lqv2fX7SF4WaKawVg46KwwMfiSaybTWr83d1cm3U2llcPbsicuEIUlvfB7elL4quDHpVnabmjN+zRQ3C8+TIpDJkehINcjp1z4t043Uht1KSyF5WypG/oT+PBrmrOzNqauekapqltFo/n5M6hPNQoR8wAzkH8Kj0rVf9GgeSIQG6QTAZ4BYZI/OuH1a/lstMW2ghIkTck0bJjcr/wAa+nzE8H1FP03VdauFtrG804xpGmN8kRHyqOo9T06Vk5O6Zaj0Oq1fWrWPVrS1nhZ2uAYjIF+6WBAPvXSwyWv2UKECgDaUHb/61eU6z4m2arbzRW/mRwyCVTzkjGGBHYjPStzTfEEOuz3Nu5a0R4eJY24z0/Dr1pczuPk0LlxqWh3+sJA7kyWcm890KkEfmDg/hWrqhhhgX7NGhlf/AFe3GHz0+orzW21uDS9avI7izaNpEWIqcZDL1/PrWzZanENIv7+GY/uR+7gY5aNSfmKj8R9OaIvoNrQ6zT1sLy4eQGOSNV2bSQVSQE7h+W3/ADmm6wlrGIhlY4t2GZMfuxgnP0rjfDPiTTLXRmt52KzGR2PHJycjNafiW5gj8NqfP+W8jbaxHJ6EKfwrRNbGbTWp1Vhb29xEzjcJEdlDKcEKDwR7EYI+tQ3Vr5Ezb5EJADo7cZPuB16E+9ZGi6vpsNraQ291GC6rHGufyH51JrV1D/wkOm201wI1SV967sZyh2n9aG1YSWp0UuhiNGCTGV3ALK/3XPv6H3HSsyO1m3x7SFjkm8ok/fQ4Ofx44/OtCwmaIG2W4+1IoJiYsCwX0Prj1rEs7i7m8UXIaYeWIIysefl5J5+vvSa6jXY2b6wljgWUSiUxjBfbhse/r/OqdjHqsmrbI1EEMUYJLAES5/PjitL7U7QS5VkccMB3rF8O6lfFbt7lVcwzvEu0cqgP3ffGeKGtQvoaV5pLxSBlIRWPUklQfQVFaxy3dvtaNZLNzuU5w2f7w9varWr6qU0G5aD55BGXUE4IIGc/yrL0/Up7a105JESGCZQwlySqlhnbz05PHbtVOyZKuxz2IimkhkLIV5DMMbgf4h6/hWhN9qvUXNvItzGu0Ptyrr7+hpda1SO0jtEmg82SSUQqFOOG6nPbpx71pw3YkbMO1Sv3tw5ppCbOWt47iO9FwYJIinXKnD+oHrTbqMyzve2wZWc7pE5VkPf6j3FbM2qwr4hjt2TLBfP4HAAwpOO2cmtoyQzIWcK0bdwaSQ2zj9Pb7A073MjPDIDnJ3bXPUqD7Zz61vaHZxaxY3Qv0iuIkZQpRyFYHvweufyqO1e0fUpYyVby/wB2d/I3YB+nQitzR/Iiv5YFRY/tEeMDGCR/k1EpWVx2GjwxpMyFkjf58Bn8wlmx0yTnPXvVJvAumJIZbe5ubd2G1imwhh6MCMEexrZH2uCVj5b8cFQuQfyqzvLKH+5ns4IIpqpB7Mi0kcfqXw5srrTks7S6a1hVzIUSLIZj361mRfDWaG1axudUgu9PJz5E0JBjP95G3EqevsfSu+Mq7vllVj/d3f59vyo3uBlVXHbkf59KtWFqeZa/8NNR1CS3j067tI7e1QJFEzspXHcEL14qe18FeJZXh/tG4RXiIP2izuCrSqD92RcAN/vda9AeXvlz/u/5/wA5qe3u1k+SRSr9j2b/AOv1phdnlctr8RLC+mEOmR3VrvPlgyJ0zxzuz+dalpL4gntJZNQ8PyxSxjJiUElx/skZBPtxXozEDjcB/n/9f5Uwv228n17f5z+lAXPL/wC3LX/lp4d1ZX7g6fJkfpRXppnCnB2eo+bt2ooHc5K5fdJXX+DVf7HMW+55g2/XHP8ASuKZ90hNeiaBB9l0SEYwzLvP/Auf5Yq+gmaBOXJzjnrXlf2lriWW4b/WSSMzY9ScmvT5o/NgljDbWdCuQe5FeWWXlyx7GPLDJ+maqKuSyzC65yWbd0AHTHrVlkllbCq23uRShbW3xkLwOlJJdFweSqdgRW2iMdWOMcAXErfggz+tRPexW4+SPntk1WuJJmX92pz3JqqLbzG3ON7D+HPA/wB4/wBKrmFyEkt7dXO5mkEMI4Dev09apPcCNNsQ4HVieT/n8KW5fc2M5I9sAfSoVt2kGCON33vb0qWWkiNR5jZc5C9u1Nkdj8w5J7dKvfYyQFxjByeegqhrUkNjbKDkFmGSvJVcgE/qB9T7VlOSSNqVJzkkel+D7w3XhuGMkZhdlHuuSQf8+lb1ecfDTWPtV5eWsmE3ohiRenyg5x+dejblXqwFTODg7MmM4z1jsMuP9V9TVtPvCqU0gZQADwck9BQ16WOI+v8AsjJqSi9PcrCuBy3YVz+pXz8xQ/PcPwBnge59BVHWvENjpMZa+vorf/Zzvlb6KP615b4h8az6oklpp6NaWTcSMx/ezD/aPYewpXsGrGeNdcj1GWHSrCXzbW0Yu8o6TTHqw9hyB9T7VygJWQHJGOcj1p0ab5MqTjHb0pzhQueAKnc0Ssek6B8T7KS2i0/xGjBwAq3Kru3DtuHXPuK7Wz17SJ4wbTW7OROwkkAI/PBr53a3C3B6uxONx7U/yMsRx8oyeKfMS4n0PcaxocSk3WpacF75lU/pmshPGHhS2lK6fsmlH/PvAFz+JxXhewISWAD9gKadyEuhIY9MHp70XBJ9z3K58cTsD9ksI09GlbcfyGKxLvxFrV4CJLx40P8ADFhB+led2niDUrSEoJFnAH/LUZ/Wln8R6vcAhTHCB1CJk/manUtKKOrk3MS8jlj3Zjms+51fTLTiW9hDHjaG3H8hXAai+oajJJG88rugDHc5xg1lFo7UYgIeTvLj+X+NUoXE59j1Xwt4ms7vxM1hAHy0DHcwwCQQcflmvQUk3dea8G8NMbXxdp18vywSSAFjwPnBUj8zXtUl2lrCzO+3jg07WFdskiugmotAo3FFO8jGD3HPrVe38RJNrVzaTboliVVjQj75PVj/AErOlkk/tC5mQYtXUESAck9P/r1d07R42vtOlEguZELDziv3ox6j1B4qJStY3pU7ptnR27SPGwZOUbHHQipSsitwhyOlX1TggADNWba1lmkzs49fWq5jnsc5JbyLcCbY+SPm2jO6rKJKWxsYDGc44+ldWum7V3Pge1J9lQnbgU7gc15L9lNGxgehAqS7a90++klmj3Qu2FUcjbz0/DHT3rUspLW+X91w+MlD1H+IqVUTdjaeHlGPNujI2tngcd6gZ08wncrDG3GeQa6z+z4yCMAVUj0eKNfmRSc5zVcxjYwImitw08zqkY5ZmOAK0Irq1uUZY5gSBnGCD+RrO8aWhSxZYYzthCTOVbazZJXaDjg4zz64xzUfhTTrC6eXUILMQpGpt1OeXPysxPrjgf8AfVHttbF+y93mLshXPyjjFMUVsS2EIUlF5A45qj9gkaBizkelHMTYrSRNsB28H0pdH1CA6r9kWRWk2E4A/r36VmXtvdtL9mjaVdw+8OcimDw2lnp8kzSObgJkMD93v/U1PtvetE29glDmk99jtQCXbg9R/KoipMK8cnH6muP0LTpb+62vPcGFBlyjnJ9BXXBbCzUIAUA7M+T/ADzW6rI5XBjiPnH4mkAyzfgKYbuw3ffYYHvTka3lJEbsT6A8/lT9shcjMvX9MXV/D9xaEZdl3Rn0Ycj/AD714d4csLqDVtTlCqLbYA2ZFXbJnI4JBPRhx619D+Uo/wCenHTiqMfh3SFmmlisYY5ZhiR1j2luc8kUOor3GouxkeG7z+1tNhuSzGSECIkEduf1zW2sChZJSCJHDZ/GmWPhi30iSaXT1ZUmOXi3Ern1GenWrPIG1hg+hrRTUiHGwxoIwUG3OW5yfQGnCNPOK7RgIuB6cmnNyy/X+hpB/r3/ANxf5mqEMESbHfaN2WOffkfyp6QpGBtUDp/n9aVBlGHu38zTiTjCqSfak2luFhGVXI3KD17UoRQ5IVQRjnHtUTpcOyFAFAyCCeuRToIZ44wuFbpklz6VPPEfKxtyDLps6L1eFgPxWp0OUUjuAaZGkyBVxHhRjrTDbTtD5YlCnaF3KTnjvS54hys5z4j2j33gi8jjUF1dHUe+7H9a8o0TQtX0uI6hcWm20zsMgdTg5GOhzXuuo6d/aNhLY3LqIpgA23g8EH+lZqeDLCPTHsTJM1s77yDIc54/wqJSTLjocRdpbX+h2Yu/uQ6gpDZxj5SevscVlvqdvHrbrHITaxyxmR85UjDAg/Q4Oa9N/wCEP0mWzFrtZoQ5cL5jdcAdc+wqvH4L8PAvEtuPl4Zd7f41jU953RpFpbnMLHpga5DBJPOBaV3Oc/8A1qxtKubbUZ0BuXjkWB4opGH3cNglc8HjFeit4N8PwgK9jEV6AHJGKsJ4U0FIw66bbFV6DywcVPKxqSPMbrToNPsjJZuhuLclklI5Zj1z6571d8LxiTVrq/YgtJGRjI4BKkAe1ejQ6FokgwthbYPbylqWLTdIt5CiWcKNjHyoBS9mylUSORutJ0e9kMlzp1s8pGCzRg5/Gsy68H6HczRyKHt5I+mxhgr/AHec8e1elS2thborm3Qg+1SJBZuhZIU4/wBml7N9w9qux5FH8P8ASooz5SRPJnKu25SBnocHB/KnS+EWuJrqOfL2cqKChfOXH8Y/ukdOK9ZhltZG2CJQenC0ss0MEoTy1574qlCxLmmeO2XgnTrCeGaC3vRIjE4cblUjuBjn2qO58H3euWwe9W8SeJ9sM/kkSNGPu7hgAkdvbivZvtCdkH5UhulHRKfKieZnkun+DtT0h557KSd7ox4jlaHhec4255zgVnXvgrW7i+i1GEyWE7jMsWGZAT1AI6DvjtXtsM3mHBQVZ+yLIuRlTRyoOdnhqR6rotg0Uri9MsnlzqZSjYPAEZx97vz3rIGi+LdMv7oadObmB23/AOtVX+pBP8jXu99pNvcYW5t0Yg5VivQ+3pXI6/pM2n+Xd28DXCxthkX7xU9ce38qHBWGpu5xs8mpixj0qbeLq5jYpeAAozYO5GHXbjjOOMVk6fdeLo7YafcWDyRgCL95DuQr0zuHGPeuxsHtPMjuZJVF0qeU3mttwP8AZHQfhVq7nhs7hYkkYrOudi8jcOecdARx6c1Lin1GpWexzPiDUJLiGL+y4S93prq8tuVIZ1Xoy/3lxx6inaf4r1C91S1WTTTEjcyF1KkLjnOfSuui0a2kkluC7TSTEEy/xLjoBjpikkBUi1kulMyP8vmYOVxwccZwcUOLBSRxWq+KItP8Q2+rJD5+nSRtAsyN0YtuwfQj0rT0bxXZ6nqEluN8EZUvuZhtU/0HNbdr4ftrG2a3BVppCXeUpw7H1HpWdqmnwtZnyba1jaVCkg2DaCOpPr14pOL3GmjDs/ElnpWrapY6pDKk0k/mDA68DkH8Otb2lazHes13Zzs8lm6uFZcFx1x9cZHFRPoGlXOkQMkUd7FAgQOwBdB7HqB7fyrO1jw9fR2MWn6Pa7EDrM80LgHnoeoPGKlp2sx6HtUcqTwxyocq6gg+o6inbFPOBXPeELi4ufDYgudwubcmMlhyQOVP5cVtwTCQDbIpz69a82UeWVi7hPapIjNjDgZDDrTVtYJo1Zo1JPqAamWbrseOQgZ2owyapWt8yxz+bbtEkRbqw4Az/h+tLUCY6dBjAjX8BiojpUB7H8Wb/GrNveJcRRyKrDeittJGQD0706G7huIhIm7aemVOaOaSAgNvJjAmcD65/nUb2kxz+83Z/vAe/wDiauvLEqlmcIqgks3AAHrS70/vr+YqlUn3FZGd9jn5wydc/c/+vRWjlfUfnRT9rPuFkecWsTXN1HEvWRwo/E16kMJAqKBjoB7CuB8LWpn1VZcZSBS544z0H+P4V3UpGQvBwO5r2Wcw8HaQSuAPY149tktrmSF/leJijDPQg4NethiGPAxgd+/51wXiuwFnrQuVGIrvLcdmGA358H8TTQGUhZuScD1NXYF3qFjRpm/2Rx+dVoAm7d5UZPH8PoMVrI0siBS21PReP5VaZLQ0wICv2l9zZwIYjyT7mq1xukjKpFsQdEUVf2RqpJxUaoGBMjHBOeTTv1BR6GTHYtL87KFQd24H/wBepf3afLF8xH8ZHT6CtIxxycnLYHftWRqmpWmmny2YPNjIiU8gep9B7n9aTqLdmsKMm7RWoySVbWNpZWwo69yfQAdzXC6vqUmozSRLwZHwu05yoyB9QMn6k5xVvVLu51OaFUD+cGDokeRtwM4x9cnPfHFX9L0iGFzcTJu8hQrFeQz54A+nGfw74Na0qd37WeiWxliKygnh6TvJ7vsux1XhTTk05dKmBUPDHLNcHuFYd8fSty78Z6fGSLdJ5z6quwfmef0qlo9pPHo0rzDdc6hMI/lGW24yewxweSfXmuB1LXbXSZY4pYZnlkiWRVUADnjr9Qa56025XHQppRsdrN4sv5ziC3hiHq2Xb9eP0rA13xJd29vm7vpnd/uQI23d+A4xXJz+MLxsrbwRQA/xN87D+lYMk889ybmSQytL1ZzzxXO2+pvZdC7cXE19PvlI3OeAOgFVtwkzsG7bxTN7h1PORVn5on2sNgz09PrVIBis20ux27B09ap3MvnTC3XJ2nc57fSni6uJZpYhAMDJjOD82DxVWJjaq5YeZOxyfQf40CNMkhFZl5flaTD79oJJbvVf7TNMkLIil8FGzwBjp/OgagbaeMqA5U5ZiCB+FAyYpsLeYQGHG0+tXdP0WfU7S5nt5FZrdl3q3AVCCSxPYDFV4bK4u5JpJWjt7GFsyXcmcDPOAOrMQeg/StnS9WgvdM1jQ9NgeNXt/Nhdz+8nZSCwbHTI4wOgpiZgz7IrgwxTLMikfOgIDH2z2phR1JKg4LZzUtlbkW39o6mDa2JH7vBzJcH0RfT/AGjx9aS9eb+w7LU4AvkSO8TJu5jYHODxySMUCMua4zfz2IATzotu/vuxkf596yIbJjGZrhjDADjOPmY+ij+tbcmnyWuqQXupRGEttdICcuR6n0HfnrUOtaZfHWp7eZCLkyAJGvPyn7oAHqCOlaJolop3E7TadbzwAxi1lxtB6f3T+le42kf9t6baTgYW4VXIPbI5H6mvNtL8NLaWWowTXKPqotWmW1QBghXoCf73OcD0rsfhPNfTaLeRXI3w2sq+XKzc5fJK/pn8aTsNGrqkSi+ttFs1zBAgV2Y8sxHOfz/nXZ2NitnbxqEIO0Y+lV7XSbRtRa8MQMxHUng/Wr19qCzXi29uu1mADA/w+1YRg022dFSqnFQjsjTjgEItsqGknY7R7AH/AOtWTJqjaVrC3N4xLbGhjtojk9j/ADFbNxItrc6aSeI1KkntkYzXJX0sceuXTtCZZj9xc9eQfz6mnUutgoNXcZLc7uO4+0xLIpyjgMp9jUgIBHT/ABrmvDt3fENHqTqryENCvQ9ORitO8v1gDbSN/TNNSTVzOcOWXKaFwkUqGORQynqDXPSW9ho5upBdNbySjAYpkhTywU9ycDr0q6ly7KrE5JGahurxQu2QqecgEZqJyja5pScl7vQjg1nUJissVltsVAA3t+8ZfXmtSO486RwD8irkmufkv2diqgnHY01b++WEogVFbrtHJrmeLhHrc2lRc9lYpeN0luWtxbvFl4ypE0hVWKsCOACT1NM8MSSaRbf6TdW3lyOzSxIjFtwJAKk9jwefWny755V3LLI3Ymq8kbI53Lj05rlljZc14o6FS9zkZsz+JRGp8m2Z29X4FcnqfinV5iUWbykPRYkwfzq80rSxfwhR1OetZl09u9uQ+zbH1ctio+s1ZPVlQo009iraa5Lp+oLdvM7oUIIZz85yBz9M5rr4vEFrqOmSbQQzqUCAdyK8+v7VdRa3is2YfP8AMxHG08lvw2j867WztbbRNOhkf5ZplIhGMlFx1+v+NdeGqWg2zHFRXMrDRqLabbfZkb5idxjj6k/7RqWyvRNEFmgd5iTwG4x+FR6bpPnfvpg6oectwXP+FWnvoLZGWBUgjGcu4xnnHHr0q/bS3ObkWxdX7On+sjMb+gY4q1CkckiorjJPAlGR+fWuOvNXildVt98jZyzsetdHYRu8O+YYboUbsa0jW7kumbgmaL5EJLqPmjdsgj1Vvx6Grtt5d3EHQkdvofSsZEbakcgJXPB9PcflU1ldfYr0MzfuZCEk9Aex/wA/0roUrmLjY1Waa1bn5lpZoYryAugw47VaSSG4TKOki/7JzVfZ9nuBt+4/FWiTJydwB6ihT++b/dX+Zqj4m06S8jJtrhre5ibfHIpx9QfY1Lo9hq8CkatNbyHA2tFnJ+vArojUVtTNx1NJItkZJ7kmq13eJbRnn5umKt6lKLa18zphc1xZvzdBpWbPPArBu+paRotqkhcktgGrEV48i/eJrmmlZ2rT0+TgZqRmv50h/iNOSV965Y9ajAzTxwQaYBqs7RvHg45HSrHmE6eSc9KqauuURvpViP5tOYUAM0eZn5Y9qrmRv7UftnrTtI4kK+5pkw26kD6mkBa1d2CREHAFTwMTp7fSoNVG62U+1S2ZzYt9KYivpDnzCD2Jpl0xGpAk8Gl075bth/tUXwxeg+9AFnUyWskI9Kfp7ZtG+lJdjdYr9Kbpv+pYe1AFaxJW8Yf7VS6kMXKH3qOJdt6frVnUVyymkMavSlIzSqvAp4WgCxZx45rTU4wKqWqYFWsUxDiquMEZFZ19ZAwsF6dR6g1oA4pH5yD0NAHn9zDbysYriCKRSSCrqCM1Wk8P6ZOgC2/lkfdMbEY+natPW7cw3rY4BO7/AB/pUMMvY9+4rnmuWR0QfMjkp7ZrXW009bmRUGDHIGwcY5Bx1+tVL2eVtXkRpmidDsGCeg6f596XxmszeILOOFmQNH5juhwcA4wPzFNMovIsTOBcoMLK38XoG/xq07xIejNmznu7qZYluGUgZZQeCB/d9KyRfTm5knjJ+Y5ZOOccAetSQtNZWyTSForlj8gx0APJqRPLunaWNQrNyyjpn1H+FUJFy2vL2fe6v/o6rucbQG+h9frUNveXFjMzmdnibO1XUYXnOAR29qS3/wBDbKknzRyjdCv/ANeq1yiDMqMzRI3Knqnsf8aTQHY+D9RmuNTuYZFQLJDuUjPLKeB+RP5V0sSFWcBVZdxIye1efaBqP2HXdPYqFErgEE9A3y5/WvQrtBHPuCZrlxMNFIcXrYf5YXnyB/wHFZ11b2ySGaWOQI/3y0hwPpg+36VbVIjJ5ghdW9Qf/r0s4DRMp80Ejjg1yIsz4YLG7hJVrlBjyirbgVAzx/PkVftlihjxDMzKSTkndyTkn+dVbWzt1R3jZh5j+Yy4yu7oSAR36VMtrbpPHOsg81E8sFmz8vXBGef502IS8iF/A0a3KBWR422n1GD0PUc/rU1sjwx7C0cg7ELt/DvUDW2+KNWkR3Rt24DG4nrnnv1pqWsgnEhIMYH+rBIFIZdYEnPlj/vo/wCFFRCN8cxRE+1FICHw5ZraaXAoXEko8xz3OeR+QxWlKw8wkgZHH+f0rIuNa0u0G2W8jJHG0NvP5LnFZVx4ztYvltbaWX3OEH9T+le42jnSbOq35PEZ/l/WsDxnH53hi4lUFpLZlmURjcRg4Y/QKSfwrAuPFepzgiJIoR67d5/Xj9Ky7i+vrxWW6uppUPBQthfyHFTzIpRktSPTNZtZQoKSPno0aFvzUZYH8CPetdNd0mJcNqNspBwVeQKR+B5rzr+y2tb5N6mWEsQp3c4B46f/AKx9K6zWNDtIZYnt5ZorR4swhpyQMjkDcSQMYHSuipRcEnF3TJpV6VRtTi012NWfxHoqr82qW2AeiuG/QVmXXjjRbfJiaa7bsEjKr+bY/lXPXUB2vBGvmqAqvE87JzgZBAUAjJwOefxrVtvD1lJb2zQRiJpCNzgKxHHY89/es4wnNqN0jZ1cPTi58rdvQpS+LdT1Bl8uEWNiT8zK2GI9A57/AO6M1WttKvLyIyRhI1UAmefhScYLAep9T+VdM+jWmlW0l5IY2kVSd075LEDpk859qyZrmSSU/b5RhWx5CLhAOPUjPXjOO/XpXaqNGgtfekeZPGYrFaU0qcPLdliwsPKtpUsnYqx3S3L8F8cEL9PU9K1NHg+05MkJhtLYHhuScckkHnoeenUDqSBzSam5tpWY4QOQRnCoFGByCP6dP4TnNrTbl7m7ggaQQ2l0WkiI4ywVcOQOdqnK++fSsak5z1lsaUqUKekNzpodZ/dXdxIWjMKMiruxtd85U+4XJyOAWWuN8d6cf7PsLwDEkbGFwO+RuH6g/nXRwxQ6tqgiCOllZEBtx5lcABQfUnAZjz2HpTvEtiNR8OX8K5DeWXQr1yvP64P51x3522ejOKpRjT67s8mgR5lLLGSD0J70918kDzRsVf4vTNS297FDYbnhbeAFHOATUcU004inliUxCZWaNR1A7n8e1ZslIeEmPzJDIR1BK0yWRJbliSck52966PUp0tNMF6ofZJxHuG3efYHkj36e9Jonh6S81e2E7wRNPZrNEzE9ydwHHLf0oTsFro52OSYTNH5MiAxkbipHJ6YqJGygLHA7V6Tf6boelG2FzdSXbyzpCQgwgycc45PrgHsa0fCGj6Tc6W14tvZvcmd1lOwbU2kgKoPQbQPrknvT5tbBayueWBJHspXRGKROGkYDgZ4GT9ant9PSO3W/1aQw2rfNFGD+8n9lHZf9o8ema9U1XV7CJrqygMDz20AucH7iYcKGPspOcexrZfSNPS2CyQxXGAC0syhmf3JobsriPI/Fk4ubjTmt1RLJrONreKMfKmfvD3Of6VY8MQQaT4isX1OQRzyt5cNsPvAsCAz/AN0dsdea7aKHTdQ1C2S3hhyk0iKY1AEQUKWVT2Ykr+G7oa0bnw3o+x7iXTLPK5cyCMAgjvnrmlGdwlGx47eyXuoaxP56M12ZWTylBO05xtUeg6AV0Nmq6P4Y1I5im1CGSOTYCGFuTwG9Cw/QkeldnaaDp93dXk6QKGYhZJIyVZ2ZQx5HIGGXp1zVebwXplrG32SNoXnUxODIxVlI9Cfxqm9LiS1seNtY3Oqaor/vLieVssCcs3410vijUjo9hpc1kY21O4tjDJfLhiFT5SEPY5JBPXAFdbYeEbW60aUJLcWsNzkLJCQZJo88EsR909QBjjGc9snVfhzZ2eg/ZV1C48iBjceZIgZ416EADGc+nqKtzTSJ5XdnDeDor648WWP2HdJO0oD9wQxwcn3zXvNvolp4XsoNHscnfI08zn+Jj/IAAAD0FZPgLwl/Z2sW7Q7YbS2iaV4iuZJJCNqtI/cjJIAGAfWtHVpZ7vxLbGGfy445yZQOroqt8v03FfyobugS1NyBZYl83HyA4JpL6J/Mjv7YAzRc4/vD0q5E6/2Ud+AGDde4I/8ArVnRSTxIMMJF9jmpY1qZt54la7kLYC+i+lY19qm27jnlmZHzv8wIWIAHYVc1rSxOXuLXEcx5MfTJ9vQ1xFmLmPUn0+5uGVVjJJIPJxgjLeoINctabijZQvFtG1/wl13Prtr9nVysblkDcsx9/Qe1dbDdXd0oeYBT1Iz1rH07TrLSwGhTfIyjLseTxWsl0sI3SY+leS8XPVJndRw6UVz6s0RNdvhTLsBwAFGOKh2lJGLNkjue9ZbawWl2xgnA6AZqGW5unUu+I41BLMzdKydVy31N/Z28jTvrtFZZM546A4/GoDrUUfmQB8SD39c/5/GsLU9QaGN4YriGacA5j5B9gKTQzYXtnFfOqrNIuWGckEccZ+lVze6Zxs5WRstrMjjZGXfaOw/rVFru5uV+95YYdACzD/CpZtQtYhtijBYeo61m/wBvyq5VR944PygVjznQoFxEuBFsVHYAYyeKz9YsrmfTo7eMpEC+53b+6Bnp+VVrrxFKBuTdtHYHFY15qz3YAwy577q0gVokbnhSEya5c2jMzRR3EdvGx7g7mbHt8o/Cuy8Us0mp6ZAijm47joABx+tcZ4PdLW+ErOT/AKTHKcnJ27dhz+a/nXd+JYxFPaXvG2GYE59Dwf6V6aS9mrHm1G/aO5qE5A9K851BpH1ea1dmKiUryffr/P8AOvQQQwB9feuD8RosHiN3Vgd4VyPQ9P6VbMo7nT6bY21ooVIlDkZDddw/pWqjksM8kdKq2hVraJlAG5B0FToR5mM9OtRcosxXO6Mxyna4Unb6CqNyzxxyrJ1A3fiDVslSQG5J4GOvPpVXVirPGo48wfN7KCCT+n61vRbuZTRDbTPDOfKdkdWIBBx0rp9O1P7biGbAnQ5z03CuLsrtbjUJEb5RvIH51sSubSaC6QEGOYEj1HcflmumL1MpLQ1dYJXziOoGRWnKuGwPSqGrrueRfVcVeY7lRvVQa1MjP8QgHR3OOi5/SvOLZioCnoa9N1dPM0lx/s15pEm+L8TUsaLiirdo2x8VQgkIPlueex9atocEEUDOgibcgNS4qnZyblxVztTEGqjNshFSWnNi30ov13WCn2pdPG60P0oEVdM+W5Yf7VF4MXyn3pbIbb5h71JqKbbpD70hkt+N1kv0pdP5tGHtUlwu6wB9qZpnMJHtTEVbUbbxvrUuoridT702Mbb4ip9SXBU/SkMfIN1iKZpw4I9qnVd1kfaodOHzke9MCLbi8NWb5cqv0qKVcXYq1dLmFW9qQEKLlR9KlVfmFNjU7RxU8SEtQBbgXC1N2pI1wtOoAQCkPWn44pnGeaBGTqVgmoyBMEAZyR16Yrib/TNf0HzJQ8N/ax5JBG2QL64HB/CvS9yqPlUCqOoJviD4zjrn0ocVLcqMnHY8W8Q3x1R7O+so2Fxbhlkgb/lohxkA+vGRURtp5pYow4VnG5N3pTPFMb6FeXCRcBZRsB7qeR/Sqnh7xBEbqS31JwkTrtilb/lkx4PPYc1EV0Lk+pv3dxDfLFZb1+025xGSeJRjkZ7HPSsiC4cXqwR7km37Qp6g+9c09hqsmrNpywzSXW7AVBksPUH0969HsvD66Zbpca7OlxrBiaOGKJvnORwGYdW7Z/nQ2luSV9SuI70+dbspngXbJGOpA/iHqKpWmo+bOkeA0xPKn+IehrjtTsdX8PXsJu99tM372PEgLL7HHT6Gug0iNNR0u/1m1TZqccJRkX7hPUuo7EinvqGxtak0b3I1C0YMgIVtp/1bjsR26V6pJIt7p8FymcOgbg9sZFfNthqV1aT+ZG+d3Do/KuPQivffB9+mqeFLSROAsewrnO0qcY/SpqR54NBs0X0ZXHllpAehBBqVQsa4EoUe4ApiFmHVOPUc/wA6aLpI7kwNcRNLwfLzg9M9PoK8s1KIsIxez7Lx1aT94AHz+PB6VbtbOa3nll+0+asnUOvTkngg+pP4ADtVG6uvNne4tXgZ4QUIaT5A4GeSB0wxz+FQ/wBp3Obb/RYZftLkwvGMKVxnDZzg7e+evHTrVmI2JkvWcCP7Ps4+8Dn3/TP6fijq6J+7t0Zs8gHFQ6fJLOjTSJiGQhohjBVcDg498n8aie4vIbpk+xvNFuYiRZjnHJHykduB/jUjM+S1115ZHV3RSxKr5/QZ4HFFayX25Qxs7xc8gFOcdu/6UVV2B5vPPYWbbZ7qGNsZ2s4z+XWsXUPFllANllby3cp4HGxfxJ5/SuNi8u3uJZvKxG0S/vG4AHp9aijnFzOoSQoSwAGOtek7iubE3jPX5IpFtLC3dgSN6KSF/Enk/hXNyya/ePcvfyXXmPGShLYGc9scCtuy1KxsdMJ2SIsQ2NIy4VnHUD159Kb/AGjZ3cfmm7jeJGUyDaRsXpzkU0SzoPAeLnw3dWNwvm3FkxkCupAdCC2FJ5JB3c+9eh6eHm8Po8BkESDDIJSWAGSR/CVx069uleYaPqkdrrdtNaSJKk5KKpyPO77Rnr0498V3vh28kvob2CQNceXhwzqZHwfugE9wN3UfpXXGopQ5W9UYujJPnS0f4CSSDzSPthL43ACUAn2x5/OOSc/4VIIr26HmJKCmB1YJhsZBACkk8j+IVLPHdROWEixKg27ZZiMH6KQOx4xVJFmS63SQBrhAArCPzkb0OQCw6A9fSoZSR0UWkaVbhbqfM7MA3m3T54Iz0PP864iawW51IrbSrJDISI8MQWHPTPTOOccEZ4J5qfXb5oHNnNkKMFmDbA27nBJ+6BnGO+O1ZFxq1pJ5UNugLoCPMYkRrx0H5AZ7+oHA2UowjzTe5nGjVqy5KUb2Kt1aTrdNbG6gIhLxzCHKxRAjqxI5PCjHUdOe+pbxCIQWNgvmSSKGmuH7EBQHIz8o44HcgdeyxQX+sSmcny4pCwedkwJAcY2IfYYJPHucV0NlZW9jbLHCm2JepPJc+57/AORXNKcqmnQ7owp4bXeX5Fq3iitLRYLYEjGXc9ST1+pPc1aiUCMbu/aq0B8xsZ/wq2rq+T/CBxVJHJJtu7PEr/SZf+EsudLVlQrMVj3vtATqvX2xXd6R4fGnWN9FdyxSy7Y0MSHIT5uC2cd8HHp9a0dc8M317qDaho4soLxolR7m4JLx4yMoMYB/2uvQDFYemeFdb0cXo1C/smt7m3kiaUStuDEZDcr6jrXNKLTdjojJNakNha2+u3WoRXLGRbecia9nbkRDgIijgE4YZxgDp2rq9YlhTRWmt0RTHC7wOY8iLy1IAGe+Tj6Z71yC+GtetLENoVsDLOoaS8mlCu4PZFz8gPqfmOe3SpP7L8Q/8IvPa6jGbVoZN29pAw8llww+Unj5RxjPpWXI7GnNG502nNDr8VhetaLb6da4mUdGlmAxx/sqSee5+nNG8ltPDNzbxxri3lkjt7pwxB5VmB9OBjJ6kcdq5mefxHYWcel2Gmao9inWWWNi7nPZf4V9uvrmrOvLqGr2lhNcMbKB41aaSeMgxyoCp+XGSSBkKOv05pcrWwXT3OpsdKS8e51B7UxrdQC0t4X4JiySWf3YknHoKoR6lFZB9JuLmYRwRh4P42nUsVVUxzjIAGeSOenFYw+Icx1S3SXzVggcZe5Ta0w7sR0HfA/nRfzXdn4o/tOZ7eC008+T5so424O0KByz4bOB9TilKMmNNI1rHRL9dLUpcfZbqOZ75gvKxs3YnuApOQOtXtWvf7X0N7eCWVpbhmto4DwzODhiw7ADJ9u/as7RvGUWt3U9rDGB5sRaFc4LOnzAH64PFZ/hvXI9LfUdRvoUW2uJCUupG+ZySSUQdzk89AMc0qcWt2Oo09kdTIbnw1cG9S9VdOKiOYOp+XaPlYep7Y9Memabq01/qGvaSqXJ3JJ9oaKM8LGoPLfUkCsbUdeTVvDF4wyCjMhi7KJBhSfxyM+9O8N+IrLSvDguLiCWK5kJXfIfmnI4G3uVAwM9Bitbt7GVrHR6XqVzp2/TJo0cRsVtDkZZOcKR6qB+WKx7walqWr6rG8yvHFbxkKB8kcwfev8AIZrL8Ua0DaadqFoxViVlWUKMptBVhj6kZrZXWtItdDt1tnYC5IcNIDukJ+857n61fNclxO28MXe/wxdapJCYXlJTaeo2+nryTXN2TGe9uLgfM4PkrjpkkFh+eK6LVZl0rwnaWzsqYj3ynsMgs38zWf4TtFmubIYBj5un9/4gfzIrXyM13N7W0SKFLJTtKwhCw9q8w1e6uLDVBYu32d5ELLIScHjjH4/yr0q6k+23Epc/x4Hris3WNFtNYtDBcp05jcfeQ+oNZTV9hrY8xXXNc0nUIoru9+32jjGZByOOx6g1PdTrrsW2EyC4UHY6/eTPv0IqG80y30uG+stQvR9rBU2/7ssGXIII9Djt7Gt2PQW07Tf9FllAbHmOjhGHXoew4rzsRX5PdZ0QtHdFnS7LUl0+CO6mRpVQKWVScj1rWjsI1INy7MR2fj9K5BU1HzBLp9veiXOGllnyrfXPX8KuebqjSxw3l1bLI5IUqxbcfyrzJK+qO+lWT0asdA17YW6HyyOTgha5rXtVSSKMImxC4UkeuDxj/PSpl0G5mX/SLtUctzsH8OOn1960INKsbHa2TK4P33OSD7VLSW7NmnJWMO10y8ms3dbZvtTEBS/AA7n8qs2fhvUYgyefHBACCAo3Hjjrx6muvhuIxhVUAjmmDU44mZiqn1Bqvd6siz5rmDLoDPHj7TKD6gCqbaEYz5YuJGPsvNbU/jGJbgRxqitknO3vVSfW7u5Yv5pGeeOKTSjszSMm9zEm0N0IQuRn++wHFZGo2tnaW7CBtz8ZfeTj3HNW9UYyPkyHcf4s81hXaM8LQGUH5ThsfQ/piuik1IuUUkaXhqSZdXlWFvOiDF+TjdEflIJ9fu4HqK9gtHt9Z0z7Ddtv4+VwfvgdwfUdxXiHhSSaLUbgy4EnCnH3SDkdPeux0HWJbW6xBGZ7RZQJ4C3MWOM56joRkV6aS5Ujz6kHK7R6Cw/s/aswl8kKFEnVRjjnHSsbxDozagUvLTE7KuCoYdAeo9ep4raj1OObcituU5ChjhvQYPfoPTpWGbe4guXCShVDZBI7ZB5x+NFjmRo6YxSzSOQMrKvKsuCPXj0q7vBcqg3MBzt/xrFhl1DMaOYpVUYJOfmyO/5/pWzHM8iAIgXHGT90f54pco7kqEQ7pJT7Aj+QrA1jVkhd2dgHxg9woBHy/rk1c1TU4LC1eeSXOwElj0UY7V5xJfHUfOVBtiWVcZ+8xyMn+f5VakolRpuer2Oh0+cxSlmPLkN+fNdreP5mniQ9WZTXncTsb9Y8EFQoI9xxXolpbG8e2gzlQVL/AEGM/wCFbwZlWVjc1bKuc9QlWIyGtbdh0Man9Kg1cbpT7pUtrzp1pj/nko/IV0HKPu1DaewJ4wc15sqCOeWIHO1j+WTXpcy77F19c15q8RhvpwRzuJHuM8UmNCTRZG4VJby+YRG33/51KBuT8KxLueS3vFdDgqcikM7XTIGZhmtn7J7VW0tVmghuE+46hxn0IzWwuMUySrdW27TTgdM0um2u2IL6rVzIMbJ2ahMJjbxigDLt7Ui9lJHQ1NqVrumhYcgkVewN7MOp60NhwoP8PSgCJ7YNYuvpzUOmQbETPergOAfekUBQAO1AFA2m3UH44xU2oW4kgjYeoBqycFi3eg4IwelADYYR5LIe4qtZweWST/eq2Dg0nA6UDILi3H2tWHQ1PLEHtSO4pc5xntTs8UAQxwjaOKniQK3SkzTlb0oAtYBpNvNRo9TUgGkYFQtU7dKhYUARd6bIm+NlPQiiQsD8ozWdqNzPbQeaMFR1UVQjzX4o2BTTlv1A/d/u3/A5H9a4vQPC1xr11Ekr/ZbVuTK45bjsP6nivQPFXiWJ0udPazLIAGZj8xPcECuS8y81OPzbqY6fpyjJGdsjj+lYTlZ6GkVdanY2U0Fmw0PwtbtcXMabJb2T5lhHbc39B+AqvPeR+HJhY6esmseJbkEtMVyFz1I7AD/9ZqvpWtS6vFBpOhQR6ZpgOJbsDAf129yT3OfxrSN6BJLo/hWLzbxV2TajKuVj56FvzwB+VY+oNGDq2h2SRquuyLqHiK5jKRwQMygHtnHUj14HtXNasLvwjb6fptuTBdIPPmdWBO89voOmDXbMbPwok0dpL/aGuyIWuLybqg7/AO6PYfrXnOq3E/iJXuJbmOPUY/lijKHbOmfX+97GtqbYrErwRa6rXFggh1EDdNaL92X1aP39Vrp7fxXeeB7W30qCOKST/W3AcE7WbqBXF+GLbUZfENsuQnkOZJH5BRV65H6fjWvr8y+J5Xv9LUm9twUubZvvOgPEieo9R1H89LhY9ytpo7mJJo1DpKgkX6HpR9itg8z/AGUMZWDMCFPIAH9BXI/DjVzqHhSJJGYTWbGJ8f3Ryv6H9K7MupTIlYf5968qatJo1RVGl2LRui2EMe/OcRL1/DrVeDTNPABFsyupH97gjpwOOn86vxMgZgs+8seQWBx/hWbeWTfbpZ49pZ4wMeWWXAbPIHJySfw9KSYi/Daw20TJFI8SHHGeAAAABkccACpsoekysfqP6VgWFnqdjfzskQliuAB5rSkunHU7hhucnkZwcdABW8wmaBkbashUgOvOGx1waTGiQRykZDLj/cP+NFcq3h97uSS4m3wySSMWTaGxyec+/X8aKfJ5hc8C1y5km1CRTgRQfKijoBjOfrUmlWgF5DLdkphWkjg/icgE5I7D0z1NWfEUS6Nrc8WY5r35ckHckJ2jt3b69M+tO8J6fLrHiWGNmc7ld5ZPvEDaeT+JA/GvW8jO+hy93qL30kjumCSdido19AK17GyGl6Le3l9EGkbYotm525OVLjtk9j2+tW7yOw0fzINO8u51IAo984zHGQekS9/98/gBU3huyvNV8J+I7HP78yQSmWZ8KMMSzFvQKCT7U7E3OU+0XlxqEVwrvJdh1MQQchgeAoHv2Fe5XOgyajbxX1uVtL2VA00Zb5QxHzDI6HOa8kfVLTQoXttCbzrtlKy6oy4YdisIP3R23dTk9OK9Y8A3bXHg/TQzEyCNufXDkf4UOClozWlXqUZc0GZcuj+JkU4804OSUmU7v1yfxqsND8T3DN+5l+b7zSOik/iSD+VeiBlPU4+tLiNh80wU+y5/rS9i/wCZnQ8w6+zjf0OGh8DXLsrXl9CoxyVLSMPzx/Otu18OWGmRCVLdp5QR+8m5APsvT+tbvmQoDuJkPUdF/TH9artdSHIiVUH+yOT+PWhUorUipjq1Rct7Ly0IJEZH33Jbeekf8R+vp/P+dRuWmfHRR6dAKVgN3z5B6kDr+PpTN5IwuAPbtWpxk4YIuxPxNWodvEXYctVFT5fXlj0FWYXIIwMlqYmWry7FlYTXjbfLQbpN2eEHU8A5OM1xP/CWxeIrqXTjamJLmN0jZjn+E4yPf9P590bZbqzmt5VLQyRmJvo3B/rXlOgaSLLxGn9p3EcMVtcmIFm2mWRSRwOuO5PTtUTiVBnX2Hjaxl06W6mtbi3jhOwvNjaz/wBxeclvYdO+Kit/Eun6iq3kl2DDFMk9xAUZfJRc7SePmw+1jjgbfxPBaxfnU9SllC7IEYrDCOka/T1PU+pzV3wyba1OoT30TzWklo6NCpwZFyM/yxn3qHC5dz0uTxdpP2E3sV2kkRfy0Y/KHf0BbH/1u+KyrR9Oi1Nb+6u4p2O87o5d8SzHb90nqdpx26t06DynUb651CYSzlQEXbHFGNqRL2VVHAFaFjMx8MyG8b/RVnEscWOXcjaPfH9FNDhcFKx6Fq+qzXxa3sEC+YCEZVDPIR1C9vq3QeuSKn0bSbRprt9QCXbo6ojTjO1discA9yWbn2HpXlVzfy3MyvJIzsqhVA4CqOgAHAHtV7ZImnWl5KzAspUR7yPMOeCfbH9KhQ1uW56WPSLpvC+nX8DR2dklyXB3QRDeozycgcVmpp3hfVbOO41G18+VwSqLuCwrniNQMAbRgcd815417dq7OJmG7lsHG7Hb6Vs3F3c6X+88xgJxuhgOOM8kn0GSeKpRRFzZupPD2krPDpmmuxeBjJHLMxVwCCBgk8ZxVa98NWeozJd3VzdtdBQDIJdo4HQLjCj2FczaXN1PeeXdbHhkfDHaMnII5P41pvc39lZi0ecBgAF+X5go6En39KfKh3Y82yxxx2UbmZYroeSk2HG5hyTwOMAnHfFLc6HcHUDfy6lNNKSCwlRSDjsOmBx0qrBd5i8uGJFmUeYrAnMjjn5j7jIrY8NahPrfibSbG7tlhkkcSvAG3FY1G9i3HGQvT3oUUDkz07xC51DUPs8yjaYtsiYyASPmHP1NamhBbO1u7raMviCFfoMn8OlYiS/atQuLknOWJrfunTT9OhjON8cO7B7O/P8AhTZPkRHbGrSOVXuT0FZt3rFrCuQ+89gorHvr26vIiBJ8vdV4rAllnuHW0iVjPIdvA6DufwFYTnY2hC5lXF8l/eSXE2CxbrkH8vau5tl023tYj8jtsByMelEWm2lpaR29vEipGNvC84Hqe5J5qVobbbgLu9tteFVlzu9j04pIbLqGlGFnvZTFF0XZ168n+lcV4ku7Kx1NbaO7ST7MWO/IJLZz279K7lLeCTCtFGpH3W2ZIqnLpNmzsvkxs5JJzH1Oe9ZqWlmifZ3le5ykfilZ4UZXBzweaVvEC7eW5HpXTL4e091+a0hOeuIwP6VRn8O2SP8ALaxAE90FS1Dex0Jva5jnxR5QbByWHFV/7bLpvkkALDoa3JPDtk6gNZQ+xC4/lVO70XS7O3ae5tYhGBjoST7CqjyPowd11MS7uYo7eO6ZQ0T5wynoc1Ul8Qpt8uMkAdzXT2mjaRd2UckFqrwbmIVuME4B4/Cor/wvp99eRSTw7ESLYEQ7e5PQfWtVKle0kzKMZ2unc4ufWbcAma5APZQcmtjSbC/1tHFlYTMB1mYHaM+gq8ngbRIroTRW7kqd/wA0jHkc+tdGdYvtPsYlsJwTbzLlMBI8YO4H9Mk9zXTGrQT0TBwrtdDKk8LXGhaaby7YLNLKqBMgk4BPbgD/ABqjqUE2makl/bO0azASK6HGG9c/n/np2HiNn1Xw7ZXy+WGDMWCEkBunftxWDb6nay2gtb6PdatxkDLQuf6f0967Wo3sjOlKXLdmzo+trqdr5V0ipeqcsRhfM/2l7Z9QKv8AmyQjMcpZTwNw6Vx+oeHbuyhSaycXlkw8wNA+Sn17qQMfiO9VG1+8SNIxJtmXhvMQ5PB68+ox0rCfNHcr2MZ6wZ6ENUl2kfJ9QvNMn1WTaS8mAea4BNd1GZ3jBj3KhYbUYlunT8/0pkcWr3oMk5ZVVtv77K59to7VmpNieHs9Sz4l1o3UQihJdC2PYkfz5p+mWZs7YGYcp88gP97sv+feptP0Ax7b29kXK/cwPlT/AHB3Pv8A1qLUr4LO1rCowMqozyM4yT71vCLWrG7W5Yl3RQZ9U3Hnnk16zoMWLKe4P3mYIvHYYz+v8q8x8N2/ljeRzXrllD9m01YcDKqN316n9a66SPPxL1sM1T76n/Zp9iQ+mWx9Ex+RNM1T70efSjTP+QVEM9Gcf+PGug5C3jdbOB1zXmlwGXU52zu5H5EV6WozBIK841FnTWHDDC5549QP8/hQxomTAAx91qxtTTbKcitiPA+X+E9KztUlVfkkTcOxqRnZeFpxNoFscgsgKH2weP0xW6PlXcfwrkfBO3+zLhlJ5nxg/wC6P8a66T/VIaokN1LuNRA04GgB+6jcaZmjOTQA7caC1MzRmgB+6jPvTM0ZoAeGo3UzPvRnvQBJml3VHnilzxQA8NS57jg0wH3/ADpwPUdKQEsb7gDVpGyKz4jh2X8RVuJvegZM1RtUhqNqQEZFVr2ET2zoR1FWTTTyMUxHjnim3a3vIJwMcGJj7r0/Qj8qwLu3szm+1Kd5LVMbYMfLn8Oua9B8aaeXgnwOR+9X6r1/8dJ/KuNguobO2824kCIPU9a56itI1hqhsEF/rUeZlbT9NX7sQ4dx7/3RVvWvHNlpWmppWgRpEwXDMgwFPfHqfeuX1XxLNqm+3ty0Vv0yDgtXPtbBMJuyjHHPVSehFEYX3GzeguLa8026OoX8wvmysAzw3oDx6k1zbySxSFHV45EOCCCCprai0abWoYYLa1k823+UvHgKfc8dfxrcn8DaldRefqWoKZsBVcLub6N0zWuyJsVdMv8A7foeoTyagsWpvH5C/uxumA5AJxkk8j1/KuThu54Xjkjdop4mysi8MD9a7i48E3MojTT7iK2ktMDeQwZ5MAl8jp1qPWPCGoXVoLm4NouoHAkliJ8ub3YYG1vccH2oBHRfDjUIrqea4KrFNdHyp1XhWdRkMB2Jzz7mvSU3KvAHHTtXisGl6xpcWm/2XCHexmEt1iQKS5wSvPUYOPxr2bzVeKOdVOyUAjB55GR/WuHER15i0P8A3jN88aY9mz/SobqNF2ObbeUPXAPB/Hr2/Gop7qK2Vt0VzIv8W3JUDvnccYpZpIVtEMEwVHKgBMLwxAzjGRjOfwrAZaKqF+46j0H/ANakRo9x5lH+9u/rWDbmxlTyoJpLSR3eMMijG4fJxkcdBgjAJzg5JFa9la3NqZBLdvcK53DzF5B74OcY6cAADFDVhFvfGOPOH50VDIl4XJjngVOwaMkj8c0UrIZ4BdeHXvta1OfdHa2kVzJ5t1LwifMTgereijk/TmtbQLm3iXVdO0qCSOM6dMftEv8ArppQBhjj7oAzhR06nJNc9eeJR4j1GST5oUjZjDatwEXPJA9T1PfJrp/C1gttFc6zfh0t47ZikYOGlU8ZHfBzgHpk9eK9mKMnscbp2jy38b3EkiWlhCcS3Uv3VP8AdUdWbH8I/St+5ubeT4fXsGlJLb24u0ikZiPMlQrks3oSQOB2GKzdSuLjUzH5pCwxAiGCMbY4l9FXt9ep71uaVp8OneCNRvNWVzbXUkZgtw2wzMvK89cE9cc4BI7U7CtocHp/h2SeOS7vLhLTS4Th7txwT/dRerN7D8cV6EmvwabdeEYLLNroL27yMDyxY7kG7HoSCfcmuK1LUrjVHVrnYsca7YoI12xxL6Kvb+ddPcWVnYeDtBn1eJmaPzRDaBtplDtuG49QoGM455A47JAz0/Hr+YqNo0PVjVLQdT/tfRra8AUO67ZFA4DDg49v8a0G2YOQw+hrQgrskS/xM3sR/wDXqN52I2xjYvTC9fzpZDGP7xPvVZ5TyFQCgaFA7kgAdcmopJtuRGpJ/vEYpyQTTfMeF9W4AokljiwE/eP/AHscfhQJj4YjsDPnJ9+tXYhtUFupPAHp/n+tR2lu6r5twCc/dU8Z/wDrVoW8Rkk81xkKeMjgn0+lMlllUCNDETls73/w/wA+9eR/E2A2PjG2uogQ00KSjnjcGIOPwA/OvXolJdpDyx7nvXCfE+KGKXRrww+bdp5ohBPygjZyfXGeBSnsOO5wt/arp9/K04zvO+GPP3gerN6DOeO+PSiwl86/USsWEqmI44GCMAfSm+KNPW68T3FxI8oikRGhXd92PaMD+dXtF0qPTdTtkuGLO0qqImP+rVupbPfB4X86zvqaGa9kLRPNuY97/wAEPOM+rHsPbqfp1bGZbyw1SKQlpDGsy9h8nYD6GtCW+cX13HdqJA0rBwe3JHFaej6fHYX0ruu+58l2igYdABu+b0JwPwzVCOQtov7PhEmpAGSQZhtj94j+8/oPbqa05JJL7Q0nMgaWCZg3YBWAx+HGKzbhDLK80vzO5yzHqTW9pNqdL0XUrq4Tc/lrIkDDlcHCMR/vHP0WlYDPW2FrGLi6UFyMx254J/2m9B6Dv9Kk1iVrv7FfZz5tuq/RlJDcfXmsXde3Uju84kd2y7PnJ+tdLbwPZeFjcXESyXKTZtoyOASO/wCALY+lIZUt0+wIk1y26UkGOP0/2j6ewpdZfdrU7SOSGbch7bSOP04/Csw3F5IC0lq7s2WZywyfetu5C2mi2OpXMO67KiOOIjOAOQx9cDH50lqMbp0SWl7AblvnkYBU7gHufSt/4d6dLFq2v69PnzFi8lCf+ekjZOPoEI/GuJF40sjTNHKXJ3biuea9i0aD7J4TsUZNk18xu5R9cBf0UH8aaegmjR0iAzXVvbgf62QA/Tv+ma3/ABFYrOLiWCcu6HdJGeeOmR7VB4Xtt2oyXBHy28RI9ieB+maw7/Ubm31eaZXKsHOPQgfzHFJ7DW5TWym3F40Y46jFV9ChWfxbqe7Bit42jzn+Ivx+imtieSeKya8hAjLRmTaBkLxnp3FefabrEtlc3M91LGskoJkcHhmBONuPXOfpXHiXaGiOqhHmkenGRFIRWARegJ6/5yKVY4V3FQmRz6V5zFr73WJRcBQe28ZrSt9ac7tkgwBnJIya8W+ux6jpW6nZRpl+i7s8gY4+tRyyIjYGFOMrzXMxX91JEZBG/l9Q+OD9DVN/EERGRcKWHY9qV1sJLXc6tiY2JDDaxHHfNLuik4fCnbkD8a5yHX48BvtCluQRtH+NO/tu3bktnPYChtbDUGdB5Y3Dyl+U9SexzVW/sIbyylt3AYMD05I54xWV/b8Kco4XPHFVrjV7q+Ig03e7bwSyp2HTJ6D8aumk2TNNIu6bZR2FtFa7XZSSwZh16n+tbS28JjjnWFhGeJMHODkcHtjj6HHauZGqXFjPHDqJVXCh+OepOfxNW5Nd3xhRIwGCMA+9W5KDd9wgnJaGxPHbRSN5Tr5QJPK5IPXGP8PSuF8WyCJbaKILse58yQg44IJAx9VPX2q/Nf8Anygebtzn75PH0rn9algvZbWNJvMeMsGCHIycYz9Ofzq4S9pNJItx5Y6s6nRbpbzTzZYPKgLz6Vz97BJaXTOn+66MOGHoa1tFgkijjVQS5PYc11mr+CZprOO4tpA91jMiNwG9vrXpODaujhhWUJWZwkF/FYusllcS2rOq7klb5d3fB6EH0OPqa0JtRExBuLG3njJ++Plz79xTh4de6uGsriIW/Ut52VC/Q9/wrbg0CXwxpCnRbeO+1eTkyyY3InP3UP8ATmolN/Ca80d0YMyJYrFNJobw7zhDKQp49toPp+VVrjWGhwvlQwsOcdSB+PtXqmrS31vpc0kFp9ruYgMKByf9rA649BXCSWlx4s06W31Kz+y6lBlreYxlQ655B/l+RrD2jQQmpayOWuPEFxdSGO2yZGGGlbn8RTrGxIPmyZJzyT3NXrfw/cWMeXtJVBOGkdcD862dP0yS9uIrWBcsTknso9a3jeRU6kV8J0HhHTzLMkhX5Yvnb69h+dd6nMUn0qtpmlx6ZpoiQcnkk9TVleIpfpXZBWPJqy5ncr6p0jo0wf8AErT/AK6Sf+hGjUhmOI98U3S23aeV/uSuP1z/AFrUyLsfKSD2rz/XHQ6yS2AZOQM9ugz+X616BCfv59K4TxBAi6kGBB3HH0xx/P8AnQxorxfKNjdD901T1JYmTEh2sOjVbhzt2P1HQ1X1GETwckBwO/epGXfA7SLLeoJAYQFOPfnn8q7pubZT71514Lle31ae2KfLLHkn0Knj+Z/OvRF5tW9qolkQanCoxTxTAbNOkC7nPHpTYpnlGRHgHuapSD7Rqyxt9xF3YrTHA9KQBlvQUnzf7NLQelACfMPSjJPp+VLSUAHzeo/Kj5vX9KO1FAEsbJ0ccetSSQYXeh3L/Kq9WLeTa2wnKt2pAQ07PzE9MnOKSVdkpA9aQHA74oAUnEqn14qwjYaqsnKHH1qZGyAfWgC6DkU00RnIoNAEZppp5ptAGF4jt91r5oXO3kj1HcV83eIoriz1+7tp5nkjhb9ypPBB5B/I19TXkIntXQjORXz98StO+yXltelDgk28h9xyv6HH/AaUlfUqLscXa7ogMk7TyT1x/wDWq/hlRpmxtjG7AOcntVFb61jYqxKkdRitE3FvLYw2z4V5TviJ4yM8f1xUmhreEtZl0m/DXDM1vONshAyR6HFemXc4fTDMgDxsm5SvIYdePrXktvNaDdGZV3LwVbgg+legaZNKvhNokQNeGOQ20bN/rOO3vznHtR5E+YuhanPPpsF7cwv+/XJZehwSB+OBj3+vW7c3kc0DQruUNk7m/h75/Crmh28KeF7KOBkdfIXr3PcH0Oc1nXTbbO9RUdpY1LxxjndgZKj8qTstA8yjputrfWqzt8izFlUjkHaxAP4gDI9vy7fwzcC80l7YSBniYoPYHlT+eR+FcJ4Ys4/+EYtImVHWRCykDOCSTgH15/StzwvI9hrjwFuJl2/Nx83UH/PrWNaN4Di9Tq0dmHySLlThwwyQfQ46VNJLKImdIg4AyVDcn2HFQXaIl/jaGjmTfg4J3DqMH8P1pY3RmCyCQHHAG7j8uK4E7osjF3E1wV8tgX+XY7LknGeBnHr+P0q4hgijLGNYQPYD+VZ2qabZ3KRvMwRo9xQ+YFHPLZ9RxkjvirNvDKbBQJd8mMq7KWxg5XPILcYBPGfam+4iwZYweVmz/uNRVaODUVQA3kSn0SDj8MsSPpRRYZ81OuneF7lnkWPUNVVyUtycw23PG/H32/2RwOc5rovCGuXXiFtaiuzJLfyWDEkDPm4I24HY5I4HHpXA6ZpF9rFyY7Vd7A7pZZGwkS/3nY9B/nmu70u6s/D/AIP1+XQ7nz72HyUlvduFZnJX5B6KDwT1JJ9K9lGLZdEdnpPNysN5qHaDIaKH/fI4Zv8AZHHqT0q5PJcat4Pk81pLm5OpBumSdyYAAHvxgVw3h28vtTuV01bdrhlXIlGB5Sju5PG33NehPdwaP4Pii06dJ3vJnSS6jPAKgbth9OdoPpn1poTOeksbPQ8vcxx3upL922zuigPrIR99v9kcep7UeKGutVt9Autrzzz2piwi5LurnOAO5z0pkNjLeTCG2j3yEZwOw7knsPc1u69MNE0nTNLspAZ2gMr3Sddrk8IeoBPPrgD3pDLXgVhphm0W5uka8Obgwx8iHGAVLdC3TgdMda7NiepAPvXkHhyO4g8SWMlnHvkWT5x22HhifQYJ5r2Ep1GcEVcdiJblKR0H/LP8jUYO44ROewAyTV0rPjhWIP8As5qSKLU5flhjl2454wPrzVWJuUTptzcFTJmJByd5xn8KnhhgtPmiTdL/AM9W7fQVY+wzsTvkwSeTwT/hUiW0MZH3nb1Y/wCf0pDuRxxvM+58nPbuf8Kt8khB0HQLUTTj7kQye7AcCpITjvz60xFuNQoA6kdfrXmnxKumn1yzsYss0EW4heu9z9364C/nXpSSIsbyyHbGg3EnsB3rxvWtXhTVLm4tpfO1C5cl7oH5YgeAkX0Hy78c44xmom9CoLUua2iaRa6c8hRtTNuqBjg+UijGQPXdwD7E1znzlx5LSSXDn6ksTx9Tmtm/V9V0LQZI1eWeNXtGwMksGJUf98nP41U3R6TnyXWfUehmBykA9F/vN79B29ayNUaPilINE1Rr2NFe/uAJlXGUtxjAIB6sSDjPSsXQNTP9s20xZ2d5gj5OWbccHn1Oan8VObq9t7mJd5vLeJvlXqwAUqB9RVS2EOg3Uck/7y+yCIu0A7lvVsdB2+vSrk2N+80ZNMeWaCASXC/MiEgrCOzEd2xggduDz2ydLLTalNDOxb7ZG8Ts3JzjIP6Vc1LVZ9O8T3rtJ5kUsu4c5DIcYx9BwPpWtb21q+rQXMcDeZlRKvTyt3c++O351aEzjjaLox824QPfYyluekY7M/qT2X86k02/bUbS/tppGMxxcDd6rw36H9KTUhK1/cPcf60yMW9M5q5oFklrqqT3CgTSRt5UXcgDOT6Zxj8aVgIAVsEBlG6eQZjhbsPVvT6U97qS70jdL+8kglOc9lf/AOuKxI9Qkl1CWS9yGkJLH0JOa6HSbcRx3FxOFdTBvSI/xqOcn8cfrU26FXH6LotzrGqQW8cX72Y/KgHCJ3dvYdfevVdQ2f2j5MIxDbqIYx6BRgVmfC+ye10LU9YuDumnfylY/wB1Rk4PuSP++algvEuL2+hw3mwFGdiODvBIx+H86LaAtzq9OY2Pha5u+jzMdp9hwP1zXNpZNqkiySkiJeCR1b2FdPqbpaaTYaaRkuqhh6k8n9f51TjRURUQYUDAApMcTM8RXqaZ4fvJxhcRFIwP7x4H+favFHuhDawq4OGLgMemQa9V12ybxLeR2zyNHpds2WK/enk6ceijkZ7847GrA8P6SbSO1bTrd4YgdgkQMVz1IJ5z75rKVPmNoVFA8htbaGa6Tz0Lxk5ZQcV0beG9KMDSiFkUrxhjxXolr4T8OTc/2WiSDqEmkA+oG6rw8MaLDGQtl8vo0rsPyJrjqYOpJ3UjpWLglaxi6Xc/Y9KtrOO38y3hhRGctz90c4715pr2mj/hJ7g2MAk86T/VhN24gDj6cjpXt0Om29rGwjjXBHTA4pLW0FpGygj5jk4GKqOEkranIqlnc8YbwPqcyxtb2k8blRvyfLUe+GI/SpIfhzq7Nm51WSBQc4g3NkfUkYP4GvZ8Ek+lLs3Aq4yD1zW6w6XUv27tY8/0jwTZwoZHM86xnmS7lLdf9nhT+VWoHMS5jCDA+UAYwPSu0kVPs7JtG08YxXP6lplvbLviIznkZ71nOko6ouFVy0Z5/wCO9Pu9S16xntZHjja22NhiANrnn/x6s1vC9yIw39oS+/zHH86764sDIIJJEYomQOeDn/8AVVO+KoBGmMtwPxrzMTXnGfKj0cPTi43OAudMFpYSO8u+TYwPJyBuXB/NjWh4P0xtRvLSKLAdpNjE9MYJ/Pj9aNYtZZr82Nuyl5SEBb5VK5LEk9gNgJr0f4YaTZqokti0qo5czOuN2BjIHYEnjPv613YZOcbvqY4mXJLTodnpvhuw0p42jRnlQY8xz/SttR+VRSyLFlnPFYt1rYDFYzXe3GC1PK1kzfeK3lGJERvqKRbCyaZZPs8ZcEYbbyMdOa5+G9llOc1q28zcfMaydSL1L5JIaq+ZfzgHHlopIHpkj+lWQ1pkq8nzDqMgVmwSTRa2zn5UljwP9og//XNOu7C3uZ2d3KsU28fwnsa4faJR5om3K9mXJhazRGNdu0jkY7VRjgj0pHmtbW3VWOWYDaAM8k47CsZpJLISJIxEs6+UihSVAJ5bPXtWlpF2Lu2uLeReEG088EdP1rGni7ztsVOlZaO51Gd9urZU7gDlTkfhUOMJL/u1xvh29uoLiGMSMbSVvLKn+FiOOO3OK7QD5XzzkV61Kop6o5JRcdynqXEERqLSjmC59BNj9BU2oj/RouKr6P8A8e92O/2j/wBkWtzM0IfvsPUVw/iqBjqETnjgj9cj/PvXbwf63GO1cX4ueRbqMKM5PGe2B/8AXz+AoAoRNvXB4cVDqKO9sWTqOoqSE7wJF+8BzSXjFYC61JRS8J3Yt/ECpKxxKhiBPZiQR/LH416dCcwOK8q0OZJPEtmZVUDeeffBx+uK9Utedw9qoTIR1pwNM6MadkUxFJ/3esxk8B4yK0Aazr47Lu0k9H2/nWhmgB2eaKbnNLSAWjNJRnmgBaTNGaBQAoNKDgg03FLQBYuQCVb1HrUA45qw3z2gP92qynHT8aQD+SOR+IohPy7fQ4pBz0xk0ifLMR/eFAF6JqlNVozzVjPFADTTDTzTSKAGkZBFecfELQjqWmXkCrzKhZOP415H5jI/GvSO9ZWp24vGREGCrbs+/wDnFAHy1HpCyxpHPLv2n5HC4YDqVPqD+lO1DQdRvZ/tMcluI2ACKxPygduBXrHiH4YTfaJbjTblE3sWFvICAPUKwz+AI/GuBV7jS559PvYZA8bkBW+8D6f560rGidyhY+Gr/U5EtbmWKO6YYguEckPj+F+B2zg11Gq6Jrk12tvp1mwsbJBDFI1wELEdWHvnvWVHqqRPFNAGDwsHww9K9D0zxDp927QwXsc7uodwAVJ4AJwf1A+v0lpMpNrU46TTtfuLdmntZ7a+j+ZZI3Xy7r6kHCye/APt2i1abVraG1srWG7kngG+5ljUsRKecevHavRxqenPZzpBe28/yHIikVivvx6VFaXiG1VpPLZZlVyY2DBWxjnHQ4x+X5JxQKTPM49Y1KUGK2aax1JMyNbOhRLj1aMHo3qvfqO9WpvEl/p1rp17dSM17JKJtrjBRFPAI7E16RPEi2kyzIDCy8Ej16VhSR2cjh9QghBceUs0yj74OAVPoeR+VTJdAjLyO/M8V5p0MobMLFZlfIGAw4IP400xTQuvzg47svJH4VR8NyltKazcBWgYp/wE8r/n2rUZI5Y1Z0+ZehK8/pmvNlHkk0VuZ2p2U1+geFLfzkR1RpeQCcFeMdQ6ofwNV9Kj1a0jS0u/IuvKAR2HVhk/N/vEHpzjaPXjUXEeXDMvqXJ/rQpImjlEpdHyvOMfhjqen4CnfSwCmCEE/wCgFvdVTH6mirH73PDJ/wB8H/GikB8nX+uy31ubOJIrHTYzuS0hGAzerHq7YA5PpXTeGtMjHgTW7rU5GttPuWiKuoy7iNiTtB4yT8o9wfSsM22keH333rRapqA+7aRNmCI/9NHH3j/sjj1Jrop7i68QeBbF5y0kp1NlEUS4AGzhVUdB0wK9i9lcx30Mi8vJG0n7FZ232DTpGG2FG3PK3XdI3Vj+g7Cum0ywKfD22a9mW3to71nEpXczIRjCL3JP06E1Ra1sdKIOpkXF0gO2wifhD/01cdP90c+uKteKbua907QHYgRvakrFGMIG3Y4H0wPwqIOTV5Fz5dkV5dbRrc2ljG1tZH7yk5kmx3kbv9BwPTvW5qFgL/TdJvriVba2W0ERkYZJIJwFX+Ikc+nqRXNrp9tpqibWGcScFLCM4kb/AK6H+Ae33vpWv4y1Rxq9tExC2yWsZhjUYVNwBP6j9BVxd9yGipd32y3a0sIzbWn8fP7ybHQuf6DgfrXq8My3KM4VuxyR6gH+teaWVjCklvNqp8tXZdlrj95ICerD+Ffryew71tXniO40/wAYTick2cf+j+Wv8Kg5DY9e/wClaJktXOzWOUNuSR1+hqfe23buYn/e/wDrVBaziSFZYpN8UgDIw5BB9Kvx3JWEx/IATnO3k1ZmNBKIPMyPbGT+vFRuIwnmfKB0bcc4/OiWSTaZCIyoGMsx4ohzJbsZBuDcfMMAY9P/ANVAEUk6hFQK2w8hiMA/SrNvA7JvC/KTgZ71UkVAwAUBRyc9BXHeIfiD9maTT9HZXIGGvFbIB7hBjn69P0NS2kNJvYt+N9f36TqVhZPnyHjiuGU/3icr+gH5+lecRwNcsI4YzJMeg9B9ew960dLWS4iv7ZztR4wXkboGzkE/hk1QluRJEYLMGKBjhyfvS+7eg/2elYSd9TZK2hvvMNO8KLbwsGaaVleUdOgLbfrwPcA+tcq7uX8pFJydqqvVjWxYxz3tjcWqrkxyJIhY/KOCGOewwB+VU5Jlg3C0I3sObg8HHoo7D36mgZrXsx0jw1pqBgb8h0jlxnylLEvg9M5IXPoDXNhsrvwrODgg960NzajocUaIXlt5iqrj+FvT8QaS3RLFwo2yXZ6uOVi+h7n36CmwNXVdtjbWNyyA6iYERQQMRKo+9j+9ngH2NYtlqlzp9158bM2TlgTksfer1873lhZyBXdgTbN/ESc5UD14NRtEmmyssij7Wo4iP/LL3b1b27U29RJHQ3dmJmSQRxC5YGVQ3OwH2785x9K5d1uLPUFnlDGZJA+T/FzWnf8A2hI9P1USFRcQhVbdnJT5WyPrWw8KvYwi+VI9RYeYlueWUdmb0+nX6VV7ktHL6jpkNjqElzcKJd53wQduv3m9s9u9Uba+uY9TEs7GQSHa/wBCMcV0Xiy0EOpxzKWMVxbpIm7txgj8/wCdTeD/AA2NS8Qad9rAWKWUOkTDJkVfmJx2XAP1oYHq1rZjRfB2m6bjbL5QLr6M3zN+RJrn/CFv9vX7SwP/ABMr1pfm7RBtqj6bVz+NanjzUntbG5kiBMyx7IgO8jkKn/jxFaPhTT47SaKGMfurG2CKffG0fpmpe41oi/qUK3niS1Kt8sTZYehHI/kKy9YJsllh5BLbVx12+v5VoaQry6teTMD8vA/E/wCA/WqesSJfX8pDgpF+7HoR3P55/IUWGjMiAVVx0xgAVNuqtaHcGT+793PpU0pEaF2O1R1NK40SLcLA4bzFRh/eOM1tQypcQB0PXg89K5NyrxNIlsJTu/eqx+cg9wf89K0dMhNtdB4ZXCEfPG3PH+NJMtwSRuEDBzimHp0+lNiBS4uISvO/epxjINO7fSqIasRMDmnA4zmkJx96oLy4eCAMqrndglu3B/w/WkCV3Yp6jqYtyYowS9ZEdle38u+MxhOrNKT+WKsXcZvuXRnZfvGMnn6bR/OtKxsjAmxogkRQrtOM8464+n61zuLlLXY6klTjfqUrycpYy20sJSSMAjHfkf0zXF3+5pyNxB4HToOK7zUrY/2W25t0sKkq44OB6/hXBXEy+dPKxwu0gn+ZrzcfF+1j6Hfg5JxdilctBJBq9yse64WOKBSTnaZWYn8cIv6+teveBdLXS/C8LsuHmUOfZccf4/jXk3hKwk127uISCPtF7A78ZARVk/xUfiK91v3js7EoMLGibQPQCvRw0OWC8jhxc7ysupzWvakxl8iM896yLZGL5bk+9NEwuruR2b5nPANW1Tbg964a9fmkVTp8sTStEwBmtiDoKx7Etc8J24Ynsa1kIijaRj+7XksfQU6dVPQUolfVB51rtUFJIWDKwP51m6pN5sMSsXkGB5ojbHJ7H2xVsSvdQzPMCsUhyijqF71lxQwqEnRyAOTngn6/pXHOpFq6W5pGLi7X2I3vLqQgpEGjXhY2OCAPQ9607K5sPsktxaoY0mYKwOeDjnH/ANasGC7nnmjs2kbYWyT1IA9PyrRiRILRUUkxqGkBYdR2rGjNOd1sVUVlbqTwx29iVjjuDJHFdKwY9SqsPTr0rfur+SeX7HYYMrglnbICr3NcZp52M15fSGNCdscPAL+9dZoSAS3bnazglNw6AZ4x9ep/CvQwU5PRaI5asbLUfdabbw2UbOiySsctIRgk47Y6D2pdK2qlxGo6uDjPtVq/H+gxnOelU9GOXveOcr+WK9lRS2OO5pQgCTHrmuV8XbYwhON27gn8P8K6mHiUfWub8XweZGHPIVs4pgc7DhcSJ91uoqachYj3Ujmq9t+6wh5QjirMqqYmQ9CODUlHOCKOTUoFhkMbPKqg+hJ6165an95j2rx66iktbkSKfunKsOxr1jS52uILed12NJGGK+hI6VQmTOMSMPekAp0/EzU0daBFLVhi1SQdUcGrwbcoPqM1W1BN9hKPbNPs38yzhb1QUwJ+lGaTNLSAKKMUUALmlB4pKKAFpaSigCzb/NG6fjVboSDU1s2JRnoeKZKAsrDtn1pANFDnBV/Q0oHHBzSMMqRQBYU4Iq0pytUYm3Ipq3EcigB5phqQ4phFACDHOaaFjXkLk+ppabQBDeJ5sDDuORXinxS0zyry21JF+WceXJ7MvQ/l/KvcCM1xHjbSRqGhXsAXMkY8+P6rz/LI/GmNOzPFGjH9m+bxuLfvMd/es3zJoJo54JikiNujkTgg0+a7aGbKA7V4AA4IpsaRXGJLdTgkBoscqT6e1QaXO3t40vPCGq6zbQpFqUsWy58sYUgH5mA7bhgmuDinezljngkaOVTuR16g11uq6w/hWSx0uyZN9uha7VuVlLDlG9R/9b0rI1LT4J7RtY0cb7Ef6+3Jy1sT2Pqvof8AIGhI6Xw8kOqrPr8G5Ly2ifzLRD8jy4yrgdgRnj1rjTfamysg1C4aJjlomkJU/Velb+kXr+FfC8eoRgNd38waONuhiX1Hvz+YrM1OxhmtW1fR9xsmbM0B5e1Y9j/s+hoaBM7r4dau02ovF9rkYSx+XJFKxby2GSpU+hGRzzn8z6Ypfe33SvYYwa8E8IFrE32uAlIrRFH+85YEAfl+te6iaO5t4ruHLRMgdNvoQD/h+tcOJjaSZadyZ/OcBQxjHXchBP0+YVS1eDzrXam5JE/eKTL5atjruwc4/wA55qYXEbIZIy8nGQFfIJ9OuKrC4uTdMnlSiR1G2dkGzPPykY+UcdfU9Kwj5DZmRXd8sS7rrTVY/My/ZXcKTyQG3DIGeDjpiirQ8lchba2jAJG14SSOfXA/TiitBWR816XoV3qUbyxqlvYxnEt3OdsUf49z7DJrvNVvYPDvhzTNG0iRitzCLp7r7ruGz07jOOe+MD1r0hhazDa8cbezoCKgm0vSrzY09lZy7BtUtEpwPQe1eo4GPMeNafptzfSNHaR5C/NLK5wkY7szHgCuh8Vasvh6203SdNbdeW8AZrwjlFbnCZ6E5znqBxnrXoE/hzRbqw+wyWaC1zuMUbMik+pCkc1S1LwVoup3CzXEExkSNY1YTEfKowKFFoOZM8k02G61OZYI42luJWJ5/Uk+nvXZ+KLuDSb+0igRJ9Tt7VIXmdcrDgcFV/vnOcnOOO9dMfBdkmnCytLi5s4T/rPJK7pf99iMke2ce1V9a8DJrGqz3/8AaDQyTEEp5W4cAD19qFFoOa+55xate3upRrG0k11PIOWOSzHuT+ua7PxRcWGneIp5GRLm9kCssb8xw8AZYfxMcZx0GR1rXs/B0uktb/2bc26kOrXE0kZMsqg5KA9FU+gHPc1jaz4G1a91a7u4JLVkmlaRQZCCATnnihJhdFbRtc1Ia3C4upZWuJlWVG+YOM46duOmOlddfeLU0m5a21GD94GJHkfNhP4SwPAJHbJ/CsrRvDl9oGpWTrY/bWLj7RcF1Cxr3CLnJ+p/Ac1kX+h6zcX91JNY3Em+ViH67hng8e1NNoGkzqLfx5oxmjyt4zE4UiJcKfxNU9S+IiQRyeRaSK5yEMrDcffbzge5P4GqmgaMmj6zbG8t5pp3zysZ8qAbT1bGGY9OOBk81yOoi4uL2e4u0YSyOWY7cDPoPb0p8zYuVFm38Qarq+rG3urqd4JonjW33ErnGc+546mqMVo8NrHc3CmKDOBIV5cjsvr/AEro/CukR2Gu28t+4ju2R2gtj9/AQksw/h4yADzz7Vyur6hc6pqUl9Mchz8seeI17KPYCoepSNfTZJdTW9trZdo+zs4TOM4Izk9zWba6fdagzGFkhtYRunuZTiOMe57n0A5Nbvgmy3alHeyloYNkmwEcy/Kd20dwBnn1xWNql+b5xBGohsI2PkWw+6o7Z9W9ScmouVY1dPEU2i6zFYzE/Z4VcOy4aZc/OcdhgCsWz0+e+uQLaJpZm7Zwqj1J7AetdH4H097jUb11IjsvszRXDv8AdwcHGfwz+HvWRd6jGUew03/R9OViGJ+/cY6M57+uOgzTewdTZgisrPwjq/2J1uryAxxzXC52Yc4IT1AwRk9eTXMRJNPcxhFaRm+VFTksT2AFb/g+yn1CXU9OQgw3Vmy7uio+RtJ/Nv1qlLex6eHsdEfLjKS37fecdCI/7qn8zxzRuJHSQA+H/BN20bI2oG42MUIb7M7Ljr6heMjoT7Vw4TG3lnYncz9SfrXTeGITfWOs6VtZvOhWZFHUujcAfXd+lVzLa6C7i32T6kDhpesduR2T+83+10Hb1oeoI2Yl/sPwVHPcRZvPtWbVJFz5EjDOSPXaC2D0JFcc87STtcyTu9wWyXzlifc1t6XNNqOgavaPIXnQ/bU3EksRw3Pc4xVKO1i0ZBLfpHLd4ylmeiZ/ik9/9n8/ShsEb5kWTw3YXepxo8sWVgjf7rliSNw7jAzjvXSfDa0e41vU9YuJWlkjhEYLDoWOePTAXH41w6TTa14c1IXEnmXdtOt4PdcbTgegA/Wu6+G11LH4e1NJoiuWWZJDxuB+X8uOD9apMTRNraf2n4g02EsPLjuDdSDudgOz8Nx/Suu0vNvo91cjhppNq+4A/wASa5m38kzfaJPluREY8diCQTz+FdHfB4dMtLCIhZfLDNz0zkn9SaBsry6sLeI21uczy5DsP4BjH59fzrOZR5JjXgnr7VZtdICspeTGO461pRaVAByGb/eNAGLbW+xzK3Eajk1SuRLe3CxxLujPQD/P6+n69e9jE9u0IUKp54HQ1DBpyW6bVAz0YgY49qlps0hOMVfqZ1jpSqvzD5mxux0/D25NaVzapDZoI1AYPknHJ4I/rUqlUzjAzwO1LKxcEHjj8DTsQ227kcEH2uPZuImC5VgPTt/n3qBW8zrjcDgj0NWrRlimDMQqockk9PT/AA/Gsx7yCO4wJoyCdowRzntSuUk2WGQ4yTx3qMjIKkKwPtU2QVDDJDUw9WBFMkaeFwOAKN+SMnmgkYxj3pMjqAAMUgKerFhpd0wXcRC/A4yMGvI9WutsKQbvvcuR6D/E/wAq9lkRZoXjbJDAgj1Bryy90bVbWw0q4gjkMd3kzRbTtJLlQG9toH0z2zXJXpc04yfQ7sLU5YSj3Oy+Eum4sZ9RdAN8h2N3wBgfru/IV1Hiu6IiEAPLdareHdJuoNGsYw0SWcLbvlGCxU4GR+A/n3qpqDtqWsrHkKBn8P8AOP1olUcab0MZJSqXuYsluWZCM5B4Iq1DdEwLv3FgdpIGSauyWSiMusgREcqxf+HHQ/iciqkLxXPmR27Kru3lvlhwQe1eBVjJVOdHoqtB0+R7nRW8lotgBbyID2Ukbj74p8tw06uJUWCyi5IJyz455x2rEjt4LGRUVWjjzl5Ccs3tVbVfE1kltcYwUjQ7gR8oGMY/pWtB8sG5dfxOeW+hq3OoxOokWfbuwfL6YX6fgayJ7v7TYSyRkFixTA7Hj+hz+FcTJry6tOljHBNG0hwH3A4IB7d66WRv7K0FYruQrczyZ34zgeh/Ln61lUc+b1IpzUtOpZ0sF9Vgt8M20FnfH8OD1/l+NaMmopcT6p5LBngtyVXsDg4z+VZcrSx6FIlowS8uTtaRjjao64/z3qnocLWVpqol5dlWLd/e3cZ/WqprlsbNc12xGuZJZLaeUgTFuAO2D1HtmvUNEtTa6ZHGy4dl3v8AU8//AFq86023F34ts4h/q48YB9F5/XBr1KLv9DXp5bSteTOXFS2RXvedOQ+mKoaMNt3fe6IR+uf6Vfuv+QcPqKoaSf8ATbgd/KH8/wD61eycJpQn98v1rn/GLMtsdpxk1vRZ81frWL4yH+gk/SgDk7NtyeXJ94VacFoyv8QHFVYhuAZTzVvcTHu7ioKOVv2kE5Via9U0a7S8sbW5Q8Og/A9CPzzXmmqSoz7WXmu98LKkegWflnIKljn13HP61QmbtyP3v1FRA1NdDlT7VAKBDiAylSOGGKqWf+jk2knGCTGfUVbHApJI0lUB1z70APxigVEqSIeJMj/aFOxJ/eX8qAH0UzEn94flQQ/979KAH0tMAb+/+lG1sffNADxS1HtP980u3n7xoAmjOGBPakY73btkcE+tMFL14oAUdcEYNO6jOcj36im9CVJ6dO9OHtj86QCQnBZPQ5q3E3NUx8sw9xirKH5gaALVNNKORQaAIzTTTzUUibxgk0AMknjjHzMKzL50mZWAGMc1fltYnhZSucivLPHQvYtBuoIZpFWCZXYKSMxnI/Q4/OmB57rFnHa6xeQ27B4kmZUK9CMmq1lmG+imjO10brUcLgZ3HOeqnv8A/XqwqGKKR+vmcK2O1K5qTeKbQXl6NajQNbXyhgw6LIBhlPocjNUdEnk0vV7eaDJ3sI5I16SITgqR3/xxV2w1N7NJrWeJJ7KYfvLdzxn+8p7N7/4DGr4e022jvpdV5eys4jON/Lbh0Uj1H+FCJD4gaZk6fcQLttY4zAFT7sbL246cfyrlNOmutHu1u7OUg4w8bjKSKeqsO4NbFtrM8NzdtdR/arK7YtPbseG91PZh2NE/h95p7X+zZjcafdyiOObHzRkn7rjsRQNG34k0+CLwLbz6VH5NrcTrNMmc43DI/AHA/Ku1+GGpm/8ACiW8rbpbBjGST1U8r+nH4VwmqeIDpusS2VuizaXDEtrNasfllA6/Qjsa3Ph9Jb6b4gMlhMZtIv12At9+GQchXHbvz3/nzYmHNBlR0Z1V6k6apMEbChv4cnk/Tnp7fjWjDdSRyeW75IbG0EMcfpj9agu4/wDiYz/LJGzOfmyCOOOAT/SlTzFzslfb3Loyj88AV4ii+a6Z0uV1Zl83a95OfYk/+y0VkPLbByGntC2ef3gora8+5FkcNH411YfLJqyMPSeA1Ovji/wwMekynsSirn9M1oReNdEuhh5omH/TQD+tKdY8MTHMkdi590WvoTj+RVXxnM2BNpFi/r5Nxj9AatJ4vtH4fRblfeKQn+ppDD4Tu1wLe2Gf+ebEfyNInhzw1KxMbMueRtmI/nQg07FhPFWjAYkg1KI+4B/pVhPEugP/AMxKaP8A66Q//XFUf+ER08/NDqd5GD6TAioX8HA58nW5eP8AnpGG/rTuw0NyLV9IkA8rWrYk9RICv+NXEngkGYb+wkz2WUj+Yrj5PBd8oJW/tZO/7yDFU28I6qOBb6bJ7q7D/CldhZHoYjmfGBE3H8Myn+tHk3GQywMwBx8vP6ivOj4d1q3OF09vrDd/4mmtaa3bDIt9XQg5yj7xRcOXzPRnEqqMwyr7lSKiJBXB5PuK86XXNds8lb3UYjnJ823yPxqePxzrSjDarDJjqJYWpXHY7swW2RKYovNH8RQbvzrOk8PaLOxLadaZPPyxAfyrEi8b6icGT+yJsevyn9RVj/hM5nJMukWkh9YrgA/oRS0DU1o/D2mpqK6gsD/akQxq/mtgKQQQBnAGCaym+H+isAFFygHYS5H6ipk8YWrf63R72MD/AJ5tkf1qZfGWiH77X0P+8mR/KhJBdk0PhxYLhXiu3SzWJ4RZqgEe1hg9OSe+Tk1yr/DJyyquqqy55Jhwcd+9dZF4n0CU8aqF9pExV2PU9MlYGLVbVvq2KdkK7Oaj8L6lYubSwa1t9NdDHIQ5Mz5/iJx164AwBk1zD+CteQKot4ckgZWUYHv616okqyD5Li3kz/dkFOAcMf3YY/7Lg0ciHzs4zRtJudHlubSC1mMkts4F8y8ebjKhR2Uc8nqTXCPpN+uIzp14WJ6GFhz27V7eWkHWFx/wGmNLzyGH1WjkFznnnhm3i0TULm3eSOXW5LZ3SJTlYyo3CPPcnGTjpiuJmleQNKXLSSks7HqSe5r3cmFjk7M+uKz5NM06VlLWVqzDkExLkGk4DUjhPClktnLJcXwHmTWr+XasfmlQYLEr2BwAM9ea6zwEJ59Cvb+5YmW+ugvPQIgzge2XI/CpJtE01Lz+0FtkW65/egnJyMfyrfsNPSw0OwtLYBF8lnUH1Zif60rWQ07szLmLaOKRLu5t7vMrmVgADuOeMcc1Zkfgo6ESIeVqtdBWdJkOQ4/KgZ0VleLcRhwpXsc1qQspHWuW0y42HymIA7Gt6F6YjR4ALE4A5JNMZgCCOc1Rv5iLEor7S5xn2HP+FZseoW0WIC7pIpI3pwDj2PBqXKzsbQouUeZGnMjbgVHHpTQxz83U8c1CLvfv23UbLGCW2AbsjsQaqfbJApeQLjpuAKkE+oNF0L2bQ3U72ODUIIySUA/eAdif8M1BJY27DoxGQ2d55wOKxbi4NzfyMGzGCFDe46/qa1kfy7UNIfkQbv61ne7L1Ssi5p14oZoHwEEjKnB4A6Voyp1I5zXL2U4ka2SRpFEjqd235SCf8K7J4COI0/4COn4f4VUWTUWpnN1wR9KhmkWG3kduijNWplwN3YVj6wJH02Xy85GCwHpTexmtyFta/fwmLBiYcg9RWeuoalqzG1haKPT45pAr9WIDkEfmPas27n+x6dJJEuSqrtJHQsQB+WRUfhRp5bfJkIgt5ZA/q7E7h+GGFYu7OqD5PeR2MWtnTkewbc8bqGVs8qelVrW5+z3H2snkt+dY2tyFfIljPJ3An8qqaVqjwSsrZdT/AAk8VxYqo0+UdON9TrLi5VRcXvyGJomco3TPb8zXJ6LbiaxluN7JvkxhOvGD1q1rN95unOyoIwwwEU8AVFpSGHSYR/E+Tj6muBR5nqN25rE97cFVCAsSepJ61nT6bHc6dNalcedgYUehB/pVqeVRJubBYD5VB61b00urQrIoe6nfCRrxx/h71aUXLXc0t7pkR2Fj4VdtSuJBLeOMQRsuFVj33YwOM1FqjPrWi2t693GWimNtJt4TJy2QfpgV2XiTSpdS02S1gQM0mE3EcDnr+Fcfr9va+HNCt9Gil8ySeYzMzNn5wAOPbFTUh3ZVNRsuVamfDrEdlIbW2ma9EY3uS38I67e4P1rotYl8vToVTmSeRV477cnP8q4/SLR4ZL69fa0n2dunQg816TpFjLcaar3oCQyR8h156df8Kx02ibSSi9SDwRbzSa1cT3K7ZETOM5xnAA/ImvRoz834VyHgSMSWF3dOB5rz7CR6Ko/xNddGfn/CvbwKtSR52Lt7RpENzzp5+v8AWsvS8jWpBng25P5MK1J+dOb/AD3rL00Ea0D6wsD/AD/pXoHIaiHEi/Wszxcm7TnPoM1oqcN+NQ6/B9osXUdcZoA4K1OUX6Vb6c/nWfATGzRuMEHFXw2VqCjD1W2UuXQ49q6vwUZTorq5O1JiEz2GBn9c1yeqE7+DXVeCXLaNIpP3Z2A/IVSBnXzjMSGoBzVuNBPakD7wqqUKtggigkQUtABpaAEpfejBoxQAtFHajBoASilwaNtABRRtPpS7T6GgBBmlpdp9KNrehoAAeMdR6UowexFARvQ08K3pQBHIPlBHY5qwh6H1qB+RtqZRgAelIC5GcrSkUyE9qlNAEZFRsKe7AVWkloAfkZxXI+JdNjuWZX/1UytDLx0VhjP4HB/Cuk83msjVnEkUo9FpgfPV1Zy2F5PazjZPA5Rh7g1Msx8oRNwOu4ckVvePbfbrUF2o/wCPq2R2/wB4ZU/+giuZgLMeh60jVbBNGdxTbkkZ3DofcVt+Fbp01RtOuI3ezvozDKV4K5BAPPWqQCgZGOlCTtBOjo2HUgg5xyKLCZqDwHqzSMvnWwizgOWOSPpiuh8N+HJ/D9zLKb1ZVlUb4QhAyOhzn6/nW3Z6hFd2UNwCoWRdxG7oe9JNqdjBkvNEuOpJqrIi7MYeBNIurua4ledjM5cqGwBk5wOM1pWXhvTNEYy2UJik4yxcndjnByaqTeLNMgbP2tcjsnNZd348tPuxpLMc9xgVLs0NXOlkbUFlMseoMC3O1gSAfpnH6UwX+owSmVzZytx94bSfyWuIn8Z3EpPkWx/Fqzp/Eepyd44x2wM8Vg6FN9C+eR6I+szyOXaLBPUJcEAfSivMTq+oZ/4+m/IUUfVqfYOeRiNATGVL4Le1FvbrGCqtu9yKlKkPyeamiUuoz6cAVpKSSuCRDtwSBx70+N5RIFSWRSeB8xFShEGd27PoKcJFQkIuFPY9aSm3sPlS3CO9v4S4+1yLtPQSE1Mmv6sn3b+XjrzmqUikAttHJzxSCM4O4ZOM5q02SzYj8W62gA+2Fh/tKKsp461iE5LRP9RisDDyE7sZx3qN1ZV4H0p3EdgvxF1BQBJbRn6NV6L4juqh5bNgB97DCuFj5wTz6cVUvpmlMdpGxBZsn6d6G2FkenW/xGspow3kzBfXbVpfGeiTAedHx1Jkj/8ArV5eAqxrG77ETog6nFTxRbmCliwPOCeaXMx8qPT113wnOvzwWTZ/vRAH+VSFPB11kLDaf8BYr/I15jNCAMgn8aBbq4684BH/ANejnFyHpn/CP+GZuYjJHj+5OaaPCOnvkwatdoPTzAa82t5GGdyMNvccVeiuZP8AlnPKv0c1V7i5WdxN4NZydmtFhj/lpCrf1qhJ4LvwSI7mxf3eLaT+QrnUvr5Gyt7OP+BZqy2sa1AglivDIg65UE0D1NE+DdZDHbFbN7xzFf51C3h3xPbH5FuwMc+XcBqqxeMdbUZ3xSADoQRT/wDhYl9ER59kvHdX/wDrUWQrsmE3imz4LaqmO/lBxTl8W+ILXMcl3Nn0lgI/lVuL4gyGFZfIBTvsbJFTjx9bsB5tq4HuoNK47eRSTx9qan5zaSf7ykVKPiBMT+8061cequBViTxNoU/FzYofQNBmqk1/4SnhyLW2EvHBBWi/mFl2Jj43tZf9bprKfVHru9I1GLVPDthfQ5CpvgdSeVIbgH8CPzrz6OLwhLtPlojdwJmx/Ouj8N6ro2kPLZJN/oNyRvBbd5bdmH9f/rU73FZLY6XTbWHUNRuraUlXMe6Nx1Ugj/Gs7ULSWwmeGZcZ+YEdD7irk6zaPqUN8oMkQ6svIZD/APWrfv7S01yw8uQb4nG5HU4I9waAvqcRG24nb1U8itzTp3zsdvl7Z7VgPpkuhan9nkEjKw+WTHykdvpWrHIU4A4pI0kl0LOpXH70oRwgDfj1/wAKxRGGuF3DMfX8AOakaSaa7lCEn5sADJJ/DmpmjMcblhFhhgHdgc8/gayluehSajFJFN4RO+47w/XKnkmodQ1Z47YWzP5mSFxjPucn9KyNd8TraA6fYyLJcniSVDkR57fX+VYMM11LcAsxKKvAHY5rOUrbFTV1Y7LTcttLYwCWNWdUvBHZSKp5YbQPXNZ1rOlpZoGcBmH41mahfeddW0KY5Ytz04qk9Dl5byOg0m4EWq2uAVbeqqobcrjpxXoccbBstmNM5CKc/mf6CvM9LeG0ngmLLkSBiTxnnOBXpKSnywc5+XINaQMars9CSWzjkhIiXAK4Irn5IMrNbyZUkFT+NdGkoC8HGeaz9WjUss0Sh3KngHr6VbRjc891uGDT7CaC/cssyEIIxlm44IHsf5VV8HXPnWssEhCsVDBMYJxwzfqtReIILqXUzJPI4BAAVx93jkCqWnSPpuoxXC4ZclWUNjIPX/PtWfKbKeljoNdC7IIVOHIZgD/dGAT+orAt5ktJ2SPe8zvtUkfd7UJLe6jrNzqd1E8MCxeRbwv125BJPvwPz9qbG8RvQyxN57/KgzwWPFeTjPj0Omn8JrWcZ1C6neZv9GiHJPpVLUvEEVsBHbRM4ztyo4HtXQy+H73+zEtbN4Qitmd5GILt+ArCbwtdtfGS6e3aIfdVZDz9eK5pKSVi6SitWVba/uZrO4uigjVBtToSWq9oV9cx3j3T8T9I2uDtQ54xnt1qabRbyUYie2QDoCxx/KqyeC7q4KteamGIPKhCwx+JGKws2zXmj1Oh1MavcW0McMkpL83DbggAx9xfbryK4zUtC1W81c300XCKI4RkDj8/Umut0/Q20wLBa6k6Rs2XVjvGO4UHIH+etbMzW9uYkVBLx949fxoct7CVVQehieCdLZbWW5lQB3kKKrdgvB/Un8ql8Xa5NbXiabbBnM0JVm6DkgAqe+MH862Vk+dCVRF67SM7vxqtLpcOtahE7QnzLdiPMUkbQSDj3qoNTtTRHtl7T2kjX8K2/wBg8O20eMPIPMP49P0ArdSTCk1WijCqFXAUcVIPmOAcCvo6NPkikedUnzybJJm26eQe9cP4g8XQ+FZopvszXEzr9wNjC+prsL6UbRHnAAya8E8X68utancNCS0QbYh/2Rx+vX8a2bsiErs77Q/ixp99qS2mqWy2KSsRHcB8qp7Bh2HvXpl2m6IHHTqK+RryKRmR1UkAYIAr6T+HXiRPEnhG181s3lsgguVY/NuAwGP+8BnPrn0pJ3HJFbU9ICSPLGuUbkgdqxmDQnHVfWvQJ4NpIxlawNQ0jcWeEDnqtUTc4rUlLDcBW94FlJgvYf7rq35gj+lVrnTpACrRtj6dKseHYjYSXDEEeYVHT0z/AI0h3O1hlaJsr+NWmmjlHI596zYriN1yWAP1qYTRcfvF/OgRZ+X0FL8vtVZriJRkMGPovJpFu4WyN20+jDFFgLXy+35UZHt+VVGu41J4ZgO6jNKLuEpkPz7g0WAtZX2/KjcPWqf2xFxuRwD3xxSm7TI25b6CiwFvcPWjcB61UF4mcOrofcZ/lTftfHCFvpxRYC6GHqaXePeqX2tCoIVw3oVoN2VPMLbfUdaLAXN4xS7xVH7WpY7VYgjjjFKLxhkNEw9CvNFgLu8elLuz2qiLtivEZz3zxR9sPGYnB7gEGlYC5gA5xTwaoNeSA5WIEehPNOW/A6wuD+FOwGirbeacZsis77ev/PGT9KQ3wPSJ/wBKLCLbvmq7NUDXTN0jI+pqF7gjkn8KYEs8oiTg/N2rHvHxaSsx6irEsu98sQBWVeyteOtpBnLnBPoO5pDPO/iA7LBoir98wOx+hc4/rXGr9oPQt9BXReOdQjv/ABLJHbndBaosCEH+71/XNYcaysBhsCpNFsItvOwBY4Huaf8AZ2H3pRj2NKSc7d/6Ux+P4s0ASrLLFF5a3UwT+6rEComaPdliXPqzZp6+UWO5MDGCeuDT2CIdqAHofagLFfG4/JGxz7VC7bGKsNpHXNaBlEUjhQN39KawjlbzQgyF6CgditGCp3iQLgZ6USbshid2ePSrCIhk/ecBuD7U3y44nwCXXPGO1AWI9gHXGfrRVkpCTnZ1/wBqigLGSpUAgDFWUdliAHeqMb+ZIFbK46g1aEqYYAbiV4PpUtXEmOLfL7mkQ/MABkngUmeMkDPoO1EJkVQWGH5P4015AL03AjoelLh3Ydk701tpdjuy5Axx3p6ybVwvfqaYDwmSdp4HU9qq/elbj6CrAJCn0ojVypODzz0piIZJFggLsCoAzwapWJ8xnu5AQG+7nstN1JmublLRASDy30q9sRFiibAUD5lxUsaFhIkZpJgMk/Io64q7DAvmFy3LL36gU2CCAAlWdhjq4xUbKnmMo3tuwML6UiixsjDqHfcoPBJpkhUKGzncflAp0oASNxBjj5Aarm5H2hdqgheAO3vQInjbO5mHy8UBSiCQMoO7GKbHMHD7FJxycU1VklYApt5xntigC3FcA/K3DVct5vKbBGUPWstyFQYZdob7vepVZosENvUjJ9qpMVjVawST99ARkjp61nXFmJAysNr+lWLa+aBtyc+1aoFvqEWeFkH6Va1JaOKkgms33xAgZ5BHWrsF5FPtVl8uQdVPetm4syPllXKdmFYd7pzod6gn0IpONwTsWHVpW3Ek80ySzR0EoIJ/u1Uivmt2Ec3K8Yb2qf7QQxfaNrcgjpWdrF3uStvMe0hQq9MdqhhQnAPBPenSySb1Hy7GGfelgH+kKVGeTx2NAHXeHfHd54etxa3aC904dI5D8y/7p/p0r0LRPGnhi6jxaaiLMnkwXQ2hT7Hp+RrwbVBNI3zuE8sgiNemP8adbyxpuYgDOML3p3FZM+kdQks9ZsdkN1aTSryhjlU59R1rn1fycJJnPavFhMGc84JrufDXiKOTSfs2pTBZrNMo7fxx+nuR0+mPSi44o15JpNjo7tE5JLoRjdyCOe44/nSQ2sLIwRC28Ybd0P4dK868TeKLy8mMsNzJbrnbFHG+Co9TjvXQaLqt+r24ku5XUqNwY5zUqHMzd4hRWx1lp4PNxGZbfSbQJn72xVya1tM8JWsM7SX+nqqqOFj/AIvrjtUE+uapZWapb3IVFHy5jU4/SuXvfiX4k0pwLq2spIm+7L5ZAP1weDV+yUTF4iUz0ZtC8Pvjdp7DHqG/xqL/AIRfw0zbjYkEd9z/AONcBafFrVbjk6ZaFP7w3DP05rZi+Jk5H73SkP8AuzEf0p8pHNJdTqT4V8OOoVoWAHT964x+ta9taWFvEsUcrbFGAGYnH51wx+J8CY8zS2BPpNn/ANlp3/C1dJUqJLK63NwFjAc5/Si1hczZ35t7WQY88gezCqc2k2RJIvZR7Bx/hWRF4ysGt45pLO7jWRgqh0XJJ/GrLeKdKWWOJ451aTO3MQOcde9OxNyG88OWF2AJr4uB0DlT/SoovCunxDEN3GnrhVFWZPE2irIsbs6u3QGI81Tn8Y+GoHxLdKhHrC3+FKyHzMSfwfbTqf8AiZD8hVJfh7bb941Uhh0IUZH0rQtvGHhi6cpDexO3p5Lf4Vftta0C5uDBHcQNKo3FPLOQPXpWcqNOe6LVSa2G/wBgSC0W2j1FFQcliuST+dUZPCFww41ZOuf9X/8AXre83SM8SQ5642n/AApVuNHbO2e3/OpeFovdDVWa6mCvhW9UYGqRY/65f/ZU0+F74LzqETj024/rXQ79KfO25tz64kH+NJu0xulzBwe0w9frUPA0H0D20zA/4Ru7Q5W4hyOmBTP7Cv0bPnQtjsa22bTh8ou4CcAf64f40xhZk8Sxn6Sj/Go/s6h2/EPbTMo6fqLSIheCOAHLsrZZh6DIwK14IfJjWNQqIOw61GFsycCaMn08wf402SXToOZbqBAP78wH9a2pYWlS1iiZVJS3LpdRjkcdhSGbaOBzXP3vi7QNOU79Qhcj+GE7yfy4rgvEPxHur5Gt9KjNrEeGlY/OR7elb3sTZs1viB4tS3t5NJsZQ1zKNs7qfuL3X6mvK1zjpUmxnYsxBJPJJ61J5G8YCj8GqJamiViHpzitbw74gvfDOqLfWTDkbZYm+7Ivof8AHtVM20iDcI29RhhTRFIyghZMdxszQkM+hPD3jLSvE1uv2eYR3OPntpCA4Pt6j3H6Vqy7FOSpFfMyB4WDbyrg5DbSpFbtp448Q2SCOLVZXUdFkIf/ANCFXczcT3FpICeVyfXFM32/9w/lXlkfxEu5YgsuozQyY5byEPP0xWVN478RrKUXV9684dYlAI/Ki4uU9o8yHH+rP/fNJ50WP9Ux/wCA14i/jDxK3XVbgf7o/wABVZ/FHiBgWOsXgAPXzGFFw5T3gTqOkT/980pmBOTCxP0rwE+Idec5/tm8/wC/7Cm/2zrUgy2q3bD/AK7saXMPlPoATEDAhf8AKkMrdoG/Kvn7+1NVA51K6x/11NMbUb89b64P/bQ0XDlPoXzXwP3LUeZJniA188C/1A/du7g/SQ08XOqt0muj/wADNFw5T6EMk3/PFqTfN/zxNfPRm1GQ4a4lHu0hpxW5U/Penn0Ymi4cp9BF5v8Anl+tJ5s3dF/76FfPjSPj5rmRv+BVEXPXe2PqadwsfQ3nSdSIx/wIUhnkHVovxcV87tKFUnccD3qE3SsGIdjt6gZpXDlPoz7UQOZYB/20FBu8Hma3H1kFfN8NytxEZFDgZI+Y0iyFiSQQB70XDlR9GnUYlOHvLRfrMv8AjTf7UtQMHUbL/v8Ar/jXzuZZVYMshx6ZqeO/mVsAK6gc5FJyZShHue//ANrWf/QSsv8Av+v+NL/alof+YlZf9/l/xrwcajbH/WxMPUrzVqGSzmcRxXW1j0D/AP16lza6FKnF9T2uXVbPYx/tOyzg4AmXr+dVRe2zDnUrLn/puK8jawnXn922e2MfqKYLVw4BQDP92Sp9qV7Fdz1uee0VC82q2caDqRKDXGeIvG9naWslloRaSaQbZLojGB/s1iLaF7G43r8nlN0OTnBrk1BUDPSrjLmIcFEfEGdiXPv7mptpyvJUH2pkaGRsg5X2NWAOMbicDkGmAzacg5yM9TUkMK+aTnO7tSAORwcA+opyoynG7HGODTAatuoYguSQc4qWSJCTJhyDzgH0oYghcZZ9vX0p0eZY3ycbRwR1FAFeQDzEbGV/pQCqRkKT83GKbvL7SDkd9vFP2Bgd+Qw5GKQByxClvvccGgRhUI98daeinKlWGRzkip1i3hxgE7uWXsaBlUxjPGKKvjS7ogFcYPTIopiuYHlpcgehp3lCHCM25RwD6UyJ/nIxnBycDj6VIDvfHPNS43EmLsC84oL/AC9MGkwVOPw5pPPUoUSIqAeSx60bAOCALuwASOKbgcKT1pzAqM55xxSRRswLDkrzzTbsC1Hhjk56dKlZ1trd5WP3egp2E2oAMP3rM1JvtF0lop4+9IM9qlO42rDNOiLyPcyfel6cdqvNtJZCSSOflX+tIGYRKqIcnj5RzRCV+YmUH5hhQMk0MEWtsW4yybT04zxUUd1LAZH2iMk4wBU7q6HzWbCrncp9KYY4HUyvKGfHAHQGgbFeQuFcjzH2gAGs6S3lkm6cg4I9KsyvtViVJGflXPr3pUJGxVByoOQvfNMQiRrbIcvgnrgUvmFeUkyW/hHJ+tKsRGXAzu+U5/pSi0XzQeQFXntk0gIJJxBCd24sw4Y9DRZXT7gTjpxx2omH2nBYg/MQPTFGwK+9WzgYIBpgWd4ycHbgdMdamguWjcFWxjimxeXIikoQwAID8fnUcku6ELhV2MclegoTEdBBcrcR9QT3FV5IWQFkOVPUGstJGhKsG4blWHQ1q212twNkhAY9D2NUmS0Yd9ahslV/D0qiryWrADkdSprpru32Pnqp71GbWG5UhlAIHJ702ri2MeGeJwXJ3Edj1FTk+Yyn7jdhUd3o8kDb48j0PpVN5pJCFZxG44344NS4lJlq+C3oaNDmZBz71nxlS/mMVDI2WQmtWWFvlkRQzyDGQe/rTZrG2kUrKi+cMjcB1qShl1PBKqoJBGv3y3oKpy6jG6NJCrtgYz6U+0sPtGQ2WwOc9/atS2sFa1kjnUAsP4aLAjmyzXZAUZIFd1pO4FcnkRLgfhXL2djFFau5yS8jbR6AcCugsrqK3eNdrbvIGeKuGjM5q6OlOt/6OElONuOTWFqN4urxG1iT9wT8zt/F9KpylrggydB0XtVu32qgIxjtWjdyFG2pLHaxxIigDCjApssqoDziobi+WNSM4/Gk0rSb3xFMpTdDaNIEaY/rgd6GyiGG2u9du1srGMvITgv/AAoPUntXcaP4ZttJ02+u8+fdIrosrDuBg4HbnIrW0qxh0kvFAgS3jjZU4+8w+8T7nA/KnzMthZGGVhtfbIM+pI3CgVytqcZl0uz+zqWKSRsoHfH+TVfWHUQWVxEwDRyZB+o6GnanqaWETqrDyw4eM/3TnpXEa54kFyZEtsiNuWz0B9RSbsCRo+Idfglto1QFbhWz1+6aztK0e41eUXWpTG3tCev8cn09PrSaHp1pLCt/PMtyzcheyfX3rUnnMrAKSfQCocrmkY2Nd5tO09RDpsEaLjGQOfqT607wsfP8ZXoPUWQP47q51riOzBkmILD7see/vSeCdUubfxNeXd0oBnhIUDtgg4/KoGz1hokRw7YA2AHNZzbLOGZtytHyQe9YOq6xc3DNtYqp7CsY390ybPNYr6ZqrisdpbErH2KvznFRw2rpcEnBRua5WPVrtIvLD8VZg1+6iXBw31ouFjY1nQIrkbgMH1HauM1DS59Pkw5yh6MK6aLxNITiVMj2rC8R6mtwN4GFUcD37UXGjidQuSbxlVjtU44PeqzSuB99vbmr40YzIZmkKAnJJqOPSy7YPnYHGdvWizDmRPpwjuVUyIrAHBzV660+38hniiKOoyOSc1WtrFrOQgb2Q/MNw5Bre2AwgEZGKpIzlLUyrPT4LmAtvkDgZOD0/CqlxGbZCyMWwf4q1LULBdyp2ZeKzblxNaXHqpB/Ch2Gm7lP+0SOGz6VYi1IxEEEjNZLRlm47U8OxA3YGDUGpvLrYGN2w+xp7ajZy8GJGPfOKwWQlcgdqFgVRvbqR0p3FY29+nyfet1HuvBq1YaVp1+r/wCnfZ5QeEZc5Hr1rmxDgeYrkL3oCndgM2M8HNO4rHTXXhswRGWK8SYDshw2PpWYYUUH/SGx24zzVKNp1JAmcAf7VAndiF+bOeppAkaYsYmXIvWx6EDrSrZ2yKDJcOT6A1nF3Emxjz2pjTEtlSQKAsabLYoclGb6k0jXNsB+6hQc9cVmsGmGcgL0xT0j27uSFAHNFwsX/wC0Bj5EHHoKim1ItgHgGo9q/Z2+br1I7VAygurKNwA6etFx2JxdM43L07VDJNKWxkflTCgRMKCATnBNOVS3XtQFhreYwBGeTiiKPDqc5PTmpSM4YHkUmNzsW788UBYhnVotyMjcc/WmBcoWAGWHODVwxttBJZh2JqM24V2YtnH93scUAUNOGYJYehLZz7VZgGJSrjqO44qnbOY9TdWwQf1rTkCsCUBBHJNAEZTagIzgHg44qbCZTzOGdeMnHNIgXBXByeajdXLYI3DH1A4oGI8ILbgpB7/WjbvwpBDH0pVkEZID546GlQASHPDY7HtQIegkRgiM6MoyWDHpUses6knPmJKingugJFMjik3Egc+7UxlZ5Gj4Ax06Umkx3ZPJr1/KwUPGiMMN5aDp+NQGEgBWwykZ3GmfZ9jZ559KkEjuApOccDNCSWwXvuNA2nCKR2qaJ+RyGBqNwRIBnnHINTcAbk2j0yKoBSzdO1KMEbj9MgUhfYv1FCoPvA4B5I60CAMFP3eD2JqWMtksqgL0IqnNIUwQu8VLEdzbjnHqaQDVjEbk4Iz70bCrHGCO+KsbWZDlcjNW7bRriUqVj+Vm6ntQMqQxsdoWMnJxxzxXXaJ4cZ4WnkPqORwTV/RPD0doqifrncd1b/kxwEbCVUf3TwR/k/pSYmylBbQxwqjwSlgMEgcUVbku0ikKOELDr9aKVxHh5JAxSoDksfoBTthbhR05JpXBztXHHHNWSRuWUrjnNSbN3XoKUx/d56HNP4C5Lc+lS30KSGMoPJFPRsjA4HcU3hmGfyqQbgmWXv1piIrmf7OhkJ6DP0qlp8Lyl7h8B5TuLeg7U6+P2q6itVHyj5pCPTNX2UCIEYCnjg5OBSKGBgSWLsirkDA61X3JvZ4gCoOCeS2KmVPMGQwK7jlWOKfviS38ohNzHDYPzH/61ICIPI6BmLEA4Udvellk2xiJYioPO7OMkUFJ3J2OBF6Z7VNiOJRNj/ZC9cUwIfJfliNxI6k1YjZ7eNIyoVWBcEdSR2zUYkKq2XULk45oVC+x5HyRzz/hQMdHu813jJODvKnpViadNiFeGIJIx7c1VBWMtkr8/Azz+VSkvwE2lGTaPU0hDEkjDRRpgoR9PzprkKcfcwc5A5pYIzHIWVQoXAyafKYD5iFV3Bs5Iyc/WgCpPJJt3x7yrKOvfmohLsj2s2RIcH1yatPM0cQVFG1W496PKDQqB8r7uEYc+30piEgjhaTyycjGeT6VbEToQV59AKgjt4o9wuGRpX+6WGAOe1TRgR+eQ65zkf0xSGXo7wsphn4PYntVm3VGwpIDdjmsOaR3G+KLeeN5zkjFWYZnTacdt2D6VSkJo2nUKPLmHB6Gsi80lJVO3gVsW1wl5FtJ5HUGlMTRHIBdO4NWQckhutPJyN8foe30qYXiMu4Hc3Xaa35reG4jyBziucvtNkikLx5HpipcRplq3k8h92Djqy47VDqckjKTExVSMYB5xVe3u2ikCzAo3Q+hFdtpHg24vPIluNixyfOq9ePWpUW2U5KxyGn6XPdxiU+bDGWzg9xWtIqQRnHOBjJrstU0eO10SeWHLSQuA3071wlzOjRNk43e9aWsZ3uW0x/Z7XxKiNc/XIrIbW5keGOSzkxP/qtpySPXFT6PpmpauZbeDizHzzSN91QPT1PtXfy+E4Z5bB0QxmbCNnkhcZ/ClqO5ynh3w9LrmpI0vMQ5cZ4UD+fNen6XZxQ6XIsKBDB+6RR6rz+ppLSzt9G1IwRKqxeQqqAO4Jqm2prZ6jeRyNiOVg6HsDiqSJbLBnF/oXykLKVY59G5zXPaxr9rNoxWVsPjaR3DCsbU/ED6dcXEUDho3YuFz90muTkuJdQnaSR8sTzgcCpcrDUblm61W6vkETy4QD8TVQwLPGRjK/1qCJtsrHr2Oa0rRIgmB3NLcu1jMt7q70W6DIf3bdVP3W9jW9P4oEluGhhEYx8wHaopbRJlwwyPpWTPZNZt8gJVmOB6e1JoExbu7kuW3O+PX2q7oczRavauzHaW2E59RiqJ8sodsYD9x6/So/Oa3lQxAhQQwJ9RUlHqEqbk/SqTWxXmrdlcLqOmxXUf3XHI9D3qO4DswA6ZqgK3lYphU54q6IiRzTHCRjrz6UDKfI7c1zWu6g32jyImGI/vn3rV1rVhZqY48NcN1AP3B/jXHFm86RjyGPI96Qi8mpStjedyDtmr58RyouVhTpjGetYYXaAVHynrUzIu0Y6nkk0XYcqNW31l7mdIZYl2ynb8uc5rdi/1PBYjHQmuNhkMUsUsY+aNw4/A5r0XyoL1DPEdnm/OB25q46mc0kcprF0bPypABk5Ws/SQ0lvc784kXK59q1tasRJCI3Y7g4x7dqYsaWkUITpgr9al7lK3KYhxkAfmKCAMkCnfKr7ScZNK2M5GCO9IoQEmLOOvfPepQQApI6+vakBTygRnOfu+tG7knGaBjWCgYzjNCh8fMvy9qmRC45APPGRUpXYMeo6GmAFFCAgcVCAofA4GOKemWQn5ic4pRkqFOOOoxSAgKyysCWXK8k/0pAnmAkFgcdBVnaSOABnqcU11EYJUbc4/OmAxFZAdu1uuakG6XIx970PFRLkt0IB71Ip8scD8qAEELYIYkdgD3p0cXyNtOGHenb1aNS+d+eOOlCKGkxu2t6etAETRlV2lsNnj3pVUqOalRGLMHxkHgUqqSd27btPIoAqx/OeDwTyDUioRJluQO5FSsm3cQB1yeKI2Rtm7O08kf3aAImZhhG6A54NN2sR8ucuOWIqSdgx3c4H8WOKSLdHGMtweoNAFK6AjuoXwCQQGI7cVbWUeZh04IxxVS8j2LuJ7ZyPUU8FxKpByGHrQItRfvIzjIIOOalRvLR9oGDwSeDVSPdksM49qmkbbgLnPSgYpZC4AAAwaVldtpxhccEetV1BxlgTtOc+nNWo1LLjJCN09qYhCAWMnQg81L5QELnZ82eozk0FXUBSvI549KmhZTLvEgAUYbNDGRyIBbAqgznkZ5FVlC+YdwOe3NWpZ2+3NEXXBGRx2qKYhtrggkHoKQrEToTkg98DJp6R7lJYH5Bn2pWCcFWIB7elS7CGBGCcYyKYyPyzIhzjgdRTkiLHaCVxgfWnQKd+SAAPXpViVMnG8LjBxnpQIzzGyzmNicdME96ljUiVsggjrj+lWI7SW5nEK43O3DN0q1NoV/by7miG3PDA8ZpDNHw9pKXkiuWyRgbT0FdxDZ28FkzBfunDAjBBx2rE0HSzZQxyyMrOxG4I3IraDEzuJFcKw5b19RjvU3uJj9mVV2O0uvQc06QsFO/JXYQNo5/z0qG2jRPlCgqxO3Dfd9jUrGaFGd0+XAGc5x160BYYbDJyPMx7AGingXxUFIGZTzlXwDRQB4mA65DDGacoycjp39ac8m4/dwB0560g4Jx34NXckXH/1qa4HIyOnrTj1HpSEbm5GKYCJGoOQTwOpp8rrHbSTSHYiA8k0OyqgIHSs66ka/uI7McIp3yf4VLC1ySwhKwtcSgl5TuAHp2qZp5JJE2xMpzg54wPpU28KEEo+QHnj8qml/cXRB2M0mME9gOo4pFFSVtjsYQu1RlQ2eT7UkKbokfaN/II9fxq2LW3MbZkO9yWXA6e1PRQ0UZRQF245HNIBqIhCBUckYXceMVFKS8gRgu0DIHY0rTu6eWMgDAPc/WoiFRhu+YsfTnFUDARhR8+0N0wKlDCMEsrFAOoH86auzeGPY96nynn5TBBXPI6UhjJEDvhCMgcCpWtltj+8dQx4Klhj6iq5coHdUU5wFCmoxOvnhnVDtIAPYDrzRYRN5zjrkE9M96ftjeIOIt7scndkc5x1qCN0uZWYh1PQE8Zq7DGnl+WzggnoTjOKTBEIl3P5KKPMK8KOQMe/emIrwnMg2NuwCV65HQUsoELKyj5sg7hnIHSrYWORoiqDbFls9M0AFwySR+Z5ZYKDsBPAPpVcBGtyAhCg55bqen6c09piz+Uzli5yoxgD8amnsFjhSXcVVufmPTjg+/NFgKMU2yA+UGZegRhyfU1YE7HklVUHB9BQqKgEeAcc1HOg6gHeevTBpATAkBZY25/vDjNalpqKy4jlwrjv2NZE0gjRFwFHUn+mKithPISBE0ju3CICTVJiaOkkhDcrwf51Sm+6VkXBHer82l6tpVusl3BugwNzIdxiJ7N/j0qJkS5i4wQe4rQg566tVkk3KM54rU0PxTf+Hp4kkLXFmmR5TtyoP909qZJE0L7WGQaGskuFGMg0B6nXS+LtNeKaZJA9vOMshHzK2OhFeeobe/8AEdvATttpbhQyk4wpNSS6W8bkrg5rOk0y5gmF3b5cDkp/EpHcetDYkj3Kx022isZLZFWMSMF2KMDaen6VJcXKG7t4fusoI/EYrntJ8VW2p6Xb6gjL9ogIW5izyD0zj0rP8VeI4UaOazkDSqc8dxVaWJ62N7WNWhjc+cwQlNpJ7EdDXnut+IzcSMIWycbS47isnUNZutSkzO/TsOlZ8SM7ndnBbAPrWcpdjSMR8rs7bnDNhgSQc5q3ArAhUIAxlz3FQxyFHVTjBI/HPFWWiEEM7c/N/F6mszQx7lykcwBOXIGQemTUmm3j7CJGPBwp9qq3jEIm/IJJPT0FT20aLbqTyx5FUT1OkgufUgg1cwrrleR39q5hbprd9uCTnpWtZ3qyDcjcjqpq0yWF3YAqZEGDnoKpXFq7DDfKw6Hsa3be6iuSVGA69Rmo7ryfNS3Y/O/QelDQJmboevXehzksN0BOHhPQ/Su9stf8N6mw3XD2bnkq/SuAvbHAG7kjpjvWY8UkUmCoKEfeqLFXPUb+/wBBtRn+1/MA/hjHNcpqXi6PDRafEUyMeY5yTXMgBsggUvk5b94CpxkHNADm82Z90j7nY/M1DqFKqBk9zSqmZFfgDJOKRWBIx09TQUPTGxQSM5yeKc20ueTkUzaSSAvFPKqVA24x/OgB6ogCjGD/ADrqNDu3k05I8ndGSh/pXLbgTwfxrX8P3OZ5ot67yobBHfvTi9SJ7GjqUfmcs3zjBH51W89J32vGo2kYb3rSZAT5koDbvTgVReCOOViOFJ3Ypy7kxeljCul/0h1H989aSVRu+U8VY1ARxXMhcZB5qArhQAMVJoQhSHBLEj6VLGoLHr6ilQc8mhVPr3xQPYmi4dS3GPWrJAdgRj3qIIFHODxkEU0DJ29uuaBiOP3mN+G7elSLGFQnv3NN3MwZMn6UzeygHGT6etAiXachs8Htng0pVc5LAnPApiHcNzHBOSop5byiVbkHkEUAIyZGAMkmkYKh2kEE4BwafHGSFYvlWXkZoKgq/OAOOaYDfLUA/dwD3pcgvyOn508jKjJBOME+tIsbBiQAcjjJoAaFXcpZsM3Q1ISNuD1z0FM3FtrvgnGCMVXAJnC84z0PSgLj5WAJCk7j2PamQuevIIHO6rL2wdvML7WHUY/Wogj27EEhlIyCKYFSSXAYBSAeakE2YRGVHSmzH5sKzY69KhHIJIzjvSEPYAqAAcYxg0RKXtYZBzgAEfTilbhBj8KfYSbvMiwCFboPegCzFH8ucjB/UU/91tbdjOOCe1NC+WjYycHp6VExIJA7Y96YNifumyh3c8gqadGNsZZHI2nBHcimAb0B6YYg8VOVO/y1CsCMZ9aQIkfazJgnH15/Govs7A5znP8AEDTy4SJQCTk4GadEdqIGfK9z6Uxkbgb1MikcYRzUkbBPlK7lIxkgcUXDKrrGHLDt6H8KjkfDEs4BzikApR8gKduRzShZI3Ukfu80LcMynAzxgHvmkkVwAxDsM5+U9M+1AiTdnOWXHQjPOacshUq6Ennv0qiZjJIMY3A8k9/SrABjJy4APamFy3b3TfaFJYIgbgV2+jazFcQKlw+XB3bv7o9K852Aq252OORitKysvtZQq7hG4ZwcFaTQI9MhvrCSMYlC/wC9wRg9KRnt3fzBKJABggHpXFzeH7+2jwswIILZLYz71BJZanFGsqSN9O9SB3UU8ZfaxUx5wc+tWEtEMB3zAkEkjPB9sfjXnpXVPJErA9eRjjFWYtWv44AqwbtucnHUf40Ad/HIwjAyABwAASKK4WLXbtowTGxPvmigZ//Z;clipPath=inset(7.33% 10.18% 26% 1.33%);" vertex="1" parent="1">
                    <mxGeometry x="3" y="1" width="920" height="920" as="geometry"/>
                </mxCell>
            </root>
        </mxGraphModel>
    </diagram>
</mxfile>